%TF.GenerationSoftware,KiCad,Pcbnew,7.0.8*%
%TF.CreationDate,2024-02-10T10:33:56-08:00*%
%TF.ProjectId,Power Distribution 2023-2024,506f7765-7220-4446-9973-747269627574,rev?*%
%TF.SameCoordinates,Original*%
%TF.FileFunction,Soldermask,Bot*%
%TF.FilePolarity,Negative*%
%FSLAX46Y46*%
G04 Gerber Fmt 4.6, Leading zero omitted, Abs format (unit mm)*
G04 Created by KiCad (PCBNEW 7.0.8) date 2024-02-10 10:33:56*
%MOMM*%
%LPD*%
G01*
G04 APERTURE LIST*
G04 Aperture macros list*
%AMRoundRect*
0 Rectangle with rounded corners*
0 $1 Rounding radius*
0 $2 $3 $4 $5 $6 $7 $8 $9 X,Y pos of 4 corners*
0 Add a 4 corners polygon primitive as box body*
4,1,4,$2,$3,$4,$5,$6,$7,$8,$9,$2,$3,0*
0 Add four circle primitives for the rounded corners*
1,1,$1+$1,$2,$3*
1,1,$1+$1,$4,$5*
1,1,$1+$1,$6,$7*
1,1,$1+$1,$8,$9*
0 Add four rect primitives between the rounded corners*
20,1,$1+$1,$2,$3,$4,$5,0*
20,1,$1+$1,$4,$5,$6,$7,0*
20,1,$1+$1,$6,$7,$8,$9,0*
20,1,$1+$1,$8,$9,$2,$3,0*%
G04 Aperture macros list end*
%ADD10C,3.000000*%
%ADD11RoundRect,0.250001X-0.759999X0.499999X-0.759999X-0.499999X0.759999X-0.499999X0.759999X0.499999X0*%
%ADD12O,2.020000X1.500000*%
%ADD13RoundRect,0.250001X1.599999X-1.099999X1.599999X1.099999X-1.599999X1.099999X-1.599999X-1.099999X0*%
%ADD14O,3.700000X2.700000*%
%ADD15R,2.300000X2.300000*%
%ADD16C,2.300000*%
%ADD17C,5.400000*%
%ADD18C,2.780000*%
%ADD19C,3.250000*%
%ADD20R,1.500000X1.500000*%
%ADD21C,1.500000*%
G04 APERTURE END LIST*
D10*
%TO.C,J3*%
X258438000Y-130136000D03*
D11*
X254118000Y-128636000D03*
D12*
X254118000Y-131636000D03*
%TD*%
D10*
%TO.C,J7*%
X220106954Y-143471732D03*
D13*
X227406954Y-143471732D03*
D14*
X232906954Y-143471732D03*
%TD*%
D15*
%TO.C,J4*%
X247118656Y-134823190D03*
D16*
X241418655Y-134823190D03*
%TD*%
D10*
%TO.C,J2*%
X258437170Y-118772698D03*
D11*
X254117170Y-117272698D03*
D12*
X254117170Y-120272698D03*
%TD*%
D17*
%TO.C,He2*%
X216261552Y-110046013D03*
%TD*%
D18*
%TO.C,F4*%
X242142109Y-116624653D03*
X238742109Y-116624653D03*
X242142109Y-126544653D03*
X238742109Y-126544653D03*
%TD*%
%TO.C,F1*%
X249803045Y-116656593D03*
X246403045Y-116656593D03*
X249803045Y-126576593D03*
X246403045Y-126576593D03*
%TD*%
D19*
%TO.C,J5*%
X218957598Y-129624000D03*
X218957598Y-116924000D03*
D20*
X221497598Y-126834000D03*
D21*
X223277598Y-125818000D03*
X221497598Y-124802000D03*
X223277598Y-123786000D03*
X221497598Y-122770000D03*
X223277598Y-121754000D03*
X221497598Y-120738000D03*
X223277598Y-119722000D03*
D16*
X222387598Y-131404000D03*
X222387598Y-115144000D03*
%TD*%
D17*
%TO.C,He3*%
X259964739Y-109776346D03*
%TD*%
D10*
%TO.C,J1*%
X258374747Y-141520493D03*
D11*
X254054747Y-140020493D03*
D12*
X254054747Y-143020493D03*
%TD*%
D17*
%TO.C,He1*%
X216462748Y-149860000D03*
%TD*%
%TO.C,He4*%
X260032210Y-149795663D03*
%TD*%
D10*
%TO.C,J6*%
X220040129Y-136378443D03*
D13*
X227340129Y-136378443D03*
D14*
X232840129Y-136378443D03*
%TD*%
M02*
