%TF.GenerationSoftware,KiCad,Pcbnew,7.0.8*%
%TF.CreationDate,2024-01-13T11:06:47-08:00*%
%TF.ProjectId,Power Distribution 2023-2024,506f7765-7220-4446-9973-747269627574,rev?*%
%TF.SameCoordinates,Original*%
%TF.FileFunction,Soldermask,Top*%
%TF.FilePolarity,Negative*%
%FSLAX46Y46*%
G04 Gerber Fmt 4.6, Leading zero omitted, Abs format (unit mm)*
G04 Created by KiCad (PCBNEW 7.0.8) date 2024-01-13 11:06:47*
%MOMM*%
%LPD*%
G01*
G04 APERTURE LIST*
G04 Aperture macros list*
%AMRoundRect*
0 Rectangle with rounded corners*
0 $1 Rounding radius*
0 $2 $3 $4 $5 $6 $7 $8 $9 X,Y pos of 4 corners*
0 Add a 4 corners polygon primitive as box body*
4,1,4,$2,$3,$4,$5,$6,$7,$8,$9,$2,$3,0*
0 Add four circle primitives for the rounded corners*
1,1,$1+$1,$2,$3*
1,1,$1+$1,$4,$5*
1,1,$1+$1,$6,$7*
1,1,$1+$1,$8,$9*
0 Add four rect primitives between the rounded corners*
20,1,$1+$1,$2,$3,$4,$5,0*
20,1,$1+$1,$4,$5,$6,$7,0*
20,1,$1+$1,$6,$7,$8,$9,0*
20,1,$1+$1,$8,$9,$2,$3,0*%
G04 Aperture macros list end*
%ADD10C,2.780000*%
%ADD11RoundRect,0.250000X0.262500X0.450000X-0.262500X0.450000X-0.262500X-0.450000X0.262500X-0.450000X0*%
%ADD12C,3.000000*%
%ADD13RoundRect,0.250001X-0.759999X0.499999X-0.759999X-0.499999X0.759999X-0.499999X0.759999X0.499999X0*%
%ADD14O,2.020000X1.500000*%
%ADD15RoundRect,0.250000X-0.450000X0.262500X-0.450000X-0.262500X0.450000X-0.262500X0.450000X0.262500X0*%
%ADD16RoundRect,0.250000X-0.262500X-0.450000X0.262500X-0.450000X0.262500X0.450000X-0.262500X0.450000X0*%
%ADD17RoundRect,0.250001X-0.499999X-0.759999X0.499999X-0.759999X0.499999X0.759999X-0.499999X0.759999X0*%
%ADD18O,1.500000X2.020000*%
%ADD19RoundRect,0.243750X0.456250X-0.243750X0.456250X0.243750X-0.456250X0.243750X-0.456250X-0.243750X0*%
%ADD20R,2.300000X2.300000*%
%ADD21C,2.300000*%
%ADD22C,5.400000*%
%ADD23RoundRect,0.250000X0.450000X-0.262500X0.450000X0.262500X-0.450000X0.262500X-0.450000X-0.262500X0*%
%ADD24RoundRect,0.243750X0.243750X0.456250X-0.243750X0.456250X-0.243750X-0.456250X0.243750X-0.456250X0*%
%ADD25RoundRect,0.243750X-0.456250X0.243750X-0.456250X-0.243750X0.456250X-0.243750X0.456250X0.243750X0*%
%ADD26R,3.800000X2.000000*%
%ADD27RoundRect,0.250001X0.759999X-0.499999X0.759999X0.499999X-0.759999X0.499999X-0.759999X-0.499999X0*%
G04 APERTURE END LIST*
D10*
%TO.C,F5*%
X228180000Y-126460000D03*
X231580000Y-126460000D03*
X228180000Y-116540000D03*
X231580000Y-116540000D03*
%TD*%
%TO.C,F2*%
X220560000Y-126460000D03*
X223960000Y-126460000D03*
X220560000Y-116540000D03*
X223960000Y-116540000D03*
%TD*%
D11*
%TO.C,R4*%
X233419645Y-141973749D03*
X231594645Y-141973749D03*
%TD*%
D12*
%TO.C,J3*%
X261902214Y-114506100D03*
D13*
X257582214Y-113006100D03*
D14*
X257582214Y-116006100D03*
%TD*%
D15*
%TO.C,R2*%
X217344495Y-127279655D03*
X217344495Y-129104655D03*
%TD*%
D16*
%TO.C,R3*%
X246374393Y-111090103D03*
X248199393Y-111090103D03*
%TD*%
D12*
%TO.C,J7*%
X249166756Y-102577783D03*
D17*
X247666756Y-106897783D03*
D18*
X250666756Y-106897783D03*
%TD*%
D19*
%TO.C,D2*%
X217354132Y-132660000D03*
X217354132Y-130785000D03*
%TD*%
D10*
%TO.C,F3*%
X239200000Y-116540000D03*
X235800000Y-116540000D03*
X239200000Y-126460000D03*
X235800000Y-126460000D03*
%TD*%
D20*
%TO.C,J4*%
X248670001Y-136188687D03*
D21*
X248670001Y-141888688D03*
%TD*%
D18*
%TO.C,J5*%
X227862275Y-106931171D03*
D17*
X224862275Y-106931171D03*
D12*
X226362275Y-102611171D03*
%TD*%
D22*
%TO.C,He2*%
X216522170Y-100948890D03*
%TD*%
D12*
%TO.C,J6*%
X237831218Y-102637707D03*
D17*
X236331218Y-106957707D03*
D18*
X239331218Y-106957707D03*
%TD*%
D23*
%TO.C,R5*%
X226000000Y-111500000D03*
X226000000Y-109675000D03*
%TD*%
D15*
%TO.C,R1*%
X252890185Y-118884519D03*
X252890185Y-120709519D03*
%TD*%
D19*
%TO.C,D1*%
X252899117Y-124302636D03*
X252899117Y-122427636D03*
%TD*%
D24*
%TO.C,D4*%
X236997424Y-142000000D03*
X235122424Y-142000000D03*
%TD*%
D10*
%TO.C,F1*%
X243420000Y-126460000D03*
X246820000Y-126460000D03*
X243420000Y-116540000D03*
X246820000Y-116540000D03*
%TD*%
%TO.C,F4*%
X229040000Y-133800000D03*
X229040000Y-137200000D03*
X238960000Y-133800000D03*
X238960000Y-137200000D03*
%TD*%
D25*
%TO.C,D5*%
X223500000Y-110062500D03*
X223500000Y-111937500D03*
%TD*%
D22*
%TO.C,He3*%
X263495160Y-100967233D03*
%TD*%
D12*
%TO.C,J1*%
X261838888Y-125814569D03*
D13*
X257518888Y-124314569D03*
D14*
X257518888Y-127314569D03*
%TD*%
D22*
%TO.C,He1*%
X216462748Y-149860000D03*
%TD*%
%TO.C,He4*%
X263518251Y-149932561D03*
%TD*%
D26*
%TO.C,REF\u002A\u002A*%
X256000000Y-149860000D03*
%TD*%
%TO.C,REF\u002A\u002A*%
X224000000Y-149500000D03*
%TD*%
D12*
%TO.C,J2*%
X218142573Y-140269463D03*
D27*
X222462573Y-141769463D03*
D14*
X222462573Y-138769463D03*
%TD*%
D24*
%TO.C,D3*%
X251775000Y-111086270D03*
X249900000Y-111086270D03*
%TD*%
M02*
