%TF.GenerationSoftware,KiCad,Pcbnew,7.0.8*%
%TF.CreationDate,2024-01-13T11:06:47-08:00*%
%TF.ProjectId,Power Distribution 2023-2024,506f7765-7220-4446-9973-747269627574,rev?*%
%TF.SameCoordinates,Original*%
%TF.FileFunction,Copper,L2,Bot*%
%TF.FilePolarity,Positive*%
%FSLAX46Y46*%
G04 Gerber Fmt 4.6, Leading zero omitted, Abs format (unit mm)*
G04 Created by KiCad (PCBNEW 7.0.8) date 2024-01-13 11:06:47*
%MOMM*%
%LPD*%
G01*
G04 APERTURE LIST*
G04 Aperture macros list*
%AMRoundRect*
0 Rectangle with rounded corners*
0 $1 Rounding radius*
0 $2 $3 $4 $5 $6 $7 $8 $9 X,Y pos of 4 corners*
0 Add a 4 corners polygon primitive as box body*
4,1,4,$2,$3,$4,$5,$6,$7,$8,$9,$2,$3,0*
0 Add four circle primitives for the rounded corners*
1,1,$1+$1,$2,$3*
1,1,$1+$1,$4,$5*
1,1,$1+$1,$6,$7*
1,1,$1+$1,$8,$9*
0 Add four rect primitives between the rounded corners*
20,1,$1+$1,$2,$3,$4,$5,0*
20,1,$1+$1,$4,$5,$6,$7,0*
20,1,$1+$1,$6,$7,$8,$9,0*
20,1,$1+$1,$8,$9,$2,$3,0*%
G04 Aperture macros list end*
%TA.AperFunction,ComponentPad*%
%ADD10C,2.780000*%
%TD*%
%TA.AperFunction,ComponentPad*%
%ADD11RoundRect,0.250001X-0.759999X0.499999X-0.759999X-0.499999X0.759999X-0.499999X0.759999X0.499999X0*%
%TD*%
%TA.AperFunction,ComponentPad*%
%ADD12O,2.020000X1.500000*%
%TD*%
%TA.AperFunction,ComponentPad*%
%ADD13RoundRect,0.250001X-0.499999X-0.759999X0.499999X-0.759999X0.499999X0.759999X-0.499999X0.759999X0*%
%TD*%
%TA.AperFunction,ComponentPad*%
%ADD14O,1.500000X2.020000*%
%TD*%
%TA.AperFunction,ComponentPad*%
%ADD15R,2.300000X2.300000*%
%TD*%
%TA.AperFunction,ComponentPad*%
%ADD16C,2.300000*%
%TD*%
%TA.AperFunction,ComponentPad*%
%ADD17C,5.400000*%
%TD*%
%TA.AperFunction,ComponentPad*%
%ADD18RoundRect,0.250001X0.759999X-0.499999X0.759999X0.499999X-0.759999X0.499999X-0.759999X-0.499999X0*%
%TD*%
G04 APERTURE END LIST*
D10*
%TO.P,F5,1*%
%TO.N,+12V*%
X228180000Y-126460000D03*
X231580000Y-126460000D03*
%TO.P,F5,2*%
%TO.N,Net-(F5-Pad2)*%
X228180000Y-116540000D03*
X231580000Y-116540000D03*
%TD*%
%TO.P,F2,1*%
%TO.N,+12V*%
X220560000Y-126460000D03*
X223960000Y-126460000D03*
%TO.P,F2,2*%
%TO.N,Net-(F2-Pad2)*%
X220560000Y-116540000D03*
X223960000Y-116540000D03*
%TD*%
D11*
%TO.P,J3,1,Pin_1*%
%TO.N,Net-(D3-K)*%
X257582214Y-113006100D03*
D12*
%TO.P,J3,2,Pin_2*%
%TO.N,GND*%
X257582214Y-116006100D03*
%TD*%
D13*
%TO.P,J7,1,Pin_1*%
%TO.N,Net-(J6-Pin_2)*%
X247666756Y-106897783D03*
D14*
%TO.P,J7,2,Pin_2*%
%TO.N,GND*%
X250666756Y-106897783D03*
%TD*%
D10*
%TO.P,F3,2*%
%TO.N,Net-(F3-Pad2)*%
X239200000Y-116540000D03*
X235800000Y-116540000D03*
%TO.P,F3,1*%
%TO.N,+12V*%
X239200000Y-126460000D03*
X235800000Y-126460000D03*
%TD*%
D15*
%TO.P,J4,1,Pin_1*%
%TO.N,+12V*%
X248670001Y-136188687D03*
D16*
%TO.P,J4,2,Pin_2*%
%TO.N,GND*%
X248670001Y-141888688D03*
%TD*%
D14*
%TO.P,J5,2,Pin_2*%
%TO.N,Net-(J5-Pin_2)*%
X227862275Y-106931171D03*
D13*
%TO.P,J5,1,Pin_1*%
%TO.N,Net-(D5-K)*%
X224862275Y-106931171D03*
%TD*%
D17*
%TO.P,He2,1*%
%TO.N,N/C*%
X216522170Y-100948890D03*
%TD*%
D13*
%TO.P,J6,1,Pin_1*%
%TO.N,Net-(J5-Pin_2)*%
X236331218Y-106957707D03*
D14*
%TO.P,J6,2,Pin_2*%
%TO.N,Net-(J6-Pin_2)*%
X239331218Y-106957707D03*
%TD*%
D10*
%TO.P,F1,1*%
%TO.N,+12V*%
X243420000Y-126460000D03*
X246820000Y-126460000D03*
%TO.P,F1,2*%
%TO.N,Net-(F1-Pad2)*%
X243420000Y-116540000D03*
X246820000Y-116540000D03*
%TD*%
%TO.P,F4,1*%
%TO.N,Net-(F4-Pad1)*%
X229040000Y-133800000D03*
X229040000Y-137200000D03*
%TO.P,F4,2*%
%TO.N,+12V*%
X238960000Y-133800000D03*
X238960000Y-137200000D03*
%TD*%
D17*
%TO.P,He3,1*%
%TO.N,N/C*%
X263495160Y-100967233D03*
%TD*%
D11*
%TO.P,J1,1,Pin_1*%
%TO.N,Net-(D1-K)*%
X257518888Y-124314569D03*
D12*
%TO.P,J1,2,Pin_2*%
%TO.N,GND*%
X257518888Y-127314569D03*
%TD*%
D17*
%TO.P,He1,1*%
%TO.N,N/C*%
X216462748Y-149860000D03*
%TD*%
%TO.P,He4,1*%
%TO.N,N/C*%
X263518251Y-149932561D03*
%TD*%
D18*
%TO.P,J2,1,Pin_1*%
%TO.N,Net-(D2-K)*%
X222462573Y-141769463D03*
D12*
%TO.P,J2,2,Pin_2*%
%TO.N,GND*%
X222462573Y-138769463D03*
%TD*%
%TA.AperFunction,Conductor*%
%TO.N,GND*%
G36*
X260293039Y-97810185D02*
G01*
X260338794Y-97862989D01*
X260350000Y-97914500D01*
X260350000Y-100361107D01*
X260348248Y-100381878D01*
X260309774Y-100608318D01*
X260309772Y-100608330D01*
X260289617Y-100967233D01*
X260309772Y-101326135D01*
X260309774Y-101326147D01*
X260348248Y-101552586D01*
X260350000Y-101573357D01*
X260350000Y-104140000D01*
X263051517Y-104140000D01*
X263072288Y-104141752D01*
X263080213Y-104143098D01*
X263136253Y-104152620D01*
X263495160Y-104172776D01*
X263854067Y-104152620D01*
X263911600Y-104142844D01*
X263918032Y-104141752D01*
X263938803Y-104140000D01*
X266575500Y-104140000D01*
X266642539Y-104159685D01*
X266688294Y-104212489D01*
X266699500Y-104264000D01*
X266699500Y-146555138D01*
X266679815Y-146622177D01*
X266627011Y-146667932D01*
X266575500Y-146679138D01*
X260381221Y-146679138D01*
X260381221Y-149278586D01*
X260379469Y-149299357D01*
X260332865Y-149573646D01*
X260332863Y-149573658D01*
X260312708Y-149932561D01*
X260332863Y-150291463D01*
X260332865Y-150291475D01*
X260379469Y-150565763D01*
X260381221Y-150586534D01*
X260381221Y-152910500D01*
X260361536Y-152977539D01*
X260308732Y-153023294D01*
X260257221Y-153034500D01*
X219791895Y-153034500D01*
X219724856Y-153014815D01*
X219679101Y-152962011D01*
X219667895Y-152910500D01*
X219667895Y-149868792D01*
X219667993Y-149865314D01*
X219668291Y-149860002D01*
X219668291Y-149859995D01*
X219667993Y-149854683D01*
X219667895Y-149851207D01*
X219667895Y-146708221D01*
X217029917Y-146708221D01*
X217009146Y-146706469D01*
X216821662Y-146674614D01*
X216821650Y-146674612D01*
X216462748Y-146654457D01*
X216103845Y-146674612D01*
X216103833Y-146674614D01*
X215916350Y-146706469D01*
X215895579Y-146708221D01*
X213484500Y-146708221D01*
X213417461Y-146688536D01*
X213371706Y-146635732D01*
X213360500Y-146584221D01*
X213360500Y-142319478D01*
X220952073Y-142319478D01*
X220962573Y-142422258D01*
X220962574Y-142422259D01*
X221017759Y-142588798D01*
X221017760Y-142588800D01*
X221109859Y-142738114D01*
X221109862Y-142738118D01*
X221233917Y-142862173D01*
X221233921Y-142862176D01*
X221383235Y-142954275D01*
X221383237Y-142954276D01*
X221383239Y-142954277D01*
X221549776Y-143009462D01*
X221652565Y-143019963D01*
X221652570Y-143019963D01*
X223272576Y-143019963D01*
X223272581Y-143019963D01*
X223375370Y-143009462D01*
X223541907Y-142954277D01*
X223691228Y-142862174D01*
X223815284Y-142738118D01*
X223907387Y-142588797D01*
X223962572Y-142422260D01*
X223973073Y-142319471D01*
X223973073Y-141219455D01*
X223962572Y-141116666D01*
X223907387Y-140950129D01*
X223815284Y-140800808D01*
X223691228Y-140676752D01*
X223691224Y-140676749D01*
X223541910Y-140584650D01*
X223541908Y-140584649D01*
X223458638Y-140557056D01*
X223375370Y-140529464D01*
X223375368Y-140529463D01*
X223272588Y-140518963D01*
X223272581Y-140518963D01*
X221652565Y-140518963D01*
X221652557Y-140518963D01*
X221549777Y-140529463D01*
X221549776Y-140529464D01*
X221383237Y-140584649D01*
X221383235Y-140584650D01*
X221233921Y-140676749D01*
X221233917Y-140676752D01*
X221109862Y-140800807D01*
X221109859Y-140800811D01*
X221017760Y-140950125D01*
X221017759Y-140950127D01*
X220962574Y-141116666D01*
X220962573Y-141116667D01*
X220952073Y-141219447D01*
X220952073Y-142319478D01*
X213360500Y-142319478D01*
X213360500Y-140400650D01*
X216392073Y-140400650D01*
X216409907Y-140518963D01*
X216431177Y-140660078D01*
X216431178Y-140660080D01*
X216431179Y-140660086D01*
X216508511Y-140910789D01*
X216622340Y-141147159D01*
X216622341Y-141147160D01*
X216622343Y-141147163D01*
X216622345Y-141147167D01*
X216671634Y-141219460D01*
X216770140Y-141363942D01*
X216948587Y-141556264D01*
X216948591Y-141556267D01*
X216948592Y-141556268D01*
X217153716Y-141719849D01*
X217380930Y-141851031D01*
X217625157Y-141946883D01*
X217880943Y-142005265D01*
X217880949Y-142005265D01*
X217880952Y-142005266D01*
X218077073Y-142019963D01*
X218077079Y-142019963D01*
X218208073Y-142019963D01*
X218404193Y-142005266D01*
X218404195Y-142005265D01*
X218404203Y-142005265D01*
X218659989Y-141946883D01*
X218904216Y-141851031D01*
X219131430Y-141719849D01*
X219336554Y-141556268D01*
X219515006Y-141363942D01*
X219662801Y-141147167D01*
X219677490Y-141116666D01*
X219757691Y-140950125D01*
X219776636Y-140910786D01*
X219853969Y-140660078D01*
X219893073Y-140400645D01*
X219893073Y-140138281D01*
X219853969Y-139878848D01*
X219776636Y-139628140D01*
X219686258Y-139440467D01*
X219662805Y-139391766D01*
X219662804Y-139391765D01*
X219662803Y-139391764D01*
X219662801Y-139391759D01*
X219515006Y-139174984D01*
X219513750Y-139173630D01*
X254169502Y-139173630D01*
X254209720Y-139440461D01*
X254209722Y-139440467D01*
X254289264Y-139698335D01*
X254406348Y-139941463D01*
X254406350Y-139941465D01*
X254406351Y-139941468D01*
X254540535Y-140138280D01*
X254558367Y-140164435D01*
X254741912Y-140362251D01*
X254741916Y-140362254D01*
X254741917Y-140362255D01*
X254952900Y-140530509D01*
X255186604Y-140665437D01*
X255437807Y-140764028D01*
X255700899Y-140824077D01*
X255729717Y-140826236D01*
X255902620Y-140839194D01*
X255902626Y-140839194D01*
X256037384Y-140839194D01*
X256188673Y-140827856D01*
X256239105Y-140824077D01*
X256502197Y-140764028D01*
X256753400Y-140665437D01*
X256987104Y-140530509D01*
X257198087Y-140362255D01*
X257381637Y-140164435D01*
X257533653Y-139941469D01*
X257650740Y-139698335D01*
X257730282Y-139440466D01*
X257737623Y-139391766D01*
X257770501Y-139173630D01*
X257770502Y-139173621D01*
X257770502Y-138903766D01*
X257770501Y-138903757D01*
X257730283Y-138636926D01*
X257730281Y-138636920D01*
X257716439Y-138592045D01*
X257650740Y-138379053D01*
X257533653Y-138135920D01*
X257381637Y-137912953D01*
X257371360Y-137901877D01*
X257198091Y-137715136D01*
X257157511Y-137682774D01*
X256987104Y-137546879D01*
X256753400Y-137411951D01*
X256753398Y-137411950D01*
X256502197Y-137313360D01*
X256502190Y-137313358D01*
X256239103Y-137253310D01*
X256037384Y-137238194D01*
X256037378Y-137238194D01*
X255902626Y-137238194D01*
X255902620Y-137238194D01*
X255700900Y-137253310D01*
X255437813Y-137313358D01*
X255437806Y-137313360D01*
X255186605Y-137411950D01*
X255186601Y-137411952D01*
X254952900Y-137546879D01*
X254741912Y-137715136D01*
X254558367Y-137912952D01*
X254406347Y-138135925D01*
X254406346Y-138135926D01*
X254289265Y-138379049D01*
X254209722Y-138636920D01*
X254209720Y-138636926D01*
X254169502Y-138903757D01*
X254169502Y-139173630D01*
X219513750Y-139173630D01*
X219505014Y-139164216D01*
X219336558Y-138982661D01*
X219263063Y-138924051D01*
X219131430Y-138819077D01*
X218904216Y-138687895D01*
X218659989Y-138592043D01*
X218659984Y-138592041D01*
X218659975Y-138592039D01*
X218442391Y-138542377D01*
X218404203Y-138533661D01*
X218404202Y-138533660D01*
X218404198Y-138533660D01*
X218404193Y-138533659D01*
X218208073Y-138518963D01*
X218208067Y-138518963D01*
X218077079Y-138518963D01*
X218077073Y-138518963D01*
X217880952Y-138533659D01*
X217880947Y-138533660D01*
X217625170Y-138592039D01*
X217625151Y-138592045D01*
X217380929Y-138687895D01*
X217153716Y-138819077D01*
X216948587Y-138982661D01*
X216770140Y-139174983D01*
X216622341Y-139391765D01*
X216622340Y-139391766D01*
X216508511Y-139628136D01*
X216431179Y-139878839D01*
X216431178Y-139878844D01*
X216431177Y-139878848D01*
X216421738Y-139941469D01*
X216392073Y-140138275D01*
X216392073Y-140400650D01*
X213360500Y-140400650D01*
X213360500Y-137200001D01*
X227144671Y-137200001D01*
X227163963Y-137469733D01*
X227163964Y-137469740D01*
X227221443Y-137733971D01*
X227315948Y-137987349D01*
X227315950Y-137987353D01*
X227445544Y-138224686D01*
X227445549Y-138224694D01*
X227607599Y-138441169D01*
X227607615Y-138441187D01*
X227798812Y-138632384D01*
X227798830Y-138632400D01*
X228015305Y-138794450D01*
X228015313Y-138794455D01*
X228252646Y-138924049D01*
X228252650Y-138924051D01*
X228252652Y-138924052D01*
X228506024Y-139018555D01*
X228506027Y-139018555D01*
X228506028Y-139018556D01*
X228594105Y-139037715D01*
X228770267Y-139076037D01*
X229020707Y-139093949D01*
X229039999Y-139095329D01*
X229040000Y-139095329D01*
X229040001Y-139095329D01*
X229058005Y-139094041D01*
X229309733Y-139076037D01*
X229573976Y-139018555D01*
X229827348Y-138924052D01*
X230064692Y-138794452D01*
X230281177Y-138632394D01*
X230472394Y-138441177D01*
X230634452Y-138224692D01*
X230764052Y-137987348D01*
X230858555Y-137733976D01*
X230916037Y-137469733D01*
X230935329Y-137200001D01*
X237064671Y-137200001D01*
X237083963Y-137469733D01*
X237083964Y-137469740D01*
X237141443Y-137733971D01*
X237235948Y-137987349D01*
X237235950Y-137987353D01*
X237365544Y-138224686D01*
X237365549Y-138224694D01*
X237527599Y-138441169D01*
X237527615Y-138441187D01*
X237718812Y-138632384D01*
X237718830Y-138632400D01*
X237935305Y-138794450D01*
X237935313Y-138794455D01*
X238172646Y-138924049D01*
X238172650Y-138924051D01*
X238172652Y-138924052D01*
X238426024Y-139018555D01*
X238426027Y-139018555D01*
X238426028Y-139018556D01*
X238514105Y-139037715D01*
X238690267Y-139076037D01*
X238940707Y-139093949D01*
X238959999Y-139095329D01*
X238960000Y-139095329D01*
X238960001Y-139095329D01*
X238978005Y-139094041D01*
X239229733Y-139076037D01*
X239493976Y-139018555D01*
X239747348Y-138924052D01*
X239984692Y-138794452D01*
X240201177Y-138632394D01*
X240392394Y-138441177D01*
X240554452Y-138224692D01*
X240684052Y-137987348D01*
X240778555Y-137733976D01*
X240836037Y-137469733D01*
X240841986Y-137386557D01*
X247019501Y-137386557D01*
X247019502Y-137386563D01*
X247025909Y-137446170D01*
X247076203Y-137581015D01*
X247076207Y-137581022D01*
X247162453Y-137696231D01*
X247162456Y-137696234D01*
X247277665Y-137782480D01*
X247277672Y-137782484D01*
X247412518Y-137832778D01*
X247412517Y-137832778D01*
X247419445Y-137833522D01*
X247472128Y-137839187D01*
X249867873Y-137839186D01*
X249927484Y-137832778D01*
X250062332Y-137782483D01*
X250177547Y-137696233D01*
X250263797Y-137581018D01*
X250314092Y-137446170D01*
X250320501Y-137386560D01*
X250320500Y-134990815D01*
X250314092Y-134931204D01*
X250274366Y-134824694D01*
X250263798Y-134796358D01*
X250263794Y-134796351D01*
X250177548Y-134681142D01*
X250177545Y-134681139D01*
X250062336Y-134594893D01*
X250062329Y-134594889D01*
X249927483Y-134544595D01*
X249927484Y-134544595D01*
X249867884Y-134538188D01*
X249867882Y-134538187D01*
X249867874Y-134538187D01*
X249867865Y-134538187D01*
X247472130Y-134538187D01*
X247472124Y-134538188D01*
X247412517Y-134544595D01*
X247277672Y-134594889D01*
X247277665Y-134594893D01*
X247162456Y-134681139D01*
X247162453Y-134681142D01*
X247076207Y-134796351D01*
X247076203Y-134796358D01*
X247025909Y-134931204D01*
X247019502Y-134990803D01*
X247019502Y-134990810D01*
X247019501Y-134990822D01*
X247019501Y-137386557D01*
X240841986Y-137386557D01*
X240855329Y-137200000D01*
X240836037Y-136930267D01*
X240778555Y-136666024D01*
X240684052Y-136412652D01*
X240554452Y-136175308D01*
X240554450Y-136175305D01*
X240392400Y-135958830D01*
X240392384Y-135958812D01*
X240201187Y-135767615D01*
X240201169Y-135767599D01*
X239984697Y-135605551D01*
X239982776Y-135604317D01*
X239982273Y-135603737D01*
X239981147Y-135602894D01*
X239981330Y-135602648D01*
X239937020Y-135551514D01*
X239927075Y-135482356D01*
X239956098Y-135418799D01*
X239982776Y-135395683D01*
X239984683Y-135394456D01*
X239984692Y-135394452D01*
X240201177Y-135232394D01*
X240392394Y-135041177D01*
X240554452Y-134824692D01*
X240684052Y-134587348D01*
X240778555Y-134333976D01*
X240836037Y-134069733D01*
X240855329Y-133800000D01*
X240836037Y-133530267D01*
X240778555Y-133266024D01*
X240684052Y-133012652D01*
X240554452Y-132775308D01*
X240554450Y-132775305D01*
X240392400Y-132558830D01*
X240392384Y-132558812D01*
X240201187Y-132367615D01*
X240201169Y-132367599D01*
X239984694Y-132205549D01*
X239984686Y-132205544D01*
X239747353Y-132075950D01*
X239747349Y-132075948D01*
X239493971Y-131981443D01*
X239229740Y-131923964D01*
X239229733Y-131923963D01*
X238960001Y-131904671D01*
X238959999Y-131904671D01*
X238690266Y-131923963D01*
X238690259Y-131923964D01*
X238426028Y-131981443D01*
X238172650Y-132075948D01*
X238172646Y-132075950D01*
X237935313Y-132205544D01*
X237935305Y-132205549D01*
X237718830Y-132367599D01*
X237718812Y-132367615D01*
X237527615Y-132558812D01*
X237527599Y-132558830D01*
X237365549Y-132775305D01*
X237365544Y-132775313D01*
X237235950Y-133012646D01*
X237235948Y-133012650D01*
X237141443Y-133266028D01*
X237083964Y-133530259D01*
X237083963Y-133530266D01*
X237064671Y-133799998D01*
X237064671Y-133800001D01*
X237083963Y-134069733D01*
X237083964Y-134069740D01*
X237141443Y-134333971D01*
X237235948Y-134587349D01*
X237235950Y-134587353D01*
X237365544Y-134824686D01*
X237365549Y-134824694D01*
X237527599Y-135041169D01*
X237527615Y-135041187D01*
X237718812Y-135232384D01*
X237718830Y-135232400D01*
X237879686Y-135352814D01*
X237935308Y-135394452D01*
X237935320Y-135394458D01*
X237937232Y-135395688D01*
X237937736Y-135396270D01*
X237938853Y-135397106D01*
X237938671Y-135397349D01*
X237982983Y-135448495D01*
X237992923Y-135517654D01*
X237963894Y-135581208D01*
X237937232Y-135604312D01*
X237935299Y-135605554D01*
X237718830Y-135767599D01*
X237718812Y-135767615D01*
X237527615Y-135958812D01*
X237527599Y-135958830D01*
X237365549Y-136175305D01*
X237365544Y-136175313D01*
X237235950Y-136412646D01*
X237235948Y-136412650D01*
X237141443Y-136666028D01*
X237083964Y-136930259D01*
X237083963Y-136930266D01*
X237064671Y-137199998D01*
X237064671Y-137200001D01*
X230935329Y-137200001D01*
X230935329Y-137200000D01*
X230916037Y-136930267D01*
X230858555Y-136666024D01*
X230764052Y-136412652D01*
X230634452Y-136175308D01*
X230634450Y-136175305D01*
X230472400Y-135958830D01*
X230472384Y-135958812D01*
X230281187Y-135767615D01*
X230281169Y-135767599D01*
X230064697Y-135605551D01*
X230062776Y-135604317D01*
X230062273Y-135603737D01*
X230061147Y-135602894D01*
X230061330Y-135602648D01*
X230017020Y-135551514D01*
X230007075Y-135482356D01*
X230036098Y-135418799D01*
X230062776Y-135395683D01*
X230064683Y-135394456D01*
X230064692Y-135394452D01*
X230281177Y-135232394D01*
X230472394Y-135041177D01*
X230634452Y-134824692D01*
X230764052Y-134587348D01*
X230858555Y-134333976D01*
X230916037Y-134069733D01*
X230935329Y-133800000D01*
X230916037Y-133530267D01*
X230858555Y-133266024D01*
X230764052Y-133012652D01*
X230634452Y-132775308D01*
X230634450Y-132775305D01*
X230472400Y-132558830D01*
X230472384Y-132558812D01*
X230281187Y-132367615D01*
X230281169Y-132367599D01*
X230064694Y-132205549D01*
X230064686Y-132205544D01*
X229827353Y-132075950D01*
X229827349Y-132075948D01*
X229573971Y-131981443D01*
X229309740Y-131923964D01*
X229309733Y-131923963D01*
X229040001Y-131904671D01*
X229039999Y-131904671D01*
X228770266Y-131923963D01*
X228770259Y-131923964D01*
X228506028Y-131981443D01*
X228252650Y-132075948D01*
X228252646Y-132075950D01*
X228015313Y-132205544D01*
X228015305Y-132205549D01*
X227798830Y-132367599D01*
X227798812Y-132367615D01*
X227607615Y-132558812D01*
X227607599Y-132558830D01*
X227445549Y-132775305D01*
X227445544Y-132775313D01*
X227315950Y-133012646D01*
X227315948Y-133012650D01*
X227221443Y-133266028D01*
X227163964Y-133530259D01*
X227163963Y-133530266D01*
X227144671Y-133799998D01*
X227144671Y-133800001D01*
X227163963Y-134069733D01*
X227163964Y-134069740D01*
X227221443Y-134333971D01*
X227315948Y-134587349D01*
X227315950Y-134587353D01*
X227445544Y-134824686D01*
X227445549Y-134824694D01*
X227607599Y-135041169D01*
X227607615Y-135041187D01*
X227798812Y-135232384D01*
X227798830Y-135232400D01*
X227959686Y-135352814D01*
X228015308Y-135394452D01*
X228015320Y-135394458D01*
X228017232Y-135395688D01*
X228017736Y-135396270D01*
X228018853Y-135397106D01*
X228018671Y-135397349D01*
X228062983Y-135448495D01*
X228072923Y-135517654D01*
X228043894Y-135581208D01*
X228017232Y-135604312D01*
X228015299Y-135605554D01*
X227798830Y-135767599D01*
X227798812Y-135767615D01*
X227607615Y-135958812D01*
X227607599Y-135958830D01*
X227445549Y-136175305D01*
X227445544Y-136175313D01*
X227315950Y-136412646D01*
X227315948Y-136412650D01*
X227221443Y-136666028D01*
X227163964Y-136930259D01*
X227163963Y-136930266D01*
X227144671Y-137199998D01*
X227144671Y-137200001D01*
X213360500Y-137200001D01*
X213360500Y-126460001D01*
X218664671Y-126460001D01*
X218683963Y-126729733D01*
X218683964Y-126729740D01*
X218741443Y-126993971D01*
X218835948Y-127247349D01*
X218835950Y-127247353D01*
X218965544Y-127484686D01*
X218965549Y-127484694D01*
X219127599Y-127701169D01*
X219127615Y-127701187D01*
X219318812Y-127892384D01*
X219318830Y-127892400D01*
X219535305Y-128054450D01*
X219535313Y-128054455D01*
X219772646Y-128184049D01*
X219772650Y-128184051D01*
X219772652Y-128184052D01*
X220026024Y-128278555D01*
X220026027Y-128278555D01*
X220026028Y-128278556D01*
X220114105Y-128297715D01*
X220290267Y-128336037D01*
X220540707Y-128353949D01*
X220559999Y-128355329D01*
X220560000Y-128355329D01*
X220560001Y-128355329D01*
X220578005Y-128354041D01*
X220829733Y-128336037D01*
X221093976Y-128278555D01*
X221347348Y-128184052D01*
X221584692Y-128054452D01*
X221801177Y-127892394D01*
X221992394Y-127701177D01*
X222154452Y-127484692D01*
X222154456Y-127484683D01*
X222155683Y-127482776D01*
X222156262Y-127482273D01*
X222157106Y-127481147D01*
X222157351Y-127481330D01*
X222208486Y-127437020D01*
X222277644Y-127427075D01*
X222341201Y-127456098D01*
X222364317Y-127482776D01*
X222365551Y-127484697D01*
X222527599Y-127701169D01*
X222527615Y-127701187D01*
X222718812Y-127892384D01*
X222718830Y-127892400D01*
X222935305Y-128054450D01*
X222935313Y-128054455D01*
X223172646Y-128184049D01*
X223172650Y-128184051D01*
X223172652Y-128184052D01*
X223426024Y-128278555D01*
X223426027Y-128278555D01*
X223426028Y-128278556D01*
X223514105Y-128297715D01*
X223690267Y-128336037D01*
X223940707Y-128353949D01*
X223959999Y-128355329D01*
X223960000Y-128355329D01*
X223960001Y-128355329D01*
X223978005Y-128354041D01*
X224229733Y-128336037D01*
X224493976Y-128278555D01*
X224747348Y-128184052D01*
X224984692Y-128054452D01*
X225201177Y-127892394D01*
X225392394Y-127701177D01*
X225554452Y-127484692D01*
X225684052Y-127247348D01*
X225778555Y-126993976D01*
X225836037Y-126729733D01*
X225855329Y-126460001D01*
X226284671Y-126460001D01*
X226303963Y-126729733D01*
X226303964Y-126729740D01*
X226361443Y-126993971D01*
X226455948Y-127247349D01*
X226455950Y-127247353D01*
X226585544Y-127484686D01*
X226585549Y-127484694D01*
X226747599Y-127701169D01*
X226747615Y-127701187D01*
X226938812Y-127892384D01*
X226938830Y-127892400D01*
X227155305Y-128054450D01*
X227155313Y-128054455D01*
X227392646Y-128184049D01*
X227392650Y-128184051D01*
X227392652Y-128184052D01*
X227646024Y-128278555D01*
X227646027Y-128278555D01*
X227646028Y-128278556D01*
X227734105Y-128297715D01*
X227910267Y-128336037D01*
X228160707Y-128353949D01*
X228179999Y-128355329D01*
X228180000Y-128355329D01*
X228180001Y-128355329D01*
X228198005Y-128354041D01*
X228449733Y-128336037D01*
X228713976Y-128278555D01*
X228967348Y-128184052D01*
X229204692Y-128054452D01*
X229421177Y-127892394D01*
X229612394Y-127701177D01*
X229774452Y-127484692D01*
X229774456Y-127484683D01*
X229775683Y-127482776D01*
X229776262Y-127482273D01*
X229777106Y-127481147D01*
X229777351Y-127481330D01*
X229828486Y-127437020D01*
X229897644Y-127427075D01*
X229961201Y-127456098D01*
X229984317Y-127482776D01*
X229985551Y-127484697D01*
X230147599Y-127701169D01*
X230147615Y-127701187D01*
X230338812Y-127892384D01*
X230338830Y-127892400D01*
X230555305Y-128054450D01*
X230555313Y-128054455D01*
X230792646Y-128184049D01*
X230792650Y-128184051D01*
X230792652Y-128184052D01*
X231046024Y-128278555D01*
X231046027Y-128278555D01*
X231046028Y-128278556D01*
X231134105Y-128297715D01*
X231310267Y-128336037D01*
X231560707Y-128353949D01*
X231579999Y-128355329D01*
X231580000Y-128355329D01*
X231580001Y-128355329D01*
X231598005Y-128354041D01*
X231849733Y-128336037D01*
X232113976Y-128278555D01*
X232367348Y-128184052D01*
X232604692Y-128054452D01*
X232821177Y-127892394D01*
X233012394Y-127701177D01*
X233174452Y-127484692D01*
X233304052Y-127247348D01*
X233398555Y-126993976D01*
X233456037Y-126729733D01*
X233475329Y-126460001D01*
X233904671Y-126460001D01*
X233923963Y-126729733D01*
X233923964Y-126729740D01*
X233981443Y-126993971D01*
X234075948Y-127247349D01*
X234075950Y-127247353D01*
X234205544Y-127484686D01*
X234205549Y-127484694D01*
X234367599Y-127701169D01*
X234367615Y-127701187D01*
X234558812Y-127892384D01*
X234558830Y-127892400D01*
X234775305Y-128054450D01*
X234775313Y-128054455D01*
X235012646Y-128184049D01*
X235012650Y-128184051D01*
X235012652Y-128184052D01*
X235266024Y-128278555D01*
X235266027Y-128278555D01*
X235266028Y-128278556D01*
X235354105Y-128297715D01*
X235530267Y-128336037D01*
X235780707Y-128353949D01*
X235799999Y-128355329D01*
X235800000Y-128355329D01*
X235800001Y-128355329D01*
X235818005Y-128354041D01*
X236069733Y-128336037D01*
X236333976Y-128278555D01*
X236587348Y-128184052D01*
X236824692Y-128054452D01*
X237041177Y-127892394D01*
X237232394Y-127701177D01*
X237394452Y-127484692D01*
X237394456Y-127484683D01*
X237395683Y-127482776D01*
X237396262Y-127482273D01*
X237397106Y-127481147D01*
X237397351Y-127481330D01*
X237448486Y-127437020D01*
X237517644Y-127427075D01*
X237581201Y-127456098D01*
X237604317Y-127482776D01*
X237605551Y-127484697D01*
X237767599Y-127701169D01*
X237767615Y-127701187D01*
X237958812Y-127892384D01*
X237958830Y-127892400D01*
X238175305Y-128054450D01*
X238175313Y-128054455D01*
X238412646Y-128184049D01*
X238412650Y-128184051D01*
X238412652Y-128184052D01*
X238666024Y-128278555D01*
X238666027Y-128278555D01*
X238666028Y-128278556D01*
X238754105Y-128297715D01*
X238930267Y-128336037D01*
X239180707Y-128353949D01*
X239199999Y-128355329D01*
X239200000Y-128355329D01*
X239200001Y-128355329D01*
X239218005Y-128354041D01*
X239469733Y-128336037D01*
X239733976Y-128278555D01*
X239987348Y-128184052D01*
X240224692Y-128054452D01*
X240441177Y-127892394D01*
X240632394Y-127701177D01*
X240794452Y-127484692D01*
X240924052Y-127247348D01*
X241018555Y-126993976D01*
X241076037Y-126729733D01*
X241095329Y-126460001D01*
X241524671Y-126460001D01*
X241543963Y-126729733D01*
X241543964Y-126729740D01*
X241601443Y-126993971D01*
X241695948Y-127247349D01*
X241695950Y-127247353D01*
X241825544Y-127484686D01*
X241825549Y-127484694D01*
X241987599Y-127701169D01*
X241987615Y-127701187D01*
X242178812Y-127892384D01*
X242178830Y-127892400D01*
X242395305Y-128054450D01*
X242395313Y-128054455D01*
X242632646Y-128184049D01*
X242632650Y-128184051D01*
X242632652Y-128184052D01*
X242886024Y-128278555D01*
X242886027Y-128278555D01*
X242886028Y-128278556D01*
X242974105Y-128297715D01*
X243150267Y-128336037D01*
X243400707Y-128353949D01*
X243419999Y-128355329D01*
X243420000Y-128355329D01*
X243420001Y-128355329D01*
X243438005Y-128354041D01*
X243689733Y-128336037D01*
X243953976Y-128278555D01*
X244207348Y-128184052D01*
X244444692Y-128054452D01*
X244661177Y-127892394D01*
X244852394Y-127701177D01*
X245014452Y-127484692D01*
X245014456Y-127484683D01*
X245015683Y-127482776D01*
X245016262Y-127482273D01*
X245017106Y-127481147D01*
X245017351Y-127481330D01*
X245068486Y-127437020D01*
X245137644Y-127427075D01*
X245201201Y-127456098D01*
X245224317Y-127482776D01*
X245225551Y-127484697D01*
X245387599Y-127701169D01*
X245387615Y-127701187D01*
X245578812Y-127892384D01*
X245578830Y-127892400D01*
X245795305Y-128054450D01*
X245795313Y-128054455D01*
X246032646Y-128184049D01*
X246032650Y-128184051D01*
X246032652Y-128184052D01*
X246286024Y-128278555D01*
X246286027Y-128278555D01*
X246286028Y-128278556D01*
X246374105Y-128297715D01*
X246550267Y-128336037D01*
X246800707Y-128353949D01*
X246819999Y-128355329D01*
X246820000Y-128355329D01*
X246820001Y-128355329D01*
X246838005Y-128354041D01*
X247089733Y-128336037D01*
X247353976Y-128278555D01*
X247607348Y-128184052D01*
X247844692Y-128054452D01*
X248061177Y-127892394D01*
X248252394Y-127701177D01*
X248414452Y-127484692D01*
X248544052Y-127247348D01*
X248638555Y-126993976D01*
X248696037Y-126729733D01*
X248715329Y-126460000D01*
X248715035Y-126455895D01*
X248697104Y-126205192D01*
X248696037Y-126190267D01*
X248642847Y-125945756D01*
X260088388Y-125945756D01*
X260108682Y-126080392D01*
X260127492Y-126205184D01*
X260127493Y-126205186D01*
X260127494Y-126205192D01*
X260204826Y-126455895D01*
X260318655Y-126692265D01*
X260318656Y-126692266D01*
X260318658Y-126692269D01*
X260318660Y-126692273D01*
X260344200Y-126729733D01*
X260466455Y-126909048D01*
X260644902Y-127101370D01*
X260644906Y-127101373D01*
X260644907Y-127101374D01*
X260850031Y-127264955D01*
X261077245Y-127396137D01*
X261321472Y-127491989D01*
X261577258Y-127550371D01*
X261577264Y-127550371D01*
X261577267Y-127550372D01*
X261773388Y-127565069D01*
X261773394Y-127565069D01*
X261904388Y-127565069D01*
X262100508Y-127550372D01*
X262100510Y-127550371D01*
X262100518Y-127550371D01*
X262356304Y-127491989D01*
X262600531Y-127396137D01*
X262827745Y-127264955D01*
X263032869Y-127101374D01*
X263211321Y-126909048D01*
X263359116Y-126692273D01*
X263472951Y-126455892D01*
X263550284Y-126205184D01*
X263589388Y-125945751D01*
X263589388Y-125683387D01*
X263550284Y-125423954D01*
X263472951Y-125173246D01*
X263402815Y-125027606D01*
X263359120Y-124936872D01*
X263359119Y-124936871D01*
X263359118Y-124936870D01*
X263359116Y-124936865D01*
X263211321Y-124720090D01*
X263201329Y-124709322D01*
X263032873Y-124527767D01*
X262993421Y-124496305D01*
X262827745Y-124364183D01*
X262600531Y-124233001D01*
X262356304Y-124137149D01*
X262356299Y-124137147D01*
X262356290Y-124137145D01*
X262138706Y-124087483D01*
X262100518Y-124078767D01*
X262100517Y-124078766D01*
X262100513Y-124078766D01*
X262100508Y-124078765D01*
X261904388Y-124064069D01*
X261904382Y-124064069D01*
X261773394Y-124064069D01*
X261773388Y-124064069D01*
X261577267Y-124078765D01*
X261577262Y-124078766D01*
X261321485Y-124137145D01*
X261321466Y-124137151D01*
X261077244Y-124233001D01*
X260850031Y-124364183D01*
X260644902Y-124527767D01*
X260466455Y-124720089D01*
X260318656Y-124936871D01*
X260318655Y-124936872D01*
X260204826Y-125173242D01*
X260127494Y-125423945D01*
X260127493Y-125423950D01*
X260127492Y-125423954D01*
X260116123Y-125499381D01*
X260088388Y-125683381D01*
X260088388Y-125945756D01*
X248642847Y-125945756D01*
X248638555Y-125926024D01*
X248544052Y-125672652D01*
X248445912Y-125492923D01*
X248414455Y-125435313D01*
X248414450Y-125435305D01*
X248252400Y-125218830D01*
X248252384Y-125218812D01*
X248061187Y-125027615D01*
X248061169Y-125027599D01*
X247844694Y-124865549D01*
X247844686Y-124865544D01*
X247842928Y-124864584D01*
X256008388Y-124864584D01*
X256018888Y-124967364D01*
X256018889Y-124967365D01*
X256074074Y-125133904D01*
X256074075Y-125133906D01*
X256166174Y-125283220D01*
X256166177Y-125283224D01*
X256290232Y-125407279D01*
X256290236Y-125407282D01*
X256439550Y-125499381D01*
X256439552Y-125499382D01*
X256439554Y-125499383D01*
X256606091Y-125554568D01*
X256708880Y-125565069D01*
X256708885Y-125565069D01*
X258328891Y-125565069D01*
X258328896Y-125565069D01*
X258431685Y-125554568D01*
X258598222Y-125499383D01*
X258747543Y-125407280D01*
X258871599Y-125283224D01*
X258963702Y-125133903D01*
X259018887Y-124967366D01*
X259029388Y-124864577D01*
X259029388Y-123764561D01*
X259018887Y-123661772D01*
X258963702Y-123495235D01*
X258871599Y-123345914D01*
X258747543Y-123221858D01*
X258747539Y-123221855D01*
X258598225Y-123129756D01*
X258598223Y-123129755D01*
X258514953Y-123102162D01*
X258431685Y-123074570D01*
X258431683Y-123074569D01*
X258328903Y-123064069D01*
X258328896Y-123064069D01*
X256708880Y-123064069D01*
X256708872Y-123064069D01*
X256606092Y-123074569D01*
X256606091Y-123074570D01*
X256439552Y-123129755D01*
X256439550Y-123129756D01*
X256290236Y-123221855D01*
X256290232Y-123221858D01*
X256166177Y-123345913D01*
X256166174Y-123345917D01*
X256074075Y-123495231D01*
X256074074Y-123495233D01*
X256018889Y-123661772D01*
X256018888Y-123661773D01*
X256008388Y-123764553D01*
X256008388Y-124864584D01*
X247842928Y-124864584D01*
X247607353Y-124735950D01*
X247607349Y-124735948D01*
X247353971Y-124641443D01*
X247089740Y-124583964D01*
X247089733Y-124583963D01*
X246820001Y-124564671D01*
X246819999Y-124564671D01*
X246550266Y-124583963D01*
X246550259Y-124583964D01*
X246286028Y-124641443D01*
X246032650Y-124735948D01*
X246032646Y-124735950D01*
X245795313Y-124865544D01*
X245795305Y-124865549D01*
X245578830Y-125027599D01*
X245578812Y-125027615D01*
X245387615Y-125218812D01*
X245387599Y-125218830D01*
X245225554Y-125435299D01*
X245224312Y-125437232D01*
X245223729Y-125437736D01*
X245222894Y-125438853D01*
X245222650Y-125438671D01*
X245171505Y-125482983D01*
X245102346Y-125492923D01*
X245038792Y-125463894D01*
X245015688Y-125437232D01*
X245014458Y-125435320D01*
X245014452Y-125435308D01*
X244900601Y-125283220D01*
X244852400Y-125218830D01*
X244852384Y-125218812D01*
X244661187Y-125027615D01*
X244661169Y-125027599D01*
X244444694Y-124865549D01*
X244444686Y-124865544D01*
X244207353Y-124735950D01*
X244207349Y-124735948D01*
X243953971Y-124641443D01*
X243689740Y-124583964D01*
X243689733Y-124583963D01*
X243420001Y-124564671D01*
X243419999Y-124564671D01*
X243150266Y-124583963D01*
X243150259Y-124583964D01*
X242886028Y-124641443D01*
X242632650Y-124735948D01*
X242632646Y-124735950D01*
X242395313Y-124865544D01*
X242395305Y-124865549D01*
X242178830Y-125027599D01*
X242178812Y-125027615D01*
X241987615Y-125218812D01*
X241987599Y-125218830D01*
X241825549Y-125435305D01*
X241825544Y-125435313D01*
X241695950Y-125672646D01*
X241695948Y-125672650D01*
X241601443Y-125926028D01*
X241543964Y-126190259D01*
X241543963Y-126190266D01*
X241524671Y-126459998D01*
X241524671Y-126460001D01*
X241095329Y-126460001D01*
X241095329Y-126460000D01*
X241095035Y-126455895D01*
X241077104Y-126205192D01*
X241076037Y-126190267D01*
X241018555Y-125926024D01*
X240924052Y-125672652D01*
X240825912Y-125492923D01*
X240794455Y-125435313D01*
X240794450Y-125435305D01*
X240632400Y-125218830D01*
X240632384Y-125218812D01*
X240441187Y-125027615D01*
X240441169Y-125027599D01*
X240224694Y-124865549D01*
X240224686Y-124865544D01*
X239987353Y-124735950D01*
X239987349Y-124735948D01*
X239733971Y-124641443D01*
X239469740Y-124583964D01*
X239469733Y-124583963D01*
X239200001Y-124564671D01*
X239199999Y-124564671D01*
X238930266Y-124583963D01*
X238930259Y-124583964D01*
X238666028Y-124641443D01*
X238412650Y-124735948D01*
X238412646Y-124735950D01*
X238175313Y-124865544D01*
X238175305Y-124865549D01*
X237958830Y-125027599D01*
X237958812Y-125027615D01*
X237767615Y-125218812D01*
X237767599Y-125218830D01*
X237605554Y-125435299D01*
X237604312Y-125437232D01*
X237603729Y-125437736D01*
X237602894Y-125438853D01*
X237602650Y-125438671D01*
X237551505Y-125482983D01*
X237482346Y-125492923D01*
X237418792Y-125463894D01*
X237395688Y-125437232D01*
X237394458Y-125435320D01*
X237394452Y-125435308D01*
X237280601Y-125283220D01*
X237232400Y-125218830D01*
X237232384Y-125218812D01*
X237041187Y-125027615D01*
X237041169Y-125027599D01*
X236824694Y-124865549D01*
X236824686Y-124865544D01*
X236587353Y-124735950D01*
X236587349Y-124735948D01*
X236333971Y-124641443D01*
X236069740Y-124583964D01*
X236069733Y-124583963D01*
X235800001Y-124564671D01*
X235799999Y-124564671D01*
X235530266Y-124583963D01*
X235530259Y-124583964D01*
X235266028Y-124641443D01*
X235012650Y-124735948D01*
X235012646Y-124735950D01*
X234775313Y-124865544D01*
X234775305Y-124865549D01*
X234558830Y-125027599D01*
X234558812Y-125027615D01*
X234367615Y-125218812D01*
X234367599Y-125218830D01*
X234205549Y-125435305D01*
X234205544Y-125435313D01*
X234075950Y-125672646D01*
X234075948Y-125672650D01*
X233981443Y-125926028D01*
X233923964Y-126190259D01*
X233923963Y-126190266D01*
X233904671Y-126459998D01*
X233904671Y-126460001D01*
X233475329Y-126460001D01*
X233475329Y-126460000D01*
X233475035Y-126455895D01*
X233457104Y-126205192D01*
X233456037Y-126190267D01*
X233398555Y-125926024D01*
X233304052Y-125672652D01*
X233205912Y-125492923D01*
X233174455Y-125435313D01*
X233174450Y-125435305D01*
X233012400Y-125218830D01*
X233012384Y-125218812D01*
X232821187Y-125027615D01*
X232821169Y-125027599D01*
X232604694Y-124865549D01*
X232604686Y-124865544D01*
X232367353Y-124735950D01*
X232367349Y-124735948D01*
X232113971Y-124641443D01*
X231849740Y-124583964D01*
X231849733Y-124583963D01*
X231580001Y-124564671D01*
X231579999Y-124564671D01*
X231310266Y-124583963D01*
X231310259Y-124583964D01*
X231046028Y-124641443D01*
X230792650Y-124735948D01*
X230792646Y-124735950D01*
X230555313Y-124865544D01*
X230555305Y-124865549D01*
X230338830Y-125027599D01*
X230338812Y-125027615D01*
X230147615Y-125218812D01*
X230147599Y-125218830D01*
X229985554Y-125435299D01*
X229984312Y-125437232D01*
X229983729Y-125437736D01*
X229982894Y-125438853D01*
X229982650Y-125438671D01*
X229931505Y-125482983D01*
X229862346Y-125492923D01*
X229798792Y-125463894D01*
X229775688Y-125437232D01*
X229774458Y-125435320D01*
X229774452Y-125435308D01*
X229660601Y-125283220D01*
X229612400Y-125218830D01*
X229612384Y-125218812D01*
X229421187Y-125027615D01*
X229421169Y-125027599D01*
X229204694Y-124865549D01*
X229204686Y-124865544D01*
X228967353Y-124735950D01*
X228967349Y-124735948D01*
X228713971Y-124641443D01*
X228449740Y-124583964D01*
X228449733Y-124583963D01*
X228180001Y-124564671D01*
X228179999Y-124564671D01*
X227910266Y-124583963D01*
X227910259Y-124583964D01*
X227646028Y-124641443D01*
X227392650Y-124735948D01*
X227392646Y-124735950D01*
X227155313Y-124865544D01*
X227155305Y-124865549D01*
X226938830Y-125027599D01*
X226938812Y-125027615D01*
X226747615Y-125218812D01*
X226747599Y-125218830D01*
X226585549Y-125435305D01*
X226585544Y-125435313D01*
X226455950Y-125672646D01*
X226455948Y-125672650D01*
X226361443Y-125926028D01*
X226303964Y-126190259D01*
X226303963Y-126190266D01*
X226284671Y-126459998D01*
X226284671Y-126460001D01*
X225855329Y-126460001D01*
X225855329Y-126460000D01*
X225855035Y-126455895D01*
X225837104Y-126205192D01*
X225836037Y-126190267D01*
X225778555Y-125926024D01*
X225684052Y-125672652D01*
X225585912Y-125492923D01*
X225554455Y-125435313D01*
X225554450Y-125435305D01*
X225392400Y-125218830D01*
X225392384Y-125218812D01*
X225201187Y-125027615D01*
X225201169Y-125027599D01*
X224984694Y-124865549D01*
X224984686Y-124865544D01*
X224747353Y-124735950D01*
X224747349Y-124735948D01*
X224493971Y-124641443D01*
X224229740Y-124583964D01*
X224229733Y-124583963D01*
X223960001Y-124564671D01*
X223959999Y-124564671D01*
X223690266Y-124583963D01*
X223690259Y-124583964D01*
X223426028Y-124641443D01*
X223172650Y-124735948D01*
X223172646Y-124735950D01*
X222935313Y-124865544D01*
X222935305Y-124865549D01*
X222718830Y-125027599D01*
X222718812Y-125027615D01*
X222527615Y-125218812D01*
X222527599Y-125218830D01*
X222365554Y-125435299D01*
X222364312Y-125437232D01*
X222363729Y-125437736D01*
X222362894Y-125438853D01*
X222362650Y-125438671D01*
X222311505Y-125482983D01*
X222242346Y-125492923D01*
X222178792Y-125463894D01*
X222155688Y-125437232D01*
X222154458Y-125435320D01*
X222154452Y-125435308D01*
X222040601Y-125283220D01*
X221992400Y-125218830D01*
X221992384Y-125218812D01*
X221801187Y-125027615D01*
X221801169Y-125027599D01*
X221584694Y-124865549D01*
X221584686Y-124865544D01*
X221347353Y-124735950D01*
X221347349Y-124735948D01*
X221093971Y-124641443D01*
X220829740Y-124583964D01*
X220829733Y-124583963D01*
X220560001Y-124564671D01*
X220559999Y-124564671D01*
X220290266Y-124583963D01*
X220290259Y-124583964D01*
X220026028Y-124641443D01*
X219772650Y-124735948D01*
X219772646Y-124735950D01*
X219535313Y-124865544D01*
X219535305Y-124865549D01*
X219318830Y-125027599D01*
X219318812Y-125027615D01*
X219127615Y-125218812D01*
X219127599Y-125218830D01*
X218965549Y-125435305D01*
X218965544Y-125435313D01*
X218835950Y-125672646D01*
X218835948Y-125672650D01*
X218741443Y-125926028D01*
X218683964Y-126190259D01*
X218683963Y-126190266D01*
X218664671Y-126459998D01*
X218664671Y-126460001D01*
X213360500Y-126460001D01*
X213360500Y-116540001D01*
X218664671Y-116540001D01*
X218683963Y-116809733D01*
X218683964Y-116809740D01*
X218741443Y-117073971D01*
X218835948Y-117327349D01*
X218835950Y-117327353D01*
X218965544Y-117564686D01*
X218965549Y-117564694D01*
X219127599Y-117781169D01*
X219127615Y-117781187D01*
X219318812Y-117972384D01*
X219318830Y-117972400D01*
X219535305Y-118134450D01*
X219535313Y-118134455D01*
X219772646Y-118264049D01*
X219772650Y-118264051D01*
X219772652Y-118264052D01*
X220026024Y-118358555D01*
X220026027Y-118358555D01*
X220026028Y-118358556D01*
X220114105Y-118377715D01*
X220290267Y-118416037D01*
X220540707Y-118433949D01*
X220559999Y-118435329D01*
X220560000Y-118435329D01*
X220560001Y-118435329D01*
X220578005Y-118434041D01*
X220829733Y-118416037D01*
X221093976Y-118358555D01*
X221347348Y-118264052D01*
X221584692Y-118134452D01*
X221801177Y-117972394D01*
X221992394Y-117781177D01*
X222154452Y-117564692D01*
X222154456Y-117564683D01*
X222155683Y-117562776D01*
X222156262Y-117562273D01*
X222157106Y-117561147D01*
X222157351Y-117561330D01*
X222208486Y-117517020D01*
X222277644Y-117507075D01*
X222341201Y-117536098D01*
X222364317Y-117562776D01*
X222365551Y-117564697D01*
X222527599Y-117781169D01*
X222527615Y-117781187D01*
X222718812Y-117972384D01*
X222718830Y-117972400D01*
X222935305Y-118134450D01*
X222935313Y-118134455D01*
X223172646Y-118264049D01*
X223172650Y-118264051D01*
X223172652Y-118264052D01*
X223426024Y-118358555D01*
X223426027Y-118358555D01*
X223426028Y-118358556D01*
X223514105Y-118377715D01*
X223690267Y-118416037D01*
X223940707Y-118433949D01*
X223959999Y-118435329D01*
X223960000Y-118435329D01*
X223960001Y-118435329D01*
X223978005Y-118434041D01*
X224229733Y-118416037D01*
X224493976Y-118358555D01*
X224747348Y-118264052D01*
X224984692Y-118134452D01*
X225201177Y-117972394D01*
X225392394Y-117781177D01*
X225554452Y-117564692D01*
X225684052Y-117327348D01*
X225778555Y-117073976D01*
X225836037Y-116809733D01*
X225855329Y-116540001D01*
X226284671Y-116540001D01*
X226303963Y-116809733D01*
X226303964Y-116809740D01*
X226361443Y-117073971D01*
X226455948Y-117327349D01*
X226455950Y-117327353D01*
X226585544Y-117564686D01*
X226585549Y-117564694D01*
X226747599Y-117781169D01*
X226747615Y-117781187D01*
X226938812Y-117972384D01*
X226938830Y-117972400D01*
X227155305Y-118134450D01*
X227155313Y-118134455D01*
X227392646Y-118264049D01*
X227392650Y-118264051D01*
X227392652Y-118264052D01*
X227646024Y-118358555D01*
X227646027Y-118358555D01*
X227646028Y-118358556D01*
X227734105Y-118377715D01*
X227910267Y-118416037D01*
X228160707Y-118433949D01*
X228179999Y-118435329D01*
X228180000Y-118435329D01*
X228180001Y-118435329D01*
X228198005Y-118434041D01*
X228449733Y-118416037D01*
X228713976Y-118358555D01*
X228967348Y-118264052D01*
X229204692Y-118134452D01*
X229421177Y-117972394D01*
X229612394Y-117781177D01*
X229774452Y-117564692D01*
X229774456Y-117564683D01*
X229775683Y-117562776D01*
X229776262Y-117562273D01*
X229777106Y-117561147D01*
X229777351Y-117561330D01*
X229828486Y-117517020D01*
X229897644Y-117507075D01*
X229961201Y-117536098D01*
X229984317Y-117562776D01*
X229985551Y-117564697D01*
X230147599Y-117781169D01*
X230147615Y-117781187D01*
X230338812Y-117972384D01*
X230338830Y-117972400D01*
X230555305Y-118134450D01*
X230555313Y-118134455D01*
X230792646Y-118264049D01*
X230792650Y-118264051D01*
X230792652Y-118264052D01*
X231046024Y-118358555D01*
X231046027Y-118358555D01*
X231046028Y-118358556D01*
X231134105Y-118377715D01*
X231310267Y-118416037D01*
X231560707Y-118433949D01*
X231579999Y-118435329D01*
X231580000Y-118435329D01*
X231580001Y-118435329D01*
X231598005Y-118434041D01*
X231849733Y-118416037D01*
X232113976Y-118358555D01*
X232367348Y-118264052D01*
X232604692Y-118134452D01*
X232821177Y-117972394D01*
X233012394Y-117781177D01*
X233174452Y-117564692D01*
X233304052Y-117327348D01*
X233398555Y-117073976D01*
X233456037Y-116809733D01*
X233475329Y-116540001D01*
X233904671Y-116540001D01*
X233923963Y-116809733D01*
X233923964Y-116809740D01*
X233981443Y-117073971D01*
X234075948Y-117327349D01*
X234075950Y-117327353D01*
X234205544Y-117564686D01*
X234205549Y-117564694D01*
X234367599Y-117781169D01*
X234367615Y-117781187D01*
X234558812Y-117972384D01*
X234558830Y-117972400D01*
X234775305Y-118134450D01*
X234775313Y-118134455D01*
X235012646Y-118264049D01*
X235012650Y-118264051D01*
X235012652Y-118264052D01*
X235266024Y-118358555D01*
X235266027Y-118358555D01*
X235266028Y-118358556D01*
X235354105Y-118377715D01*
X235530267Y-118416037D01*
X235780707Y-118433949D01*
X235799999Y-118435329D01*
X235800000Y-118435329D01*
X235800001Y-118435329D01*
X235818005Y-118434041D01*
X236069733Y-118416037D01*
X236333976Y-118358555D01*
X236587348Y-118264052D01*
X236824692Y-118134452D01*
X237041177Y-117972394D01*
X237232394Y-117781177D01*
X237394452Y-117564692D01*
X237394456Y-117564683D01*
X237395683Y-117562776D01*
X237396262Y-117562273D01*
X237397106Y-117561147D01*
X237397351Y-117561330D01*
X237448486Y-117517020D01*
X237517644Y-117507075D01*
X237581201Y-117536098D01*
X237604317Y-117562776D01*
X237605551Y-117564697D01*
X237767599Y-117781169D01*
X237767615Y-117781187D01*
X237958812Y-117972384D01*
X237958830Y-117972400D01*
X238175305Y-118134450D01*
X238175313Y-118134455D01*
X238412646Y-118264049D01*
X238412650Y-118264051D01*
X238412652Y-118264052D01*
X238666024Y-118358555D01*
X238666027Y-118358555D01*
X238666028Y-118358556D01*
X238754105Y-118377715D01*
X238930267Y-118416037D01*
X239180707Y-118433949D01*
X239199999Y-118435329D01*
X239200000Y-118435329D01*
X239200001Y-118435329D01*
X239218005Y-118434041D01*
X239469733Y-118416037D01*
X239733976Y-118358555D01*
X239987348Y-118264052D01*
X240224692Y-118134452D01*
X240441177Y-117972394D01*
X240632394Y-117781177D01*
X240794452Y-117564692D01*
X240924052Y-117327348D01*
X241018555Y-117073976D01*
X241076037Y-116809733D01*
X241095329Y-116540001D01*
X241524671Y-116540001D01*
X241543963Y-116809733D01*
X241543964Y-116809740D01*
X241601443Y-117073971D01*
X241695948Y-117327349D01*
X241695950Y-117327353D01*
X241825544Y-117564686D01*
X241825549Y-117564694D01*
X241987599Y-117781169D01*
X241987615Y-117781187D01*
X242178812Y-117972384D01*
X242178830Y-117972400D01*
X242395305Y-118134450D01*
X242395313Y-118134455D01*
X242632646Y-118264049D01*
X242632650Y-118264051D01*
X242632652Y-118264052D01*
X242886024Y-118358555D01*
X242886027Y-118358555D01*
X242886028Y-118358556D01*
X242974105Y-118377715D01*
X243150267Y-118416037D01*
X243400707Y-118433949D01*
X243419999Y-118435329D01*
X243420000Y-118435329D01*
X243420001Y-118435329D01*
X243438005Y-118434041D01*
X243689733Y-118416037D01*
X243953976Y-118358555D01*
X244207348Y-118264052D01*
X244444692Y-118134452D01*
X244661177Y-117972394D01*
X244852394Y-117781177D01*
X245014452Y-117564692D01*
X245014456Y-117564683D01*
X245015683Y-117562776D01*
X245016262Y-117562273D01*
X245017106Y-117561147D01*
X245017351Y-117561330D01*
X245068486Y-117517020D01*
X245137644Y-117507075D01*
X245201201Y-117536098D01*
X245224317Y-117562776D01*
X245225551Y-117564697D01*
X245387599Y-117781169D01*
X245387615Y-117781187D01*
X245578812Y-117972384D01*
X245578830Y-117972400D01*
X245795305Y-118134450D01*
X245795313Y-118134455D01*
X246032646Y-118264049D01*
X246032650Y-118264051D01*
X246032652Y-118264052D01*
X246286024Y-118358555D01*
X246286027Y-118358555D01*
X246286028Y-118358556D01*
X246374105Y-118377715D01*
X246550267Y-118416037D01*
X246800707Y-118433949D01*
X246819999Y-118435329D01*
X246820000Y-118435329D01*
X246820001Y-118435329D01*
X246838005Y-118434041D01*
X247089733Y-118416037D01*
X247353976Y-118358555D01*
X247607348Y-118264052D01*
X247844692Y-118134452D01*
X248061177Y-117972394D01*
X248252394Y-117781177D01*
X248414452Y-117564692D01*
X248544052Y-117327348D01*
X248638555Y-117073976D01*
X248696037Y-116809733D01*
X248715329Y-116540000D01*
X248696037Y-116270267D01*
X248638555Y-116006024D01*
X248544052Y-115752652D01*
X248445912Y-115572923D01*
X248414455Y-115515313D01*
X248414450Y-115515305D01*
X248252400Y-115298830D01*
X248252384Y-115298812D01*
X248061187Y-115107615D01*
X248061169Y-115107599D01*
X247844694Y-114945549D01*
X247844686Y-114945544D01*
X247607353Y-114815950D01*
X247607349Y-114815948D01*
X247353971Y-114721443D01*
X247089740Y-114663964D01*
X247089733Y-114663963D01*
X246820001Y-114644671D01*
X246819999Y-114644671D01*
X246550266Y-114663963D01*
X246550259Y-114663964D01*
X246286028Y-114721443D01*
X246032650Y-114815948D01*
X246032646Y-114815950D01*
X245795313Y-114945544D01*
X245795305Y-114945549D01*
X245578830Y-115107599D01*
X245578812Y-115107615D01*
X245387615Y-115298812D01*
X245387599Y-115298830D01*
X245225554Y-115515299D01*
X245224312Y-115517232D01*
X245223729Y-115517736D01*
X245222894Y-115518853D01*
X245222650Y-115518671D01*
X245171505Y-115562983D01*
X245102346Y-115572923D01*
X245038792Y-115543894D01*
X245015688Y-115517232D01*
X245014458Y-115515320D01*
X245014452Y-115515308D01*
X244916010Y-115383804D01*
X244852400Y-115298830D01*
X244852384Y-115298812D01*
X244661187Y-115107615D01*
X244661169Y-115107599D01*
X244444694Y-114945549D01*
X244444686Y-114945544D01*
X244207353Y-114815950D01*
X244207349Y-114815948D01*
X243953971Y-114721443D01*
X243689740Y-114663964D01*
X243689733Y-114663963D01*
X243420001Y-114644671D01*
X243419999Y-114644671D01*
X243150266Y-114663963D01*
X243150259Y-114663964D01*
X242886028Y-114721443D01*
X242632650Y-114815948D01*
X242632646Y-114815950D01*
X242395313Y-114945544D01*
X242395305Y-114945549D01*
X242178830Y-115107599D01*
X242178812Y-115107615D01*
X241987615Y-115298812D01*
X241987599Y-115298830D01*
X241825549Y-115515305D01*
X241825544Y-115515313D01*
X241695950Y-115752646D01*
X241695948Y-115752650D01*
X241601443Y-116006028D01*
X241543964Y-116270259D01*
X241543963Y-116270266D01*
X241524671Y-116539998D01*
X241524671Y-116540001D01*
X241095329Y-116540001D01*
X241095329Y-116540000D01*
X241076037Y-116270267D01*
X241018555Y-116006024D01*
X240924052Y-115752652D01*
X240825912Y-115572923D01*
X240794455Y-115515313D01*
X240794450Y-115515305D01*
X240632400Y-115298830D01*
X240632384Y-115298812D01*
X240441187Y-115107615D01*
X240441169Y-115107599D01*
X240224694Y-114945549D01*
X240224686Y-114945544D01*
X239987353Y-114815950D01*
X239987349Y-114815948D01*
X239733971Y-114721443D01*
X239469740Y-114663964D01*
X239469733Y-114663963D01*
X239200001Y-114644671D01*
X239199999Y-114644671D01*
X238930266Y-114663963D01*
X238930259Y-114663964D01*
X238666028Y-114721443D01*
X238412650Y-114815948D01*
X238412646Y-114815950D01*
X238175313Y-114945544D01*
X238175305Y-114945549D01*
X237958830Y-115107599D01*
X237958812Y-115107615D01*
X237767615Y-115298812D01*
X237767599Y-115298830D01*
X237605554Y-115515299D01*
X237604312Y-115517232D01*
X237603729Y-115517736D01*
X237602894Y-115518853D01*
X237602650Y-115518671D01*
X237551505Y-115562983D01*
X237482346Y-115572923D01*
X237418792Y-115543894D01*
X237395688Y-115517232D01*
X237394458Y-115515320D01*
X237394452Y-115515308D01*
X237296010Y-115383804D01*
X237232400Y-115298830D01*
X237232384Y-115298812D01*
X237041187Y-115107615D01*
X237041169Y-115107599D01*
X236824694Y-114945549D01*
X236824686Y-114945544D01*
X236587353Y-114815950D01*
X236587349Y-114815948D01*
X236333971Y-114721443D01*
X236069740Y-114663964D01*
X236069733Y-114663963D01*
X235800001Y-114644671D01*
X235799999Y-114644671D01*
X235530266Y-114663963D01*
X235530259Y-114663964D01*
X235266028Y-114721443D01*
X235012650Y-114815948D01*
X235012646Y-114815950D01*
X234775313Y-114945544D01*
X234775305Y-114945549D01*
X234558830Y-115107599D01*
X234558812Y-115107615D01*
X234367615Y-115298812D01*
X234367599Y-115298830D01*
X234205549Y-115515305D01*
X234205544Y-115515313D01*
X234075950Y-115752646D01*
X234075948Y-115752650D01*
X233981443Y-116006028D01*
X233923964Y-116270259D01*
X233923963Y-116270266D01*
X233904671Y-116539998D01*
X233904671Y-116540001D01*
X233475329Y-116540001D01*
X233475329Y-116540000D01*
X233456037Y-116270267D01*
X233398555Y-116006024D01*
X233304052Y-115752652D01*
X233205912Y-115572923D01*
X233174455Y-115515313D01*
X233174450Y-115515305D01*
X233012400Y-115298830D01*
X233012384Y-115298812D01*
X232821187Y-115107615D01*
X232821169Y-115107599D01*
X232604694Y-114945549D01*
X232604686Y-114945544D01*
X232367353Y-114815950D01*
X232367349Y-114815948D01*
X232113971Y-114721443D01*
X231849740Y-114663964D01*
X231849733Y-114663963D01*
X231580001Y-114644671D01*
X231579999Y-114644671D01*
X231310266Y-114663963D01*
X231310259Y-114663964D01*
X231046028Y-114721443D01*
X230792650Y-114815948D01*
X230792646Y-114815950D01*
X230555313Y-114945544D01*
X230555305Y-114945549D01*
X230338830Y-115107599D01*
X230338812Y-115107615D01*
X230147615Y-115298812D01*
X230147599Y-115298830D01*
X229985554Y-115515299D01*
X229984312Y-115517232D01*
X229983729Y-115517736D01*
X229982894Y-115518853D01*
X229982650Y-115518671D01*
X229931505Y-115562983D01*
X229862346Y-115572923D01*
X229798792Y-115543894D01*
X229775688Y-115517232D01*
X229774458Y-115515320D01*
X229774452Y-115515308D01*
X229676010Y-115383804D01*
X229612400Y-115298830D01*
X229612384Y-115298812D01*
X229421187Y-115107615D01*
X229421169Y-115107599D01*
X229204694Y-114945549D01*
X229204686Y-114945544D01*
X228967353Y-114815950D01*
X228967349Y-114815948D01*
X228713971Y-114721443D01*
X228449740Y-114663964D01*
X228449733Y-114663963D01*
X228180001Y-114644671D01*
X228179999Y-114644671D01*
X227910266Y-114663963D01*
X227910259Y-114663964D01*
X227646028Y-114721443D01*
X227392650Y-114815948D01*
X227392646Y-114815950D01*
X227155313Y-114945544D01*
X227155305Y-114945549D01*
X226938830Y-115107599D01*
X226938812Y-115107615D01*
X226747615Y-115298812D01*
X226747599Y-115298830D01*
X226585549Y-115515305D01*
X226585544Y-115515313D01*
X226455950Y-115752646D01*
X226455948Y-115752650D01*
X226361443Y-116006028D01*
X226303964Y-116270259D01*
X226303963Y-116270266D01*
X226284671Y-116539998D01*
X226284671Y-116540001D01*
X225855329Y-116540001D01*
X225855329Y-116540000D01*
X225836037Y-116270267D01*
X225778555Y-116006024D01*
X225684052Y-115752652D01*
X225585912Y-115572923D01*
X225554455Y-115515313D01*
X225554450Y-115515305D01*
X225392400Y-115298830D01*
X225392384Y-115298812D01*
X225201187Y-115107615D01*
X225201169Y-115107599D01*
X224984694Y-114945549D01*
X224984686Y-114945544D01*
X224747353Y-114815950D01*
X224747349Y-114815948D01*
X224493971Y-114721443D01*
X224229740Y-114663964D01*
X224229733Y-114663963D01*
X223960001Y-114644671D01*
X223959999Y-114644671D01*
X223690266Y-114663963D01*
X223690259Y-114663964D01*
X223426028Y-114721443D01*
X223172650Y-114815948D01*
X223172646Y-114815950D01*
X222935313Y-114945544D01*
X222935305Y-114945549D01*
X222718830Y-115107599D01*
X222718812Y-115107615D01*
X222527615Y-115298812D01*
X222527599Y-115298830D01*
X222365554Y-115515299D01*
X222364312Y-115517232D01*
X222363729Y-115517736D01*
X222362894Y-115518853D01*
X222362650Y-115518671D01*
X222311505Y-115562983D01*
X222242346Y-115572923D01*
X222178792Y-115543894D01*
X222155688Y-115517232D01*
X222154458Y-115515320D01*
X222154452Y-115515308D01*
X222056010Y-115383804D01*
X221992400Y-115298830D01*
X221992384Y-115298812D01*
X221801187Y-115107615D01*
X221801169Y-115107599D01*
X221584694Y-114945549D01*
X221584686Y-114945544D01*
X221347353Y-114815950D01*
X221347349Y-114815948D01*
X221093971Y-114721443D01*
X220829740Y-114663964D01*
X220829733Y-114663963D01*
X220560001Y-114644671D01*
X220559999Y-114644671D01*
X220290266Y-114663963D01*
X220290259Y-114663964D01*
X220026028Y-114721443D01*
X219772650Y-114815948D01*
X219772646Y-114815950D01*
X219535313Y-114945544D01*
X219535305Y-114945549D01*
X219318830Y-115107599D01*
X219318812Y-115107615D01*
X219127615Y-115298812D01*
X219127599Y-115298830D01*
X218965549Y-115515305D01*
X218965544Y-115515313D01*
X218835950Y-115752646D01*
X218835948Y-115752650D01*
X218741443Y-116006028D01*
X218683964Y-116270259D01*
X218683963Y-116270266D01*
X218664671Y-116539998D01*
X218664671Y-116540001D01*
X213360500Y-116540001D01*
X213360500Y-114637287D01*
X260151714Y-114637287D01*
X260172008Y-114771923D01*
X260190818Y-114896715D01*
X260190819Y-114896717D01*
X260190820Y-114896723D01*
X260268152Y-115147426D01*
X260381981Y-115383796D01*
X260381982Y-115383797D01*
X260381984Y-115383800D01*
X260381986Y-115383804D01*
X260529781Y-115600579D01*
X260708228Y-115792901D01*
X260708232Y-115792904D01*
X260708233Y-115792905D01*
X260913357Y-115956486D01*
X261140571Y-116087668D01*
X261384798Y-116183520D01*
X261640584Y-116241902D01*
X261640590Y-116241902D01*
X261640593Y-116241903D01*
X261836714Y-116256600D01*
X261836720Y-116256600D01*
X261967714Y-116256600D01*
X262163834Y-116241903D01*
X262163836Y-116241902D01*
X262163844Y-116241902D01*
X262419630Y-116183520D01*
X262663857Y-116087668D01*
X262891071Y-115956486D01*
X263096195Y-115792905D01*
X263274647Y-115600579D01*
X263422442Y-115383804D01*
X263536277Y-115147423D01*
X263613610Y-114896715D01*
X263652714Y-114637282D01*
X263652714Y-114374918D01*
X263613610Y-114115485D01*
X263536277Y-113864777D01*
X263517330Y-113825434D01*
X263422446Y-113628403D01*
X263422445Y-113628402D01*
X263422444Y-113628401D01*
X263422442Y-113628396D01*
X263274647Y-113411621D01*
X263264655Y-113400853D01*
X263096199Y-113219298D01*
X263056747Y-113187836D01*
X262891071Y-113055714D01*
X262663857Y-112924532D01*
X262419630Y-112828680D01*
X262419625Y-112828678D01*
X262419616Y-112828676D01*
X262202032Y-112779014D01*
X262163844Y-112770298D01*
X262163843Y-112770297D01*
X262163839Y-112770297D01*
X262163834Y-112770296D01*
X261967714Y-112755600D01*
X261967708Y-112755600D01*
X261836720Y-112755600D01*
X261836714Y-112755600D01*
X261640593Y-112770296D01*
X261640588Y-112770297D01*
X261384811Y-112828676D01*
X261384792Y-112828682D01*
X261140570Y-112924532D01*
X260913357Y-113055714D01*
X260708228Y-113219298D01*
X260529781Y-113411620D01*
X260381982Y-113628402D01*
X260381981Y-113628403D01*
X260268152Y-113864773D01*
X260190820Y-114115476D01*
X260190819Y-114115481D01*
X260190818Y-114115485D01*
X260179449Y-114190912D01*
X260151714Y-114374912D01*
X260151714Y-114637287D01*
X213360500Y-114637287D01*
X213360500Y-113556115D01*
X256071714Y-113556115D01*
X256082214Y-113658895D01*
X256082215Y-113658896D01*
X256137400Y-113825435D01*
X256137401Y-113825437D01*
X256229500Y-113974751D01*
X256229503Y-113974755D01*
X256353558Y-114098810D01*
X256353562Y-114098813D01*
X256502876Y-114190912D01*
X256502878Y-114190913D01*
X256502880Y-114190914D01*
X256669417Y-114246099D01*
X256772206Y-114256600D01*
X256772211Y-114256600D01*
X258392217Y-114256600D01*
X258392222Y-114256600D01*
X258495011Y-114246099D01*
X258661548Y-114190914D01*
X258810869Y-114098811D01*
X258934925Y-113974755D01*
X259027028Y-113825434D01*
X259082213Y-113658897D01*
X259092714Y-113556108D01*
X259092714Y-112456092D01*
X259082213Y-112353303D01*
X259027028Y-112186766D01*
X258934925Y-112037445D01*
X258810869Y-111913389D01*
X258810865Y-111913386D01*
X258661551Y-111821287D01*
X258661549Y-111821286D01*
X258578279Y-111793693D01*
X258495011Y-111766101D01*
X258495009Y-111766100D01*
X258392229Y-111755600D01*
X258392222Y-111755600D01*
X256772206Y-111755600D01*
X256772198Y-111755600D01*
X256669418Y-111766100D01*
X256669417Y-111766101D01*
X256502878Y-111821286D01*
X256502876Y-111821287D01*
X256353562Y-111913386D01*
X256353558Y-111913389D01*
X256229503Y-112037444D01*
X256229500Y-112037448D01*
X256137401Y-112186762D01*
X256137400Y-112186764D01*
X256082215Y-112353303D01*
X256082214Y-112353304D01*
X256071714Y-112456084D01*
X256071714Y-113556115D01*
X213360500Y-113556115D01*
X213360500Y-107741186D01*
X223611775Y-107741186D01*
X223622275Y-107843966D01*
X223622276Y-107843967D01*
X223677461Y-108010506D01*
X223677462Y-108010508D01*
X223769561Y-108159822D01*
X223769564Y-108159826D01*
X223893619Y-108283881D01*
X223893623Y-108283884D01*
X224042937Y-108375983D01*
X224042939Y-108375984D01*
X224042941Y-108375985D01*
X224209478Y-108431170D01*
X224312267Y-108441671D01*
X224312272Y-108441671D01*
X225412278Y-108441671D01*
X225412283Y-108441671D01*
X225515072Y-108431170D01*
X225681609Y-108375985D01*
X225830930Y-108283882D01*
X225954986Y-108159826D01*
X226047089Y-108010505D01*
X226102274Y-107843968D01*
X226112775Y-107741179D01*
X226112775Y-107247322D01*
X226611775Y-107247322D01*
X226626897Y-107415357D01*
X226626898Y-107415363D01*
X226686778Y-107632331D01*
X226686783Y-107632344D01*
X226784442Y-107835137D01*
X226784446Y-107835145D01*
X226916748Y-108017243D01*
X226916749Y-108017245D01*
X227079451Y-108172804D01*
X227267308Y-108296807D01*
X227474279Y-108385271D01*
X227474282Y-108385272D01*
X227474287Y-108385274D01*
X227693738Y-108435362D01*
X227918605Y-108445461D01*
X228141662Y-108415246D01*
X228355739Y-108345688D01*
X228553956Y-108239023D01*
X228729941Y-108098679D01*
X228878040Y-107929167D01*
X228974498Y-107767722D01*
X235080718Y-107767722D01*
X235091218Y-107870502D01*
X235091219Y-107870503D01*
X235146404Y-108037042D01*
X235146405Y-108037044D01*
X235238504Y-108186358D01*
X235238507Y-108186362D01*
X235362562Y-108310417D01*
X235362566Y-108310420D01*
X235511880Y-108402519D01*
X235511882Y-108402520D01*
X235511884Y-108402521D01*
X235678421Y-108457706D01*
X235781210Y-108468207D01*
X235781215Y-108468207D01*
X236881221Y-108468207D01*
X236881226Y-108468207D01*
X236984015Y-108457706D01*
X237150552Y-108402521D01*
X237299873Y-108310418D01*
X237423929Y-108186362D01*
X237516032Y-108037041D01*
X237571217Y-107870504D01*
X237581718Y-107767715D01*
X237581718Y-107273858D01*
X238080718Y-107273858D01*
X238095840Y-107441893D01*
X238095841Y-107441899D01*
X238155721Y-107658867D01*
X238155726Y-107658880D01*
X238253385Y-107861673D01*
X238253389Y-107861681D01*
X238385691Y-108043779D01*
X238385692Y-108043781D01*
X238548394Y-108199340D01*
X238736251Y-108323343D01*
X238943222Y-108411807D01*
X238943225Y-108411808D01*
X238943230Y-108411810D01*
X239162681Y-108461898D01*
X239387548Y-108471997D01*
X239610605Y-108441782D01*
X239824682Y-108372224D01*
X240022899Y-108265559D01*
X240198884Y-108125215D01*
X240346983Y-107955703D01*
X240462433Y-107762471D01*
X240482952Y-107707798D01*
X246416256Y-107707798D01*
X246426756Y-107810578D01*
X246426757Y-107810580D01*
X246437821Y-107843968D01*
X246481942Y-107977118D01*
X246481943Y-107977120D01*
X246574042Y-108126434D01*
X246574045Y-108126438D01*
X246698100Y-108250493D01*
X246698104Y-108250496D01*
X246847418Y-108342595D01*
X246847420Y-108342596D01*
X246847422Y-108342597D01*
X247013959Y-108397782D01*
X247116748Y-108408283D01*
X247116753Y-108408283D01*
X248216759Y-108408283D01*
X248216764Y-108408283D01*
X248319553Y-108397782D01*
X248486090Y-108342597D01*
X248635411Y-108250494D01*
X248759467Y-108126438D01*
X248851570Y-107977117D01*
X248906755Y-107810580D01*
X248917256Y-107707791D01*
X248917256Y-106087775D01*
X248906755Y-105984986D01*
X248851570Y-105818449D01*
X248834143Y-105790196D01*
X248759469Y-105669131D01*
X248759466Y-105669127D01*
X248635411Y-105545072D01*
X248635407Y-105545069D01*
X248486093Y-105452970D01*
X248486091Y-105452969D01*
X248377184Y-105416881D01*
X248319553Y-105397784D01*
X248319551Y-105397783D01*
X248216771Y-105387283D01*
X248216764Y-105387283D01*
X247116748Y-105387283D01*
X247116740Y-105387283D01*
X247013960Y-105397783D01*
X247013959Y-105397784D01*
X246847420Y-105452969D01*
X246847418Y-105452970D01*
X246698104Y-105545069D01*
X246698100Y-105545072D01*
X246574045Y-105669127D01*
X246574042Y-105669131D01*
X246481943Y-105818445D01*
X246481942Y-105818447D01*
X246426757Y-105984986D01*
X246426756Y-105984987D01*
X246416256Y-106087767D01*
X246416256Y-107707798D01*
X240482952Y-107707798D01*
X240541525Y-107551731D01*
X240566273Y-107415363D01*
X240581718Y-107330256D01*
X240581718Y-106641559D01*
X240581718Y-106641552D01*
X240566595Y-106473519D01*
X240559272Y-106446984D01*
X240506714Y-106256546D01*
X240506709Y-106256533D01*
X240409050Y-106053740D01*
X240409046Y-106053732D01*
X240276744Y-105871634D01*
X240276743Y-105871632D01*
X240114041Y-105716073D01*
X239926184Y-105592070D01*
X239719213Y-105503606D01*
X239719200Y-105503602D01*
X239499760Y-105453517D01*
X239499756Y-105453516D01*
X239499755Y-105453516D01*
X239499754Y-105453515D01*
X239499749Y-105453515D01*
X239274892Y-105443417D01*
X239274891Y-105443417D01*
X239274888Y-105443417D01*
X239051831Y-105473632D01*
X239051828Y-105473632D01*
X239051827Y-105473633D01*
X238837752Y-105543190D01*
X238639539Y-105649853D01*
X238639536Y-105649855D01*
X238463554Y-105790196D01*
X238392404Y-105871634D01*
X238315453Y-105959711D01*
X238280404Y-106018374D01*
X238200005Y-106152939D01*
X238200004Y-106152941D01*
X238120910Y-106363683D01*
X238080718Y-106585157D01*
X238080718Y-107273858D01*
X237581718Y-107273858D01*
X237581718Y-106147699D01*
X237571217Y-106044910D01*
X237516032Y-105878373D01*
X237511875Y-105871634D01*
X237423931Y-105729055D01*
X237423928Y-105729051D01*
X237299873Y-105604996D01*
X237299869Y-105604993D01*
X237150555Y-105512894D01*
X237150553Y-105512893D01*
X237067283Y-105485300D01*
X236984015Y-105457708D01*
X236984013Y-105457707D01*
X236881233Y-105447207D01*
X236881226Y-105447207D01*
X235781210Y-105447207D01*
X235781202Y-105447207D01*
X235678422Y-105457707D01*
X235678421Y-105457708D01*
X235511882Y-105512893D01*
X235511880Y-105512894D01*
X235362566Y-105604993D01*
X235362562Y-105604996D01*
X235238507Y-105729051D01*
X235238504Y-105729055D01*
X235146405Y-105878369D01*
X235146404Y-105878371D01*
X235091219Y-106044910D01*
X235091218Y-106044911D01*
X235080718Y-106147691D01*
X235080718Y-107767722D01*
X228974498Y-107767722D01*
X228993490Y-107735935D01*
X229072582Y-107525195D01*
X229107959Y-107330256D01*
X229112775Y-107303720D01*
X229112775Y-106615023D01*
X229112775Y-106615016D01*
X229097652Y-106446983D01*
X229097651Y-106446978D01*
X229037771Y-106230010D01*
X229037766Y-106229997D01*
X228940107Y-106027204D01*
X228940103Y-106027196D01*
X228807801Y-105845098D01*
X228807800Y-105845096D01*
X228779929Y-105818449D01*
X228645100Y-105689539D01*
X228645098Y-105689537D01*
X228457241Y-105565534D01*
X228250270Y-105477070D01*
X228250257Y-105477066D01*
X228030817Y-105426981D01*
X228030813Y-105426980D01*
X228030812Y-105426980D01*
X228030811Y-105426979D01*
X228030806Y-105426979D01*
X227805949Y-105416881D01*
X227805948Y-105416881D01*
X227805945Y-105416881D01*
X227582888Y-105447096D01*
X227582885Y-105447096D01*
X227582884Y-105447097D01*
X227368809Y-105516654D01*
X227170596Y-105623317D01*
X227170593Y-105623319D01*
X226994611Y-105763660D01*
X226846511Y-105933174D01*
X226731062Y-106126403D01*
X226731061Y-106126405D01*
X226651967Y-106337147D01*
X226611775Y-106558621D01*
X226611775Y-107247322D01*
X226112775Y-107247322D01*
X226112775Y-106121163D01*
X226102274Y-106018374D01*
X226047089Y-105851837D01*
X226042932Y-105845098D01*
X225954988Y-105702519D01*
X225954985Y-105702515D01*
X225830930Y-105578460D01*
X225830926Y-105578457D01*
X225681612Y-105486358D01*
X225681610Y-105486357D01*
X225595149Y-105457707D01*
X225515072Y-105431172D01*
X225515070Y-105431171D01*
X225412290Y-105420671D01*
X225412283Y-105420671D01*
X224312267Y-105420671D01*
X224312259Y-105420671D01*
X224209479Y-105431171D01*
X224209478Y-105431172D01*
X224042939Y-105486357D01*
X224042937Y-105486358D01*
X223893623Y-105578457D01*
X223893619Y-105578460D01*
X223769564Y-105702515D01*
X223769561Y-105702519D01*
X223677462Y-105851833D01*
X223677461Y-105851835D01*
X223622276Y-106018374D01*
X223622275Y-106018375D01*
X223611775Y-106121155D01*
X223611775Y-107741186D01*
X213360500Y-107741186D01*
X213360500Y-104264000D01*
X213380185Y-104196961D01*
X213432989Y-104151206D01*
X213484500Y-104140000D01*
X216263427Y-104140000D01*
X216266904Y-104140098D01*
X216358913Y-104145264D01*
X216522170Y-104154433D01*
X216685426Y-104145264D01*
X216777436Y-104140098D01*
X216780913Y-104140000D01*
X219710000Y-104140000D01*
X219710000Y-102742358D01*
X224611775Y-102742358D01*
X224615775Y-102768894D01*
X224650879Y-103001786D01*
X224650880Y-103001788D01*
X224650881Y-103001794D01*
X224728213Y-103252497D01*
X224842042Y-103488867D01*
X224842043Y-103488868D01*
X224842045Y-103488871D01*
X224842047Y-103488875D01*
X224989842Y-103705650D01*
X225168289Y-103897972D01*
X225168293Y-103897975D01*
X225168294Y-103897976D01*
X225373418Y-104061557D01*
X225600632Y-104192739D01*
X225844859Y-104288591D01*
X226100645Y-104346973D01*
X226100651Y-104346973D01*
X226100654Y-104346974D01*
X226296775Y-104361671D01*
X226296781Y-104361671D01*
X226427775Y-104361671D01*
X226623895Y-104346974D01*
X226623897Y-104346973D01*
X226623905Y-104346973D01*
X226879691Y-104288591D01*
X227123918Y-104192739D01*
X227351132Y-104061557D01*
X227556256Y-103897976D01*
X227587236Y-103864588D01*
X227596220Y-103854904D01*
X227734708Y-103705650D01*
X227882503Y-103488875D01*
X227996338Y-103252494D01*
X228073671Y-103001786D01*
X228108775Y-102768894D01*
X236080718Y-102768894D01*
X236101012Y-102903530D01*
X236119822Y-103028322D01*
X236119823Y-103028324D01*
X236119824Y-103028330D01*
X236197156Y-103279033D01*
X236310985Y-103515403D01*
X236310986Y-103515404D01*
X236310988Y-103515407D01*
X236310990Y-103515411D01*
X236440693Y-103705650D01*
X236458785Y-103732186D01*
X236637232Y-103924508D01*
X236637236Y-103924511D01*
X236637237Y-103924512D01*
X236842361Y-104088093D01*
X237069575Y-104219275D01*
X237313802Y-104315127D01*
X237569588Y-104373509D01*
X237569594Y-104373509D01*
X237569597Y-104373510D01*
X237765718Y-104388207D01*
X237765724Y-104388207D01*
X237896718Y-104388207D01*
X238092838Y-104373510D01*
X238092840Y-104373509D01*
X238092848Y-104373509D01*
X238348634Y-104315127D01*
X238592861Y-104219275D01*
X238820075Y-104088093D01*
X239025199Y-103924512D01*
X239049825Y-103897972D01*
X239080804Y-103864584D01*
X239203651Y-103732186D01*
X239351446Y-103515411D01*
X239465281Y-103279030D01*
X239542614Y-103028322D01*
X239581718Y-102768889D01*
X239581718Y-102708970D01*
X247416256Y-102708970D01*
X247421289Y-102742358D01*
X247455360Y-102968398D01*
X247455361Y-102968400D01*
X247455362Y-102968406D01*
X247532694Y-103219109D01*
X247646523Y-103455479D01*
X247646524Y-103455480D01*
X247646526Y-103455483D01*
X247646528Y-103455487D01*
X247687379Y-103515404D01*
X247794323Y-103672262D01*
X247972770Y-103864584D01*
X247972774Y-103864587D01*
X247972775Y-103864588D01*
X248177899Y-104028169D01*
X248405113Y-104159351D01*
X248649340Y-104255203D01*
X248905126Y-104313585D01*
X248905132Y-104313585D01*
X248905135Y-104313586D01*
X249101256Y-104328283D01*
X249101262Y-104328283D01*
X249232256Y-104328283D01*
X249428376Y-104313586D01*
X249428378Y-104313585D01*
X249428386Y-104313585D01*
X249684172Y-104255203D01*
X249928399Y-104159351D01*
X250155613Y-104028169D01*
X250360737Y-103864588D01*
X250539189Y-103672262D01*
X250686984Y-103455487D01*
X250800819Y-103219106D01*
X250878152Y-102968398D01*
X250917256Y-102708965D01*
X250917256Y-102446601D01*
X250878152Y-102187168D01*
X250800819Y-101936460D01*
X250788877Y-101911663D01*
X250686988Y-101700086D01*
X250686987Y-101700085D01*
X250686986Y-101700084D01*
X250686984Y-101700079D01*
X250539189Y-101483304D01*
X250500400Y-101441499D01*
X250360741Y-101290981D01*
X250230755Y-101187321D01*
X250155613Y-101127397D01*
X249928399Y-100996215D01*
X249684172Y-100900363D01*
X249684167Y-100900361D01*
X249684158Y-100900359D01*
X249466574Y-100850697D01*
X249428386Y-100841981D01*
X249428385Y-100841980D01*
X249428381Y-100841980D01*
X249428376Y-100841979D01*
X249232256Y-100827283D01*
X249232250Y-100827283D01*
X249101262Y-100827283D01*
X249101256Y-100827283D01*
X248905135Y-100841979D01*
X248905130Y-100841980D01*
X248649353Y-100900359D01*
X248649334Y-100900365D01*
X248405112Y-100996215D01*
X248177899Y-101127397D01*
X247972770Y-101290981D01*
X247794323Y-101483303D01*
X247646524Y-101700085D01*
X247646523Y-101700086D01*
X247532694Y-101936456D01*
X247455362Y-102187159D01*
X247455361Y-102187164D01*
X247455360Y-102187168D01*
X247446329Y-102247083D01*
X247416256Y-102446595D01*
X247416256Y-102708970D01*
X239581718Y-102708970D01*
X239581718Y-102506525D01*
X239542614Y-102247092D01*
X239465281Y-101996384D01*
X239436421Y-101936456D01*
X239351450Y-101760010D01*
X239351449Y-101760009D01*
X239351448Y-101760008D01*
X239351446Y-101760003D01*
X239203651Y-101543228D01*
X239109261Y-101441499D01*
X239025203Y-101350905D01*
X238950060Y-101290981D01*
X238820075Y-101187321D01*
X238592861Y-101056139D01*
X238348634Y-100960287D01*
X238348629Y-100960285D01*
X238348620Y-100960283D01*
X238131036Y-100910621D01*
X238092848Y-100901905D01*
X238092847Y-100901904D01*
X238092843Y-100901904D01*
X238092838Y-100901903D01*
X237896718Y-100887207D01*
X237896712Y-100887207D01*
X237765724Y-100887207D01*
X237765718Y-100887207D01*
X237569597Y-100901903D01*
X237569592Y-100901904D01*
X237313815Y-100960283D01*
X237313796Y-100960289D01*
X237069574Y-101056139D01*
X236842361Y-101187321D01*
X236637232Y-101350905D01*
X236458785Y-101543227D01*
X236310986Y-101760009D01*
X236310985Y-101760010D01*
X236197156Y-101996380D01*
X236119824Y-102247083D01*
X236119823Y-102247088D01*
X236119822Y-102247092D01*
X236105071Y-102344954D01*
X236080718Y-102506519D01*
X236080718Y-102768894D01*
X228108775Y-102768894D01*
X228112775Y-102742353D01*
X228112775Y-102479989D01*
X228073671Y-102220556D01*
X227996338Y-101969848D01*
X227980257Y-101936456D01*
X227882507Y-101733474D01*
X227882506Y-101733473D01*
X227882505Y-101733472D01*
X227882503Y-101733467D01*
X227734708Y-101516692D01*
X227703728Y-101483303D01*
X227556260Y-101324369D01*
X227514389Y-101290978D01*
X227351132Y-101160785D01*
X227123918Y-101029603D01*
X226879691Y-100933751D01*
X226879686Y-100933749D01*
X226879677Y-100933747D01*
X226662093Y-100884085D01*
X226623905Y-100875369D01*
X226623904Y-100875368D01*
X226623900Y-100875368D01*
X226623895Y-100875367D01*
X226427775Y-100860671D01*
X226427769Y-100860671D01*
X226296781Y-100860671D01*
X226296775Y-100860671D01*
X226100654Y-100875367D01*
X226100649Y-100875368D01*
X225844872Y-100933747D01*
X225844853Y-100933753D01*
X225600631Y-101029603D01*
X225373418Y-101160785D01*
X225168289Y-101324369D01*
X224989842Y-101516691D01*
X224842043Y-101733473D01*
X224842042Y-101733474D01*
X224728213Y-101969844D01*
X224650881Y-102220547D01*
X224650880Y-102220552D01*
X224650879Y-102220556D01*
X224636128Y-102318418D01*
X224611775Y-102479983D01*
X224611775Y-102742358D01*
X219710000Y-102742358D01*
X219710000Y-101266036D01*
X219710098Y-101262559D01*
X219717688Y-101127397D01*
X219727713Y-100948890D01*
X219716682Y-100752481D01*
X219710098Y-100635219D01*
X219710000Y-100631742D01*
X219710000Y-97914500D01*
X219729685Y-97847461D01*
X219782489Y-97801706D01*
X219834000Y-97790500D01*
X260226000Y-97790500D01*
X260293039Y-97810185D01*
G37*
%TD.AperFunction*%
%TD*%
M02*
