%TF.GenerationSoftware,KiCad,Pcbnew,7.0.8*%
%TF.CreationDate,2024-02-10T10:33:56-08:00*%
%TF.ProjectId,Power Distribution 2023-2024,506f7765-7220-4446-9973-747269627574,rev?*%
%TF.SameCoordinates,Original*%
%TF.FileFunction,Legend,Top*%
%TF.FilePolarity,Positive*%
%FSLAX46Y46*%
G04 Gerber Fmt 4.6, Leading zero omitted, Abs format (unit mm)*
G04 Created by KiCad (PCBNEW 7.0.8) date 2024-02-10 10:33:56*
%MOMM*%
%LPD*%
G01*
G04 APERTURE LIST*
%ADD10C,0.200000*%
%ADD11C,0.125000*%
%ADD12C,0.100000*%
%ADD13C,0.150000*%
%ADD14C,0.120000*%
%ADD15C,0.127000*%
G04 APERTURE END LIST*
D10*
X225740127Y-109057217D02*
X225406794Y-109057217D01*
X225406794Y-109581027D02*
X225406794Y-108581027D01*
X225406794Y-108581027D02*
X225882984Y-108581027D01*
X226835365Y-109485788D02*
X226787746Y-109533408D01*
X226787746Y-109533408D02*
X226644889Y-109581027D01*
X226644889Y-109581027D02*
X226549651Y-109581027D01*
X226549651Y-109581027D02*
X226406794Y-109533408D01*
X226406794Y-109533408D02*
X226311556Y-109438169D01*
X226311556Y-109438169D02*
X226263937Y-109342931D01*
X226263937Y-109342931D02*
X226216318Y-109152455D01*
X226216318Y-109152455D02*
X226216318Y-109009598D01*
X226216318Y-109009598D02*
X226263937Y-108819122D01*
X226263937Y-108819122D02*
X226311556Y-108723884D01*
X226311556Y-108723884D02*
X226406794Y-108628646D01*
X226406794Y-108628646D02*
X226549651Y-108581027D01*
X226549651Y-108581027D02*
X226644889Y-108581027D01*
X226644889Y-108581027D02*
X226787746Y-108628646D01*
X226787746Y-108628646D02*
X226835365Y-108676265D01*
X227263937Y-109581027D02*
X227263937Y-108581027D01*
X227263937Y-108581027D02*
X227644889Y-108581027D01*
X227644889Y-108581027D02*
X227740127Y-108628646D01*
X227740127Y-108628646D02*
X227787746Y-108676265D01*
X227787746Y-108676265D02*
X227835365Y-108771503D01*
X227835365Y-108771503D02*
X227835365Y-108914360D01*
X227835365Y-108914360D02*
X227787746Y-109009598D01*
X227787746Y-109009598D02*
X227740127Y-109057217D01*
X227740127Y-109057217D02*
X227644889Y-109104836D01*
X227644889Y-109104836D02*
X227263937Y-109104836D01*
X229025842Y-109581027D02*
X229025842Y-108581027D01*
X229025842Y-108581027D02*
X229406794Y-108581027D01*
X229406794Y-108581027D02*
X229502032Y-108628646D01*
X229502032Y-108628646D02*
X229549651Y-108676265D01*
X229549651Y-108676265D02*
X229597270Y-108771503D01*
X229597270Y-108771503D02*
X229597270Y-108914360D01*
X229597270Y-108914360D02*
X229549651Y-109009598D01*
X229549651Y-109009598D02*
X229502032Y-109057217D01*
X229502032Y-109057217D02*
X229406794Y-109104836D01*
X229406794Y-109104836D02*
X229025842Y-109104836D01*
X230216318Y-108581027D02*
X230406794Y-108581027D01*
X230406794Y-108581027D02*
X230502032Y-108628646D01*
X230502032Y-108628646D02*
X230597270Y-108723884D01*
X230597270Y-108723884D02*
X230644889Y-108914360D01*
X230644889Y-108914360D02*
X230644889Y-109247693D01*
X230644889Y-109247693D02*
X230597270Y-109438169D01*
X230597270Y-109438169D02*
X230502032Y-109533408D01*
X230502032Y-109533408D02*
X230406794Y-109581027D01*
X230406794Y-109581027D02*
X230216318Y-109581027D01*
X230216318Y-109581027D02*
X230121080Y-109533408D01*
X230121080Y-109533408D02*
X230025842Y-109438169D01*
X230025842Y-109438169D02*
X229978223Y-109247693D01*
X229978223Y-109247693D02*
X229978223Y-108914360D01*
X229978223Y-108914360D02*
X230025842Y-108723884D01*
X230025842Y-108723884D02*
X230121080Y-108628646D01*
X230121080Y-108628646D02*
X230216318Y-108581027D01*
X230978223Y-108581027D02*
X231216318Y-109581027D01*
X231216318Y-109581027D02*
X231406794Y-108866741D01*
X231406794Y-108866741D02*
X231597270Y-109581027D01*
X231597270Y-109581027D02*
X231835366Y-108581027D01*
X232216318Y-109057217D02*
X232549651Y-109057217D01*
X232692508Y-109581027D02*
X232216318Y-109581027D01*
X232216318Y-109581027D02*
X232216318Y-108581027D01*
X232216318Y-108581027D02*
X232692508Y-108581027D01*
X233692508Y-109581027D02*
X233359175Y-109104836D01*
X233121080Y-109581027D02*
X233121080Y-108581027D01*
X233121080Y-108581027D02*
X233502032Y-108581027D01*
X233502032Y-108581027D02*
X233597270Y-108628646D01*
X233597270Y-108628646D02*
X233644889Y-108676265D01*
X233644889Y-108676265D02*
X233692508Y-108771503D01*
X233692508Y-108771503D02*
X233692508Y-108914360D01*
X233692508Y-108914360D02*
X233644889Y-109009598D01*
X233644889Y-109009598D02*
X233597270Y-109057217D01*
X233597270Y-109057217D02*
X233502032Y-109104836D01*
X233502032Y-109104836D02*
X233121080Y-109104836D01*
D11*
X239908761Y-113227595D02*
X239451618Y-113227595D01*
X239680190Y-113227595D02*
X239680190Y-112427595D01*
X239680190Y-112427595D02*
X239603999Y-112541880D01*
X239603999Y-112541880D02*
X239527809Y-112618071D01*
X239527809Y-112618071D02*
X239451618Y-112656166D01*
X240213523Y-112503785D02*
X240251619Y-112465690D01*
X240251619Y-112465690D02*
X240327809Y-112427595D01*
X240327809Y-112427595D02*
X240518285Y-112427595D01*
X240518285Y-112427595D02*
X240594476Y-112465690D01*
X240594476Y-112465690D02*
X240632571Y-112503785D01*
X240632571Y-112503785D02*
X240670666Y-112579976D01*
X240670666Y-112579976D02*
X240670666Y-112656166D01*
X240670666Y-112656166D02*
X240632571Y-112770452D01*
X240632571Y-112770452D02*
X240175428Y-113227595D01*
X240175428Y-113227595D02*
X240670666Y-113227595D01*
X240899238Y-112427595D02*
X241165905Y-113227595D01*
X241165905Y-113227595D02*
X241432571Y-112427595D01*
D12*
X226398169Y-110944800D02*
X226512455Y-110982895D01*
X226512455Y-110982895D02*
X226702931Y-110982895D01*
X226702931Y-110982895D02*
X226779122Y-110944800D01*
X226779122Y-110944800D02*
X226817217Y-110906704D01*
X226817217Y-110906704D02*
X226855312Y-110830514D01*
X226855312Y-110830514D02*
X226855312Y-110754323D01*
X226855312Y-110754323D02*
X226817217Y-110678133D01*
X226817217Y-110678133D02*
X226779122Y-110640038D01*
X226779122Y-110640038D02*
X226702931Y-110601942D01*
X226702931Y-110601942D02*
X226550550Y-110563847D01*
X226550550Y-110563847D02*
X226474360Y-110525752D01*
X226474360Y-110525752D02*
X226436265Y-110487657D01*
X226436265Y-110487657D02*
X226398169Y-110411466D01*
X226398169Y-110411466D02*
X226398169Y-110335276D01*
X226398169Y-110335276D02*
X226436265Y-110259085D01*
X226436265Y-110259085D02*
X226474360Y-110220990D01*
X226474360Y-110220990D02*
X226550550Y-110182895D01*
X226550550Y-110182895D02*
X226741027Y-110182895D01*
X226741027Y-110182895D02*
X226855312Y-110220990D01*
X227198170Y-110563847D02*
X227464836Y-110563847D01*
X227579122Y-110982895D02*
X227198170Y-110982895D01*
X227198170Y-110982895D02*
X227198170Y-110182895D01*
X227198170Y-110182895D02*
X227579122Y-110182895D01*
X227921980Y-110982895D02*
X227921980Y-110182895D01*
X227921980Y-110182895D02*
X228188646Y-110754323D01*
X228188646Y-110754323D02*
X228455313Y-110182895D01*
X228455313Y-110182895D02*
X228455313Y-110982895D01*
X228798170Y-110754323D02*
X229179123Y-110754323D01*
X228721980Y-110982895D02*
X228988647Y-110182895D01*
X228988647Y-110182895D02*
X229255313Y-110982895D01*
X230093408Y-110259085D02*
X230131504Y-110220990D01*
X230131504Y-110220990D02*
X230207694Y-110182895D01*
X230207694Y-110182895D02*
X230398170Y-110182895D01*
X230398170Y-110182895D02*
X230474361Y-110220990D01*
X230474361Y-110220990D02*
X230512456Y-110259085D01*
X230512456Y-110259085D02*
X230550551Y-110335276D01*
X230550551Y-110335276D02*
X230550551Y-110411466D01*
X230550551Y-110411466D02*
X230512456Y-110525752D01*
X230512456Y-110525752D02*
X230055313Y-110982895D01*
X230055313Y-110982895D02*
X230550551Y-110982895D01*
X231045790Y-110182895D02*
X231121980Y-110182895D01*
X231121980Y-110182895D02*
X231198171Y-110220990D01*
X231198171Y-110220990D02*
X231236266Y-110259085D01*
X231236266Y-110259085D02*
X231274361Y-110335276D01*
X231274361Y-110335276D02*
X231312456Y-110487657D01*
X231312456Y-110487657D02*
X231312456Y-110678133D01*
X231312456Y-110678133D02*
X231274361Y-110830514D01*
X231274361Y-110830514D02*
X231236266Y-110906704D01*
X231236266Y-110906704D02*
X231198171Y-110944800D01*
X231198171Y-110944800D02*
X231121980Y-110982895D01*
X231121980Y-110982895D02*
X231045790Y-110982895D01*
X231045790Y-110982895D02*
X230969599Y-110944800D01*
X230969599Y-110944800D02*
X230931504Y-110906704D01*
X230931504Y-110906704D02*
X230893409Y-110830514D01*
X230893409Y-110830514D02*
X230855313Y-110678133D01*
X230855313Y-110678133D02*
X230855313Y-110487657D01*
X230855313Y-110487657D02*
X230893409Y-110335276D01*
X230893409Y-110335276D02*
X230931504Y-110259085D01*
X230931504Y-110259085D02*
X230969599Y-110220990D01*
X230969599Y-110220990D02*
X231045790Y-110182895D01*
X231617218Y-110259085D02*
X231655314Y-110220990D01*
X231655314Y-110220990D02*
X231731504Y-110182895D01*
X231731504Y-110182895D02*
X231921980Y-110182895D01*
X231921980Y-110182895D02*
X231998171Y-110220990D01*
X231998171Y-110220990D02*
X232036266Y-110259085D01*
X232036266Y-110259085D02*
X232074361Y-110335276D01*
X232074361Y-110335276D02*
X232074361Y-110411466D01*
X232074361Y-110411466D02*
X232036266Y-110525752D01*
X232036266Y-110525752D02*
X231579123Y-110982895D01*
X231579123Y-110982895D02*
X232074361Y-110982895D01*
X232798171Y-110182895D02*
X232417219Y-110182895D01*
X232417219Y-110182895D02*
X232379123Y-110563847D01*
X232379123Y-110563847D02*
X232417219Y-110525752D01*
X232417219Y-110525752D02*
X232493409Y-110487657D01*
X232493409Y-110487657D02*
X232683885Y-110487657D01*
X232683885Y-110487657D02*
X232760076Y-110525752D01*
X232760076Y-110525752D02*
X232798171Y-110563847D01*
X232798171Y-110563847D02*
X232836266Y-110640038D01*
X232836266Y-110640038D02*
X232836266Y-110830514D01*
X232836266Y-110830514D02*
X232798171Y-110906704D01*
X232798171Y-110906704D02*
X232760076Y-110944800D01*
X232760076Y-110944800D02*
X232683885Y-110982895D01*
X232683885Y-110982895D02*
X232493409Y-110982895D01*
X232493409Y-110982895D02*
X232417219Y-110944800D01*
X232417219Y-110944800D02*
X232379123Y-110906704D01*
D11*
X235544627Y-145410594D02*
X235544627Y-144953451D01*
X236344627Y-145182023D02*
X235544627Y-145182023D01*
X235544627Y-144686784D02*
X236192246Y-144686784D01*
X236192246Y-144686784D02*
X236268436Y-144648689D01*
X236268436Y-144648689D02*
X236306532Y-144610594D01*
X236306532Y-144610594D02*
X236344627Y-144534403D01*
X236344627Y-144534403D02*
X236344627Y-144382022D01*
X236344627Y-144382022D02*
X236306532Y-144305832D01*
X236306532Y-144305832D02*
X236268436Y-144267737D01*
X236268436Y-144267737D02*
X236192246Y-144229641D01*
X236192246Y-144229641D02*
X235544627Y-144229641D01*
X236344627Y-143391546D02*
X235963674Y-143658213D01*
X236344627Y-143848689D02*
X235544627Y-143848689D01*
X235544627Y-143848689D02*
X235544627Y-143543927D01*
X235544627Y-143543927D02*
X235582722Y-143467737D01*
X235582722Y-143467737D02*
X235620817Y-143429642D01*
X235620817Y-143429642D02*
X235697008Y-143391546D01*
X235697008Y-143391546D02*
X235811293Y-143391546D01*
X235811293Y-143391546D02*
X235887484Y-143429642D01*
X235887484Y-143429642D02*
X235925579Y-143467737D01*
X235925579Y-143467737D02*
X235963674Y-143543927D01*
X235963674Y-143543927D02*
X235963674Y-143848689D01*
X235925579Y-142782023D02*
X235963674Y-142667737D01*
X235963674Y-142667737D02*
X236001770Y-142629642D01*
X236001770Y-142629642D02*
X236077960Y-142591546D01*
X236077960Y-142591546D02*
X236192246Y-142591546D01*
X236192246Y-142591546D02*
X236268436Y-142629642D01*
X236268436Y-142629642D02*
X236306532Y-142667737D01*
X236306532Y-142667737D02*
X236344627Y-142743927D01*
X236344627Y-142743927D02*
X236344627Y-143048689D01*
X236344627Y-143048689D02*
X235544627Y-143048689D01*
X235544627Y-143048689D02*
X235544627Y-142782023D01*
X235544627Y-142782023D02*
X235582722Y-142705832D01*
X235582722Y-142705832D02*
X235620817Y-142667737D01*
X235620817Y-142667737D02*
X235697008Y-142629642D01*
X235697008Y-142629642D02*
X235773198Y-142629642D01*
X235773198Y-142629642D02*
X235849389Y-142667737D01*
X235849389Y-142667737D02*
X235887484Y-142705832D01*
X235887484Y-142705832D02*
X235925579Y-142782023D01*
X235925579Y-142782023D02*
X235925579Y-143048689D01*
X235544627Y-142096308D02*
X235544627Y-141943927D01*
X235544627Y-141943927D02*
X235582722Y-141867737D01*
X235582722Y-141867737D02*
X235658912Y-141791546D01*
X235658912Y-141791546D02*
X235811293Y-141753451D01*
X235811293Y-141753451D02*
X236077960Y-141753451D01*
X236077960Y-141753451D02*
X236230341Y-141791546D01*
X236230341Y-141791546D02*
X236306532Y-141867737D01*
X236306532Y-141867737D02*
X236344627Y-141943927D01*
X236344627Y-141943927D02*
X236344627Y-142096308D01*
X236344627Y-142096308D02*
X236306532Y-142172499D01*
X236306532Y-142172499D02*
X236230341Y-142248689D01*
X236230341Y-142248689D02*
X236077960Y-142286785D01*
X236077960Y-142286785D02*
X235811293Y-142286785D01*
X235811293Y-142286785D02*
X235658912Y-142248689D01*
X235658912Y-142248689D02*
X235582722Y-142172499D01*
X235582722Y-142172499D02*
X235544627Y-142096308D01*
X252671151Y-132638997D02*
X252709246Y-132524711D01*
X252709246Y-132524711D02*
X252709246Y-132334235D01*
X252709246Y-132334235D02*
X252671151Y-132258044D01*
X252671151Y-132258044D02*
X252633055Y-132219949D01*
X252633055Y-132219949D02*
X252556865Y-132181854D01*
X252556865Y-132181854D02*
X252480674Y-132181854D01*
X252480674Y-132181854D02*
X252404484Y-132219949D01*
X252404484Y-132219949D02*
X252366389Y-132258044D01*
X252366389Y-132258044D02*
X252328293Y-132334235D01*
X252328293Y-132334235D02*
X252290198Y-132486616D01*
X252290198Y-132486616D02*
X252252103Y-132562806D01*
X252252103Y-132562806D02*
X252214008Y-132600901D01*
X252214008Y-132600901D02*
X252137817Y-132638997D01*
X252137817Y-132638997D02*
X252061627Y-132638997D01*
X252061627Y-132638997D02*
X251985436Y-132600901D01*
X251985436Y-132600901D02*
X251947341Y-132562806D01*
X251947341Y-132562806D02*
X251909246Y-132486616D01*
X251909246Y-132486616D02*
X251909246Y-132296139D01*
X251909246Y-132296139D02*
X251947341Y-132181854D01*
X252480674Y-131877092D02*
X252480674Y-131496139D01*
X252709246Y-131953282D02*
X251909246Y-131686615D01*
X251909246Y-131686615D02*
X252709246Y-131419949D01*
X252290198Y-130886616D02*
X252290198Y-131153282D01*
X252709246Y-131153282D02*
X251909246Y-131153282D01*
X251909246Y-131153282D02*
X251909246Y-130772330D01*
X252290198Y-130467568D02*
X252290198Y-130200902D01*
X252709246Y-130086616D02*
X252709246Y-130467568D01*
X252709246Y-130467568D02*
X251909246Y-130467568D01*
X251909246Y-130467568D02*
X251909246Y-130086616D01*
X252785436Y-129934235D02*
X252785436Y-129324711D01*
X251909246Y-128981853D02*
X251909246Y-128829472D01*
X251909246Y-128829472D02*
X251947341Y-128753282D01*
X251947341Y-128753282D02*
X252023531Y-128677091D01*
X252023531Y-128677091D02*
X252175912Y-128638996D01*
X252175912Y-128638996D02*
X252442579Y-128638996D01*
X252442579Y-128638996D02*
X252594960Y-128677091D01*
X252594960Y-128677091D02*
X252671151Y-128753282D01*
X252671151Y-128753282D02*
X252709246Y-128829472D01*
X252709246Y-128829472D02*
X252709246Y-128981853D01*
X252709246Y-128981853D02*
X252671151Y-129058044D01*
X252671151Y-129058044D02*
X252594960Y-129134234D01*
X252594960Y-129134234D02*
X252442579Y-129172330D01*
X252442579Y-129172330D02*
X252175912Y-129172330D01*
X252175912Y-129172330D02*
X252023531Y-129134234D01*
X252023531Y-129134234D02*
X251947341Y-129058044D01*
X251947341Y-129058044D02*
X251909246Y-128981853D01*
X251909246Y-128296139D02*
X252556865Y-128296139D01*
X252556865Y-128296139D02*
X252633055Y-128258044D01*
X252633055Y-128258044D02*
X252671151Y-128219949D01*
X252671151Y-128219949D02*
X252709246Y-128143758D01*
X252709246Y-128143758D02*
X252709246Y-127991377D01*
X252709246Y-127991377D02*
X252671151Y-127915187D01*
X252671151Y-127915187D02*
X252633055Y-127877092D01*
X252633055Y-127877092D02*
X252556865Y-127838996D01*
X252556865Y-127838996D02*
X251909246Y-127838996D01*
X251909246Y-127572330D02*
X251909246Y-127115187D01*
X252709246Y-127343759D02*
X251909246Y-127343759D01*
X230683063Y-126513988D02*
X230721158Y-126399702D01*
X230721158Y-126399702D02*
X230721158Y-126209226D01*
X230721158Y-126209226D02*
X230683063Y-126133035D01*
X230683063Y-126133035D02*
X230644967Y-126094940D01*
X230644967Y-126094940D02*
X230568777Y-126056845D01*
X230568777Y-126056845D02*
X230492586Y-126056845D01*
X230492586Y-126056845D02*
X230416396Y-126094940D01*
X230416396Y-126094940D02*
X230378301Y-126133035D01*
X230378301Y-126133035D02*
X230340205Y-126209226D01*
X230340205Y-126209226D02*
X230302110Y-126361607D01*
X230302110Y-126361607D02*
X230264015Y-126437797D01*
X230264015Y-126437797D02*
X230225920Y-126475892D01*
X230225920Y-126475892D02*
X230149729Y-126513988D01*
X230149729Y-126513988D02*
X230073539Y-126513988D01*
X230073539Y-126513988D02*
X229997348Y-126475892D01*
X229997348Y-126475892D02*
X229959253Y-126437797D01*
X229959253Y-126437797D02*
X229921158Y-126361607D01*
X229921158Y-126361607D02*
X229921158Y-126171130D01*
X229921158Y-126171130D02*
X229959253Y-126056845D01*
X229921158Y-125828273D02*
X229921158Y-125371130D01*
X230721158Y-125599702D02*
X229921158Y-125599702D01*
X230302110Y-125104463D02*
X230302110Y-124837797D01*
X230721158Y-124723511D02*
X230721158Y-125104463D01*
X230721158Y-125104463D02*
X229921158Y-125104463D01*
X229921158Y-125104463D02*
X229921158Y-124723511D01*
X230302110Y-124380653D02*
X230302110Y-124113987D01*
X230721158Y-123999701D02*
X230721158Y-124380653D01*
X230721158Y-124380653D02*
X229921158Y-124380653D01*
X229921158Y-124380653D02*
X229921158Y-123999701D01*
X230721158Y-123199700D02*
X230340205Y-123466367D01*
X230721158Y-123656843D02*
X229921158Y-123656843D01*
X229921158Y-123656843D02*
X229921158Y-123352081D01*
X229921158Y-123352081D02*
X229959253Y-123275891D01*
X229959253Y-123275891D02*
X229997348Y-123237796D01*
X229997348Y-123237796D02*
X230073539Y-123199700D01*
X230073539Y-123199700D02*
X230187824Y-123199700D01*
X230187824Y-123199700D02*
X230264015Y-123237796D01*
X230264015Y-123237796D02*
X230302110Y-123275891D01*
X230302110Y-123275891D02*
X230340205Y-123352081D01*
X230340205Y-123352081D02*
X230340205Y-123656843D01*
X230797348Y-123047320D02*
X230797348Y-122437796D01*
X229921158Y-122094938D02*
X229921158Y-121942557D01*
X229921158Y-121942557D02*
X229959253Y-121866367D01*
X229959253Y-121866367D02*
X230035443Y-121790176D01*
X230035443Y-121790176D02*
X230187824Y-121752081D01*
X230187824Y-121752081D02*
X230454491Y-121752081D01*
X230454491Y-121752081D02*
X230606872Y-121790176D01*
X230606872Y-121790176D02*
X230683063Y-121866367D01*
X230683063Y-121866367D02*
X230721158Y-121942557D01*
X230721158Y-121942557D02*
X230721158Y-122094938D01*
X230721158Y-122094938D02*
X230683063Y-122171129D01*
X230683063Y-122171129D02*
X230606872Y-122247319D01*
X230606872Y-122247319D02*
X230454491Y-122285415D01*
X230454491Y-122285415D02*
X230187824Y-122285415D01*
X230187824Y-122285415D02*
X230035443Y-122247319D01*
X230035443Y-122247319D02*
X229959253Y-122171129D01*
X229959253Y-122171129D02*
X229921158Y-122094938D01*
X229921158Y-121409224D02*
X230568777Y-121409224D01*
X230568777Y-121409224D02*
X230644967Y-121371129D01*
X230644967Y-121371129D02*
X230683063Y-121333034D01*
X230683063Y-121333034D02*
X230721158Y-121256843D01*
X230721158Y-121256843D02*
X230721158Y-121104462D01*
X230721158Y-121104462D02*
X230683063Y-121028272D01*
X230683063Y-121028272D02*
X230644967Y-120990177D01*
X230644967Y-120990177D02*
X230568777Y-120952081D01*
X230568777Y-120952081D02*
X229921158Y-120952081D01*
X229921158Y-120685415D02*
X229921158Y-120228272D01*
X230721158Y-120456844D02*
X229921158Y-120456844D01*
D13*
X234905427Y-108638295D02*
X235362570Y-108638295D01*
X235133998Y-109438295D02*
X235133998Y-108638295D01*
X235743522Y-109438295D02*
X235667332Y-109400200D01*
X235667332Y-109400200D02*
X235629237Y-109362104D01*
X235629237Y-109362104D02*
X235591141Y-109285914D01*
X235591141Y-109285914D02*
X235591141Y-109057342D01*
X235591141Y-109057342D02*
X235629237Y-108981152D01*
X235629237Y-108981152D02*
X235667332Y-108943057D01*
X235667332Y-108943057D02*
X235743522Y-108904961D01*
X235743522Y-108904961D02*
X235857808Y-108904961D01*
X235857808Y-108904961D02*
X235933999Y-108943057D01*
X235933999Y-108943057D02*
X235972094Y-108981152D01*
X235972094Y-108981152D02*
X236010189Y-109057342D01*
X236010189Y-109057342D02*
X236010189Y-109285914D01*
X236010189Y-109285914D02*
X235972094Y-109362104D01*
X235972094Y-109362104D02*
X235933999Y-109400200D01*
X235933999Y-109400200D02*
X235857808Y-109438295D01*
X235857808Y-109438295D02*
X235743522Y-109438295D01*
X236353047Y-109438295D02*
X236353047Y-108904961D01*
X236353047Y-108981152D02*
X236391142Y-108943057D01*
X236391142Y-108943057D02*
X236467332Y-108904961D01*
X236467332Y-108904961D02*
X236581618Y-108904961D01*
X236581618Y-108904961D02*
X236657809Y-108943057D01*
X236657809Y-108943057D02*
X236695904Y-109019247D01*
X236695904Y-109019247D02*
X236695904Y-109438295D01*
X236695904Y-109019247D02*
X236733999Y-108943057D01*
X236733999Y-108943057D02*
X236810190Y-108904961D01*
X236810190Y-108904961D02*
X236924475Y-108904961D01*
X236924475Y-108904961D02*
X237000666Y-108943057D01*
X237000666Y-108943057D02*
X237038761Y-109019247D01*
X237038761Y-109019247D02*
X237038761Y-109438295D01*
X237762571Y-109438295D02*
X237762571Y-109019247D01*
X237762571Y-109019247D02*
X237724476Y-108943057D01*
X237724476Y-108943057D02*
X237648285Y-108904961D01*
X237648285Y-108904961D02*
X237495904Y-108904961D01*
X237495904Y-108904961D02*
X237419714Y-108943057D01*
X237762571Y-109400200D02*
X237686380Y-109438295D01*
X237686380Y-109438295D02*
X237495904Y-109438295D01*
X237495904Y-109438295D02*
X237419714Y-109400200D01*
X237419714Y-109400200D02*
X237381618Y-109324009D01*
X237381618Y-109324009D02*
X237381618Y-109247819D01*
X237381618Y-109247819D02*
X237419714Y-109171628D01*
X237419714Y-109171628D02*
X237495904Y-109133533D01*
X237495904Y-109133533D02*
X237686380Y-109133533D01*
X237686380Y-109133533D02*
X237762571Y-109095438D01*
X238067333Y-108904961D02*
X238486381Y-108904961D01*
X238486381Y-108904961D02*
X238067333Y-109438295D01*
X238067333Y-109438295D02*
X238486381Y-109438295D01*
X239324476Y-108638295D02*
X239857810Y-108638295D01*
X239857810Y-108638295D02*
X239324476Y-109438295D01*
X239324476Y-109438295D02*
X239857810Y-109438295D01*
X240276857Y-109438295D02*
X240200667Y-109400200D01*
X240200667Y-109400200D02*
X240162572Y-109324009D01*
X240162572Y-109324009D02*
X240162572Y-108638295D01*
X240581620Y-109438295D02*
X240581620Y-108904961D01*
X240581620Y-108638295D02*
X240543524Y-108676390D01*
X240543524Y-108676390D02*
X240581620Y-108714485D01*
X240581620Y-108714485D02*
X240619715Y-108676390D01*
X240619715Y-108676390D02*
X240581620Y-108638295D01*
X240581620Y-108638295D02*
X240581620Y-108714485D01*
X240962572Y-108904961D02*
X240962572Y-109438295D01*
X240962572Y-108981152D02*
X241000667Y-108943057D01*
X241000667Y-108943057D02*
X241076857Y-108904961D01*
X241076857Y-108904961D02*
X241191143Y-108904961D01*
X241191143Y-108904961D02*
X241267334Y-108943057D01*
X241267334Y-108943057D02*
X241305429Y-109019247D01*
X241305429Y-109019247D02*
X241305429Y-109438295D01*
X242029239Y-109438295D02*
X242029239Y-108638295D01*
X242029239Y-109400200D02*
X241953048Y-109438295D01*
X241953048Y-109438295D02*
X241800667Y-109438295D01*
X241800667Y-109438295D02*
X241724477Y-109400200D01*
X241724477Y-109400200D02*
X241686382Y-109362104D01*
X241686382Y-109362104D02*
X241648286Y-109285914D01*
X241648286Y-109285914D02*
X241648286Y-109057342D01*
X241648286Y-109057342D02*
X241686382Y-108981152D01*
X241686382Y-108981152D02*
X241724477Y-108943057D01*
X241724477Y-108943057D02*
X241800667Y-108904961D01*
X241800667Y-108904961D02*
X241953048Y-108904961D01*
X241953048Y-108904961D02*
X242029239Y-108943057D01*
X242410192Y-109438295D02*
X242410192Y-108904961D01*
X242410192Y-109057342D02*
X242448287Y-108981152D01*
X242448287Y-108981152D02*
X242486382Y-108943057D01*
X242486382Y-108943057D02*
X242562573Y-108904961D01*
X242562573Y-108904961D02*
X242638763Y-108904961D01*
X243248287Y-109438295D02*
X243248287Y-109019247D01*
X243248287Y-109019247D02*
X243210192Y-108943057D01*
X243210192Y-108943057D02*
X243134001Y-108904961D01*
X243134001Y-108904961D02*
X242981620Y-108904961D01*
X242981620Y-108904961D02*
X242905430Y-108943057D01*
X243248287Y-109400200D02*
X243172096Y-109438295D01*
X243172096Y-109438295D02*
X242981620Y-109438295D01*
X242981620Y-109438295D02*
X242905430Y-109400200D01*
X242905430Y-109400200D02*
X242867334Y-109324009D01*
X242867334Y-109324009D02*
X242867334Y-109247819D01*
X242867334Y-109247819D02*
X242905430Y-109171628D01*
X242905430Y-109171628D02*
X242981620Y-109133533D01*
X242981620Y-109133533D02*
X243172096Y-109133533D01*
X243172096Y-109133533D02*
X243248287Y-109095438D01*
X235514950Y-110688200D02*
X235629236Y-110726295D01*
X235629236Y-110726295D02*
X235819712Y-110726295D01*
X235819712Y-110726295D02*
X235895903Y-110688200D01*
X235895903Y-110688200D02*
X235933998Y-110650104D01*
X235933998Y-110650104D02*
X235972093Y-110573914D01*
X235972093Y-110573914D02*
X235972093Y-110497723D01*
X235972093Y-110497723D02*
X235933998Y-110421533D01*
X235933998Y-110421533D02*
X235895903Y-110383438D01*
X235895903Y-110383438D02*
X235819712Y-110345342D01*
X235819712Y-110345342D02*
X235667331Y-110307247D01*
X235667331Y-110307247D02*
X235591141Y-110269152D01*
X235591141Y-110269152D02*
X235553046Y-110231057D01*
X235553046Y-110231057D02*
X235514950Y-110154866D01*
X235514950Y-110154866D02*
X235514950Y-110078676D01*
X235514950Y-110078676D02*
X235553046Y-110002485D01*
X235553046Y-110002485D02*
X235591141Y-109964390D01*
X235591141Y-109964390D02*
X235667331Y-109926295D01*
X235667331Y-109926295D02*
X235857808Y-109926295D01*
X235857808Y-109926295D02*
X235972093Y-109964390D01*
X236657808Y-110726295D02*
X236657808Y-110307247D01*
X236657808Y-110307247D02*
X236619713Y-110231057D01*
X236619713Y-110231057D02*
X236543522Y-110192961D01*
X236543522Y-110192961D02*
X236391141Y-110192961D01*
X236391141Y-110192961D02*
X236314951Y-110231057D01*
X236657808Y-110688200D02*
X236581617Y-110726295D01*
X236581617Y-110726295D02*
X236391141Y-110726295D01*
X236391141Y-110726295D02*
X236314951Y-110688200D01*
X236314951Y-110688200D02*
X236276855Y-110612009D01*
X236276855Y-110612009D02*
X236276855Y-110535819D01*
X236276855Y-110535819D02*
X236314951Y-110459628D01*
X236314951Y-110459628D02*
X236391141Y-110421533D01*
X236391141Y-110421533D02*
X236581617Y-110421533D01*
X236581617Y-110421533D02*
X236657808Y-110383438D01*
X237038761Y-110726295D02*
X237038761Y-110192961D01*
X237038761Y-110345342D02*
X237076856Y-110269152D01*
X237076856Y-110269152D02*
X237114951Y-110231057D01*
X237114951Y-110231057D02*
X237191142Y-110192961D01*
X237191142Y-110192961D02*
X237267332Y-110192961D01*
X237876856Y-110726295D02*
X237876856Y-110307247D01*
X237876856Y-110307247D02*
X237838761Y-110231057D01*
X237838761Y-110231057D02*
X237762570Y-110192961D01*
X237762570Y-110192961D02*
X237610189Y-110192961D01*
X237610189Y-110192961D02*
X237533999Y-110231057D01*
X237876856Y-110688200D02*
X237800665Y-110726295D01*
X237800665Y-110726295D02*
X237610189Y-110726295D01*
X237610189Y-110726295D02*
X237533999Y-110688200D01*
X237533999Y-110688200D02*
X237495903Y-110612009D01*
X237495903Y-110612009D02*
X237495903Y-110535819D01*
X237495903Y-110535819D02*
X237533999Y-110459628D01*
X237533999Y-110459628D02*
X237610189Y-110421533D01*
X237610189Y-110421533D02*
X237800665Y-110421533D01*
X237800665Y-110421533D02*
X237876856Y-110383438D01*
X238257809Y-110726295D02*
X238257809Y-109926295D01*
X238600666Y-110726295D02*
X238600666Y-110307247D01*
X238600666Y-110307247D02*
X238562571Y-110231057D01*
X238562571Y-110231057D02*
X238486380Y-110192961D01*
X238486380Y-110192961D02*
X238372094Y-110192961D01*
X238372094Y-110192961D02*
X238295904Y-110231057D01*
X238295904Y-110231057D02*
X238257809Y-110269152D01*
X240124476Y-110802485D02*
X240048286Y-110764390D01*
X240048286Y-110764390D02*
X239972095Y-110688200D01*
X239972095Y-110688200D02*
X239857809Y-110573914D01*
X239857809Y-110573914D02*
X239781619Y-110535819D01*
X239781619Y-110535819D02*
X239705428Y-110535819D01*
X239743524Y-110726295D02*
X239667333Y-110688200D01*
X239667333Y-110688200D02*
X239591143Y-110612009D01*
X239591143Y-110612009D02*
X239553047Y-110459628D01*
X239553047Y-110459628D02*
X239553047Y-110192961D01*
X239553047Y-110192961D02*
X239591143Y-110040580D01*
X239591143Y-110040580D02*
X239667333Y-109964390D01*
X239667333Y-109964390D02*
X239743524Y-109926295D01*
X239743524Y-109926295D02*
X239895905Y-109926295D01*
X239895905Y-109926295D02*
X239972095Y-109964390D01*
X239972095Y-109964390D02*
X240048286Y-110040580D01*
X240048286Y-110040580D02*
X240086381Y-110192961D01*
X240086381Y-110192961D02*
X240086381Y-110459628D01*
X240086381Y-110459628D02*
X240048286Y-110612009D01*
X240048286Y-110612009D02*
X239972095Y-110688200D01*
X239972095Y-110688200D02*
X239895905Y-110726295D01*
X239895905Y-110726295D02*
X239743524Y-110726295D01*
X240772095Y-110726295D02*
X240772095Y-110307247D01*
X240772095Y-110307247D02*
X240734000Y-110231057D01*
X240734000Y-110231057D02*
X240657809Y-110192961D01*
X240657809Y-110192961D02*
X240505428Y-110192961D01*
X240505428Y-110192961D02*
X240429238Y-110231057D01*
X240772095Y-110688200D02*
X240695904Y-110726295D01*
X240695904Y-110726295D02*
X240505428Y-110726295D01*
X240505428Y-110726295D02*
X240429238Y-110688200D01*
X240429238Y-110688200D02*
X240391142Y-110612009D01*
X240391142Y-110612009D02*
X240391142Y-110535819D01*
X240391142Y-110535819D02*
X240429238Y-110459628D01*
X240429238Y-110459628D02*
X240505428Y-110421533D01*
X240505428Y-110421533D02*
X240695904Y-110421533D01*
X240695904Y-110421533D02*
X240772095Y-110383438D01*
X241495905Y-110726295D02*
X241495905Y-109926295D01*
X241495905Y-110688200D02*
X241419714Y-110726295D01*
X241419714Y-110726295D02*
X241267333Y-110726295D01*
X241267333Y-110726295D02*
X241191143Y-110688200D01*
X241191143Y-110688200D02*
X241153048Y-110650104D01*
X241153048Y-110650104D02*
X241114952Y-110573914D01*
X241114952Y-110573914D02*
X241114952Y-110345342D01*
X241114952Y-110345342D02*
X241153048Y-110269152D01*
X241153048Y-110269152D02*
X241191143Y-110231057D01*
X241191143Y-110231057D02*
X241267333Y-110192961D01*
X241267333Y-110192961D02*
X241419714Y-110192961D01*
X241419714Y-110192961D02*
X241495905Y-110231057D01*
X242219715Y-110726295D02*
X242219715Y-110307247D01*
X242219715Y-110307247D02*
X242181620Y-110231057D01*
X242181620Y-110231057D02*
X242105429Y-110192961D01*
X242105429Y-110192961D02*
X241953048Y-110192961D01*
X241953048Y-110192961D02*
X241876858Y-110231057D01*
X242219715Y-110688200D02*
X242143524Y-110726295D01*
X242143524Y-110726295D02*
X241953048Y-110726295D01*
X241953048Y-110726295D02*
X241876858Y-110688200D01*
X241876858Y-110688200D02*
X241838762Y-110612009D01*
X241838762Y-110612009D02*
X241838762Y-110535819D01*
X241838762Y-110535819D02*
X241876858Y-110459628D01*
X241876858Y-110459628D02*
X241953048Y-110421533D01*
X241953048Y-110421533D02*
X242143524Y-110421533D01*
X242143524Y-110421533D02*
X242219715Y-110383438D01*
X242600668Y-110726295D02*
X242600668Y-110192961D01*
X242600668Y-110345342D02*
X242638763Y-110269152D01*
X242638763Y-110269152D02*
X242676858Y-110231057D01*
X242676858Y-110231057D02*
X242753049Y-110192961D01*
X242753049Y-110192961D02*
X242829239Y-110192961D01*
D11*
X252310768Y-122910981D02*
X252310768Y-122644315D01*
X252729816Y-122530029D02*
X252729816Y-122910981D01*
X252729816Y-122910981D02*
X251929816Y-122910981D01*
X251929816Y-122910981D02*
X251929816Y-122530029D01*
X251929816Y-122263362D02*
X252729816Y-121730028D01*
X251929816Y-121730028D02*
X252729816Y-122263362D01*
X251929816Y-121539552D02*
X251929816Y-121082409D01*
X252729816Y-121310981D02*
X251929816Y-121310981D01*
X252310768Y-120815742D02*
X252310768Y-120549076D01*
X252729816Y-120434790D02*
X252729816Y-120815742D01*
X252729816Y-120815742D02*
X251929816Y-120815742D01*
X251929816Y-120815742D02*
X251929816Y-120434790D01*
X252729816Y-119634789D02*
X252348863Y-119901456D01*
X252729816Y-120091932D02*
X251929816Y-120091932D01*
X251929816Y-120091932D02*
X251929816Y-119787170D01*
X251929816Y-119787170D02*
X251967911Y-119710980D01*
X251967911Y-119710980D02*
X252006006Y-119672885D01*
X252006006Y-119672885D02*
X252082197Y-119634789D01*
X252082197Y-119634789D02*
X252196482Y-119634789D01*
X252196482Y-119634789D02*
X252272673Y-119672885D01*
X252272673Y-119672885D02*
X252310768Y-119710980D01*
X252310768Y-119710980D02*
X252348863Y-119787170D01*
X252348863Y-119787170D02*
X252348863Y-120091932D01*
X252729816Y-119291932D02*
X251929816Y-119291932D01*
X251929816Y-119291932D02*
X252729816Y-118834789D01*
X252729816Y-118834789D02*
X251929816Y-118834789D01*
X252501244Y-118491933D02*
X252501244Y-118110980D01*
X252729816Y-118568123D02*
X251929816Y-118301456D01*
X251929816Y-118301456D02*
X252729816Y-118034790D01*
X252729816Y-117387171D02*
X252729816Y-117768123D01*
X252729816Y-117768123D02*
X251929816Y-117768123D01*
X252806006Y-117310981D02*
X252806006Y-116701457D01*
X252729816Y-116510980D02*
X251929816Y-116510980D01*
X252729816Y-116053837D02*
X252272673Y-116396695D01*
X251929816Y-116053837D02*
X252386959Y-116510980D01*
X252729816Y-115710980D02*
X251929816Y-115710980D01*
X252729816Y-114949076D02*
X252729816Y-115330028D01*
X252729816Y-115330028D02*
X251929816Y-115330028D01*
X252729816Y-114301457D02*
X252729816Y-114682409D01*
X252729816Y-114682409D02*
X251929816Y-114682409D01*
X246855714Y-112427595D02*
X247312857Y-112427595D01*
X247084285Y-113227595D02*
X247084285Y-112427595D01*
X247579524Y-112808547D02*
X247846190Y-112808547D01*
X247960476Y-113227595D02*
X247579524Y-113227595D01*
X247579524Y-113227595D02*
X247579524Y-112427595D01*
X247579524Y-112427595D02*
X247960476Y-112427595D01*
X248684286Y-113227595D02*
X248303334Y-113227595D01*
X248303334Y-113227595D02*
X248303334Y-112427595D01*
X236308487Y-137957473D02*
X235508487Y-137957473D01*
X235889439Y-137957473D02*
X235889439Y-137500330D01*
X236308487Y-137500330D02*
X235508487Y-137500330D01*
X235508487Y-136966997D02*
X235508487Y-136814616D01*
X235508487Y-136814616D02*
X235546582Y-136738426D01*
X235546582Y-136738426D02*
X235622772Y-136662235D01*
X235622772Y-136662235D02*
X235775153Y-136624140D01*
X235775153Y-136624140D02*
X236041820Y-136624140D01*
X236041820Y-136624140D02*
X236194201Y-136662235D01*
X236194201Y-136662235D02*
X236270392Y-136738426D01*
X236270392Y-136738426D02*
X236308487Y-136814616D01*
X236308487Y-136814616D02*
X236308487Y-136966997D01*
X236308487Y-136966997D02*
X236270392Y-137043188D01*
X236270392Y-137043188D02*
X236194201Y-137119378D01*
X236194201Y-137119378D02*
X236041820Y-137157474D01*
X236041820Y-137157474D02*
X235775153Y-137157474D01*
X235775153Y-137157474D02*
X235622772Y-137119378D01*
X235622772Y-137119378D02*
X235546582Y-137043188D01*
X235546582Y-137043188D02*
X235508487Y-136966997D01*
X236308487Y-135824140D02*
X235927534Y-136090807D01*
X236308487Y-136281283D02*
X235508487Y-136281283D01*
X235508487Y-136281283D02*
X235508487Y-135976521D01*
X235508487Y-135976521D02*
X235546582Y-135900331D01*
X235546582Y-135900331D02*
X235584677Y-135862236D01*
X235584677Y-135862236D02*
X235660868Y-135824140D01*
X235660868Y-135824140D02*
X235775153Y-135824140D01*
X235775153Y-135824140D02*
X235851344Y-135862236D01*
X235851344Y-135862236D02*
X235889439Y-135900331D01*
X235889439Y-135900331D02*
X235927534Y-135976521D01*
X235927534Y-135976521D02*
X235927534Y-136281283D01*
X236308487Y-135481283D02*
X235508487Y-135481283D01*
X235508487Y-135481283D02*
X236308487Y-135024140D01*
X236308487Y-135024140D02*
X235508487Y-135024140D01*
D13*
X213763046Y-113601203D02*
X213763046Y-114315488D01*
X213763046Y-114315488D02*
X213715427Y-114458345D01*
X213715427Y-114458345D02*
X213620189Y-114553584D01*
X213620189Y-114553584D02*
X213477332Y-114601203D01*
X213477332Y-114601203D02*
X213382094Y-114601203D01*
X214715427Y-113601203D02*
X214239237Y-113601203D01*
X214239237Y-113601203D02*
X214191618Y-114077393D01*
X214191618Y-114077393D02*
X214239237Y-114029774D01*
X214239237Y-114029774D02*
X214334475Y-113982155D01*
X214334475Y-113982155D02*
X214572570Y-113982155D01*
X214572570Y-113982155D02*
X214667808Y-114029774D01*
X214667808Y-114029774D02*
X214715427Y-114077393D01*
X214715427Y-114077393D02*
X214763046Y-114172631D01*
X214763046Y-114172631D02*
X214763046Y-114410726D01*
X214763046Y-114410726D02*
X214715427Y-114505964D01*
X214715427Y-114505964D02*
X214667808Y-114553584D01*
X214667808Y-114553584D02*
X214572570Y-114601203D01*
X214572570Y-114601203D02*
X214334475Y-114601203D01*
X214334475Y-114601203D02*
X214239237Y-114553584D01*
X214239237Y-114553584D02*
X214191618Y-114505964D01*
X235437327Y-121186228D02*
X235103994Y-120710037D01*
X234865899Y-121186228D02*
X234865899Y-120186228D01*
X234865899Y-120186228D02*
X235246851Y-120186228D01*
X235246851Y-120186228D02*
X235342089Y-120233847D01*
X235342089Y-120233847D02*
X235389708Y-120281466D01*
X235389708Y-120281466D02*
X235437327Y-120376704D01*
X235437327Y-120376704D02*
X235437327Y-120519561D01*
X235437327Y-120519561D02*
X235389708Y-120614799D01*
X235389708Y-120614799D02*
X235342089Y-120662418D01*
X235342089Y-120662418D02*
X235246851Y-120710037D01*
X235246851Y-120710037D02*
X234865899Y-120710037D01*
X236294470Y-120519561D02*
X236294470Y-121186228D01*
X236056375Y-120138609D02*
X235818280Y-120852894D01*
X235818280Y-120852894D02*
X236437327Y-120852894D01*
X262038272Y-123994682D02*
X262038272Y-124708967D01*
X262038272Y-124708967D02*
X261990653Y-124851824D01*
X261990653Y-124851824D02*
X261895415Y-124947063D01*
X261895415Y-124947063D02*
X261752558Y-124994682D01*
X261752558Y-124994682D02*
X261657320Y-124994682D01*
X262419225Y-123994682D02*
X263038272Y-123994682D01*
X263038272Y-123994682D02*
X262704939Y-124375634D01*
X262704939Y-124375634D02*
X262847796Y-124375634D01*
X262847796Y-124375634D02*
X262943034Y-124423253D01*
X262943034Y-124423253D02*
X262990653Y-124470872D01*
X262990653Y-124470872D02*
X263038272Y-124566110D01*
X263038272Y-124566110D02*
X263038272Y-124804205D01*
X263038272Y-124804205D02*
X262990653Y-124899443D01*
X262990653Y-124899443D02*
X262943034Y-124947063D01*
X262943034Y-124947063D02*
X262847796Y-124994682D01*
X262847796Y-124994682D02*
X262562082Y-124994682D01*
X262562082Y-124994682D02*
X262466844Y-124947063D01*
X262466844Y-124947063D02*
X262419225Y-124899443D01*
X213755396Y-139454491D02*
X213755396Y-140168776D01*
X213755396Y-140168776D02*
X213707777Y-140311633D01*
X213707777Y-140311633D02*
X213612539Y-140406872D01*
X213612539Y-140406872D02*
X213469682Y-140454491D01*
X213469682Y-140454491D02*
X213374444Y-140454491D01*
X214136349Y-139454491D02*
X214803015Y-139454491D01*
X214803015Y-139454491D02*
X214374444Y-140454491D01*
X249680015Y-130180310D02*
X249680015Y-130894595D01*
X249680015Y-130894595D02*
X249632396Y-131037452D01*
X249632396Y-131037452D02*
X249537158Y-131132691D01*
X249537158Y-131132691D02*
X249394301Y-131180310D01*
X249394301Y-131180310D02*
X249299063Y-131180310D01*
X250584777Y-130513643D02*
X250584777Y-131180310D01*
X250346682Y-130132691D02*
X250108587Y-130846976D01*
X250108587Y-130846976D02*
X250727634Y-130846976D01*
X261890063Y-112641659D02*
X261890063Y-113355944D01*
X261890063Y-113355944D02*
X261842444Y-113498801D01*
X261842444Y-113498801D02*
X261747206Y-113594040D01*
X261747206Y-113594040D02*
X261604349Y-113641659D01*
X261604349Y-113641659D02*
X261509111Y-113641659D01*
X262318635Y-112736897D02*
X262366254Y-112689278D01*
X262366254Y-112689278D02*
X262461492Y-112641659D01*
X262461492Y-112641659D02*
X262699587Y-112641659D01*
X262699587Y-112641659D02*
X262794825Y-112689278D01*
X262794825Y-112689278D02*
X262842444Y-112736897D01*
X262842444Y-112736897D02*
X262890063Y-112832135D01*
X262890063Y-112832135D02*
X262890063Y-112927373D01*
X262890063Y-112927373D02*
X262842444Y-113070230D01*
X262842444Y-113070230D02*
X262271016Y-113641659D01*
X262271016Y-113641659D02*
X262890063Y-113641659D01*
X242953570Y-112611634D02*
X242620237Y-112611634D01*
X242620237Y-113135444D02*
X242620237Y-112135444D01*
X242620237Y-112135444D02*
X243096427Y-112135444D01*
X243905951Y-112468777D02*
X243905951Y-113135444D01*
X243667856Y-112087825D02*
X243429761Y-112802110D01*
X243429761Y-112802110D02*
X244048808Y-112802110D01*
X234917886Y-129556212D02*
X234917886Y-128556212D01*
X234917886Y-128556212D02*
X235155981Y-128556212D01*
X235155981Y-128556212D02*
X235298838Y-128603831D01*
X235298838Y-128603831D02*
X235394076Y-128699069D01*
X235394076Y-128699069D02*
X235441695Y-128794307D01*
X235441695Y-128794307D02*
X235489314Y-128984783D01*
X235489314Y-128984783D02*
X235489314Y-129127640D01*
X235489314Y-129127640D02*
X235441695Y-129318116D01*
X235441695Y-129318116D02*
X235394076Y-129413354D01*
X235394076Y-129413354D02*
X235298838Y-129508593D01*
X235298838Y-129508593D02*
X235155981Y-129556212D01*
X235155981Y-129556212D02*
X234917886Y-129556212D01*
X236346457Y-128889545D02*
X236346457Y-129556212D01*
X236108362Y-128508593D02*
X235870267Y-129222878D01*
X235870267Y-129222878D02*
X236489314Y-129222878D01*
X250448881Y-112557860D02*
X250115548Y-112557860D01*
X250115548Y-113081670D02*
X250115548Y-112081670D01*
X250115548Y-112081670D02*
X250591738Y-112081670D01*
X251496500Y-113081670D02*
X250925072Y-113081670D01*
X251210786Y-113081670D02*
X251210786Y-112081670D01*
X251210786Y-112081670D02*
X251115548Y-112224527D01*
X251115548Y-112224527D02*
X251020310Y-112319765D01*
X251020310Y-112319765D02*
X250925072Y-112367384D01*
X262033805Y-135347172D02*
X262033805Y-136061457D01*
X262033805Y-136061457D02*
X261986186Y-136204314D01*
X261986186Y-136204314D02*
X261890948Y-136299553D01*
X261890948Y-136299553D02*
X261748091Y-136347172D01*
X261748091Y-136347172D02*
X261652853Y-136347172D01*
X263033805Y-136347172D02*
X262462377Y-136347172D01*
X262748091Y-136347172D02*
X262748091Y-135347172D01*
X262748091Y-135347172D02*
X262652853Y-135490029D01*
X262652853Y-135490029D02*
X262557615Y-135585267D01*
X262557615Y-135585267D02*
X262462377Y-135632886D01*
X213686544Y-132351916D02*
X213686544Y-133066201D01*
X213686544Y-133066201D02*
X213638925Y-133209058D01*
X213638925Y-133209058D02*
X213543687Y-133304297D01*
X213543687Y-133304297D02*
X213400830Y-133351916D01*
X213400830Y-133351916D02*
X213305592Y-133351916D01*
X214591306Y-132351916D02*
X214400830Y-132351916D01*
X214400830Y-132351916D02*
X214305592Y-132399535D01*
X214305592Y-132399535D02*
X214257973Y-132447154D01*
X214257973Y-132447154D02*
X214162735Y-132590011D01*
X214162735Y-132590011D02*
X214115116Y-132780487D01*
X214115116Y-132780487D02*
X214115116Y-133161439D01*
X214115116Y-133161439D02*
X214162735Y-133256677D01*
X214162735Y-133256677D02*
X214210354Y-133304297D01*
X214210354Y-133304297D02*
X214305592Y-133351916D01*
X214305592Y-133351916D02*
X214496068Y-133351916D01*
X214496068Y-133351916D02*
X214591306Y-133304297D01*
X214591306Y-133304297D02*
X214638925Y-133256677D01*
X214638925Y-133256677D02*
X214686544Y-133161439D01*
X214686544Y-133161439D02*
X214686544Y-132923344D01*
X214686544Y-132923344D02*
X214638925Y-132828106D01*
X214638925Y-132828106D02*
X214591306Y-132780487D01*
X214591306Y-132780487D02*
X214496068Y-132732868D01*
X214496068Y-132732868D02*
X214305592Y-132732868D01*
X214305592Y-132732868D02*
X214210354Y-132780487D01*
X214210354Y-132780487D02*
X214162735Y-132828106D01*
X214162735Y-132828106D02*
X214115116Y-132923344D01*
D14*
%TO.C,R4*%
X234869251Y-123254285D02*
X234869251Y-122800157D01*
X236339251Y-123254285D02*
X236339251Y-122800157D01*
%TO.C,J3*%
X262148000Y-125201000D02*
X263148000Y-126201000D01*
X253028000Y-125201000D02*
X262148000Y-125201000D01*
X253028000Y-125201000D02*
X253028000Y-127626000D01*
X263148000Y-126201000D02*
X263148000Y-134071000D01*
X253028000Y-129646000D02*
X253028000Y-130984233D01*
X263148000Y-134071000D02*
X262148000Y-135071000D01*
X262148000Y-135071000D02*
X253028000Y-135071000D01*
X253028000Y-135071000D02*
X253028000Y-132287767D01*
%TO.C,J7*%
X213396954Y-146281732D02*
X213396954Y-143471732D01*
X226416954Y-146281732D02*
X213396954Y-146281732D01*
X227106954Y-146071732D02*
X227406954Y-145471732D01*
X227706954Y-146071732D02*
X227106954Y-146071732D01*
X226416954Y-145471732D02*
X226416954Y-146281732D01*
X227406954Y-145471732D02*
X227706954Y-146071732D01*
X229516954Y-143771732D02*
X230796954Y-143771732D01*
X229516954Y-143171732D02*
X230796954Y-143171732D01*
X226416954Y-141471732D02*
X226416954Y-140661732D01*
X213396954Y-140661732D02*
X213396954Y-143471732D01*
X226416954Y-140661732D02*
X213396954Y-140661732D01*
D15*
%TO.C,J4*%
X237738652Y-131383189D02*
X237738652Y-152023188D01*
X237738652Y-152023188D02*
X250788626Y-152023188D01*
X250788626Y-131383189D02*
X237738652Y-131383189D01*
X250788626Y-152023188D02*
X250788626Y-131383189D01*
X251042626Y-134823190D02*
X252566626Y-134188190D01*
X252566626Y-134188190D02*
X252566626Y-135458190D01*
X252566626Y-135458190D02*
X251042626Y-134823190D01*
D14*
%TO.C,J2*%
X262147170Y-113837698D02*
X263147170Y-114837698D01*
X253027170Y-113837698D02*
X262147170Y-113837698D01*
X253027170Y-113837698D02*
X253027170Y-116262698D01*
X263147170Y-114837698D02*
X263147170Y-122707698D01*
X253027170Y-118282698D02*
X253027170Y-119620931D01*
X263147170Y-122707698D02*
X262147170Y-123707698D01*
X262147170Y-123707698D02*
X253027170Y-123707698D01*
X253027170Y-123707698D02*
X253027170Y-120924465D01*
%TO.C,G\u002A\u002A\u002A*%
G36*
X245069540Y-107643569D02*
G01*
X245123209Y-107646691D01*
X245196911Y-107651857D01*
X245290885Y-107659072D01*
X245405366Y-107668343D01*
X245505540Y-107676710D01*
X246257454Y-107743290D01*
X247023716Y-107817291D01*
X247799196Y-107898211D01*
X248077617Y-107928715D01*
X248633261Y-107991943D01*
X249172331Y-108056497D01*
X249694627Y-108122336D01*
X250199951Y-108189417D01*
X250688102Y-108257699D01*
X251158882Y-108327139D01*
X251612092Y-108397697D01*
X252047532Y-108469329D01*
X252465002Y-108541993D01*
X252864304Y-108615649D01*
X253245238Y-108690253D01*
X253607606Y-108765764D01*
X253951207Y-108842140D01*
X254275843Y-108919340D01*
X254581314Y-108997320D01*
X254867421Y-109076039D01*
X255133965Y-109155456D01*
X255380747Y-109235528D01*
X255607566Y-109316212D01*
X255814225Y-109397469D01*
X256000523Y-109479254D01*
X256166262Y-109561527D01*
X256311241Y-109644245D01*
X256353859Y-109671219D01*
X256464936Y-109752580D01*
X256555613Y-109838973D01*
X256625927Y-109930506D01*
X256675921Y-110027287D01*
X256705634Y-110129426D01*
X256715107Y-110237030D01*
X256704380Y-110350207D01*
X256673492Y-110469066D01*
X256662349Y-110500422D01*
X256620600Y-110590574D01*
X256561606Y-110686121D01*
X256487557Y-110784439D01*
X256400646Y-110882905D01*
X256303064Y-110978897D01*
X256197004Y-111069792D01*
X256166624Y-111093560D01*
X256122109Y-111126813D01*
X256075248Y-111160328D01*
X256028078Y-111192847D01*
X255982635Y-111223110D01*
X255940957Y-111249859D01*
X255905079Y-111271834D01*
X255877039Y-111287778D01*
X255858874Y-111296430D01*
X255852620Y-111296532D01*
X255860314Y-111286825D01*
X255874084Y-111274380D01*
X255893885Y-111258041D01*
X255925317Y-111232825D01*
X255963381Y-111202722D01*
X255988929Y-111182721D01*
X256057293Y-111125840D01*
X256131284Y-111058135D01*
X256205997Y-110984548D01*
X256276523Y-110910022D01*
X256337958Y-110839497D01*
X256370527Y-110798361D01*
X256431405Y-110709995D01*
X256485825Y-110616555D01*
X256530230Y-110524585D01*
X256555879Y-110457308D01*
X256581015Y-110349043D01*
X256585447Y-110242476D01*
X256569485Y-110138481D01*
X256533433Y-110037934D01*
X256477601Y-109941710D01*
X256402294Y-109850684D01*
X256315073Y-109771479D01*
X256224696Y-109704728D01*
X256125202Y-109642184D01*
X256015251Y-109583355D01*
X255893506Y-109527749D01*
X255758629Y-109474877D01*
X255609281Y-109424246D01*
X255444123Y-109375367D01*
X255261818Y-109327748D01*
X255061026Y-109280897D01*
X254863917Y-109239088D01*
X254574751Y-109183228D01*
X254300810Y-109136729D01*
X254038652Y-109099281D01*
X253784833Y-109070571D01*
X253535909Y-109050286D01*
X253288438Y-109038116D01*
X253038976Y-109033747D01*
X252784079Y-109036868D01*
X252671905Y-109040437D01*
X252554550Y-109044330D01*
X252430969Y-109047535D01*
X252303566Y-109050052D01*
X252174746Y-109051881D01*
X252046912Y-109053022D01*
X251922470Y-109053476D01*
X251803823Y-109053241D01*
X251693375Y-109052319D01*
X251593530Y-109050709D01*
X251506694Y-109048411D01*
X251435269Y-109045426D01*
X251381660Y-109041754D01*
X251368263Y-109040388D01*
X251297489Y-109032110D01*
X251234954Y-109024212D01*
X251177969Y-109016074D01*
X251123844Y-109007079D01*
X251069888Y-108996609D01*
X251013412Y-108984047D01*
X250951726Y-108968774D01*
X250882138Y-108950173D01*
X250801960Y-108927626D01*
X250708501Y-108900515D01*
X250599071Y-108868222D01*
X250532460Y-108848432D01*
X250263213Y-108768382D01*
X250013409Y-108694216D01*
X249782365Y-108625736D01*
X249569396Y-108562743D01*
X249373819Y-108505038D01*
X249194950Y-108452422D01*
X249032104Y-108404696D01*
X248884598Y-108361662D01*
X248751749Y-108323120D01*
X248632871Y-108288872D01*
X248527281Y-108258719D01*
X248434295Y-108232462D01*
X248353230Y-108209903D01*
X248283401Y-108190842D01*
X248224124Y-108175080D01*
X248174716Y-108162420D01*
X248161930Y-108159249D01*
X248043260Y-108131606D01*
X247904364Y-108102008D01*
X247745939Y-108070575D01*
X247568683Y-108037423D01*
X247373293Y-108002670D01*
X247160467Y-107966436D01*
X246930901Y-107928838D01*
X246685295Y-107889995D01*
X246424345Y-107850023D01*
X246148749Y-107809043D01*
X245859205Y-107767171D01*
X245780473Y-107755975D01*
X245677551Y-107741392D01*
X245573991Y-107726720D01*
X245473217Y-107712447D01*
X245378653Y-107699055D01*
X245293724Y-107687030D01*
X245221853Y-107676857D01*
X245166465Y-107669021D01*
X245154935Y-107667391D01*
X245093388Y-107658386D01*
X245050450Y-107651386D01*
X245026359Y-107646398D01*
X245021352Y-107643429D01*
X245035667Y-107642483D01*
X245069540Y-107643569D01*
G37*
G36*
X249717683Y-109826550D02*
G01*
X249843821Y-110156823D01*
X249880804Y-110252600D01*
X249912531Y-110332554D01*
X249938666Y-110395896D01*
X249958873Y-110441837D01*
X249972817Y-110469589D01*
X249980162Y-110478363D01*
X249980493Y-110478191D01*
X249988912Y-110467972D01*
X250008339Y-110442715D01*
X250037343Y-110404330D01*
X250074491Y-110354730D01*
X250118353Y-110295827D01*
X250167496Y-110229534D01*
X250220489Y-110157763D01*
X250227576Y-110148144D01*
X250464124Y-109827003D01*
X250530540Y-109826758D01*
X250566649Y-109827302D01*
X250585965Y-109830104D01*
X250592697Y-109836412D01*
X250591824Y-109844911D01*
X250589058Y-109858602D01*
X250583048Y-109890976D01*
X250574158Y-109939999D01*
X250562750Y-110003638D01*
X250549186Y-110079862D01*
X250533831Y-110166636D01*
X250517045Y-110261929D01*
X250499191Y-110363707D01*
X250494311Y-110391600D01*
X250401930Y-110919890D01*
X250341036Y-110919890D01*
X250304131Y-110918360D01*
X250284917Y-110913271D01*
X250280142Y-110905408D01*
X250281952Y-110891807D01*
X250287050Y-110860325D01*
X250294935Y-110813764D01*
X250305107Y-110754928D01*
X250317066Y-110686616D01*
X250330312Y-110611633D01*
X250344345Y-110532779D01*
X250358664Y-110452858D01*
X250372770Y-110374670D01*
X250386162Y-110301018D01*
X250398341Y-110234704D01*
X250408806Y-110178531D01*
X250417057Y-110135299D01*
X250421973Y-110110741D01*
X250428787Y-110075657D01*
X250432778Y-110049862D01*
X250433095Y-110039041D01*
X250426031Y-110045472D01*
X250410009Y-110065415D01*
X250388017Y-110095079D01*
X250379320Y-110107258D01*
X250359318Y-110135176D01*
X250329103Y-110176885D01*
X250290953Y-110229262D01*
X250247146Y-110289184D01*
X250199962Y-110353529D01*
X250156501Y-110412626D01*
X250105665Y-110481567D01*
X250065603Y-110535427D01*
X250034631Y-110576069D01*
X250011067Y-110605354D01*
X249993230Y-110625141D01*
X249979438Y-110637293D01*
X249968008Y-110643671D01*
X249957258Y-110646135D01*
X249945507Y-110646546D01*
X249945074Y-110646546D01*
X249905922Y-110646546D01*
X249833233Y-110459936D01*
X249806371Y-110390532D01*
X249778453Y-110317638D01*
X249751851Y-110247494D01*
X249728933Y-110186339D01*
X249716427Y-110152423D01*
X249697555Y-110101990D01*
X249684101Y-110069576D01*
X249675013Y-110053193D01*
X249669237Y-110050856D01*
X249666284Y-110057804D01*
X249662955Y-110074943D01*
X249656657Y-110109792D01*
X249647920Y-110159324D01*
X249637274Y-110220517D01*
X249625248Y-110290346D01*
X249612898Y-110362688D01*
X249598721Y-110445869D01*
X249584223Y-110530550D01*
X249570221Y-110611985D01*
X249557531Y-110685431D01*
X249546972Y-110746143D01*
X249541385Y-110777962D01*
X249517232Y-110914634D01*
X249457131Y-110917787D01*
X249422101Y-110918520D01*
X249403572Y-110915414D01*
X249397222Y-110907543D01*
X249397029Y-110904947D01*
X249398795Y-110892228D01*
X249403810Y-110861227D01*
X249411652Y-110814366D01*
X249421897Y-110754066D01*
X249434124Y-110682748D01*
X249447908Y-110602835D01*
X249462829Y-110516746D01*
X249478462Y-110426905D01*
X249494385Y-110335732D01*
X249510175Y-110245648D01*
X249525410Y-110159076D01*
X249539667Y-110078436D01*
X249552522Y-110006151D01*
X249563554Y-109944641D01*
X249572339Y-109896328D01*
X249578455Y-109863634D01*
X249581184Y-109850168D01*
X249586251Y-109837130D01*
X249597259Y-109830009D01*
X249619446Y-109827060D01*
X249652176Y-109826531D01*
X249717683Y-109826550D01*
G37*
G36*
X246731922Y-108412481D02*
G01*
X246791975Y-108452401D01*
X246833777Y-108502470D01*
X246856924Y-108561722D01*
X246861012Y-108629190D01*
X246849028Y-108692871D01*
X246825754Y-108746601D01*
X246790126Y-108797954D01*
X246747445Y-108840358D01*
X246711172Y-108863715D01*
X246687623Y-108875766D01*
X246674855Y-108884006D01*
X246674099Y-108885133D01*
X246682676Y-108891469D01*
X246704603Y-108903468D01*
X246721694Y-108911999D01*
X246773978Y-108947519D01*
X246810755Y-108993962D01*
X246832482Y-109048565D01*
X246839612Y-109108564D01*
X246832601Y-109171194D01*
X246811905Y-109233693D01*
X246777978Y-109293295D01*
X246731276Y-109347238D01*
X246672253Y-109392757D01*
X246639539Y-109410872D01*
X246603055Y-109427804D01*
X246568447Y-109441139D01*
X246532547Y-109451294D01*
X246492189Y-109458689D01*
X246444204Y-109463743D01*
X246385426Y-109466875D01*
X246312687Y-109468503D01*
X246222820Y-109469047D01*
X246199568Y-109469063D01*
X245948685Y-109469063D01*
X245949308Y-109445408D01*
X245951220Y-109430642D01*
X245956471Y-109397251D01*
X245964707Y-109347308D01*
X245975478Y-109283461D01*
X246190612Y-109283461D01*
X246200439Y-109286434D01*
X246227490Y-109288454D01*
X246267977Y-109289383D01*
X246318113Y-109289082D01*
X246335047Y-109288717D01*
X246394739Y-109286874D01*
X246437822Y-109284394D01*
X246468714Y-109280606D01*
X246491831Y-109274840D01*
X246511591Y-109266425D01*
X246523046Y-109260187D01*
X246568456Y-109222806D01*
X246598626Y-109173465D01*
X246610880Y-109116736D01*
X246611020Y-109109892D01*
X246607006Y-109068441D01*
X246593561Y-109036769D01*
X246568578Y-109013766D01*
X246529951Y-108998323D01*
X246475572Y-108989330D01*
X246403336Y-108985676D01*
X246374809Y-108985453D01*
X246324942Y-108985650D01*
X246283710Y-108986187D01*
X246255093Y-108986984D01*
X246243072Y-108987963D01*
X246242934Y-108988082D01*
X246241100Y-108998792D01*
X246236153Y-109026354D01*
X246228786Y-109066936D01*
X246219693Y-109116710D01*
X246216773Y-109132639D01*
X246207259Y-109185065D01*
X246199285Y-109230094D01*
X246193553Y-109263671D01*
X246190768Y-109281746D01*
X246190612Y-109283461D01*
X245975478Y-109283461D01*
X245975575Y-109282889D01*
X245988721Y-109206067D01*
X246003794Y-109118916D01*
X246020439Y-109023512D01*
X246038304Y-108921927D01*
X246041939Y-108901347D01*
X246054950Y-108827755D01*
X246271908Y-108827755D01*
X246368472Y-108827755D01*
X246418128Y-108826423D01*
X246465826Y-108822877D01*
X246503375Y-108817793D01*
X246512052Y-108815916D01*
X246562900Y-108794409D01*
X246602204Y-108760583D01*
X246627664Y-108718286D01*
X246636979Y-108671367D01*
X246627851Y-108623675D01*
X246627470Y-108622752D01*
X246611605Y-108595662D01*
X246588101Y-108576375D01*
X246553795Y-108563802D01*
X246505521Y-108556856D01*
X246440115Y-108554447D01*
X246428711Y-108554410D01*
X246319320Y-108554410D01*
X246302625Y-108646401D01*
X246294031Y-108694460D01*
X246286024Y-108740444D01*
X246280023Y-108776170D01*
X246278919Y-108783073D01*
X246271908Y-108827755D01*
X246054950Y-108827755D01*
X246133948Y-108380942D01*
X246401395Y-108380942D01*
X246668842Y-108380942D01*
X246731922Y-108412481D01*
G37*
G36*
X245235334Y-109816917D02*
G01*
X245292029Y-109828258D01*
X245298442Y-109830250D01*
X245368494Y-109862728D01*
X245423125Y-109908525D01*
X245461261Y-109966449D01*
X245481596Y-110033841D01*
X245484722Y-110052028D01*
X245484917Y-110064436D01*
X245478884Y-110073402D01*
X245463330Y-110081259D01*
X245434958Y-110090346D01*
X245390474Y-110102996D01*
X245379728Y-110106053D01*
X245367750Y-110104160D01*
X245359804Y-110087518D01*
X245355690Y-110066966D01*
X245339243Y-110022991D01*
X245307440Y-109981803D01*
X245265742Y-109949151D01*
X245228291Y-109932858D01*
X245175724Y-109923969D01*
X245112977Y-109921761D01*
X245049751Y-109926076D01*
X244996156Y-109936636D01*
X244941269Y-109961265D01*
X244897844Y-109997061D01*
X244866794Y-110040621D01*
X244849032Y-110088540D01*
X244845470Y-110137416D01*
X244857019Y-110183845D01*
X244884592Y-110224423D01*
X244912981Y-110246950D01*
X244937149Y-110258092D01*
X244976657Y-110272138D01*
X245026329Y-110287404D01*
X245080984Y-110302205D01*
X245089333Y-110304292D01*
X245160675Y-110322442D01*
X245215148Y-110337856D01*
X245256484Y-110352006D01*
X245288416Y-110366368D01*
X245314674Y-110382414D01*
X245338990Y-110401617D01*
X245341627Y-110403916D01*
X245381465Y-110452300D01*
X245404997Y-110511471D01*
X245411998Y-110578671D01*
X245402243Y-110651141D01*
X245375510Y-110726124D01*
X245368923Y-110739585D01*
X245323520Y-110807718D01*
X245264021Y-110860916D01*
X245189341Y-110900066D01*
X245160192Y-110910369D01*
X245099949Y-110924526D01*
X245028990Y-110933577D01*
X244955146Y-110937120D01*
X244886252Y-110934752D01*
X244834281Y-110927081D01*
X244753905Y-110900238D01*
X244688827Y-110861218D01*
X244640157Y-110810982D01*
X244609005Y-110750488D01*
X244602368Y-110726726D01*
X244594159Y-110682809D01*
X244594671Y-110654200D01*
X244605959Y-110636264D01*
X244630075Y-110624367D01*
X244650312Y-110618521D01*
X244686615Y-110609383D01*
X244707057Y-110606479D01*
X244716189Y-110610998D01*
X244718562Y-110624129D01*
X244718635Y-110636370D01*
X244728568Y-110688981D01*
X244756041Y-110737631D01*
X244797571Y-110778283D01*
X244849673Y-110806896D01*
X244871745Y-110813829D01*
X244928610Y-110822653D01*
X244994971Y-110824666D01*
X245060915Y-110820054D01*
X245115732Y-110809242D01*
X245180108Y-110780104D01*
X245230234Y-110735971D01*
X245264738Y-110678470D01*
X245281861Y-110612412D01*
X245280145Y-110560837D01*
X245260560Y-110517473D01*
X245222546Y-110481801D01*
X245165547Y-110453303D01*
X245089004Y-110431459D01*
X245086807Y-110430988D01*
X244982667Y-110406152D01*
X244898062Y-110379668D01*
X244831505Y-110350467D01*
X244781513Y-110317481D01*
X244746600Y-110279641D01*
X244725281Y-110235877D01*
X244716072Y-110185121D01*
X244715439Y-110163644D01*
X244725566Y-110077778D01*
X244754153Y-110000850D01*
X244799931Y-109934531D01*
X244861632Y-109880487D01*
X244937987Y-109840390D01*
X244969573Y-109829459D01*
X245026577Y-109817602D01*
X245094966Y-109811571D01*
X245167099Y-109811349D01*
X245235334Y-109816917D01*
G37*
G36*
X254762234Y-109826407D02*
G01*
X254850811Y-109860037D01*
X254927581Y-109909521D01*
X254947555Y-109926969D01*
X254975098Y-109956826D01*
X255001799Y-109992665D01*
X255024920Y-110029786D01*
X255041719Y-110063493D01*
X255049456Y-110089088D01*
X255048163Y-110099430D01*
X255036088Y-110106187D01*
X255011193Y-110114532D01*
X254980490Y-110122717D01*
X254950995Y-110128998D01*
X254929722Y-110131627D01*
X254923546Y-110130456D01*
X254916881Y-110119640D01*
X254903281Y-110096426D01*
X254891837Y-110076559D01*
X254847770Y-110019607D01*
X254790383Y-109976109D01*
X254722513Y-109946065D01*
X254646998Y-109929476D01*
X254566677Y-109926341D01*
X254484389Y-109936662D01*
X254402972Y-109960439D01*
X254325265Y-109997673D01*
X254254105Y-110048365D01*
X254224141Y-110076418D01*
X254166785Y-110147116D01*
X254121614Y-110227565D01*
X254089464Y-110313977D01*
X254071175Y-110402563D01*
X254067583Y-110489534D01*
X254079527Y-110571101D01*
X254101439Y-110631170D01*
X254146003Y-110699879D01*
X254204580Y-110753180D01*
X254276459Y-110790675D01*
X254360930Y-110811965D01*
X254433763Y-110817067D01*
X254536168Y-110809562D01*
X254629655Y-110785566D01*
X254718743Y-110743555D01*
X254787381Y-110697826D01*
X254821050Y-110671274D01*
X254843489Y-110647946D01*
X254858296Y-110621662D01*
X254869069Y-110586242D01*
X254878223Y-110541810D01*
X254892213Y-110467821D01*
X254730235Y-110467821D01*
X254568258Y-110467821D01*
X254575387Y-110417883D01*
X254581038Y-110386806D01*
X254587246Y-110364884D01*
X254589917Y-110359841D01*
X254602217Y-110357530D01*
X254632285Y-110355753D01*
X254676867Y-110354587D01*
X254732709Y-110354109D01*
X254796558Y-110354395D01*
X254812568Y-110354584D01*
X255027817Y-110357432D01*
X254977988Y-110636033D01*
X254964807Y-110709709D01*
X254952891Y-110776268D01*
X254942727Y-110833004D01*
X254934797Y-110877215D01*
X254929587Y-110906195D01*
X254927582Y-110917241D01*
X254927578Y-110917262D01*
X254917751Y-110918747D01*
X254893204Y-110919700D01*
X254873086Y-110919890D01*
X254819177Y-110919890D01*
X254826059Y-110875209D01*
X254832241Y-110836624D01*
X254838553Y-110799459D01*
X254839493Y-110794191D01*
X254846044Y-110757854D01*
X254799786Y-110797589D01*
X254719923Y-110853323D01*
X254627487Y-110896076D01*
X254527368Y-110924581D01*
X254424456Y-110937570D01*
X254323640Y-110933776D01*
X254293169Y-110928916D01*
X254202884Y-110901413D01*
X254122297Y-110856506D01*
X254053585Y-110796320D01*
X253998927Y-110722975D01*
X253960502Y-110638597D01*
X253947985Y-110592592D01*
X253938688Y-110506939D01*
X253944205Y-110412905D01*
X253963373Y-110315772D01*
X253995027Y-110220826D01*
X254038002Y-110133352D01*
X254055227Y-110105891D01*
X254130184Y-110011622D01*
X254217130Y-109934500D01*
X254315187Y-109875041D01*
X254423477Y-109833762D01*
X254541123Y-109811180D01*
X254558856Y-109809492D01*
X254664150Y-109809328D01*
X254762234Y-109826407D01*
G37*
G36*
X245882059Y-108376205D02*
G01*
X245913531Y-108378113D01*
X245930914Y-108381927D01*
X245937670Y-108388166D01*
X245938172Y-108391466D01*
X245936390Y-108405396D01*
X245931342Y-108437387D01*
X245923473Y-108484804D01*
X245913230Y-108545014D01*
X245901058Y-108615381D01*
X245887402Y-108693269D01*
X245880511Y-108732221D01*
X245859185Y-108849435D01*
X245839818Y-108948126D01*
X245821593Y-109030614D01*
X245803695Y-109099218D01*
X245785306Y-109156258D01*
X245765611Y-109204053D01*
X245743794Y-109244923D01*
X245719036Y-109281188D01*
X245690524Y-109315167D01*
X245666530Y-109340200D01*
X245593371Y-109399114D01*
X245507447Y-109444225D01*
X245412778Y-109474395D01*
X245313380Y-109488488D01*
X245213274Y-109485367D01*
X245174981Y-109479253D01*
X245091716Y-109453752D01*
X245023124Y-109413191D01*
X244969238Y-109357603D01*
X244930090Y-109287021D01*
X244907699Y-109211753D01*
X244903220Y-109186046D01*
X244900552Y-109159369D01*
X244899946Y-109129418D01*
X244901653Y-109093887D01*
X244905925Y-109050474D01*
X244913013Y-108996872D01*
X244923167Y-108930777D01*
X244936639Y-108849884D01*
X244953681Y-108751889D01*
X244964449Y-108691082D01*
X245019608Y-108380942D01*
X245126696Y-108377946D01*
X245175724Y-108376997D01*
X245207344Y-108377750D01*
X245225136Y-108380655D01*
X245232680Y-108386162D01*
X245233784Y-108391428D01*
X245232000Y-108406205D01*
X245227001Y-108438476D01*
X245219321Y-108485047D01*
X245209489Y-108542722D01*
X245198040Y-108608307D01*
X245192156Y-108641486D01*
X245172963Y-108749717D01*
X245157330Y-108839358D01*
X245144966Y-108912492D01*
X245135581Y-108971200D01*
X245128884Y-109017563D01*
X245124584Y-109053663D01*
X245122392Y-109081582D01*
X245122017Y-109103401D01*
X245123168Y-109121202D01*
X245124161Y-109128821D01*
X245142636Y-109187907D01*
X245177467Y-109236333D01*
X245212036Y-109262918D01*
X245249907Y-109276645D01*
X245300100Y-109283599D01*
X245354941Y-109283513D01*
X245406758Y-109276122D01*
X245427025Y-109270350D01*
X245483238Y-109240377D01*
X245533266Y-109193064D01*
X245574438Y-109131805D01*
X245604082Y-109059990D01*
X245610057Y-109038019D01*
X245614151Y-109018502D01*
X245621121Y-108982445D01*
X245630409Y-108932955D01*
X245641456Y-108873137D01*
X245653705Y-108806098D01*
X245666596Y-108734944D01*
X245679571Y-108662781D01*
X245692072Y-108592715D01*
X245703539Y-108527854D01*
X245713415Y-108471302D01*
X245721140Y-108426166D01*
X245726157Y-108395553D01*
X245727907Y-108382629D01*
X245737677Y-108379714D01*
X245764022Y-108377402D01*
X245802490Y-108375986D01*
X245833039Y-108375685D01*
X245882059Y-108376205D01*
G37*
G36*
X248879709Y-109828784D02*
G01*
X248956610Y-109830418D01*
X249015862Y-109832251D01*
X249060843Y-109834609D01*
X249094931Y-109837815D01*
X249121502Y-109842196D01*
X249143934Y-109848077D01*
X249165605Y-109855782D01*
X249167385Y-109856479D01*
X249220939Y-109885363D01*
X249268327Y-109925418D01*
X249304448Y-109971532D01*
X249322580Y-110012022D01*
X249333530Y-110088747D01*
X249326443Y-110168486D01*
X249302606Y-110245965D01*
X249263304Y-110315908D01*
X249242086Y-110342224D01*
X249207229Y-110374933D01*
X249164585Y-110406163D01*
X249119849Y-110432544D01*
X249078717Y-110450711D01*
X249047464Y-110457299D01*
X249031845Y-110461043D01*
X249029066Y-110465205D01*
X249032963Y-110476764D01*
X249043890Y-110504867D01*
X249060703Y-110546684D01*
X249082260Y-110599386D01*
X249107415Y-110660144D01*
X249122590Y-110696496D01*
X249216114Y-110919890D01*
X249140272Y-110919890D01*
X249064429Y-110919890D01*
X248979599Y-110706997D01*
X248894768Y-110494104D01*
X248775284Y-110491164D01*
X248655800Y-110488225D01*
X248618830Y-110701429D01*
X248581860Y-110914634D01*
X248521605Y-110917787D01*
X248486522Y-110918523D01*
X248467944Y-110915433D01*
X248461552Y-110907595D01*
X248461351Y-110904947D01*
X248463118Y-110892179D01*
X248468136Y-110861129D01*
X248475984Y-110814218D01*
X248486237Y-110753868D01*
X248498473Y-110682500D01*
X248512270Y-110602535D01*
X248527204Y-110516394D01*
X248542852Y-110426497D01*
X248550327Y-110383715D01*
X248674752Y-110383715D01*
X248817741Y-110383458D01*
X248875224Y-110382560D01*
X248929477Y-110380291D01*
X248974807Y-110376982D01*
X249005517Y-110372963D01*
X249008039Y-110372428D01*
X249075721Y-110347098D01*
X249130510Y-110305657D01*
X249170988Y-110249617D01*
X249195732Y-110180489D01*
X249197712Y-110170655D01*
X249202885Y-110105889D01*
X249191635Y-110052761D01*
X249163363Y-110009062D01*
X249150483Y-109996587D01*
X249117056Y-109973808D01*
X249074784Y-109957782D01*
X249020646Y-109947931D01*
X248951623Y-109943673D01*
X248876912Y-109944075D01*
X248751042Y-109947415D01*
X248737789Y-110026264D01*
X248730650Y-110068044D01*
X248721046Y-110123283D01*
X248710241Y-110184750D01*
X248699644Y-110244414D01*
X248674752Y-110383715D01*
X248550327Y-110383715D01*
X248558792Y-110335268D01*
X248574600Y-110245125D01*
X248589854Y-110158492D01*
X248604131Y-110077788D01*
X248617008Y-110005435D01*
X248628062Y-109943855D01*
X248636870Y-109895467D01*
X248643010Y-109862694D01*
X248645762Y-109849145D01*
X248651503Y-109824467D01*
X248879709Y-109828784D01*
G37*
G36*
X255939303Y-109826776D02*
G01*
X255986229Y-109828101D01*
X256020001Y-109830747D01*
X256042583Y-109835133D01*
X256055945Y-109841681D01*
X256062052Y-109850809D01*
X256062871Y-109862940D01*
X256060370Y-109878494D01*
X256056516Y-109897891D01*
X256055704Y-109902577D01*
X256049213Y-109941845D01*
X255743675Y-109944630D01*
X255438138Y-109947415D01*
X255414299Y-110084087D01*
X255404791Y-110138505D01*
X255396056Y-110188332D01*
X255389007Y-110228371D01*
X255384558Y-110253423D01*
X255384287Y-110254928D01*
X255378113Y-110289096D01*
X255615614Y-110289096D01*
X255853115Y-110289096D01*
X255846464Y-110328520D01*
X255842738Y-110353049D01*
X255839159Y-110371699D01*
X255833089Y-110385269D01*
X255821888Y-110394557D01*
X255802918Y-110400363D01*
X255773540Y-110403485D01*
X255731114Y-110404723D01*
X255673003Y-110404876D01*
X255596568Y-110404741D01*
X255594714Y-110404741D01*
X255359710Y-110404741D01*
X255353539Y-110433653D01*
X255346392Y-110469344D01*
X255337695Y-110516095D01*
X255328199Y-110569453D01*
X255318656Y-110624964D01*
X255309817Y-110678173D01*
X255302433Y-110724627D01*
X255297255Y-110759872D01*
X255295037Y-110779455D01*
X255295005Y-110780590D01*
X255294960Y-110804245D01*
X255595963Y-110804245D01*
X255896966Y-110804245D01*
X255890450Y-110843669D01*
X255886068Y-110874733D01*
X255883871Y-110899182D01*
X255883817Y-110901492D01*
X255882637Y-110906384D01*
X255877807Y-110910326D01*
X255867293Y-110913420D01*
X255849059Y-110915768D01*
X255821069Y-110917471D01*
X255781289Y-110918632D01*
X255727684Y-110919352D01*
X255658217Y-110919733D01*
X255570855Y-110919876D01*
X255515738Y-110919890D01*
X255416771Y-110919792D01*
X255336880Y-110919441D01*
X255274114Y-110918757D01*
X255226524Y-110917657D01*
X255192158Y-110916059D01*
X255169066Y-110913881D01*
X255155299Y-110911042D01*
X255148906Y-110907459D01*
X255147775Y-110904422D01*
X255149540Y-110891768D01*
X255154556Y-110860832D01*
X255162398Y-110814034D01*
X255172644Y-110753796D01*
X255184872Y-110682537D01*
X255198657Y-110602679D01*
X255213578Y-110516644D01*
X255229212Y-110426850D01*
X255245135Y-110335720D01*
X255260925Y-110245674D01*
X255276159Y-110159133D01*
X255290413Y-110078518D01*
X255303266Y-110006250D01*
X255314295Y-109944749D01*
X255323076Y-109896437D01*
X255329186Y-109863734D01*
X255331929Y-109850168D01*
X255337414Y-109826513D01*
X255699920Y-109826513D01*
X255798115Y-109826402D01*
X255877254Y-109826349D01*
X255939303Y-109826776D01*
G37*
G36*
X252680197Y-109826776D02*
G01*
X252727123Y-109828101D01*
X252760895Y-109830747D01*
X252783478Y-109835133D01*
X252796839Y-109841681D01*
X252802946Y-109850809D01*
X252803765Y-109862940D01*
X252801264Y-109878494D01*
X252797410Y-109897891D01*
X252796598Y-109902577D01*
X252790107Y-109941845D01*
X252484569Y-109944630D01*
X252179032Y-109947415D01*
X252155193Y-110084087D01*
X252145685Y-110138505D01*
X252136950Y-110188332D01*
X252129902Y-110228371D01*
X252125452Y-110253423D01*
X252125181Y-110254928D01*
X252119007Y-110289096D01*
X252356508Y-110289096D01*
X252594009Y-110289096D01*
X252587358Y-110328520D01*
X252583632Y-110353049D01*
X252580053Y-110371699D01*
X252573983Y-110385269D01*
X252562782Y-110394557D01*
X252543812Y-110400363D01*
X252514434Y-110403485D01*
X252472008Y-110404723D01*
X252413897Y-110404876D01*
X252337462Y-110404741D01*
X252335608Y-110404741D01*
X252100604Y-110404741D01*
X252094433Y-110433653D01*
X252087286Y-110469344D01*
X252078589Y-110516095D01*
X252069093Y-110569453D01*
X252059550Y-110624964D01*
X252050711Y-110678173D01*
X252043327Y-110724627D01*
X252038150Y-110759872D01*
X252035931Y-110779455D01*
X252035899Y-110780590D01*
X252035854Y-110804245D01*
X252336857Y-110804245D01*
X252637860Y-110804245D01*
X252631344Y-110843669D01*
X252626962Y-110874733D01*
X252624765Y-110899182D01*
X252624711Y-110901492D01*
X252623531Y-110906384D01*
X252618701Y-110910326D01*
X252608187Y-110913420D01*
X252589953Y-110915768D01*
X252561963Y-110917471D01*
X252522183Y-110918632D01*
X252468578Y-110919352D01*
X252399111Y-110919733D01*
X252311749Y-110919876D01*
X252256632Y-110919890D01*
X252157665Y-110919792D01*
X252077774Y-110919441D01*
X252015008Y-110918757D01*
X251967418Y-110917657D01*
X251933052Y-110916059D01*
X251909960Y-110913881D01*
X251896193Y-110911042D01*
X251889800Y-110907459D01*
X251888669Y-110904422D01*
X251890434Y-110891768D01*
X251895450Y-110860832D01*
X251903292Y-110814034D01*
X251913538Y-110753796D01*
X251925766Y-110682537D01*
X251939551Y-110602679D01*
X251954472Y-110516644D01*
X251970106Y-110426850D01*
X251986029Y-110335720D01*
X252001819Y-110245674D01*
X252017053Y-110159133D01*
X252031307Y-110078518D01*
X252044160Y-110006250D01*
X252055189Y-109944749D01*
X252063970Y-109896437D01*
X252070080Y-109863734D01*
X252072823Y-109850168D01*
X252078308Y-109826513D01*
X252440814Y-109826513D01*
X252539009Y-109826402D01*
X252618148Y-109826349D01*
X252680197Y-109826776D01*
G37*
G36*
X248317200Y-109826776D02*
G01*
X248364127Y-109828101D01*
X248397898Y-109830747D01*
X248420481Y-109835133D01*
X248433842Y-109841681D01*
X248439949Y-109850809D01*
X248440769Y-109862940D01*
X248438268Y-109878494D01*
X248434413Y-109897891D01*
X248433602Y-109902577D01*
X248427111Y-109941845D01*
X248121573Y-109944630D01*
X247816035Y-109947415D01*
X247792196Y-110084087D01*
X247782689Y-110138505D01*
X247773954Y-110188332D01*
X247766905Y-110228371D01*
X247762455Y-110253423D01*
X247762184Y-110254928D01*
X247756010Y-110289096D01*
X247993511Y-110289096D01*
X248231012Y-110289096D01*
X248224361Y-110328520D01*
X248220635Y-110353049D01*
X248217057Y-110371699D01*
X248210986Y-110385269D01*
X248199785Y-110394557D01*
X248180815Y-110400363D01*
X248151437Y-110403485D01*
X248109012Y-110404723D01*
X248050901Y-110404876D01*
X247974465Y-110404741D01*
X247972612Y-110404741D01*
X247737607Y-110404741D01*
X247731436Y-110433653D01*
X247724290Y-110469344D01*
X247715593Y-110516095D01*
X247706097Y-110569453D01*
X247696553Y-110624964D01*
X247687714Y-110678173D01*
X247680330Y-110724627D01*
X247675153Y-110759872D01*
X247672934Y-110779455D01*
X247672902Y-110780590D01*
X247672857Y-110804245D01*
X247973860Y-110804245D01*
X248274863Y-110804245D01*
X248268347Y-110843669D01*
X248263965Y-110874733D01*
X248261769Y-110899182D01*
X248261715Y-110901492D01*
X248260534Y-110906384D01*
X248255705Y-110910326D01*
X248245190Y-110913420D01*
X248226956Y-110915768D01*
X248198967Y-110917471D01*
X248159187Y-110918632D01*
X248105581Y-110919352D01*
X248036115Y-110919733D01*
X247948752Y-110919876D01*
X247893635Y-110919890D01*
X247794669Y-110919792D01*
X247714778Y-110919441D01*
X247652012Y-110918757D01*
X247604421Y-110917657D01*
X247570055Y-110916059D01*
X247546964Y-110913881D01*
X247533197Y-110911042D01*
X247526804Y-110907459D01*
X247525672Y-110904422D01*
X247527438Y-110891768D01*
X247532453Y-110860832D01*
X247540295Y-110814034D01*
X247550542Y-110753796D01*
X247562769Y-110682537D01*
X247576555Y-110602679D01*
X247591476Y-110516644D01*
X247607109Y-110426850D01*
X247623032Y-110335720D01*
X247638822Y-110245674D01*
X247654056Y-110159133D01*
X247668311Y-110078518D01*
X247681164Y-110006250D01*
X247692192Y-109944749D01*
X247700973Y-109896437D01*
X247707083Y-109863734D01*
X247709826Y-109850168D01*
X247715311Y-109826513D01*
X248077818Y-109826513D01*
X248176012Y-109826402D01*
X248255151Y-109826349D01*
X248317200Y-109826776D01*
G37*
G36*
X253538214Y-109865469D02*
G01*
X253542845Y-109883565D01*
X253552005Y-109919871D01*
X253565146Y-109972193D01*
X253581718Y-110038339D01*
X253601173Y-110116115D01*
X253622961Y-110203328D01*
X253646534Y-110297783D01*
X253670579Y-110394228D01*
X253695137Y-110492696D01*
X253718268Y-110585293D01*
X253739451Y-110669945D01*
X253758167Y-110744578D01*
X253773894Y-110807119D01*
X253786112Y-110855495D01*
X253794301Y-110887632D01*
X253797939Y-110901456D01*
X253797949Y-110901492D01*
X253798570Y-110911437D01*
X253790107Y-110917006D01*
X253768416Y-110919417D01*
X253735240Y-110919890D01*
X253666983Y-110919890D01*
X253632757Y-110772705D01*
X253598530Y-110625519D01*
X253319200Y-110625907D01*
X253039869Y-110626295D01*
X252955763Y-110772705D01*
X252871657Y-110919115D01*
X252805949Y-110919503D01*
X252771903Y-110919030D01*
X252748156Y-110917415D01*
X252740241Y-110915270D01*
X252745506Y-110905676D01*
X252760673Y-110879643D01*
X252784804Y-110838746D01*
X252816960Y-110784561D01*
X252856203Y-110718666D01*
X252901594Y-110642637D01*
X252952194Y-110558049D01*
X252988937Y-110496732D01*
X253121753Y-110496732D01*
X253124337Y-110501220D01*
X253137532Y-110504628D01*
X253163388Y-110507076D01*
X253203954Y-110508685D01*
X253261279Y-110509577D01*
X253337413Y-110509872D01*
X253344337Y-110509874D01*
X253419170Y-110509771D01*
X253475490Y-110509325D01*
X253515811Y-110508326D01*
X253542648Y-110506568D01*
X253558512Y-110503841D01*
X253565918Y-110499939D01*
X253567380Y-110494653D01*
X253566681Y-110491476D01*
X253562651Y-110476317D01*
X253554371Y-110443885D01*
X253542634Y-110397320D01*
X253528228Y-110339763D01*
X253511943Y-110274353D01*
X253502562Y-110236529D01*
X253485612Y-110168381D01*
X253470112Y-110106583D01*
X253456847Y-110054225D01*
X253446602Y-110014396D01*
X253440164Y-109990187D01*
X253438525Y-109984638D01*
X253431892Y-109989000D01*
X253415896Y-110009953D01*
X253391623Y-110045842D01*
X253360157Y-110095011D01*
X253322583Y-110155805D01*
X253280061Y-110226443D01*
X253240372Y-110293284D01*
X253204139Y-110354580D01*
X253172782Y-110407910D01*
X253147717Y-110450854D01*
X253130362Y-110480990D01*
X253122137Y-110495899D01*
X253121753Y-110496732D01*
X252988937Y-110496732D01*
X253007065Y-110466479D01*
X253064242Y-110371210D01*
X253388243Y-109831769D01*
X253457957Y-109828673D01*
X253527672Y-109825576D01*
X253538214Y-109865469D01*
G37*
G36*
X247039891Y-109828784D02*
G01*
X247131315Y-109831157D01*
X247204682Y-109834929D01*
X247262954Y-109840834D01*
X247309089Y-109849607D01*
X247346049Y-109861984D01*
X247376793Y-109878698D01*
X247404282Y-109900485D01*
X247429007Y-109925387D01*
X247465064Y-109979233D01*
X247485275Y-110042458D01*
X247490455Y-110111617D01*
X247481422Y-110183264D01*
X247458991Y-110253953D01*
X247423978Y-110320241D01*
X247377201Y-110378680D01*
X247319476Y-110425826D01*
X247308891Y-110432318D01*
X247258985Y-110458226D01*
X247207030Y-110477578D01*
X247148572Y-110491361D01*
X247079157Y-110500564D01*
X246994333Y-110506175D01*
X246972074Y-110507065D01*
X246812722Y-110512827D01*
X246795706Y-110608598D01*
X246785730Y-110664795D01*
X246774163Y-110730028D01*
X246763072Y-110792628D01*
X246760086Y-110809501D01*
X246741481Y-110914634D01*
X246681507Y-110917787D01*
X246646521Y-110918518D01*
X246628033Y-110915398D01*
X246621718Y-110907499D01*
X246621533Y-110904947D01*
X246623300Y-110892179D01*
X246628318Y-110861129D01*
X246636166Y-110814218D01*
X246646419Y-110753868D01*
X246658655Y-110682500D01*
X246672452Y-110602535D01*
X246687386Y-110516394D01*
X246703034Y-110426497D01*
X246708343Y-110396112D01*
X246831947Y-110396112D01*
X246992199Y-110392390D01*
X247056370Y-110390551D01*
X247103839Y-110388093D01*
X247138930Y-110384453D01*
X247165967Y-110379064D01*
X247189274Y-110371363D01*
X247205018Y-110364601D01*
X247266732Y-110328002D01*
X247311927Y-110281413D01*
X247341541Y-110223109D01*
X247356508Y-110151366D01*
X247358525Y-110081825D01*
X247347745Y-110044008D01*
X247324804Y-110010830D01*
X247296249Y-109984556D01*
X247261362Y-109965501D01*
X247216923Y-109952895D01*
X247159713Y-109945969D01*
X247086514Y-109943955D01*
X247046807Y-109944462D01*
X246911982Y-109947415D01*
X246877810Y-110141910D01*
X246866629Y-110205374D01*
X246856333Y-110263477D01*
X246847617Y-110312331D01*
X246841174Y-110348048D01*
X246837793Y-110366259D01*
X246831947Y-110396112D01*
X246708343Y-110396112D01*
X246718974Y-110335268D01*
X246734782Y-110245125D01*
X246750037Y-110158492D01*
X246764314Y-110077788D01*
X246777190Y-110005435D01*
X246788244Y-109943855D01*
X246797053Y-109895467D01*
X246803192Y-109862694D01*
X246805944Y-109849145D01*
X246811685Y-109824467D01*
X247039891Y-109828784D01*
G37*
G36*
X247712263Y-108362176D02*
G01*
X247805890Y-108383469D01*
X247890342Y-108420379D01*
X247962819Y-108472506D01*
X247966718Y-108476101D01*
X247992810Y-108504322D01*
X248019216Y-108539163D01*
X248043369Y-108576272D01*
X248062707Y-108611294D01*
X248074665Y-108639879D01*
X248076677Y-108657672D01*
X248075130Y-108660109D01*
X248061894Y-108665819D01*
X248033428Y-108674932D01*
X247994922Y-108685835D01*
X247977741Y-108690370D01*
X247935195Y-108701422D01*
X247899085Y-108710898D01*
X247875297Y-108717249D01*
X247870829Y-108718487D01*
X247853375Y-108714527D01*
X247846882Y-108703347D01*
X247831063Y-108676060D01*
X247802223Y-108644398D01*
X247766047Y-108613591D01*
X247728218Y-108588868D01*
X247715645Y-108582622D01*
X247664835Y-108567738D01*
X247602839Y-108561131D01*
X247537809Y-108562825D01*
X247477899Y-108572844D01*
X247450232Y-108581851D01*
X247366699Y-108626501D01*
X247297324Y-108686123D01*
X247243099Y-108759297D01*
X247205016Y-108844599D01*
X247184070Y-108940609D01*
X247181587Y-108966665D01*
X247182738Y-109053654D01*
X247199736Y-109126870D01*
X247232729Y-109186524D01*
X247281865Y-109232829D01*
X247347292Y-109265998D01*
X247399811Y-109280870D01*
X247473704Y-109286554D01*
X247551431Y-109274352D01*
X247628706Y-109245773D01*
X247701241Y-109202326D01*
X247754944Y-109155881D01*
X247810749Y-109098910D01*
X247904758Y-109123437D01*
X247945758Y-109135025D01*
X247977702Y-109145748D01*
X247996075Y-109154004D01*
X247998768Y-109156805D01*
X247991698Y-109175060D01*
X247972649Y-109203750D01*
X247944866Y-109238802D01*
X247911592Y-109276147D01*
X247876071Y-109311712D01*
X247873258Y-109314332D01*
X247785352Y-109382004D01*
X247686601Y-109433811D01*
X247580527Y-109468776D01*
X247470649Y-109485925D01*
X247360491Y-109484278D01*
X247297021Y-109474146D01*
X247204832Y-109444484D01*
X247126021Y-109399131D01*
X247061439Y-109339285D01*
X247011937Y-109266141D01*
X246978366Y-109180895D01*
X246961576Y-109084745D01*
X246960773Y-109001223D01*
X246977279Y-108883798D01*
X247012135Y-108773302D01*
X247063897Y-108671703D01*
X247131124Y-108580967D01*
X247212374Y-108503063D01*
X247306207Y-108439956D01*
X247404327Y-108395979D01*
X247508683Y-108368032D01*
X247612261Y-108356897D01*
X247712263Y-108362176D01*
G37*
G36*
X245812277Y-109827244D02*
G01*
X245831272Y-109830303D01*
X245837826Y-109836988D01*
X245837212Y-109844911D01*
X245830738Y-109875463D01*
X245821944Y-109921742D01*
X245811340Y-109980637D01*
X245799434Y-110049039D01*
X245786734Y-110123837D01*
X245773750Y-110201921D01*
X245760989Y-110280180D01*
X245748961Y-110355504D01*
X245738174Y-110424784D01*
X245729136Y-110484908D01*
X245722356Y-110532767D01*
X245718343Y-110565249D01*
X245717452Y-110577319D01*
X245725095Y-110653452D01*
X245747874Y-110715012D01*
X245785837Y-110762047D01*
X245839035Y-110794605D01*
X245907517Y-110812731D01*
X245968065Y-110816882D01*
X246038258Y-110813937D01*
X246095364Y-110803370D01*
X246146496Y-110783382D01*
X246182908Y-110762592D01*
X246234426Y-110718352D01*
X246279293Y-110656055D01*
X246315658Y-110578445D01*
X246322282Y-110555281D01*
X246331824Y-110514287D01*
X246343696Y-110458367D01*
X246357313Y-110390423D01*
X246372085Y-110313358D01*
X246387427Y-110230075D01*
X246397100Y-110175834D01*
X246458578Y-109826581D01*
X246519029Y-109826547D01*
X246557603Y-109828476D01*
X246576718Y-109834493D01*
X246579377Y-109839654D01*
X246577430Y-109856616D01*
X246572073Y-109891168D01*
X246563867Y-109940253D01*
X246553370Y-110000814D01*
X246541144Y-110069794D01*
X246527747Y-110144134D01*
X246513741Y-110220778D01*
X246499683Y-110296667D01*
X246486135Y-110368744D01*
X246473657Y-110433952D01*
X246462807Y-110489233D01*
X246454146Y-110531530D01*
X246448234Y-110557784D01*
X246447134Y-110561890D01*
X246411582Y-110654998D01*
X246362516Y-110740129D01*
X246323527Y-110789707D01*
X246257967Y-110847498D01*
X246178879Y-110892072D01*
X246089848Y-110922430D01*
X245994458Y-110937571D01*
X245896296Y-110936494D01*
X245832748Y-110926634D01*
X245759802Y-110902648D01*
X245697842Y-110865569D01*
X245650747Y-110817856D01*
X245642854Y-110806315D01*
X245624635Y-110775206D01*
X245610353Y-110744067D01*
X245600037Y-110710723D01*
X245593713Y-110672998D01*
X245591411Y-110628717D01*
X245593158Y-110575707D01*
X245598982Y-110511793D01*
X245608911Y-110434798D01*
X245622973Y-110342550D01*
X245641197Y-110232872D01*
X245650966Y-110176078D01*
X245711538Y-109826513D01*
X245776561Y-109826513D01*
X245812277Y-109827244D01*
G37*
G36*
X251270334Y-109828581D02*
G01*
X251327231Y-109831769D01*
X251245835Y-110289096D01*
X251228790Y-110385428D01*
X251212930Y-110476161D01*
X251198636Y-110559031D01*
X251186290Y-110631776D01*
X251176272Y-110692133D01*
X251168966Y-110737838D01*
X251164751Y-110766630D01*
X251163847Y-110775333D01*
X251163255Y-110804245D01*
X251447589Y-110804245D01*
X251731923Y-110804245D01*
X251725272Y-110843669D01*
X251722324Y-110864403D01*
X251719792Y-110881024D01*
X251715530Y-110893984D01*
X251707394Y-110903732D01*
X251693238Y-110910720D01*
X251670918Y-110915397D01*
X251638288Y-110918214D01*
X251593205Y-110919622D01*
X251533523Y-110920070D01*
X251457097Y-110920009D01*
X251362298Y-110919890D01*
X251267691Y-110919828D01*
X251192016Y-110919567D01*
X251133177Y-110918996D01*
X251089078Y-110918004D01*
X251057625Y-110916478D01*
X251036723Y-110914308D01*
X251024277Y-110911382D01*
X251018190Y-110907589D01*
X251016369Y-110902818D01*
X251016334Y-110901492D01*
X251018199Y-110886467D01*
X251023357Y-110853592D01*
X251031384Y-110805240D01*
X251041856Y-110743783D01*
X251054349Y-110671594D01*
X251068437Y-110591046D01*
X251083697Y-110504513D01*
X251099705Y-110414366D01*
X251116036Y-110322979D01*
X251132265Y-110232725D01*
X251147968Y-110145977D01*
X251162721Y-110065107D01*
X251176100Y-109992489D01*
X251187680Y-109930494D01*
X251197037Y-109881497D01*
X251203747Y-109847870D01*
X251207384Y-109831986D01*
X251207766Y-109831063D01*
X251220600Y-109828451D01*
X251247545Y-109827787D01*
X251270334Y-109828581D01*
G37*
G36*
X250902343Y-109828581D02*
G01*
X250959212Y-109831769D01*
X250863715Y-110373202D01*
X250768217Y-110914634D01*
X250708162Y-110917787D01*
X250673920Y-110918736D01*
X250655796Y-110916135D01*
X250649006Y-110908721D01*
X250648371Y-110902017D01*
X250650233Y-110886941D01*
X250655388Y-110854018D01*
X250663412Y-110805622D01*
X250673879Y-110744124D01*
X250686367Y-110671898D01*
X250700451Y-110591316D01*
X250715707Y-110504751D01*
X250731710Y-110414575D01*
X250748037Y-110323161D01*
X250764264Y-110232882D01*
X250779967Y-110146109D01*
X250794720Y-110065217D01*
X250808101Y-109992576D01*
X250819686Y-109930561D01*
X250829049Y-109881544D01*
X250835767Y-109847896D01*
X250839416Y-109831992D01*
X250839803Y-109831063D01*
X250852637Y-109828451D01*
X250879580Y-109827787D01*
X250902343Y-109828581D01*
G37*
%TO.C,F4*%
X243912109Y-113484653D02*
X236972109Y-113484653D01*
X236972109Y-113484653D02*
X236972109Y-129684653D01*
X242442109Y-119984653D02*
X242442109Y-123184653D01*
X240442109Y-120834653D02*
X240442109Y-122334653D01*
X238442109Y-123184653D02*
X238442109Y-119984653D01*
X243912109Y-129684653D02*
X243912109Y-113484653D01*
X236972109Y-129684653D02*
X243912109Y-129684653D01*
%TO.C,D4*%
X234618000Y-128265000D02*
X236538000Y-128265000D01*
X236538000Y-128265000D02*
X236538000Y-125580000D01*
X234618000Y-125580000D02*
X234618000Y-128265000D01*
%TO.C,F1*%
X251573045Y-113516593D02*
X244633045Y-113516593D01*
X244633045Y-113516593D02*
X244633045Y-129716593D01*
X250103045Y-120016593D02*
X250103045Y-123216593D01*
X248103045Y-120866593D02*
X248103045Y-122366593D01*
X246103045Y-123216593D02*
X246103045Y-120016593D01*
X251573045Y-129716593D02*
X251573045Y-113516593D01*
X244633045Y-129716593D02*
X251573045Y-129716593D01*
%TO.C,J5*%
X220297598Y-132334000D02*
X220797598Y-131834000D01*
X221297598Y-132334000D02*
X220297598Y-132334000D01*
X220797598Y-131834000D02*
X221297598Y-132334000D01*
X213387598Y-131639000D02*
X220997598Y-131639000D01*
X229357598Y-131639000D02*
X223797598Y-131639000D01*
X213387598Y-131594000D02*
X213387598Y-114954000D01*
X229357598Y-131594000D02*
X229357598Y-114909000D01*
X213387598Y-114909000D02*
X220997598Y-114909000D01*
X229357598Y-114909000D02*
X223797598Y-114909000D01*
%TO.C,J1*%
X262084747Y-136585493D02*
X263084747Y-137585493D01*
X252964747Y-136585493D02*
X262084747Y-136585493D01*
X252964747Y-136585493D02*
X252964747Y-139010493D01*
X263084747Y-137585493D02*
X263084747Y-145455493D01*
X252964747Y-141030493D02*
X252964747Y-142368726D01*
X263084747Y-145455493D02*
X262084747Y-146455493D01*
X262084747Y-146455493D02*
X252964747Y-146455493D01*
X252964747Y-146455493D02*
X252964747Y-143672260D01*
D13*
%TO.C,REF\u002A\u002A*%
X224724000Y-111016000D02*
X220524000Y-111016000D01*
X224724000Y-108616000D02*
X224724000Y-111016000D01*
X220524000Y-111016000D02*
X220524000Y-108616000D01*
X220524000Y-108616000D02*
X224724000Y-108616000D01*
X226100000Y-150700000D02*
X221900000Y-150700000D01*
X226100000Y-148300000D02*
X226100000Y-150700000D01*
X221900000Y-150700000D02*
X221900000Y-148300000D01*
X221900000Y-148300000D02*
X226100000Y-148300000D01*
D14*
%TO.C,J6*%
X213330129Y-139188443D02*
X213330129Y-136378443D01*
X226350129Y-139188443D02*
X213330129Y-139188443D01*
X227040129Y-138978443D02*
X227340129Y-138378443D01*
X227640129Y-138978443D02*
X227040129Y-138978443D01*
X226350129Y-138378443D02*
X226350129Y-139188443D01*
X227340129Y-138378443D02*
X227640129Y-138978443D01*
X229450129Y-136678443D02*
X230730129Y-136678443D01*
X229450129Y-136078443D02*
X230730129Y-136078443D01*
X226350129Y-134378443D02*
X226350129Y-133568443D01*
X213330129Y-133568443D02*
X213330129Y-136378443D01*
X226350129Y-133568443D02*
X213330129Y-133568443D01*
%TD*%
M02*
