%TF.GenerationSoftware,KiCad,Pcbnew,7.0.8*%
%TF.CreationDate,2024-01-13T11:06:47-08:00*%
%TF.ProjectId,Power Distribution 2023-2024,506f7765-7220-4446-9973-747269627574,rev?*%
%TF.SameCoordinates,Original*%
%TF.FileFunction,Copper,L1,Top*%
%TF.FilePolarity,Positive*%
%FSLAX46Y46*%
G04 Gerber Fmt 4.6, Leading zero omitted, Abs format (unit mm)*
G04 Created by KiCad (PCBNEW 7.0.8) date 2024-01-13 11:06:47*
%MOMM*%
%LPD*%
G01*
G04 APERTURE LIST*
G04 Aperture macros list*
%AMRoundRect*
0 Rectangle with rounded corners*
0 $1 Rounding radius*
0 $2 $3 $4 $5 $6 $7 $8 $9 X,Y pos of 4 corners*
0 Add a 4 corners polygon primitive as box body*
4,1,4,$2,$3,$4,$5,$6,$7,$8,$9,$2,$3,0*
0 Add four circle primitives for the rounded corners*
1,1,$1+$1,$2,$3*
1,1,$1+$1,$4,$5*
1,1,$1+$1,$6,$7*
1,1,$1+$1,$8,$9*
0 Add four rect primitives between the rounded corners*
20,1,$1+$1,$2,$3,$4,$5,0*
20,1,$1+$1,$4,$5,$6,$7,0*
20,1,$1+$1,$6,$7,$8,$9,0*
20,1,$1+$1,$8,$9,$2,$3,0*%
G04 Aperture macros list end*
%TA.AperFunction,ComponentPad*%
%ADD10C,2.780000*%
%TD*%
%TA.AperFunction,SMDPad,CuDef*%
%ADD11RoundRect,0.250000X0.262500X0.450000X-0.262500X0.450000X-0.262500X-0.450000X0.262500X-0.450000X0*%
%TD*%
%TA.AperFunction,ComponentPad*%
%ADD12RoundRect,0.250001X-0.759999X0.499999X-0.759999X-0.499999X0.759999X-0.499999X0.759999X0.499999X0*%
%TD*%
%TA.AperFunction,ComponentPad*%
%ADD13O,2.020000X1.500000*%
%TD*%
%TA.AperFunction,SMDPad,CuDef*%
%ADD14RoundRect,0.250000X-0.450000X0.262500X-0.450000X-0.262500X0.450000X-0.262500X0.450000X0.262500X0*%
%TD*%
%TA.AperFunction,SMDPad,CuDef*%
%ADD15RoundRect,0.250000X-0.262500X-0.450000X0.262500X-0.450000X0.262500X0.450000X-0.262500X0.450000X0*%
%TD*%
%TA.AperFunction,ComponentPad*%
%ADD16RoundRect,0.250001X-0.499999X-0.759999X0.499999X-0.759999X0.499999X0.759999X-0.499999X0.759999X0*%
%TD*%
%TA.AperFunction,ComponentPad*%
%ADD17O,1.500000X2.020000*%
%TD*%
%TA.AperFunction,SMDPad,CuDef*%
%ADD18RoundRect,0.243750X0.456250X-0.243750X0.456250X0.243750X-0.456250X0.243750X-0.456250X-0.243750X0*%
%TD*%
%TA.AperFunction,ComponentPad*%
%ADD19R,2.300000X2.300000*%
%TD*%
%TA.AperFunction,ComponentPad*%
%ADD20C,2.300000*%
%TD*%
%TA.AperFunction,ComponentPad*%
%ADD21C,5.400000*%
%TD*%
%TA.AperFunction,SMDPad,CuDef*%
%ADD22RoundRect,0.250000X0.450000X-0.262500X0.450000X0.262500X-0.450000X0.262500X-0.450000X-0.262500X0*%
%TD*%
%TA.AperFunction,SMDPad,CuDef*%
%ADD23RoundRect,0.243750X0.243750X0.456250X-0.243750X0.456250X-0.243750X-0.456250X0.243750X-0.456250X0*%
%TD*%
%TA.AperFunction,SMDPad,CuDef*%
%ADD24RoundRect,0.243750X-0.456250X0.243750X-0.456250X-0.243750X0.456250X-0.243750X0.456250X0.243750X0*%
%TD*%
%TA.AperFunction,SMDPad,CuDef*%
%ADD25R,3.800000X2.000000*%
%TD*%
%TA.AperFunction,ComponentPad*%
%ADD26RoundRect,0.250001X0.759999X-0.499999X0.759999X0.499999X-0.759999X0.499999X-0.759999X-0.499999X0*%
%TD*%
%TA.AperFunction,Conductor*%
%ADD27C,2.000000*%
%TD*%
%TA.AperFunction,Conductor*%
%ADD28C,0.250000*%
%TD*%
G04 APERTURE END LIST*
D10*
%TO.P,F5,1*%
%TO.N,+12V*%
X228180000Y-126460000D03*
X231580000Y-126460000D03*
%TO.P,F5,2*%
%TO.N,Net-(F5-Pad2)*%
X228180000Y-116540000D03*
X231580000Y-116540000D03*
%TD*%
%TO.P,F2,1*%
%TO.N,+12V*%
X220560000Y-126460000D03*
X223960000Y-126460000D03*
%TO.P,F2,2*%
%TO.N,Net-(F2-Pad2)*%
X220560000Y-116540000D03*
X223960000Y-116540000D03*
%TD*%
D11*
%TO.P,R4,1*%
%TO.N,Net-(D4-A)*%
X233419645Y-141973749D03*
%TO.P,R4,2*%
%TO.N,Net-(F4-Pad1)*%
X231594645Y-141973749D03*
%TD*%
D12*
%TO.P,J3,1,Pin_1*%
%TO.N,Net-(D3-K)*%
X257582214Y-113006100D03*
D13*
%TO.P,J3,2,Pin_2*%
%TO.N,GND*%
X257582214Y-116006100D03*
%TD*%
D14*
%TO.P,R2,1*%
%TO.N,Net-(F2-Pad2)*%
X217344495Y-127279655D03*
%TO.P,R2,2*%
%TO.N,Net-(D2-A)*%
X217344495Y-129104655D03*
%TD*%
D15*
%TO.P,R3,1*%
%TO.N,Net-(F3-Pad2)*%
X246374393Y-111090103D03*
%TO.P,R3,2*%
%TO.N,Net-(D3-A)*%
X248199393Y-111090103D03*
%TD*%
D16*
%TO.P,J7,1,Pin_1*%
%TO.N,Net-(J6-Pin_2)*%
X247666756Y-106897783D03*
D17*
%TO.P,J7,2,Pin_2*%
%TO.N,GND*%
X250666756Y-106897783D03*
%TD*%
D18*
%TO.P,D2,1,K*%
%TO.N,Net-(D2-K)*%
X217354132Y-132660000D03*
%TO.P,D2,2,A*%
%TO.N,Net-(D2-A)*%
X217354132Y-130785000D03*
%TD*%
D10*
%TO.P,F3,2*%
%TO.N,Net-(F3-Pad2)*%
X239200000Y-116540000D03*
X235800000Y-116540000D03*
%TO.P,F3,1*%
%TO.N,+12V*%
X239200000Y-126460000D03*
X235800000Y-126460000D03*
%TD*%
D19*
%TO.P,J4,1,Pin_1*%
%TO.N,+12V*%
X248670001Y-136188687D03*
D20*
%TO.P,J4,2,Pin_2*%
%TO.N,GND*%
X248670001Y-141888688D03*
%TD*%
D17*
%TO.P,J5,2,Pin_2*%
%TO.N,Net-(J5-Pin_2)*%
X227862275Y-106931171D03*
D16*
%TO.P,J5,1,Pin_1*%
%TO.N,Net-(D5-K)*%
X224862275Y-106931171D03*
%TD*%
D21*
%TO.P,He2,1*%
%TO.N,N/C*%
X216522170Y-100948890D03*
%TD*%
D16*
%TO.P,J6,1,Pin_1*%
%TO.N,Net-(J5-Pin_2)*%
X236331218Y-106957707D03*
D17*
%TO.P,J6,2,Pin_2*%
%TO.N,Net-(J6-Pin_2)*%
X239331218Y-106957707D03*
%TD*%
D22*
%TO.P,R5,1*%
%TO.N,Net-(F5-Pad2)*%
X226000000Y-111500000D03*
%TO.P,R5,2*%
%TO.N,Net-(D5-A)*%
X226000000Y-109675000D03*
%TD*%
D14*
%TO.P,R1,1*%
%TO.N,Net-(F1-Pad2)*%
X252890185Y-118884519D03*
%TO.P,R1,2*%
%TO.N,Net-(D1-A)*%
X252890185Y-120709519D03*
%TD*%
D18*
%TO.P,D1,1,K*%
%TO.N,Net-(D1-K)*%
X252899117Y-124302636D03*
%TO.P,D1,2,A*%
%TO.N,Net-(D1-A)*%
X252899117Y-122427636D03*
%TD*%
D23*
%TO.P,D4,1,K*%
%TO.N,GND*%
X236997424Y-142000000D03*
%TO.P,D4,2,A*%
%TO.N,Net-(D4-A)*%
X235122424Y-142000000D03*
%TD*%
D10*
%TO.P,F1,1*%
%TO.N,+12V*%
X243420000Y-126460000D03*
X246820000Y-126460000D03*
%TO.P,F1,2*%
%TO.N,Net-(F1-Pad2)*%
X243420000Y-116540000D03*
X246820000Y-116540000D03*
%TD*%
%TO.P,F4,1*%
%TO.N,Net-(F4-Pad1)*%
X229040000Y-133800000D03*
X229040000Y-137200000D03*
%TO.P,F4,2*%
%TO.N,+12V*%
X238960000Y-133800000D03*
X238960000Y-137200000D03*
%TD*%
D24*
%TO.P,D5,1,K*%
%TO.N,Net-(D5-K)*%
X223500000Y-110062500D03*
%TO.P,D5,2,A*%
%TO.N,Net-(D5-A)*%
X223500000Y-111937500D03*
%TD*%
D21*
%TO.P,He3,1*%
%TO.N,N/C*%
X263495160Y-100967233D03*
%TD*%
D12*
%TO.P,J1,1,Pin_1*%
%TO.N,Net-(D1-K)*%
X257518888Y-124314569D03*
D13*
%TO.P,J1,2,Pin_2*%
%TO.N,GND*%
X257518888Y-127314569D03*
%TD*%
D21*
%TO.P,He1,1*%
%TO.N,N/C*%
X216462748Y-149860000D03*
%TD*%
%TO.P,He4,1*%
%TO.N,N/C*%
X263518251Y-149932561D03*
%TD*%
D25*
%TO.P,REF\u002A\u002A,1*%
%TO.N,GND*%
X256000000Y-149860000D03*
%TD*%
%TO.P,REF\u002A\u002A,1*%
%TO.N,+12V*%
X224000000Y-149500000D03*
%TD*%
D26*
%TO.P,J2,1,Pin_1*%
%TO.N,Net-(D2-K)*%
X222462573Y-141769463D03*
D13*
%TO.P,J2,2,Pin_2*%
%TO.N,GND*%
X222462573Y-138769463D03*
%TD*%
D23*
%TO.P,D3,1,K*%
%TO.N,Net-(D3-K)*%
X251775000Y-111086270D03*
%TO.P,D3,2,A*%
%TO.N,Net-(D3-A)*%
X249900000Y-111086270D03*
%TD*%
D27*
%TO.N,Net-(D1-K)*%
X252899117Y-124302636D02*
X257530821Y-124302636D01*
X257530821Y-124302636D02*
X257518888Y-124314569D01*
D28*
%TO.N,Net-(D1-A)*%
X252899117Y-122427636D02*
X252899117Y-120718451D01*
X252899117Y-120718451D02*
X252890185Y-120709519D01*
D27*
%TO.N,Net-(D2-K)*%
X219370379Y-132660000D02*
X224672573Y-137962194D01*
X224672573Y-139577179D02*
X222480289Y-141769463D01*
X222480289Y-141769463D02*
X221500000Y-141769463D01*
X224672573Y-137962194D02*
X224672573Y-139577179D01*
X217354132Y-132660000D02*
X219370379Y-132660000D01*
D28*
%TO.N,Net-(D2-A)*%
X217354132Y-129114292D02*
X217344495Y-129104655D01*
X217354132Y-130785000D02*
X217354132Y-129114292D01*
X217360782Y-128722867D02*
X217354132Y-128722867D01*
D27*
%TO.N,Net-(D3-K)*%
X258500000Y-113000000D02*
X258493900Y-113006100D01*
X258493900Y-113006100D02*
X253694830Y-113006100D01*
D28*
X251779894Y-111081376D02*
X251775000Y-111086270D01*
D27*
X253694830Y-113006100D02*
X251775000Y-111086270D01*
D28*
%TO.N,Net-(D3-A)*%
X248199393Y-111090103D02*
X249896167Y-111090103D01*
X249896167Y-111090103D02*
X249900000Y-111086270D01*
D27*
%TO.N,GND*%
X248558689Y-142000000D02*
X236997424Y-142000000D01*
X256360000Y-149860000D02*
X248670001Y-142170001D01*
X248670001Y-142170001D02*
X248670001Y-141888688D01*
X248670001Y-141888688D02*
X248558689Y-142000000D01*
D28*
%TO.N,Net-(D4-A)*%
X235446184Y-142000000D02*
X233553816Y-142000000D01*
D27*
%TO.N,Net-(F1-Pad2)*%
X243415749Y-116500000D02*
X246815749Y-116500000D01*
D28*
X247482902Y-117238864D02*
X247450749Y-117271017D01*
X246847902Y-117238864D02*
X246815749Y-117271017D01*
D27*
X246815749Y-117315749D02*
X246815749Y-117271017D01*
X248384519Y-118884519D02*
X246815749Y-117315749D01*
X252890185Y-118884519D02*
X248384519Y-118884519D01*
%TO.N,Net-(F2-Pad2)*%
X220560000Y-116540000D02*
X217344495Y-119755505D01*
X217344495Y-119755505D02*
X217344495Y-127279655D01*
X223955749Y-116500000D02*
X220555749Y-116500000D01*
D28*
%TO.N,Net-(F3-Pad2)*%
X239055268Y-116540000D02*
X238760000Y-116835268D01*
X239200000Y-116540000D02*
X239055268Y-116540000D01*
D27*
X244909897Y-111090103D02*
X246374393Y-111090103D01*
X239200000Y-116540000D02*
X239460000Y-116540000D01*
X239460000Y-116540000D02*
X244909897Y-111090103D01*
X235795749Y-116500000D02*
X239195749Y-116500000D01*
%TO.N,Net-(J5-Pin_2)*%
X236304682Y-106931171D02*
X236331218Y-106957707D01*
X227862275Y-106931171D02*
X236304682Y-106931171D01*
%TO.N,Net-(J6-Pin_2)*%
X239331218Y-106957707D02*
X247606832Y-106957707D01*
X247606832Y-106957707D02*
X247666756Y-106897783D01*
D28*
%TO.N,Net-(D5-A)*%
X225825000Y-109675000D02*
X226000000Y-109675000D01*
X223562500Y-111937500D02*
X225825000Y-109675000D01*
X223500000Y-111937500D02*
X223562500Y-111937500D01*
D27*
%TO.N,Net-(D5-K)*%
X223500000Y-110062500D02*
X223500000Y-108236612D01*
X224805441Y-106931171D02*
X224862275Y-106931171D01*
X223500000Y-108236612D02*
X224805441Y-106931171D01*
%TO.N,Net-(F4-Pad1)*%
X229000000Y-139379104D02*
X229000000Y-133370002D01*
X231594645Y-141973749D02*
X229000000Y-139379104D01*
%TO.N,Net-(F5-Pad2)*%
X231575749Y-116500000D02*
X231535749Y-116540000D01*
X228180000Y-116540000D02*
X228040000Y-116540000D01*
X226000000Y-114500000D02*
X226000000Y-111500000D01*
D28*
X228248249Y-117198517D02*
X228175749Y-117271017D01*
D27*
X231535749Y-116540000D02*
X228180000Y-116540000D01*
X228040000Y-116540000D02*
X226000000Y-114500000D01*
%TD*%
%TA.AperFunction,Conductor*%
%TO.N,+12V*%
G36*
X260293039Y-97810185D02*
G01*
X260338794Y-97862989D01*
X260350000Y-97914500D01*
X260350000Y-100361107D01*
X260348248Y-100381878D01*
X260309774Y-100608318D01*
X260309772Y-100608330D01*
X260289617Y-100967233D01*
X260309772Y-101326135D01*
X260309774Y-101326147D01*
X260348248Y-101552586D01*
X260350000Y-101573357D01*
X260350000Y-104140000D01*
X263051517Y-104140000D01*
X263072288Y-104141752D01*
X263080213Y-104143098D01*
X263136253Y-104152620D01*
X263495160Y-104172776D01*
X263854067Y-104152620D01*
X263911600Y-104142844D01*
X263918032Y-104141752D01*
X263938803Y-104140000D01*
X266575500Y-104140000D01*
X266642539Y-104159685D01*
X266688294Y-104212489D01*
X266699500Y-104264000D01*
X266699500Y-146555138D01*
X266679815Y-146622177D01*
X266627011Y-146667932D01*
X266575500Y-146679138D01*
X260381221Y-146679138D01*
X260381221Y-149278586D01*
X260379469Y-149299357D01*
X260332865Y-149573646D01*
X260332863Y-149573658D01*
X260312708Y-149932561D01*
X260332863Y-150291463D01*
X260332865Y-150291475D01*
X260379469Y-150565763D01*
X260381221Y-150586534D01*
X260381221Y-152910500D01*
X260361536Y-152977539D01*
X260308732Y-153023294D01*
X260257221Y-153034500D01*
X219791895Y-153034500D01*
X219724856Y-153014815D01*
X219679101Y-152962011D01*
X219667895Y-152910500D01*
X219667895Y-149868792D01*
X219667993Y-149865314D01*
X219668291Y-149860002D01*
X219668291Y-149859995D01*
X219667993Y-149854683D01*
X219667895Y-149851207D01*
X219667895Y-146708221D01*
X217029917Y-146708221D01*
X217009146Y-146706469D01*
X216821662Y-146674614D01*
X216821650Y-146674612D01*
X216462748Y-146654457D01*
X216103845Y-146674612D01*
X216103833Y-146674614D01*
X215916350Y-146706469D01*
X215895579Y-146708221D01*
X213484500Y-146708221D01*
X213417461Y-146688536D01*
X213371706Y-146635732D01*
X213360500Y-146584221D01*
X213360500Y-140400650D01*
X216392073Y-140400650D01*
X216407595Y-140503628D01*
X216431177Y-140660078D01*
X216431178Y-140660080D01*
X216431179Y-140660086D01*
X216508511Y-140910789D01*
X216622340Y-141147159D01*
X216622341Y-141147160D01*
X216622343Y-141147163D01*
X216622345Y-141147167D01*
X216634267Y-141164653D01*
X216770140Y-141363942D01*
X216948587Y-141556264D01*
X216948591Y-141556267D01*
X216948592Y-141556268D01*
X217153716Y-141719849D01*
X217380930Y-141851031D01*
X217625157Y-141946883D01*
X217880943Y-142005265D01*
X217880949Y-142005265D01*
X217880952Y-142005266D01*
X218077073Y-142019963D01*
X218077079Y-142019963D01*
X218208073Y-142019963D01*
X218404193Y-142005266D01*
X218404195Y-142005265D01*
X218404203Y-142005265D01*
X218659989Y-141946883D01*
X218904216Y-141851031D01*
X219131430Y-141719849D01*
X219336554Y-141556268D01*
X219515006Y-141363942D01*
X219662801Y-141147167D01*
X219776636Y-140910786D01*
X219853969Y-140660078D01*
X219893073Y-140400645D01*
X219893073Y-140138281D01*
X219853969Y-139878848D01*
X219776636Y-139628140D01*
X219746392Y-139565337D01*
X219662805Y-139391766D01*
X219662804Y-139391765D01*
X219662803Y-139391764D01*
X219662801Y-139391759D01*
X219515006Y-139174984D01*
X219505014Y-139164216D01*
X219336558Y-138982661D01*
X219297106Y-138951199D01*
X219131430Y-138819077D01*
X218904216Y-138687895D01*
X218659989Y-138592043D01*
X218659984Y-138592041D01*
X218659975Y-138592039D01*
X218442391Y-138542377D01*
X218404203Y-138533661D01*
X218404202Y-138533660D01*
X218404198Y-138533660D01*
X218404193Y-138533659D01*
X218208073Y-138518963D01*
X218208067Y-138518963D01*
X218077079Y-138518963D01*
X218077073Y-138518963D01*
X217880952Y-138533659D01*
X217880947Y-138533660D01*
X217625170Y-138592039D01*
X217625151Y-138592045D01*
X217380929Y-138687895D01*
X217153716Y-138819077D01*
X216948587Y-138982661D01*
X216770140Y-139174983D01*
X216622341Y-139391765D01*
X216622340Y-139391766D01*
X216508511Y-139628136D01*
X216431179Y-139878839D01*
X216431178Y-139878844D01*
X216431177Y-139878848D01*
X216421738Y-139941469D01*
X216392073Y-140138275D01*
X216392073Y-140400650D01*
X213360500Y-140400650D01*
X213360500Y-119817725D01*
X215840137Y-119817725D01*
X215843518Y-119844847D01*
X215843995Y-119852523D01*
X215843995Y-127341720D01*
X215859385Y-127527468D01*
X215859387Y-127527479D01*
X215920431Y-127768536D01*
X216020321Y-127996261D01*
X216156328Y-128204437D01*
X216242237Y-128297759D01*
X216273159Y-128360414D01*
X216265299Y-128429840D01*
X216256547Y-128446837D01*
X216209683Y-128522816D01*
X216209680Y-128522823D01*
X216195682Y-128565068D01*
X216154496Y-128689358D01*
X216154496Y-128689359D01*
X216154495Y-128689359D01*
X216143995Y-128792138D01*
X216143995Y-129417156D01*
X216143996Y-129417174D01*
X216154495Y-129519951D01*
X216154496Y-129519954D01*
X216209680Y-129686486D01*
X216209682Y-129686491D01*
X216301784Y-129835812D01*
X216338606Y-129872634D01*
X216372091Y-129933957D01*
X216367107Y-130003649D01*
X216338608Y-130047995D01*
X216310103Y-130076500D01*
X216218774Y-130224566D01*
X216218769Y-130224577D01*
X216164045Y-130389723D01*
X216153632Y-130491644D01*
X216153632Y-131078355D01*
X216164045Y-131180276D01*
X216218769Y-131345422D01*
X216218771Y-131345427D01*
X216291071Y-131462643D01*
X216309511Y-131530036D01*
X216288588Y-131596699D01*
X216269518Y-131618967D01*
X216246399Y-131640250D01*
X216246393Y-131640257D01*
X216093660Y-131836487D01*
X216093657Y-131836491D01*
X215975304Y-132055188D01*
X215975301Y-132055197D01*
X215894561Y-132290383D01*
X215853632Y-132535665D01*
X215853632Y-132784334D01*
X215894561Y-133029616D01*
X215975301Y-133264802D01*
X215975304Y-133264811D01*
X215975963Y-133266028D01*
X216093658Y-133483509D01*
X216246394Y-133679744D01*
X216377025Y-133799998D01*
X216429349Y-133848166D01*
X216637525Y-133984173D01*
X216865250Y-134084063D01*
X217106307Y-134145107D01*
X217106311Y-134145108D01*
X217106313Y-134145108D01*
X217106318Y-134145109D01*
X217239508Y-134156145D01*
X217292065Y-134160500D01*
X218697489Y-134160500D01*
X218764528Y-134180185D01*
X218785170Y-134196819D01*
X221940715Y-137352363D01*
X221974200Y-137413686D01*
X221969216Y-137483378D01*
X221927344Y-137539311D01*
X221886024Y-137559575D01*
X221761410Y-137593967D01*
X221761399Y-137593971D01*
X221558606Y-137691630D01*
X221558598Y-137691634D01*
X221376500Y-137823936D01*
X221376498Y-137823937D01*
X221220939Y-137986639D01*
X221096936Y-138174496D01*
X221008472Y-138381467D01*
X221008468Y-138381480D01*
X220958383Y-138600920D01*
X220958381Y-138600931D01*
X220948283Y-138825788D01*
X220948283Y-138825793D01*
X220978498Y-139048850D01*
X220978499Y-139048853D01*
X221048056Y-139262928D01*
X221154719Y-139461141D01*
X221154721Y-139461144D01*
X221295062Y-139637126D01*
X221295064Y-139637127D01*
X221295065Y-139637129D01*
X221464577Y-139785228D01*
X221657809Y-139900678D01*
X221868549Y-139979770D01*
X221871648Y-139980332D01*
X221872086Y-139980412D01*
X221873567Y-139981155D01*
X221873917Y-139981252D01*
X221873897Y-139981321D01*
X221934532Y-140011752D01*
X221970122Y-140071878D01*
X221967556Y-140141701D01*
X221937624Y-140190099D01*
X221895081Y-140232643D01*
X221833759Y-140266129D01*
X221807399Y-140268963D01*
X221437933Y-140268963D01*
X221418521Y-140270571D01*
X221252186Y-140284353D01*
X221252175Y-140284355D01*
X221011118Y-140345399D01*
X220783393Y-140445289D01*
X220575217Y-140581296D01*
X220392261Y-140749720D01*
X220239524Y-140945956D01*
X220121172Y-141164651D01*
X220121169Y-141164660D01*
X220040429Y-141399846D01*
X219999500Y-141645128D01*
X219999500Y-141893797D01*
X220040429Y-142139079D01*
X220121169Y-142374265D01*
X220121172Y-142374274D01*
X220237267Y-142588798D01*
X220239526Y-142592972D01*
X220392262Y-142789207D01*
X220535431Y-142921003D01*
X220575217Y-142957629D01*
X220783393Y-143093636D01*
X221011118Y-143193526D01*
X221161710Y-143231661D01*
X221252179Y-143254571D01*
X221252181Y-143254571D01*
X221252186Y-143254572D01*
X221385376Y-143265608D01*
X221437933Y-143269963D01*
X222383270Y-143269963D01*
X222390941Y-143270438D01*
X222418068Y-143273820D01*
X222511324Y-143269963D01*
X222542356Y-143269963D01*
X222573279Y-143267400D01*
X222666526Y-143263544D01*
X222693271Y-143257935D01*
X222700871Y-143256827D01*
X222728110Y-143254571D01*
X222728113Y-143254570D01*
X222728115Y-143254570D01*
X222728118Y-143254569D01*
X222818577Y-143231661D01*
X222909903Y-143212512D01*
X222935366Y-143202575D01*
X222942663Y-143200237D01*
X222969170Y-143193526D01*
X223054624Y-143156042D01*
X223141563Y-143122119D01*
X223165050Y-143108122D01*
X223171870Y-143104612D01*
X223196896Y-143093636D01*
X223268642Y-143046762D01*
X223275008Y-143042603D01*
X223281291Y-143038858D01*
X223297792Y-143029025D01*
X223348667Y-143012189D01*
X223375370Y-143009462D01*
X223541907Y-142954277D01*
X223691228Y-142862174D01*
X223815284Y-142738118D01*
X223907387Y-142588797D01*
X223959797Y-142430631D01*
X223989820Y-142381958D01*
X225664995Y-140706783D01*
X225670740Y-140701709D01*
X225692317Y-140684917D01*
X225755522Y-140616257D01*
X225777475Y-140594305D01*
X225797539Y-140570614D01*
X225860737Y-140501964D01*
X225875690Y-140479073D01*
X225880270Y-140472933D01*
X225897939Y-140452073D01*
X225945709Y-140371903D01*
X225996746Y-140293786D01*
X226007727Y-140268750D01*
X226011230Y-140261943D01*
X226025229Y-140238452D01*
X226059153Y-140151511D01*
X226096636Y-140066060D01*
X226103344Y-140039564D01*
X226105683Y-140032262D01*
X226115623Y-140006793D01*
X226134775Y-139915453D01*
X226157681Y-139825000D01*
X226159937Y-139797772D01*
X226161046Y-139790161D01*
X226162081Y-139785226D01*
X226166654Y-139763416D01*
X226170510Y-139670169D01*
X226173073Y-139639246D01*
X226173073Y-139608214D01*
X226176930Y-139514958D01*
X226173548Y-139487830D01*
X226173073Y-139480160D01*
X226173073Y-138059212D01*
X226173550Y-138051536D01*
X226176930Y-138024414D01*
X226176930Y-138024413D01*
X226173073Y-137931158D01*
X226173073Y-137900128D01*
X226170510Y-137869203D01*
X226166654Y-137775963D01*
X226166654Y-137775957D01*
X226161046Y-137749210D01*
X226159937Y-137741600D01*
X226157682Y-137714381D01*
X226157680Y-137714370D01*
X226134775Y-137623919D01*
X226115623Y-137532580D01*
X226105685Y-137507114D01*
X226103347Y-137499817D01*
X226096636Y-137473313D01*
X226059153Y-137387861D01*
X226025229Y-137300921D01*
X226011238Y-137277442D01*
X226007723Y-137270612D01*
X225996746Y-137245587D01*
X225991916Y-137238194D01*
X225966964Y-137200001D01*
X227144671Y-137200001D01*
X227163963Y-137469733D01*
X227163964Y-137469740D01*
X227221443Y-137733971D01*
X227315948Y-137987349D01*
X227315950Y-137987353D01*
X227445544Y-138224686D01*
X227445545Y-138224687D01*
X227445548Y-138224692D01*
X227474767Y-138263724D01*
X227499184Y-138329187D01*
X227499500Y-138338034D01*
X227499500Y-139282085D01*
X227499024Y-139289760D01*
X227495643Y-139316883D01*
X227499500Y-139410139D01*
X227499500Y-139441168D01*
X227502062Y-139472094D01*
X227505918Y-139565337D01*
X227511526Y-139592087D01*
X227512635Y-139599694D01*
X227514891Y-139626922D01*
X227514891Y-139626923D01*
X227532975Y-139698335D01*
X227537801Y-139717392D01*
X227556951Y-139808718D01*
X227556952Y-139808720D01*
X227566882Y-139834171D01*
X227569227Y-139841491D01*
X227575937Y-139867985D01*
X227608167Y-139941463D01*
X227613420Y-139953439D01*
X227647344Y-140040379D01*
X227661332Y-140063854D01*
X227664852Y-140070692D01*
X227675825Y-140095708D01*
X227675827Y-140095711D01*
X227726860Y-140173824D01*
X227774634Y-140253998D01*
X227792296Y-140274851D01*
X227796887Y-140281008D01*
X227811836Y-140303889D01*
X227811837Y-140303890D01*
X227875033Y-140372539D01*
X227895100Y-140396233D01*
X227917049Y-140418182D01*
X227980257Y-140486843D01*
X228001822Y-140503628D01*
X228007587Y-140508719D01*
X230577516Y-143078649D01*
X230612831Y-143108559D01*
X230719751Y-143199115D01*
X230933371Y-143326405D01*
X231165031Y-143416798D01*
X231408408Y-143467829D01*
X231656866Y-143478106D01*
X231903626Y-143447347D01*
X232077856Y-143395476D01*
X232141959Y-143376393D01*
X232365353Y-143267182D01*
X232365354Y-143267181D01*
X232365361Y-143267178D01*
X232567740Y-143122681D01*
X232610173Y-143080247D01*
X232671495Y-143046762D01*
X232741186Y-143051746D01*
X232762950Y-143062389D01*
X232837804Y-143108559D01*
X232837805Y-143108559D01*
X232837811Y-143108563D01*
X233004348Y-143163748D01*
X233107136Y-143174249D01*
X233732153Y-143174248D01*
X233732161Y-143174247D01*
X233732164Y-143174247D01*
X233788447Y-143168497D01*
X233834942Y-143163748D01*
X234001479Y-143108563D01*
X234150801Y-143016461D01*
X234180897Y-142986363D01*
X234242216Y-142952880D01*
X234311908Y-142957862D01*
X234356259Y-142986364D01*
X234413920Y-143044025D01*
X234413924Y-143044028D01*
X234561990Y-143135357D01*
X234561993Y-143135358D01*
X234561999Y-143135362D01*
X234727149Y-143190087D01*
X234829076Y-143200500D01*
X234829081Y-143200500D01*
X235415767Y-143200500D01*
X235415772Y-143200500D01*
X235517699Y-143190087D01*
X235682849Y-143135362D01*
X235801946Y-143061901D01*
X235869337Y-143043461D01*
X235936000Y-143064383D01*
X235951021Y-143076207D01*
X236015281Y-143135362D01*
X236072641Y-143188166D01*
X236280817Y-143324173D01*
X236508542Y-143424063D01*
X236681370Y-143467829D01*
X236749603Y-143485108D01*
X236749605Y-143485108D01*
X236749610Y-143485109D01*
X236882800Y-143496145D01*
X236935357Y-143500500D01*
X247827110Y-143500500D01*
X247894149Y-143520185D01*
X247914791Y-143536819D01*
X253563181Y-149185209D01*
X253596666Y-149246532D01*
X253599500Y-149272890D01*
X253599500Y-150907870D01*
X253599501Y-150907876D01*
X253605908Y-150967483D01*
X253656202Y-151102328D01*
X253656206Y-151102335D01*
X253742452Y-151217544D01*
X253742455Y-151217547D01*
X253857664Y-151303793D01*
X253857671Y-151303797D01*
X253992517Y-151354091D01*
X253992516Y-151354091D01*
X253999444Y-151354835D01*
X254052127Y-151360500D01*
X256328950Y-151360499D01*
X256422221Y-151364357D01*
X256439865Y-151362157D01*
X256449348Y-151360976D01*
X256457025Y-151360499D01*
X257947871Y-151360499D01*
X257947872Y-151360499D01*
X258007483Y-151354091D01*
X258142331Y-151303796D01*
X258257546Y-151217546D01*
X258343796Y-151102331D01*
X258394091Y-150967483D01*
X258400500Y-150907873D01*
X258400499Y-148812128D01*
X258394091Y-148752517D01*
X258343796Y-148617669D01*
X258343795Y-148617668D01*
X258343793Y-148617664D01*
X258257547Y-148502455D01*
X258257544Y-148502452D01*
X258142335Y-148416206D01*
X258142328Y-148416202D01*
X258007482Y-148365908D01*
X258007483Y-148365908D01*
X257947883Y-148359501D01*
X257947881Y-148359500D01*
X257947873Y-148359500D01*
X257947865Y-148359500D01*
X257032890Y-148359500D01*
X256965851Y-148339815D01*
X256945209Y-148323181D01*
X250342140Y-141720112D01*
X250308655Y-141658789D01*
X250306203Y-141642157D01*
X250305222Y-141629698D01*
X250305222Y-141629694D01*
X250244574Y-141377078D01*
X250181880Y-141225723D01*
X250145157Y-141137064D01*
X250094925Y-141055093D01*
X250009413Y-140915548D01*
X249840690Y-140717999D01*
X249643141Y-140549276D01*
X249421629Y-140413534D01*
X249421628Y-140413533D01*
X249421624Y-140413531D01*
X249255628Y-140344774D01*
X249181611Y-140314115D01*
X249181612Y-140314115D01*
X248992707Y-140268763D01*
X248928995Y-140253467D01*
X248928993Y-140253466D01*
X248928992Y-140253466D01*
X248670001Y-140233084D01*
X248411010Y-140253466D01*
X248158390Y-140314115D01*
X247918380Y-140413530D01*
X247918374Y-140413533D01*
X247918373Y-140413534D01*
X247807904Y-140481228D01*
X247743117Y-140499500D01*
X236935357Y-140499500D01*
X236915945Y-140501108D01*
X236749610Y-140514890D01*
X236749599Y-140514892D01*
X236508542Y-140575936D01*
X236280817Y-140675826D01*
X236072641Y-140811833D01*
X235951025Y-140923789D01*
X235888370Y-140954711D01*
X235818944Y-140946851D01*
X235801945Y-140938097D01*
X235682857Y-140864642D01*
X235682851Y-140864639D01*
X235682849Y-140864638D01*
X235606064Y-140839194D01*
X235517700Y-140809913D01*
X235415779Y-140799500D01*
X235415772Y-140799500D01*
X234829076Y-140799500D01*
X234829068Y-140799500D01*
X234727147Y-140809913D01*
X234562001Y-140864637D01*
X234561990Y-140864642D01*
X234413924Y-140955971D01*
X234413919Y-140955974D01*
X234382509Y-140987385D01*
X234321185Y-141020870D01*
X234251494Y-141015884D01*
X234207148Y-140987384D01*
X234150802Y-140931038D01*
X234150801Y-140931037D01*
X234043157Y-140864642D01*
X234001481Y-140838936D01*
X234001476Y-140838934D01*
X234000007Y-140838447D01*
X233834942Y-140783750D01*
X233834940Y-140783749D01*
X233732155Y-140773249D01*
X233107143Y-140773249D01*
X233107125Y-140773250D01*
X233004348Y-140783749D01*
X233004345Y-140783750D01*
X232837813Y-140838934D01*
X232837804Y-140838938D01*
X232762951Y-140885108D01*
X232695558Y-140903548D01*
X232628895Y-140882625D01*
X232610174Y-140867250D01*
X230916554Y-139173630D01*
X254169502Y-139173630D01*
X254209720Y-139440461D01*
X254209722Y-139440467D01*
X254289264Y-139698335D01*
X254406348Y-139941463D01*
X254406350Y-139941465D01*
X254406351Y-139941468D01*
X254540535Y-140138280D01*
X254558367Y-140164435D01*
X254741912Y-140362251D01*
X254741916Y-140362254D01*
X254741917Y-140362255D01*
X254952900Y-140530509D01*
X255186604Y-140665437D01*
X255437807Y-140764028D01*
X255700899Y-140824077D01*
X255729717Y-140826236D01*
X255902620Y-140839194D01*
X255902626Y-140839194D01*
X256037384Y-140839194D01*
X256188673Y-140827856D01*
X256239105Y-140824077D01*
X256502197Y-140764028D01*
X256753400Y-140665437D01*
X256987104Y-140530509D01*
X257198087Y-140362255D01*
X257381637Y-140164435D01*
X257533653Y-139941469D01*
X257650740Y-139698335D01*
X257730282Y-139440466D01*
X257737623Y-139391766D01*
X257770501Y-139173630D01*
X257770502Y-139173621D01*
X257770502Y-138903766D01*
X257770501Y-138903757D01*
X257730283Y-138636926D01*
X257730281Y-138636920D01*
X257719180Y-138600931D01*
X257650740Y-138379053D01*
X257533653Y-138135920D01*
X257381637Y-137912953D01*
X257341043Y-137869203D01*
X257198091Y-137715136D01*
X257083710Y-137623920D01*
X256987104Y-137546879D01*
X256753400Y-137411951D01*
X256753398Y-137411950D01*
X256502197Y-137313360D01*
X256502190Y-137313358D01*
X256239103Y-137253310D01*
X256037384Y-137238194D01*
X256037378Y-137238194D01*
X255902626Y-137238194D01*
X255902620Y-137238194D01*
X255700900Y-137253310D01*
X255437813Y-137313358D01*
X255437806Y-137313360D01*
X255186605Y-137411950D01*
X255186601Y-137411952D01*
X254952900Y-137546879D01*
X254741912Y-137715136D01*
X254558367Y-137912952D01*
X254406347Y-138135925D01*
X254406346Y-138135926D01*
X254289265Y-138379049D01*
X254209722Y-138636920D01*
X254209720Y-138636926D01*
X254169502Y-138903757D01*
X254169502Y-139173630D01*
X230916554Y-139173630D01*
X230536819Y-138793895D01*
X230503334Y-138732572D01*
X230500500Y-138706214D01*
X230500500Y-138444901D01*
X230520185Y-138377862D01*
X230525218Y-138370611D01*
X230634452Y-138224692D01*
X230764052Y-137987348D01*
X230858555Y-137733976D01*
X230916037Y-137469733D01*
X230935329Y-137200000D01*
X230916037Y-136930267D01*
X230858555Y-136666024D01*
X230764052Y-136412652D01*
X230634452Y-136175308D01*
X230634450Y-136175305D01*
X230525233Y-136029407D01*
X230500816Y-135963943D01*
X230500500Y-135955097D01*
X230500500Y-135044901D01*
X230520185Y-134977862D01*
X230525218Y-134970611D01*
X230634452Y-134824692D01*
X230764052Y-134587348D01*
X230858555Y-134333976D01*
X230916037Y-134069733D01*
X230935329Y-133800000D01*
X230916037Y-133530267D01*
X230858555Y-133266024D01*
X230764052Y-133012652D01*
X230634452Y-132775308D01*
X230634450Y-132775305D01*
X230472400Y-132558830D01*
X230472384Y-132558812D01*
X230281187Y-132367615D01*
X230281169Y-132367599D01*
X230064694Y-132205549D01*
X230064686Y-132205544D01*
X229827353Y-132075950D01*
X229827342Y-132075945D01*
X229619386Y-131998381D01*
X229611536Y-131994813D01*
X229604810Y-131991173D01*
X229369616Y-131910431D01*
X229124335Y-131869502D01*
X228875665Y-131869502D01*
X228630383Y-131910431D01*
X228395197Y-131991171D01*
X228395188Y-131991174D01*
X228176490Y-132109528D01*
X228176489Y-132109529D01*
X228149940Y-132130192D01*
X228133209Y-132141167D01*
X228015309Y-132205547D01*
X228015304Y-132205550D01*
X227798830Y-132367599D01*
X227798812Y-132367615D01*
X227607615Y-132558812D01*
X227607599Y-132558830D01*
X227445549Y-132775305D01*
X227445544Y-132775313D01*
X227315950Y-133012646D01*
X227315948Y-133012650D01*
X227221443Y-133266028D01*
X227163964Y-133530259D01*
X227163963Y-133530266D01*
X227144671Y-133799998D01*
X227144671Y-133800001D01*
X227163963Y-134069733D01*
X227163964Y-134069740D01*
X227221443Y-134333971D01*
X227315948Y-134587349D01*
X227315950Y-134587353D01*
X227445544Y-134824686D01*
X227445545Y-134824687D01*
X227445548Y-134824692D01*
X227474767Y-134863724D01*
X227499184Y-134929187D01*
X227499500Y-134938034D01*
X227499500Y-136061965D01*
X227479815Y-136129004D01*
X227474768Y-136136275D01*
X227445544Y-136175313D01*
X227315950Y-136412646D01*
X227315948Y-136412650D01*
X227221443Y-136666028D01*
X227163964Y-136930259D01*
X227163963Y-136930266D01*
X227144671Y-137199998D01*
X227144671Y-137200001D01*
X225966964Y-137200001D01*
X225945710Y-137167469D01*
X225916156Y-137117873D01*
X225897939Y-137087300D01*
X225897936Y-137087296D01*
X225880277Y-137066446D01*
X225875678Y-137060279D01*
X225860739Y-137037412D01*
X225860737Y-137037409D01*
X225797530Y-136968748D01*
X225777473Y-136945066D01*
X225755534Y-136923127D01*
X225692320Y-136854459D01*
X225692312Y-136854452D01*
X225670750Y-136837670D01*
X225664992Y-136832586D01*
X220499994Y-131667587D01*
X220494903Y-131661822D01*
X220478118Y-131640257D01*
X220409457Y-131577049D01*
X220387508Y-131555100D01*
X220363814Y-131535033D01*
X220358386Y-131530036D01*
X220295164Y-131471836D01*
X220272283Y-131456887D01*
X220266126Y-131452296D01*
X220245273Y-131434634D01*
X220165099Y-131386860D01*
X220101677Y-131345425D01*
X220086983Y-131335825D01*
X220061967Y-131324852D01*
X220055129Y-131321332D01*
X220031654Y-131307344D01*
X219944714Y-131273420D01*
X219859260Y-131235937D01*
X219859256Y-131235936D01*
X219859254Y-131235935D01*
X219832766Y-131229227D01*
X219825446Y-131226882D01*
X219808972Y-131220454D01*
X219799993Y-131216951D01*
X219708667Y-131197801D01*
X219618198Y-131174891D01*
X219590969Y-131172635D01*
X219583362Y-131171526D01*
X219563365Y-131167334D01*
X219556616Y-131165919D01*
X219556614Y-131165918D01*
X219463369Y-131162062D01*
X219432446Y-131159500D01*
X219432443Y-131159500D01*
X219401414Y-131159500D01*
X219308159Y-131155643D01*
X219308158Y-131155643D01*
X219281031Y-131159024D01*
X219273360Y-131159500D01*
X218678632Y-131159500D01*
X218611593Y-131139815D01*
X218565838Y-131087011D01*
X218554632Y-131035500D01*
X218554632Y-130491657D01*
X218554631Y-130491644D01*
X218544219Y-130389725D01*
X218489494Y-130224575D01*
X218489490Y-130224569D01*
X218489489Y-130224566D01*
X218398160Y-130076500D01*
X218398157Y-130076496D01*
X218360020Y-130038358D01*
X218326535Y-129977035D01*
X218331521Y-129907343D01*
X218360020Y-129862997D01*
X218387207Y-129835811D01*
X218479309Y-129686489D01*
X218534494Y-129519952D01*
X218544995Y-129417164D01*
X218544994Y-128792147D01*
X218534494Y-128689358D01*
X218479309Y-128522821D01*
X218432441Y-128446836D01*
X218414002Y-128379445D01*
X218434925Y-128312782D01*
X218446740Y-128297771D01*
X218532659Y-128204440D01*
X218668668Y-127996262D01*
X218768558Y-127768536D01*
X218829603Y-127527476D01*
X218832544Y-127491992D01*
X218842577Y-127370899D01*
X256004598Y-127370899D01*
X256034813Y-127593956D01*
X256034814Y-127593959D01*
X256104371Y-127808034D01*
X256211034Y-128006247D01*
X256211036Y-128006250D01*
X256351377Y-128182232D01*
X256351379Y-128182233D01*
X256351380Y-128182235D01*
X256520892Y-128330334D01*
X256714124Y-128445784D01*
X256919394Y-128522823D01*
X256924864Y-128524876D01*
X257146338Y-128565069D01*
X257146341Y-128565069D01*
X257835036Y-128565069D01*
X257835043Y-128565069D01*
X258003076Y-128549946D01*
X258003080Y-128549945D01*
X258220048Y-128490065D01*
X258220050Y-128490064D01*
X258220058Y-128490062D01*
X258422861Y-128392398D01*
X258604966Y-128260091D01*
X258760520Y-128097394D01*
X258884523Y-127909537D01*
X258972991Y-127702557D01*
X259023079Y-127483106D01*
X259033178Y-127258239D01*
X259002963Y-127035182D01*
X258933405Y-126821105D01*
X258826740Y-126622888D01*
X258686396Y-126446903D01*
X258516884Y-126298804D01*
X258323652Y-126183354D01*
X258205663Y-126139072D01*
X258112911Y-126104261D01*
X257891438Y-126064069D01*
X257891435Y-126064069D01*
X257528307Y-126064069D01*
X257475166Y-126048465D01*
X257446000Y-126062454D01*
X257426049Y-126064069D01*
X257202733Y-126064069D01*
X257164287Y-126067529D01*
X257034701Y-126079191D01*
X257034695Y-126079192D01*
X256817727Y-126139072D01*
X256817714Y-126139077D01*
X256614921Y-126236736D01*
X256614913Y-126236740D01*
X256432815Y-126369042D01*
X256432813Y-126369043D01*
X256277254Y-126531745D01*
X256153251Y-126719602D01*
X256064787Y-126926573D01*
X256064783Y-126926586D01*
X256014698Y-127146026D01*
X256014696Y-127146037D01*
X256009657Y-127258243D01*
X256004598Y-127370899D01*
X218842577Y-127370899D01*
X218844995Y-127341720D01*
X218844995Y-125945756D01*
X260088388Y-125945756D01*
X260103870Y-126048465D01*
X260127492Y-126205184D01*
X260127493Y-126205186D01*
X260127494Y-126205192D01*
X260204826Y-126455895D01*
X260318655Y-126692265D01*
X260318656Y-126692266D01*
X260318658Y-126692269D01*
X260318660Y-126692273D01*
X260466455Y-126909048D01*
X260644902Y-127101370D01*
X260644906Y-127101373D01*
X260644907Y-127101374D01*
X260850031Y-127264955D01*
X261077245Y-127396137D01*
X261321472Y-127491989D01*
X261577258Y-127550371D01*
X261577264Y-127550371D01*
X261577267Y-127550372D01*
X261773388Y-127565069D01*
X261773394Y-127565069D01*
X261904388Y-127565069D01*
X262100508Y-127550372D01*
X262100510Y-127550371D01*
X262100518Y-127550371D01*
X262356304Y-127491989D01*
X262600531Y-127396137D01*
X262827745Y-127264955D01*
X263032869Y-127101374D01*
X263211321Y-126909048D01*
X263359116Y-126692273D01*
X263472951Y-126455892D01*
X263550284Y-126205184D01*
X263589388Y-125945751D01*
X263589388Y-125683387D01*
X263550284Y-125423954D01*
X263472951Y-125173246D01*
X263450267Y-125126142D01*
X263359120Y-124936872D01*
X263359119Y-124936871D01*
X263359118Y-124936870D01*
X263359116Y-124936865D01*
X263211321Y-124720090D01*
X263166932Y-124672250D01*
X263032873Y-124527767D01*
X262921004Y-124438555D01*
X262827745Y-124364183D01*
X262600531Y-124233001D01*
X262356304Y-124137149D01*
X262356299Y-124137147D01*
X262356290Y-124137145D01*
X262138706Y-124087483D01*
X262100518Y-124078767D01*
X262100517Y-124078766D01*
X262100513Y-124078766D01*
X262100508Y-124078765D01*
X261904388Y-124064069D01*
X261904382Y-124064069D01*
X261773394Y-124064069D01*
X261773388Y-124064069D01*
X261577267Y-124078765D01*
X261577262Y-124078766D01*
X261321485Y-124137145D01*
X261321466Y-124137151D01*
X261077244Y-124233001D01*
X260850031Y-124364183D01*
X260644902Y-124527767D01*
X260466455Y-124720089D01*
X260318656Y-124936871D01*
X260318655Y-124936872D01*
X260204826Y-125173242D01*
X260127494Y-125423945D01*
X260127493Y-125423950D01*
X260127492Y-125423954D01*
X260117416Y-125490802D01*
X260088388Y-125683381D01*
X260088388Y-125945756D01*
X218844995Y-125945756D01*
X218844995Y-120428394D01*
X218864680Y-120361355D01*
X218881309Y-120340718D01*
X220773645Y-118448381D01*
X220834964Y-118414899D01*
X221093976Y-118358555D01*
X221347348Y-118264052D01*
X221584692Y-118134452D01*
X221730592Y-118025232D01*
X221796056Y-118000816D01*
X221804902Y-118000500D01*
X222715098Y-118000500D01*
X222782137Y-118020185D01*
X222789402Y-118025229D01*
X222837203Y-118061012D01*
X222935305Y-118134450D01*
X222935313Y-118134455D01*
X223172646Y-118264049D01*
X223172650Y-118264051D01*
X223172652Y-118264052D01*
X223426024Y-118358555D01*
X223426027Y-118358555D01*
X223426028Y-118358556D01*
X223514105Y-118377715D01*
X223690267Y-118416037D01*
X223940707Y-118433949D01*
X223959999Y-118435329D01*
X223960000Y-118435329D01*
X223960001Y-118435329D01*
X223978005Y-118434041D01*
X224229733Y-118416037D01*
X224493976Y-118358555D01*
X224747348Y-118264052D01*
X224984692Y-118134452D01*
X225201177Y-117972394D01*
X225392394Y-117781177D01*
X225554452Y-117564692D01*
X225684052Y-117327348D01*
X225778555Y-117073976D01*
X225836037Y-116809733D01*
X225840140Y-116752366D01*
X225864555Y-116686904D01*
X225920488Y-116645032D01*
X225990180Y-116640046D01*
X226051503Y-116673531D01*
X226310537Y-116932565D01*
X226344022Y-116993887D01*
X226361443Y-117073970D01*
X226361444Y-117073974D01*
X226361445Y-117073976D01*
X226371877Y-117101944D01*
X226455948Y-117327349D01*
X226455950Y-117327353D01*
X226585544Y-117564686D01*
X226585549Y-117564694D01*
X226747599Y-117781169D01*
X226747615Y-117781187D01*
X226938812Y-117972384D01*
X226938830Y-117972400D01*
X227155305Y-118134450D01*
X227155313Y-118134455D01*
X227392646Y-118264049D01*
X227392650Y-118264051D01*
X227392652Y-118264052D01*
X227646024Y-118358555D01*
X227646027Y-118358555D01*
X227646028Y-118358556D01*
X227734105Y-118377715D01*
X227910267Y-118416037D01*
X228160707Y-118433949D01*
X228179999Y-118435329D01*
X228180000Y-118435329D01*
X228180001Y-118435329D01*
X228198005Y-118434041D01*
X228449733Y-118416037D01*
X228713976Y-118358555D01*
X228967348Y-118264052D01*
X229204692Y-118134452D01*
X229297158Y-118065232D01*
X229362622Y-118040816D01*
X229371468Y-118040500D01*
X230388532Y-118040500D01*
X230455571Y-118060185D01*
X230462842Y-118065233D01*
X230555305Y-118134450D01*
X230555313Y-118134455D01*
X230792646Y-118264049D01*
X230792650Y-118264051D01*
X230792652Y-118264052D01*
X231046024Y-118358555D01*
X231046027Y-118358555D01*
X231046028Y-118358556D01*
X231134105Y-118377715D01*
X231310267Y-118416037D01*
X231560707Y-118433949D01*
X231579999Y-118435329D01*
X231580000Y-118435329D01*
X231580001Y-118435329D01*
X231598005Y-118434041D01*
X231849733Y-118416037D01*
X232113976Y-118358555D01*
X232367348Y-118264052D01*
X232604692Y-118134452D01*
X232821177Y-117972394D01*
X233012394Y-117781177D01*
X233174452Y-117564692D01*
X233304052Y-117327348D01*
X233398555Y-117073976D01*
X233456037Y-116809733D01*
X233475329Y-116540001D01*
X233904671Y-116540001D01*
X233923963Y-116809733D01*
X233923964Y-116809740D01*
X233981443Y-117073971D01*
X234075948Y-117327349D01*
X234075950Y-117327353D01*
X234205544Y-117564686D01*
X234205549Y-117564694D01*
X234367599Y-117781169D01*
X234367615Y-117781187D01*
X234558812Y-117972384D01*
X234558830Y-117972400D01*
X234775305Y-118134450D01*
X234775313Y-118134455D01*
X235012646Y-118264049D01*
X235012650Y-118264051D01*
X235012652Y-118264052D01*
X235266024Y-118358555D01*
X235266027Y-118358555D01*
X235266028Y-118358556D01*
X235354105Y-118377715D01*
X235530267Y-118416037D01*
X235780707Y-118433949D01*
X235799999Y-118435329D01*
X235800000Y-118435329D01*
X235800001Y-118435329D01*
X235818005Y-118434041D01*
X236069733Y-118416037D01*
X236333976Y-118358555D01*
X236587348Y-118264052D01*
X236824692Y-118134452D01*
X236970592Y-118025232D01*
X237036056Y-118000816D01*
X237044902Y-118000500D01*
X237955098Y-118000500D01*
X238022137Y-118020185D01*
X238029402Y-118025229D01*
X238077203Y-118061012D01*
X238175305Y-118134450D01*
X238175313Y-118134455D01*
X238412646Y-118264049D01*
X238412650Y-118264051D01*
X238412652Y-118264052D01*
X238666024Y-118358555D01*
X238666027Y-118358555D01*
X238666028Y-118358556D01*
X238754105Y-118377715D01*
X238930267Y-118416037D01*
X239180707Y-118433949D01*
X239199999Y-118435329D01*
X239200000Y-118435329D01*
X239200001Y-118435329D01*
X239218005Y-118434041D01*
X239469733Y-118416037D01*
X239733976Y-118358555D01*
X239987348Y-118264052D01*
X240224692Y-118134452D01*
X240441177Y-117972394D01*
X240632394Y-117781177D01*
X240794452Y-117564692D01*
X240924052Y-117327348D01*
X240991582Y-117146289D01*
X241020080Y-117101946D01*
X241341996Y-116780030D01*
X241403317Y-116746547D01*
X241473009Y-116751531D01*
X241528942Y-116793403D01*
X241550841Y-116841355D01*
X241601443Y-117073971D01*
X241695948Y-117327349D01*
X241695950Y-117327353D01*
X241825544Y-117564686D01*
X241825549Y-117564694D01*
X241987599Y-117781169D01*
X241987615Y-117781187D01*
X242178812Y-117972384D01*
X242178830Y-117972400D01*
X242395305Y-118134450D01*
X242395313Y-118134455D01*
X242632646Y-118264049D01*
X242632650Y-118264051D01*
X242632652Y-118264052D01*
X242886024Y-118358555D01*
X242886027Y-118358555D01*
X242886028Y-118358556D01*
X242974105Y-118377715D01*
X243150267Y-118416037D01*
X243400707Y-118433949D01*
X243419999Y-118435329D01*
X243420000Y-118435329D01*
X243420001Y-118435329D01*
X243438005Y-118434041D01*
X243689733Y-118416037D01*
X243953976Y-118358555D01*
X244207348Y-118264052D01*
X244444692Y-118134452D01*
X244590592Y-118025232D01*
X244656056Y-118000816D01*
X244664902Y-118000500D01*
X245403657Y-118000500D01*
X245470696Y-118020185D01*
X245507466Y-118056679D01*
X245542608Y-118110469D01*
X245590383Y-118190643D01*
X245608045Y-118211496D01*
X245612636Y-118217653D01*
X245627585Y-118240534D01*
X245627586Y-118240535D01*
X245690782Y-118309184D01*
X245710849Y-118332878D01*
X245732798Y-118354827D01*
X245796006Y-118423488D01*
X245817571Y-118440273D01*
X245823336Y-118445364D01*
X247254903Y-119876931D01*
X247259992Y-119882693D01*
X247276781Y-119904263D01*
X247276783Y-119904265D01*
X247276784Y-119904266D01*
X247345440Y-119967469D01*
X247366828Y-119988856D01*
X247367393Y-119989421D01*
X247391083Y-120009485D01*
X247459734Y-120072683D01*
X247459736Y-120072684D01*
X247459737Y-120072685D01*
X247482605Y-120087625D01*
X247488769Y-120092221D01*
X247509625Y-120109885D01*
X247539501Y-120127687D01*
X247589794Y-120157656D01*
X247662119Y-120204907D01*
X247667912Y-120208692D01*
X247692937Y-120219669D01*
X247699767Y-120223184D01*
X247723246Y-120237175D01*
X247810186Y-120271099D01*
X247895638Y-120308582D01*
X247922142Y-120315293D01*
X247929439Y-120317631D01*
X247954905Y-120327569D01*
X248046244Y-120346721D01*
X248136698Y-120369627D01*
X248136702Y-120369627D01*
X248136706Y-120369628D01*
X248163925Y-120371883D01*
X248171535Y-120372992D01*
X248184246Y-120375657D01*
X248198282Y-120378600D01*
X248291528Y-120382456D01*
X248322452Y-120385019D01*
X248322453Y-120385019D01*
X248353484Y-120385019D01*
X248446740Y-120388876D01*
X248473866Y-120385494D01*
X248481538Y-120385019D01*
X251565685Y-120385019D01*
X251632724Y-120404704D01*
X251678479Y-120457508D01*
X251689685Y-120509019D01*
X251689685Y-121022020D01*
X251689686Y-121022038D01*
X251700185Y-121124815D01*
X251700186Y-121124818D01*
X251755370Y-121291350D01*
X251755372Y-121291355D01*
X251847474Y-121440676D01*
X251902829Y-121496031D01*
X251936314Y-121557354D01*
X251931330Y-121627046D01*
X251902831Y-121671392D01*
X251855088Y-121719136D01*
X251763759Y-121867202D01*
X251763754Y-121867213D01*
X251709030Y-122032359D01*
X251698617Y-122134280D01*
X251698617Y-122720991D01*
X251709030Y-122822912D01*
X251763754Y-122988058D01*
X251763756Y-122988063D01*
X251836056Y-123105279D01*
X251854496Y-123172672D01*
X251833573Y-123239335D01*
X251814503Y-123261603D01*
X251791384Y-123282886D01*
X251791378Y-123282893D01*
X251638645Y-123479123D01*
X251638642Y-123479127D01*
X251520289Y-123697824D01*
X251520286Y-123697833D01*
X251439546Y-123933019D01*
X251398617Y-124178301D01*
X251398617Y-124426970D01*
X251439546Y-124672252D01*
X251520286Y-124907438D01*
X251520289Y-124907447D01*
X251552716Y-124967366D01*
X251638643Y-125126145D01*
X251791379Y-125322380D01*
X251901708Y-125423945D01*
X251974334Y-125490802D01*
X252182510Y-125626809D01*
X252410235Y-125726699D01*
X252651292Y-125787743D01*
X252651296Y-125787744D01*
X252651298Y-125787744D01*
X252651303Y-125787745D01*
X252784493Y-125798781D01*
X252837050Y-125803136D01*
X257326135Y-125803136D01*
X257333811Y-125803613D01*
X257413029Y-125813486D01*
X257441386Y-125817021D01*
X257476192Y-125832132D01*
X257493372Y-125821092D01*
X257523183Y-125816175D01*
X257569269Y-125814268D01*
X257705125Y-125808650D01*
X257948502Y-125757618D01*
X257948506Y-125757616D01*
X257948511Y-125757615D01*
X258059041Y-125714485D01*
X258180162Y-125667225D01*
X258332729Y-125576314D01*
X258383599Y-125559480D01*
X258431685Y-125554568D01*
X258598222Y-125499383D01*
X258747543Y-125407280D01*
X258871599Y-125283224D01*
X258963702Y-125133903D01*
X259018887Y-124967366D01*
X259029388Y-124864577D01*
X259029388Y-124448830D01*
X259031079Y-124428420D01*
X259031321Y-124426969D01*
X259031321Y-124333671D01*
X259035178Y-124240415D01*
X259031797Y-124213292D01*
X259031321Y-124205617D01*
X259031321Y-124178300D01*
X259031079Y-124176850D01*
X259029388Y-124156443D01*
X259029388Y-123764566D01*
X259029387Y-123764553D01*
X259018887Y-123661773D01*
X259018887Y-123661772D01*
X258963702Y-123495235D01*
X258953766Y-123479127D01*
X258871601Y-123345917D01*
X258871598Y-123345913D01*
X258747543Y-123221858D01*
X258747539Y-123221855D01*
X258598225Y-123129756D01*
X258598223Y-123129755D01*
X258524358Y-123105279D01*
X258431685Y-123074570D01*
X258431682Y-123074569D01*
X258431684Y-123074569D01*
X258419335Y-123073308D01*
X258359885Y-123050867D01*
X258301540Y-123009208D01*
X258301531Y-123009203D01*
X258276986Y-122997204D01*
X258270300Y-122993405D01*
X258247437Y-122978468D01*
X258247426Y-122978461D01*
X258161990Y-122940986D01*
X258078136Y-122899992D01*
X258071453Y-122898002D01*
X258051928Y-122892189D01*
X258044721Y-122889547D01*
X258019702Y-122878573D01*
X257929259Y-122855669D01*
X257839804Y-122829037D01*
X257839805Y-122829037D01*
X257812681Y-122825656D01*
X257805126Y-122824234D01*
X257778642Y-122817527D01*
X257685652Y-122809822D01*
X257593042Y-122798279D01*
X257593041Y-122798279D01*
X257593040Y-122798279D01*
X257499786Y-122802136D01*
X254223617Y-122802136D01*
X254156578Y-122782451D01*
X254110823Y-122729647D01*
X254099617Y-122678136D01*
X254099617Y-122134293D01*
X254099616Y-122134280D01*
X254089204Y-122032361D01*
X254034479Y-121867211D01*
X254034475Y-121867205D01*
X254034474Y-121867202D01*
X253943145Y-121719136D01*
X253943146Y-121719136D01*
X253886471Y-121662461D01*
X253852987Y-121601137D01*
X253857972Y-121531446D01*
X253886471Y-121487100D01*
X253932897Y-121440675D01*
X254024999Y-121291353D01*
X254080184Y-121124816D01*
X254090685Y-121022028D01*
X254090684Y-120397011D01*
X254088230Y-120372992D01*
X254080184Y-120294222D01*
X254080183Y-120294219D01*
X254061280Y-120237175D01*
X254024999Y-120127685D01*
X253980937Y-120056248D01*
X253962497Y-119988856D01*
X253983420Y-119922192D01*
X253995257Y-119907158D01*
X253997916Y-119904269D01*
X253997923Y-119904263D01*
X254150659Y-119708028D01*
X254269013Y-119489329D01*
X254349756Y-119254133D01*
X254390685Y-119008854D01*
X254390685Y-118760184D01*
X254349756Y-118514905D01*
X254269013Y-118279709D01*
X254150659Y-118061010D01*
X253997923Y-117864775D01*
X253814970Y-117696355D01*
X253814967Y-117696352D01*
X253606791Y-117560345D01*
X253379066Y-117460455D01*
X253138009Y-117399411D01*
X253137998Y-117399409D01*
X252972733Y-117385716D01*
X252952252Y-117384019D01*
X252952250Y-117384019D01*
X249057409Y-117384019D01*
X248990370Y-117364334D01*
X248969728Y-117347700D01*
X248696696Y-117074668D01*
X248663211Y-117013345D01*
X248663211Y-116960631D01*
X248692986Y-116823758D01*
X248696036Y-116809738D01*
X248696036Y-116809737D01*
X248696037Y-116809733D01*
X248715329Y-116540000D01*
X248696037Y-116270267D01*
X248650825Y-116062430D01*
X256067924Y-116062430D01*
X256098139Y-116285487D01*
X256098140Y-116285490D01*
X256167697Y-116499565D01*
X256274360Y-116697778D01*
X256274362Y-116697781D01*
X256414703Y-116873763D01*
X256414705Y-116873764D01*
X256414706Y-116873766D01*
X256584218Y-117021865D01*
X256777450Y-117137315D01*
X256988190Y-117216407D01*
X257209664Y-117256600D01*
X257209667Y-117256600D01*
X257898362Y-117256600D01*
X257898369Y-117256600D01*
X258066402Y-117241477D01*
X258066406Y-117241476D01*
X258283374Y-117181596D01*
X258283376Y-117181595D01*
X258283384Y-117181593D01*
X258486187Y-117083929D01*
X258668292Y-116951622D01*
X258823846Y-116788925D01*
X258947849Y-116601068D01*
X258973951Y-116540001D01*
X259036314Y-116394095D01*
X259036313Y-116394095D01*
X259036317Y-116394088D01*
X259086405Y-116174637D01*
X259096504Y-115949770D01*
X259066289Y-115726713D01*
X258996731Y-115512636D01*
X258890066Y-115314419D01*
X258749722Y-115138434D01*
X258580210Y-114990335D01*
X258386978Y-114874885D01*
X258268989Y-114830603D01*
X258176237Y-114795792D01*
X257954764Y-114755600D01*
X257954761Y-114755600D01*
X257266059Y-114755600D01*
X257227613Y-114759060D01*
X257098027Y-114770722D01*
X257098021Y-114770723D01*
X256881053Y-114830603D01*
X256881040Y-114830608D01*
X256678247Y-114928267D01*
X256678239Y-114928271D01*
X256496141Y-115060573D01*
X256496139Y-115060574D01*
X256340580Y-115223276D01*
X256216577Y-115411133D01*
X256128113Y-115618104D01*
X256128109Y-115618117D01*
X256078024Y-115837557D01*
X256078022Y-115837568D01*
X256072983Y-115949774D01*
X256067924Y-116062430D01*
X248650825Y-116062430D01*
X248638555Y-116006024D01*
X248544052Y-115752652D01*
X248470587Y-115618112D01*
X248414455Y-115515313D01*
X248414450Y-115515305D01*
X248252400Y-115298830D01*
X248252384Y-115298812D01*
X248061187Y-115107615D01*
X248061169Y-115107599D01*
X247844694Y-114945549D01*
X247844686Y-114945544D01*
X247607353Y-114815950D01*
X247607349Y-114815948D01*
X247353971Y-114721443D01*
X247089740Y-114663964D01*
X247089733Y-114663963D01*
X246820001Y-114644671D01*
X246819999Y-114644671D01*
X246550266Y-114663963D01*
X246550259Y-114663964D01*
X246286028Y-114721443D01*
X246032650Y-114815948D01*
X246032646Y-114815950D01*
X245795313Y-114945544D01*
X245795312Y-114945545D01*
X245795308Y-114945548D01*
X245756274Y-114974767D01*
X245690813Y-114999184D01*
X245681966Y-114999500D01*
X244558034Y-114999500D01*
X244490995Y-114979815D01*
X244483741Y-114974779D01*
X244444692Y-114945548D01*
X244444687Y-114945545D01*
X244444686Y-114945544D01*
X244207353Y-114815950D01*
X244207349Y-114815948D01*
X243953971Y-114721443D01*
X243721355Y-114670841D01*
X243660032Y-114637356D01*
X243659994Y-114637287D01*
X260151714Y-114637287D01*
X260165486Y-114728653D01*
X260190818Y-114896715D01*
X260190819Y-114896717D01*
X260190820Y-114896723D01*
X260268152Y-115147426D01*
X260381981Y-115383796D01*
X260381982Y-115383797D01*
X260381984Y-115383800D01*
X260381986Y-115383804D01*
X260471642Y-115515305D01*
X260529781Y-115600579D01*
X260708228Y-115792901D01*
X260708232Y-115792904D01*
X260708233Y-115792905D01*
X260913357Y-115956486D01*
X261140571Y-116087668D01*
X261384798Y-116183520D01*
X261640584Y-116241902D01*
X261640590Y-116241902D01*
X261640593Y-116241903D01*
X261836714Y-116256600D01*
X261836720Y-116256600D01*
X261967714Y-116256600D01*
X262163834Y-116241903D01*
X262163836Y-116241902D01*
X262163844Y-116241902D01*
X262419630Y-116183520D01*
X262663857Y-116087668D01*
X262891071Y-115956486D01*
X263096195Y-115792905D01*
X263274647Y-115600579D01*
X263422442Y-115383804D01*
X263536277Y-115147423D01*
X263613610Y-114896715D01*
X263652714Y-114637282D01*
X263652714Y-114374918D01*
X263613610Y-114115485D01*
X263536277Y-113864777D01*
X263518138Y-113827110D01*
X263422446Y-113628403D01*
X263422445Y-113628402D01*
X263422444Y-113628401D01*
X263422442Y-113628396D01*
X263274647Y-113411621D01*
X263264655Y-113400853D01*
X263096199Y-113219298D01*
X263054737Y-113186233D01*
X262891071Y-113055714D01*
X262663857Y-112924532D01*
X262419630Y-112828680D01*
X262419625Y-112828678D01*
X262419616Y-112828676D01*
X262202032Y-112779014D01*
X262163844Y-112770298D01*
X262163843Y-112770297D01*
X262163839Y-112770297D01*
X262163834Y-112770296D01*
X261967714Y-112755600D01*
X261967708Y-112755600D01*
X261836720Y-112755600D01*
X261836714Y-112755600D01*
X261640593Y-112770296D01*
X261640588Y-112770297D01*
X261384811Y-112828676D01*
X261384792Y-112828682D01*
X261140570Y-112924532D01*
X260913357Y-113055714D01*
X260708228Y-113219298D01*
X260529781Y-113411620D01*
X260381982Y-113628402D01*
X260381981Y-113628403D01*
X260268152Y-113864773D01*
X260190820Y-114115476D01*
X260190819Y-114115481D01*
X260190818Y-114115485D01*
X260176692Y-114209203D01*
X260151714Y-114374912D01*
X260151714Y-114637287D01*
X243659994Y-114637287D01*
X243626547Y-114576033D01*
X243631531Y-114506341D01*
X243660030Y-114461997D01*
X245495106Y-112626922D01*
X245556429Y-112593437D01*
X245582787Y-112590603D01*
X246436458Y-112590603D01*
X246436460Y-112590603D01*
X246497677Y-112585530D01*
X246622206Y-112575212D01*
X246622209Y-112575211D01*
X246622214Y-112575211D01*
X246863274Y-112514166D01*
X247091000Y-112414276D01*
X247299178Y-112278267D01*
X247392499Y-112192357D01*
X247455149Y-112161437D01*
X247524575Y-112169297D01*
X247541570Y-112178047D01*
X247617559Y-112224917D01*
X247784096Y-112280102D01*
X247886884Y-112290603D01*
X248511901Y-112290602D01*
X248511909Y-112290601D01*
X248511912Y-112290601D01*
X248568195Y-112284851D01*
X248614690Y-112280102D01*
X248781227Y-112224917D01*
X248930549Y-112132815D01*
X248974602Y-112088761D01*
X249035923Y-112055277D01*
X249105614Y-112060261D01*
X249149963Y-112088762D01*
X249191496Y-112130295D01*
X249191500Y-112130298D01*
X249339566Y-112221627D01*
X249339569Y-112221628D01*
X249339575Y-112221632D01*
X249504725Y-112276357D01*
X249606652Y-112286770D01*
X249606657Y-112286770D01*
X250193343Y-112286770D01*
X250193348Y-112286770D01*
X250295275Y-112276357D01*
X250460425Y-112221632D01*
X250579790Y-112148005D01*
X250647179Y-112129566D01*
X250713843Y-112150488D01*
X250732566Y-112165864D01*
X252565222Y-113998519D01*
X252570306Y-114004277D01*
X252587088Y-114025839D01*
X252587095Y-114025847D01*
X252655763Y-114089061D01*
X252677702Y-114111000D01*
X252682998Y-114115485D01*
X252701384Y-114131057D01*
X252770045Y-114194264D01*
X252792919Y-114209208D01*
X252799082Y-114213804D01*
X252819931Y-114231462D01*
X252819936Y-114231466D01*
X252850509Y-114249683D01*
X252900105Y-114279237D01*
X252972430Y-114326488D01*
X252978223Y-114330273D01*
X253003232Y-114341243D01*
X253003248Y-114341250D01*
X253010078Y-114344765D01*
X253033557Y-114358756D01*
X253120497Y-114392680D01*
X253205949Y-114430163D01*
X253232453Y-114436874D01*
X253239750Y-114439212D01*
X253265216Y-114449150D01*
X253356555Y-114468302D01*
X253447009Y-114491208D01*
X253447013Y-114491208D01*
X253447017Y-114491209D01*
X253474236Y-114493464D01*
X253481846Y-114494573D01*
X253494557Y-114497238D01*
X253508593Y-114500181D01*
X253601839Y-114504037D01*
X253632763Y-114506600D01*
X253632764Y-114506600D01*
X253663795Y-114506600D01*
X253757051Y-114510457D01*
X253784177Y-114507075D01*
X253791849Y-114506600D01*
X258396881Y-114506600D01*
X258404552Y-114507075D01*
X258431679Y-114510457D01*
X258524935Y-114506600D01*
X258555967Y-114506600D01*
X258586890Y-114504037D01*
X258680137Y-114500181D01*
X258706882Y-114494572D01*
X258714482Y-114493464D01*
X258741721Y-114491208D01*
X258741724Y-114491207D01*
X258741726Y-114491207D01*
X258741729Y-114491206D01*
X258832188Y-114468298D01*
X258923514Y-114449149D01*
X258948977Y-114439212D01*
X258956274Y-114436874D01*
X258982781Y-114430163D01*
X259068235Y-114392679D01*
X259155174Y-114358756D01*
X259178661Y-114344759D01*
X259185481Y-114341249D01*
X259210507Y-114330273D01*
X259288620Y-114279239D01*
X259368794Y-114231466D01*
X259389654Y-114213797D01*
X259395794Y-114209217D01*
X259418685Y-114194264D01*
X259487335Y-114131066D01*
X259511026Y-114111002D01*
X259532978Y-114089049D01*
X259601638Y-114025844D01*
X259648365Y-113965808D01*
X259725366Y-113874894D01*
X259743766Y-113844011D01*
X259748101Y-113837666D01*
X259754374Y-113829609D01*
X259774401Y-113792602D01*
X259852656Y-113661273D01*
X259869826Y-113617265D01*
X259871885Y-113612830D01*
X259872727Y-113610912D01*
X259875802Y-113601952D01*
X259875803Y-113601950D01*
X259943050Y-113429614D01*
X259994081Y-113186237D01*
X260004357Y-112937779D01*
X259973599Y-112691019D01*
X259902644Y-112452686D01*
X259793429Y-112229284D01*
X259722752Y-112130295D01*
X259648930Y-112026901D01*
X259473098Y-111851069D01*
X259270715Y-111706570D01*
X259270712Y-111706569D01*
X259047312Y-111597355D01*
X258808985Y-111526402D01*
X258808981Y-111526401D01*
X258562221Y-111495643D01*
X258562217Y-111495643D01*
X258321476Y-111505600D01*
X254367719Y-111505600D01*
X254300680Y-111485915D01*
X254280038Y-111469281D01*
X252792129Y-109981370D01*
X252698344Y-109901939D01*
X252649894Y-109860904D01*
X252436274Y-109733614D01*
X252436272Y-109733613D01*
X252436270Y-109733612D01*
X252204623Y-109643223D01*
X252204616Y-109643221D01*
X251961234Y-109592188D01*
X251712782Y-109581913D01*
X251712781Y-109581913D01*
X251712779Y-109581913D01*
X251554597Y-109601630D01*
X251466018Y-109612671D01*
X251227684Y-109683626D01*
X251004291Y-109792836D01*
X251004284Y-109792840D01*
X250801900Y-109937340D01*
X250732564Y-110006675D01*
X250671240Y-110040160D01*
X250601549Y-110035174D01*
X250579789Y-110024533D01*
X250467531Y-109955291D01*
X250460427Y-109950909D01*
X250460422Y-109950907D01*
X250295276Y-109896183D01*
X250193355Y-109885770D01*
X250193348Y-109885770D01*
X249606652Y-109885770D01*
X249606644Y-109885770D01*
X249504723Y-109896183D01*
X249339577Y-109950907D01*
X249339566Y-109950912D01*
X249191500Y-110042241D01*
X249191496Y-110042244D01*
X249146129Y-110087611D01*
X249084806Y-110121095D01*
X249015114Y-110116110D01*
X248970768Y-110087610D01*
X248930550Y-110047392D01*
X248930549Y-110047391D01*
X248823508Y-109981368D01*
X248781229Y-109955290D01*
X248781224Y-109955288D01*
X248768003Y-109950907D01*
X248614690Y-109900104D01*
X248614688Y-109900103D01*
X248511903Y-109889603D01*
X247886891Y-109889603D01*
X247886873Y-109889604D01*
X247784096Y-109900103D01*
X247784093Y-109900104D01*
X247617561Y-109955288D01*
X247617554Y-109955291D01*
X247541575Y-110002155D01*
X247474183Y-110020594D01*
X247407519Y-109999670D01*
X247392497Y-109987845D01*
X247299175Y-109901936D01*
X247090999Y-109765929D01*
X246863274Y-109666039D01*
X246622217Y-109604995D01*
X246622206Y-109604993D01*
X246456941Y-109591300D01*
X246436460Y-109589603D01*
X246436458Y-109589603D01*
X245006915Y-109589603D01*
X244999239Y-109589126D01*
X244976204Y-109586255D01*
X244972118Y-109585746D01*
X244972117Y-109585746D01*
X244878871Y-109589603D01*
X244847830Y-109589603D01*
X244823078Y-109591653D01*
X244816890Y-109592166D01*
X244723662Y-109596022D01*
X244696917Y-109601630D01*
X244689309Y-109602738D01*
X244662076Y-109604994D01*
X244589881Y-109623276D01*
X244571599Y-109627906D01*
X244551478Y-109632125D01*
X244480289Y-109647052D01*
X244480277Y-109647056D01*
X244454832Y-109656984D01*
X244447513Y-109659329D01*
X244421017Y-109666039D01*
X244421012Y-109666040D01*
X244335548Y-109703528D01*
X244264271Y-109731341D01*
X244248623Y-109737448D01*
X244248621Y-109737448D01*
X244248621Y-109737449D01*
X244248614Y-109737452D01*
X244225145Y-109751435D01*
X244218314Y-109754951D01*
X244193292Y-109765929D01*
X244193290Y-109765930D01*
X244152099Y-109792841D01*
X244115169Y-109816968D01*
X244035000Y-109864738D01*
X244014147Y-109882400D01*
X244007984Y-109886995D01*
X243985113Y-109901937D01*
X243949475Y-109934744D01*
X243916461Y-109965136D01*
X243897296Y-109981368D01*
X243892766Y-109985205D01*
X243870819Y-110007152D01*
X243802159Y-110070359D01*
X243785368Y-110091930D01*
X243780279Y-110097691D01*
X239268568Y-114609402D01*
X239207245Y-114642887D01*
X239189733Y-114645405D01*
X238930266Y-114663963D01*
X238930259Y-114663964D01*
X238666028Y-114721443D01*
X238412650Y-114815948D01*
X238412646Y-114815950D01*
X238175313Y-114945544D01*
X238175312Y-114945545D01*
X238175308Y-114945548D01*
X238136274Y-114974767D01*
X238070813Y-114999184D01*
X238061966Y-114999500D01*
X236938034Y-114999500D01*
X236870995Y-114979815D01*
X236863741Y-114974779D01*
X236824692Y-114945548D01*
X236824687Y-114945545D01*
X236824686Y-114945544D01*
X236587353Y-114815950D01*
X236587349Y-114815948D01*
X236333971Y-114721443D01*
X236069740Y-114663964D01*
X236069733Y-114663963D01*
X235800001Y-114644671D01*
X235799999Y-114644671D01*
X235530266Y-114663963D01*
X235530259Y-114663964D01*
X235266028Y-114721443D01*
X235012650Y-114815948D01*
X235012646Y-114815950D01*
X234775313Y-114945544D01*
X234775305Y-114945549D01*
X234558830Y-115107599D01*
X234558812Y-115107615D01*
X234367615Y-115298812D01*
X234367599Y-115298830D01*
X234205549Y-115515305D01*
X234205544Y-115515313D01*
X234075950Y-115752646D01*
X234075948Y-115752650D01*
X233981443Y-116006028D01*
X233923964Y-116270259D01*
X233923963Y-116270266D01*
X233904671Y-116539998D01*
X233904671Y-116540001D01*
X233475329Y-116540001D01*
X233475329Y-116540000D01*
X233456037Y-116270267D01*
X233398555Y-116006024D01*
X233304052Y-115752652D01*
X233230587Y-115618112D01*
X233174455Y-115515313D01*
X233174450Y-115515305D01*
X233012400Y-115298830D01*
X233012384Y-115298812D01*
X232821187Y-115107615D01*
X232821169Y-115107599D01*
X232604694Y-114945549D01*
X232604686Y-114945544D01*
X232367353Y-114815950D01*
X232367349Y-114815948D01*
X232113971Y-114721443D01*
X231849740Y-114663964D01*
X231849733Y-114663963D01*
X231580001Y-114644671D01*
X231579999Y-114644671D01*
X231310266Y-114663963D01*
X231310259Y-114663964D01*
X231046028Y-114721443D01*
X230792650Y-114815948D01*
X230792646Y-114815950D01*
X230555313Y-114945544D01*
X230555305Y-114945549D01*
X230462842Y-115014767D01*
X230397378Y-115039184D01*
X230388532Y-115039500D01*
X229371468Y-115039500D01*
X229304429Y-115019815D01*
X229297158Y-115014767D01*
X229204694Y-114945549D01*
X229204686Y-114945544D01*
X228967353Y-114815950D01*
X228967349Y-114815948D01*
X228713971Y-114721443D01*
X228449741Y-114663964D01*
X228449734Y-114663963D01*
X228319506Y-114654648D01*
X228254042Y-114630231D01*
X228240672Y-114618645D01*
X227536819Y-113914791D01*
X227503334Y-113853468D01*
X227500500Y-113827110D01*
X227500500Y-111437935D01*
X227485109Y-111252186D01*
X227485107Y-111252175D01*
X227424063Y-111011118D01*
X227324173Y-110783393D01*
X227188166Y-110575217D01*
X227102257Y-110481895D01*
X227071335Y-110419240D01*
X227079195Y-110349814D01*
X227087943Y-110332823D01*
X227134814Y-110256834D01*
X227189999Y-110090297D01*
X227200500Y-109987509D01*
X227200499Y-109362492D01*
X227189999Y-109259703D01*
X227134814Y-109093166D01*
X227042712Y-108943844D01*
X226918656Y-108819788D01*
X226769334Y-108727686D01*
X226602797Y-108672501D01*
X226602795Y-108672500D01*
X226500016Y-108662000D01*
X225586895Y-108662000D01*
X225519856Y-108642315D01*
X225474101Y-108589511D01*
X225464157Y-108520353D01*
X225493182Y-108456797D01*
X225547890Y-108420295D01*
X225681609Y-108375985D01*
X225830930Y-108283882D01*
X225954986Y-108159826D01*
X226047089Y-108010505D01*
X226102274Y-107843968D01*
X226106236Y-107805176D01*
X226120540Y-107758761D01*
X226122751Y-107754677D01*
X226226742Y-107562518D01*
X226241098Y-107535991D01*
X226241102Y-107535982D01*
X226241103Y-107535981D01*
X226244994Y-107524648D01*
X226285379Y-107467633D01*
X226350179Y-107441502D01*
X226418819Y-107454553D01*
X226469507Y-107502642D01*
X226479556Y-107524648D01*
X226483444Y-107535973D01*
X226483447Y-107535982D01*
X226601799Y-107754677D01*
X226601801Y-107754680D01*
X226754537Y-107950915D01*
X226878783Y-108065291D01*
X226937492Y-108119337D01*
X227069492Y-108205576D01*
X227145668Y-108255344D01*
X227373394Y-108355234D01*
X227434923Y-108370815D01*
X227439117Y-108371877D01*
X227457413Y-108378062D01*
X227474281Y-108385272D01*
X227474290Y-108385275D01*
X227529084Y-108397781D01*
X227693738Y-108435362D01*
X227918605Y-108445461D01*
X227993174Y-108435360D01*
X228016262Y-108432233D01*
X228024594Y-108431671D01*
X235579843Y-108431671D01*
X235618846Y-108437964D01*
X235678421Y-108457706D01*
X235781210Y-108468207D01*
X235781215Y-108468207D01*
X236881221Y-108468207D01*
X236881226Y-108468207D01*
X236984015Y-108457706D01*
X237150552Y-108402521D01*
X237299873Y-108310418D01*
X237423929Y-108186362D01*
X237516032Y-108037041D01*
X237571217Y-107870504D01*
X237575893Y-107824726D01*
X237598334Y-107765275D01*
X237624647Y-107728423D01*
X237637297Y-107702547D01*
X237719165Y-107535085D01*
X237766292Y-107483502D01*
X237833827Y-107465588D01*
X237900325Y-107487029D01*
X237944675Y-107541018D01*
X237947846Y-107549282D01*
X237952387Y-107562509D01*
X237952390Y-107562518D01*
X238066962Y-107774228D01*
X238070744Y-107781216D01*
X238223480Y-107977451D01*
X238302683Y-108050362D01*
X238406435Y-108145873D01*
X238497910Y-108205636D01*
X238614611Y-108281880D01*
X238842337Y-108381770D01*
X238903866Y-108397351D01*
X238908060Y-108398413D01*
X238926356Y-108404598D01*
X238943224Y-108411808D01*
X238943233Y-108411811D01*
X239016380Y-108428506D01*
X239162681Y-108461898D01*
X239387548Y-108471997D01*
X239458756Y-108462351D01*
X239485205Y-108458769D01*
X239493537Y-108458207D01*
X247509813Y-108458207D01*
X247517484Y-108458682D01*
X247544611Y-108462064D01*
X247637867Y-108458207D01*
X247668899Y-108458207D01*
X247699822Y-108455644D01*
X247793069Y-108451788D01*
X247819814Y-108446179D01*
X247827414Y-108445071D01*
X247854653Y-108442815D01*
X247854656Y-108442814D01*
X247854658Y-108442814D01*
X247854661Y-108442813D01*
X247945120Y-108419905D01*
X247982473Y-108412073D01*
X247987963Y-108410921D01*
X248013409Y-108408283D01*
X248216759Y-108408283D01*
X248216764Y-108408283D01*
X248319553Y-108397782D01*
X248486090Y-108342597D01*
X248635411Y-108250494D01*
X248759467Y-108126438D01*
X248851570Y-107977117D01*
X248906755Y-107810580D01*
X248911667Y-107762493D01*
X248928502Y-107711621D01*
X249019411Y-107559057D01*
X249109805Y-107327397D01*
X249160836Y-107084020D01*
X249168362Y-106902069D01*
X249183556Y-106857263D01*
X249400893Y-106857263D01*
X249412575Y-106877207D01*
X249416256Y-106907195D01*
X249416256Y-107213938D01*
X249420869Y-107265199D01*
X249431378Y-107381969D01*
X249431379Y-107381975D01*
X249491259Y-107598943D01*
X249491264Y-107598956D01*
X249588923Y-107801749D01*
X249588927Y-107801757D01*
X249721229Y-107983855D01*
X249721230Y-107983857D01*
X249721233Y-107983860D01*
X249721234Y-107983861D01*
X249749105Y-108010508D01*
X249883932Y-108139416D01*
X250071789Y-108263419D01*
X250278760Y-108351883D01*
X250278763Y-108351884D01*
X250278768Y-108351886D01*
X250498219Y-108401974D01*
X250723086Y-108412073D01*
X250946143Y-108381858D01*
X251160220Y-108312300D01*
X251358437Y-108205635D01*
X251534422Y-108065291D01*
X251682521Y-107895779D01*
X251797971Y-107702547D01*
X251877063Y-107491807D01*
X251906898Y-107327408D01*
X251917256Y-107270332D01*
X251917256Y-106581635D01*
X251917256Y-106581628D01*
X251902133Y-106413595D01*
X251896921Y-106394710D01*
X251842252Y-106196622D01*
X251842247Y-106196609D01*
X251744588Y-105993816D01*
X251744584Y-105993808D01*
X251612282Y-105811710D01*
X251612281Y-105811708D01*
X251449579Y-105656149D01*
X251261722Y-105532146D01*
X251054751Y-105443682D01*
X251054738Y-105443678D01*
X250835298Y-105393593D01*
X250835294Y-105393592D01*
X250835293Y-105393592D01*
X250835292Y-105393591D01*
X250835287Y-105393591D01*
X250610430Y-105383493D01*
X250610429Y-105383493D01*
X250610426Y-105383493D01*
X250387369Y-105413708D01*
X250387366Y-105413708D01*
X250387365Y-105413709D01*
X250173290Y-105483266D01*
X249975077Y-105589929D01*
X249975074Y-105589931D01*
X249799092Y-105730272D01*
X249727942Y-105811710D01*
X249650991Y-105899787D01*
X249620096Y-105951497D01*
X249564285Y-106044910D01*
X249535541Y-106093019D01*
X249530045Y-106107664D01*
X249456448Y-106303759D01*
X249416256Y-106525233D01*
X249416256Y-106804944D01*
X249400893Y-106857263D01*
X249183556Y-106857263D01*
X249183865Y-106856351D01*
X249173279Y-106839879D01*
X249169208Y-106820282D01*
X249167296Y-106804944D01*
X249140354Y-106588802D01*
X249095782Y-106439087D01*
X249069400Y-106350468D01*
X248960189Y-106127074D01*
X248960185Y-106127067D01*
X248933872Y-106090214D01*
X248911431Y-106030761D01*
X248906755Y-105984986D01*
X248851570Y-105818449D01*
X248847413Y-105811710D01*
X248759469Y-105669131D01*
X248759466Y-105669127D01*
X248635411Y-105545072D01*
X248635407Y-105545069D01*
X248486093Y-105452970D01*
X248486091Y-105452969D01*
X248367608Y-105413708D01*
X248319553Y-105397784D01*
X248319551Y-105397783D01*
X248216771Y-105387283D01*
X248216764Y-105387283D01*
X247116748Y-105387283D01*
X247116740Y-105387283D01*
X247013960Y-105397783D01*
X247013959Y-105397784D01*
X246853625Y-105450913D01*
X246814624Y-105457207D01*
X239529897Y-105457207D01*
X239502306Y-105454098D01*
X239499755Y-105453516D01*
X239424799Y-105450149D01*
X239274892Y-105443417D01*
X239274891Y-105443417D01*
X239274888Y-105443417D01*
X239051831Y-105473632D01*
X239051822Y-105473634D01*
X238993083Y-105492719D01*
X238956664Y-105504552D01*
X238952749Y-105505682D01*
X238910740Y-105516321D01*
X238842343Y-105533642D01*
X238842330Y-105533646D01*
X238614611Y-105633533D01*
X238406435Y-105769540D01*
X238223479Y-105937964D01*
X238070742Y-106134200D01*
X237952390Y-106352895D01*
X237952385Y-106352908D01*
X237946862Y-106368996D01*
X237906475Y-106426011D01*
X237841675Y-106452140D01*
X237773036Y-106439087D01*
X237722349Y-106390997D01*
X237714065Y-106373806D01*
X237695552Y-106326362D01*
X237683874Y-106296434D01*
X237624394Y-106196613D01*
X237592964Y-106143866D01*
X237576129Y-106092994D01*
X237571217Y-106044909D01*
X237540263Y-105951497D01*
X237516032Y-105878373D01*
X237499664Y-105851837D01*
X237423931Y-105729055D01*
X237423928Y-105729051D01*
X237299873Y-105604996D01*
X237299869Y-105604993D01*
X237150555Y-105512894D01*
X237150553Y-105512893D01*
X237061144Y-105483266D01*
X236984015Y-105457708D01*
X236984013Y-105457707D01*
X236881233Y-105447207D01*
X236881226Y-105447207D01*
X236569635Y-105447207D01*
X236557635Y-105446212D01*
X236557613Y-105446486D01*
X236525272Y-105443806D01*
X236517664Y-105442697D01*
X236499412Y-105438870D01*
X236490919Y-105437090D01*
X236490917Y-105437089D01*
X236397672Y-105433233D01*
X236366749Y-105430671D01*
X236366746Y-105430671D01*
X236335717Y-105430671D01*
X236242462Y-105426814D01*
X236242461Y-105426814D01*
X236215334Y-105430195D01*
X236207663Y-105430671D01*
X228060954Y-105430671D01*
X228033363Y-105427562D01*
X228030812Y-105426980D01*
X227955856Y-105423613D01*
X227805949Y-105416881D01*
X227805948Y-105416881D01*
X227805945Y-105416881D01*
X227607176Y-105443806D01*
X227582888Y-105447096D01*
X227582879Y-105447098D01*
X227524140Y-105466183D01*
X227487721Y-105478016D01*
X227483806Y-105479146D01*
X227441797Y-105489785D01*
X227373400Y-105507106D01*
X227373387Y-105507110D01*
X227145668Y-105606997D01*
X226937492Y-105743004D01*
X226754536Y-105911428D01*
X226601799Y-106107664D01*
X226483447Y-106326359D01*
X226483446Y-106326362D01*
X226479556Y-106337695D01*
X226439169Y-106394710D01*
X226374369Y-106420839D01*
X226305729Y-106407786D01*
X226255042Y-106359697D01*
X226244994Y-106337695D01*
X226241103Y-106326362D01*
X226241102Y-106326360D01*
X226122749Y-106107662D01*
X226122745Y-106107658D01*
X226120539Y-106103580D01*
X226106236Y-106057162D01*
X226104984Y-106044909D01*
X226102274Y-106018374D01*
X226096242Y-106000172D01*
X226075628Y-105937963D01*
X226047089Y-105851837D01*
X226047085Y-105851831D01*
X225954988Y-105702519D01*
X225954985Y-105702515D01*
X225830930Y-105578460D01*
X225830926Y-105578457D01*
X225681612Y-105486358D01*
X225681610Y-105486357D01*
X225584258Y-105454098D01*
X225515072Y-105431172D01*
X225515070Y-105431171D01*
X225412290Y-105420671D01*
X225412283Y-105420671D01*
X224312267Y-105420671D01*
X224312259Y-105420671D01*
X224209479Y-105431171D01*
X224209478Y-105431172D01*
X224042939Y-105486357D01*
X224042937Y-105486358D01*
X223893623Y-105578457D01*
X223893619Y-105578460D01*
X223769563Y-105702516D01*
X223677463Y-105851831D01*
X223677459Y-105851841D01*
X223644435Y-105951497D01*
X223614411Y-106000172D01*
X222507588Y-107106994D01*
X222501827Y-107112083D01*
X222480256Y-107128874D01*
X222417049Y-107197534D01*
X222395102Y-107219481D01*
X222395098Y-107219486D01*
X222375033Y-107243176D01*
X222344641Y-107276190D01*
X222311834Y-107311828D01*
X222296892Y-107334699D01*
X222292297Y-107340862D01*
X222274635Y-107361716D01*
X222226860Y-107441890D01*
X222175828Y-107520002D01*
X222175824Y-107520009D01*
X222164853Y-107545021D01*
X222161335Y-107551856D01*
X222147348Y-107575329D01*
X222147343Y-107575338D01*
X222113420Y-107662275D01*
X222075935Y-107747735D01*
X222069226Y-107774228D01*
X222066881Y-107781547D01*
X222056953Y-107806991D01*
X222056948Y-107807007D01*
X222037801Y-107898323D01*
X222014892Y-107988787D01*
X222014890Y-107988797D01*
X222012635Y-108016020D01*
X222011526Y-108023628D01*
X222005920Y-108050362D01*
X222005919Y-108050375D01*
X222002062Y-108143621D01*
X222000720Y-108159826D01*
X221999500Y-108174548D01*
X221999500Y-108205576D01*
X221995642Y-108298831D01*
X221995642Y-108298832D01*
X221999023Y-108325954D01*
X221999500Y-108333630D01*
X221999500Y-110124565D01*
X222014890Y-110310313D01*
X222014892Y-110310324D01*
X222075936Y-110551381D01*
X222175826Y-110779106D01*
X222311833Y-110987282D01*
X222423789Y-111108898D01*
X222454711Y-111171553D01*
X222446851Y-111240979D01*
X222438098Y-111257978D01*
X222364639Y-111377072D01*
X222364637Y-111377077D01*
X222309913Y-111542223D01*
X222299500Y-111644144D01*
X222299500Y-112230855D01*
X222309913Y-112332776D01*
X222364637Y-112497922D01*
X222364642Y-112497933D01*
X222455971Y-112645999D01*
X222455974Y-112646003D01*
X222578996Y-112769025D01*
X222579000Y-112769028D01*
X222727066Y-112860357D01*
X222727069Y-112860358D01*
X222727075Y-112860362D01*
X222892225Y-112915087D01*
X222994152Y-112925500D01*
X222994157Y-112925500D01*
X224005843Y-112925500D01*
X224005848Y-112925500D01*
X224107775Y-112915087D01*
X224272925Y-112860362D01*
X224310404Y-112837244D01*
X224377794Y-112818804D01*
X224444458Y-112839726D01*
X224489228Y-112893367D01*
X224499500Y-112942783D01*
X224499500Y-114402981D01*
X224499024Y-114410656D01*
X224495643Y-114437779D01*
X224499500Y-114531035D01*
X224499500Y-114562064D01*
X224499567Y-114563680D01*
X224482672Y-114631476D01*
X224431806Y-114679376D01*
X224363118Y-114692172D01*
X224349316Y-114689975D01*
X224229744Y-114663964D01*
X224229733Y-114663963D01*
X223960001Y-114644671D01*
X223959999Y-114644671D01*
X223690266Y-114663963D01*
X223690259Y-114663964D01*
X223426028Y-114721443D01*
X223172650Y-114815948D01*
X223172646Y-114815950D01*
X222935313Y-114945544D01*
X222935312Y-114945545D01*
X222935308Y-114945548D01*
X222896274Y-114974767D01*
X222830813Y-114999184D01*
X222821966Y-114999500D01*
X221698034Y-114999500D01*
X221630995Y-114979815D01*
X221623741Y-114974779D01*
X221584692Y-114945548D01*
X221584687Y-114945545D01*
X221584686Y-114945544D01*
X221347353Y-114815950D01*
X221347349Y-114815948D01*
X221093971Y-114721443D01*
X220829740Y-114663964D01*
X220829733Y-114663963D01*
X220560001Y-114644671D01*
X220559999Y-114644671D01*
X220290266Y-114663963D01*
X220290259Y-114663964D01*
X220026028Y-114721443D01*
X219772650Y-114815948D01*
X219772646Y-114815950D01*
X219535313Y-114945544D01*
X219535305Y-114945549D01*
X219318830Y-115107599D01*
X219318812Y-115107615D01*
X219127615Y-115298812D01*
X219127599Y-115298830D01*
X218965549Y-115515305D01*
X218965544Y-115515313D01*
X218835950Y-115752646D01*
X218835948Y-115752650D01*
X218741443Y-116006029D01*
X218685101Y-116265031D01*
X218651616Y-116326354D01*
X216352083Y-118625887D01*
X216346322Y-118630976D01*
X216324751Y-118647767D01*
X216261544Y-118716427D01*
X216239597Y-118738374D01*
X216239593Y-118738379D01*
X216219528Y-118762069D01*
X216189136Y-118795083D01*
X216156329Y-118830721D01*
X216141387Y-118853592D01*
X216136792Y-118859755D01*
X216119130Y-118880609D01*
X216071355Y-118960783D01*
X216020323Y-119038895D01*
X216020319Y-119038902D01*
X216009348Y-119063914D01*
X216005830Y-119070749D01*
X215991843Y-119094222D01*
X215991838Y-119094231D01*
X215957915Y-119181168D01*
X215920430Y-119266628D01*
X215913721Y-119293121D01*
X215911376Y-119300440D01*
X215901448Y-119325884D01*
X215901443Y-119325900D01*
X215882296Y-119417216D01*
X215859387Y-119507680D01*
X215859385Y-119507690D01*
X215857130Y-119534913D01*
X215856021Y-119542521D01*
X215850415Y-119569255D01*
X215850414Y-119569268D01*
X215846557Y-119662514D01*
X215843995Y-119693441D01*
X215843995Y-119724469D01*
X215840137Y-119817724D01*
X215840137Y-119817725D01*
X213360500Y-119817725D01*
X213360500Y-104264000D01*
X213380185Y-104196961D01*
X213432989Y-104151206D01*
X213484500Y-104140000D01*
X216263427Y-104140000D01*
X216266904Y-104140098D01*
X216358913Y-104145264D01*
X216522170Y-104154433D01*
X216685426Y-104145264D01*
X216777436Y-104140098D01*
X216780913Y-104140000D01*
X219710000Y-104140000D01*
X219710000Y-102742358D01*
X224611775Y-102742358D01*
X224615775Y-102768894D01*
X224650879Y-103001786D01*
X224650880Y-103001788D01*
X224650881Y-103001794D01*
X224728213Y-103252497D01*
X224842042Y-103488867D01*
X224842043Y-103488868D01*
X224842045Y-103488871D01*
X224842047Y-103488875D01*
X224989842Y-103705650D01*
X225168289Y-103897972D01*
X225168293Y-103897975D01*
X225168294Y-103897976D01*
X225373418Y-104061557D01*
X225600632Y-104192739D01*
X225844859Y-104288591D01*
X226100645Y-104346973D01*
X226100651Y-104346973D01*
X226100654Y-104346974D01*
X226296775Y-104361671D01*
X226296781Y-104361671D01*
X226427775Y-104361671D01*
X226623895Y-104346974D01*
X226623897Y-104346973D01*
X226623905Y-104346973D01*
X226879691Y-104288591D01*
X227123918Y-104192739D01*
X227351132Y-104061557D01*
X227556256Y-103897976D01*
X227587236Y-103864588D01*
X227596220Y-103854904D01*
X227734708Y-103705650D01*
X227882503Y-103488875D01*
X227996338Y-103252494D01*
X228073671Y-103001786D01*
X228108775Y-102768894D01*
X236080718Y-102768894D01*
X236101012Y-102903530D01*
X236119822Y-103028322D01*
X236119823Y-103028324D01*
X236119824Y-103028330D01*
X236197156Y-103279033D01*
X236310985Y-103515403D01*
X236310986Y-103515404D01*
X236310988Y-103515407D01*
X236310990Y-103515411D01*
X236440693Y-103705650D01*
X236458785Y-103732186D01*
X236637232Y-103924508D01*
X236637236Y-103924511D01*
X236637237Y-103924512D01*
X236842361Y-104088093D01*
X237069575Y-104219275D01*
X237313802Y-104315127D01*
X237569588Y-104373509D01*
X237569594Y-104373509D01*
X237569597Y-104373510D01*
X237765718Y-104388207D01*
X237765724Y-104388207D01*
X237896718Y-104388207D01*
X238092838Y-104373510D01*
X238092840Y-104373509D01*
X238092848Y-104373509D01*
X238348634Y-104315127D01*
X238592861Y-104219275D01*
X238820075Y-104088093D01*
X239025199Y-103924512D01*
X239049825Y-103897972D01*
X239080804Y-103864584D01*
X239203651Y-103732186D01*
X239351446Y-103515411D01*
X239465281Y-103279030D01*
X239542614Y-103028322D01*
X239581718Y-102768889D01*
X239581718Y-102708970D01*
X247416256Y-102708970D01*
X247421289Y-102742358D01*
X247455360Y-102968398D01*
X247455361Y-102968400D01*
X247455362Y-102968406D01*
X247532694Y-103219109D01*
X247646523Y-103455479D01*
X247646524Y-103455480D01*
X247646526Y-103455483D01*
X247646528Y-103455487D01*
X247687379Y-103515404D01*
X247794323Y-103672262D01*
X247972770Y-103864584D01*
X247972774Y-103864587D01*
X247972775Y-103864588D01*
X248177899Y-104028169D01*
X248405113Y-104159351D01*
X248649340Y-104255203D01*
X248905126Y-104313585D01*
X248905132Y-104313585D01*
X248905135Y-104313586D01*
X249101256Y-104328283D01*
X249101262Y-104328283D01*
X249232256Y-104328283D01*
X249428376Y-104313586D01*
X249428378Y-104313585D01*
X249428386Y-104313585D01*
X249684172Y-104255203D01*
X249928399Y-104159351D01*
X250155613Y-104028169D01*
X250360737Y-103864588D01*
X250539189Y-103672262D01*
X250686984Y-103455487D01*
X250800819Y-103219106D01*
X250878152Y-102968398D01*
X250917256Y-102708965D01*
X250917256Y-102446601D01*
X250878152Y-102187168D01*
X250800819Y-101936460D01*
X250788877Y-101911663D01*
X250686988Y-101700086D01*
X250686987Y-101700085D01*
X250686986Y-101700084D01*
X250686984Y-101700079D01*
X250539189Y-101483304D01*
X250500400Y-101441499D01*
X250360741Y-101290981D01*
X250230755Y-101187321D01*
X250155613Y-101127397D01*
X249928399Y-100996215D01*
X249684172Y-100900363D01*
X249684167Y-100900361D01*
X249684158Y-100900359D01*
X249466574Y-100850697D01*
X249428386Y-100841981D01*
X249428385Y-100841980D01*
X249428381Y-100841980D01*
X249428376Y-100841979D01*
X249232256Y-100827283D01*
X249232250Y-100827283D01*
X249101262Y-100827283D01*
X249101256Y-100827283D01*
X248905135Y-100841979D01*
X248905130Y-100841980D01*
X248649353Y-100900359D01*
X248649334Y-100900365D01*
X248405112Y-100996215D01*
X248177899Y-101127397D01*
X247972770Y-101290981D01*
X247794323Y-101483303D01*
X247646524Y-101700085D01*
X247646523Y-101700086D01*
X247532694Y-101936456D01*
X247455362Y-102187159D01*
X247455361Y-102187164D01*
X247455360Y-102187168D01*
X247446329Y-102247083D01*
X247416256Y-102446595D01*
X247416256Y-102708970D01*
X239581718Y-102708970D01*
X239581718Y-102506525D01*
X239542614Y-102247092D01*
X239465281Y-101996384D01*
X239436421Y-101936456D01*
X239351450Y-101760010D01*
X239351449Y-101760009D01*
X239351448Y-101760008D01*
X239351446Y-101760003D01*
X239203651Y-101543228D01*
X239109261Y-101441499D01*
X239025203Y-101350905D01*
X238950060Y-101290981D01*
X238820075Y-101187321D01*
X238592861Y-101056139D01*
X238348634Y-100960287D01*
X238348629Y-100960285D01*
X238348620Y-100960283D01*
X238131036Y-100910621D01*
X238092848Y-100901905D01*
X238092847Y-100901904D01*
X238092843Y-100901904D01*
X238092838Y-100901903D01*
X237896718Y-100887207D01*
X237896712Y-100887207D01*
X237765724Y-100887207D01*
X237765718Y-100887207D01*
X237569597Y-100901903D01*
X237569592Y-100901904D01*
X237313815Y-100960283D01*
X237313796Y-100960289D01*
X237069574Y-101056139D01*
X236842361Y-101187321D01*
X236637232Y-101350905D01*
X236458785Y-101543227D01*
X236310986Y-101760009D01*
X236310985Y-101760010D01*
X236197156Y-101996380D01*
X236119824Y-102247083D01*
X236119823Y-102247088D01*
X236119822Y-102247092D01*
X236105071Y-102344954D01*
X236080718Y-102506519D01*
X236080718Y-102768894D01*
X228108775Y-102768894D01*
X228112775Y-102742353D01*
X228112775Y-102479989D01*
X228073671Y-102220556D01*
X227996338Y-101969848D01*
X227980257Y-101936456D01*
X227882507Y-101733474D01*
X227882506Y-101733473D01*
X227882505Y-101733472D01*
X227882503Y-101733467D01*
X227734708Y-101516692D01*
X227703728Y-101483303D01*
X227556260Y-101324369D01*
X227514389Y-101290978D01*
X227351132Y-101160785D01*
X227123918Y-101029603D01*
X226879691Y-100933751D01*
X226879686Y-100933749D01*
X226879677Y-100933747D01*
X226662093Y-100884085D01*
X226623905Y-100875369D01*
X226623904Y-100875368D01*
X226623900Y-100875368D01*
X226623895Y-100875367D01*
X226427775Y-100860671D01*
X226427769Y-100860671D01*
X226296781Y-100860671D01*
X226296775Y-100860671D01*
X226100654Y-100875367D01*
X226100649Y-100875368D01*
X225844872Y-100933747D01*
X225844853Y-100933753D01*
X225600631Y-101029603D01*
X225373418Y-101160785D01*
X225168289Y-101324369D01*
X224989842Y-101516691D01*
X224842043Y-101733473D01*
X224842042Y-101733474D01*
X224728213Y-101969844D01*
X224650881Y-102220547D01*
X224650880Y-102220552D01*
X224650879Y-102220556D01*
X224636128Y-102318418D01*
X224611775Y-102479983D01*
X224611775Y-102742358D01*
X219710000Y-102742358D01*
X219710000Y-101266036D01*
X219710098Y-101262559D01*
X219717688Y-101127397D01*
X219727713Y-100948890D01*
X219716682Y-100752481D01*
X219710098Y-100635219D01*
X219710000Y-100631742D01*
X219710000Y-97914500D01*
X219729685Y-97847461D01*
X219782489Y-97801706D01*
X219834000Y-97790500D01*
X260226000Y-97790500D01*
X260293039Y-97810185D01*
G37*
%TD.AperFunction*%
%TD*%
M02*
