%TF.GenerationSoftware,KiCad,Pcbnew,7.0.8*%
%TF.CreationDate,2024-02-10T10:33:55-08:00*%
%TF.ProjectId,Power Distribution 2023-2024,506f7765-7220-4446-9973-747269627574,rev?*%
%TF.SameCoordinates,Original*%
%TF.FileFunction,Copper,L1,Top*%
%TF.FilePolarity,Positive*%
%FSLAX46Y46*%
G04 Gerber Fmt 4.6, Leading zero omitted, Abs format (unit mm)*
G04 Created by KiCad (PCBNEW 7.0.8) date 2024-02-10 10:33:55*
%MOMM*%
%LPD*%
G01*
G04 APERTURE LIST*
G04 Aperture macros list*
%AMRoundRect*
0 Rectangle with rounded corners*
0 $1 Rounding radius*
0 $2 $3 $4 $5 $6 $7 $8 $9 X,Y pos of 4 corners*
0 Add a 4 corners polygon primitive as box body*
4,1,4,$2,$3,$4,$5,$6,$7,$8,$9,$2,$3,0*
0 Add four circle primitives for the rounded corners*
1,1,$1+$1,$2,$3*
1,1,$1+$1,$4,$5*
1,1,$1+$1,$6,$7*
1,1,$1+$1,$8,$9*
0 Add four rect primitives between the rounded corners*
20,1,$1+$1,$2,$3,$4,$5,0*
20,1,$1+$1,$4,$5,$6,$7,0*
20,1,$1+$1,$6,$7,$8,$9,0*
20,1,$1+$1,$8,$9,$2,$3,0*%
G04 Aperture macros list end*
%TA.AperFunction,SMDPad,CuDef*%
%ADD10RoundRect,0.250000X0.450000X-0.262500X0.450000X0.262500X-0.450000X0.262500X-0.450000X-0.262500X0*%
%TD*%
%TA.AperFunction,ComponentPad*%
%ADD11RoundRect,0.250001X-0.759999X0.499999X-0.759999X-0.499999X0.759999X-0.499999X0.759999X0.499999X0*%
%TD*%
%TA.AperFunction,ComponentPad*%
%ADD12O,2.020000X1.500000*%
%TD*%
%TA.AperFunction,ComponentPad*%
%ADD13RoundRect,0.250001X1.599999X-1.099999X1.599999X1.099999X-1.599999X1.099999X-1.599999X-1.099999X0*%
%TD*%
%TA.AperFunction,ComponentPad*%
%ADD14O,3.700000X2.700000*%
%TD*%
%TA.AperFunction,ComponentPad*%
%ADD15R,2.300000X2.300000*%
%TD*%
%TA.AperFunction,ComponentPad*%
%ADD16C,2.300000*%
%TD*%
%TA.AperFunction,ComponentPad*%
%ADD17C,5.400000*%
%TD*%
%TA.AperFunction,ComponentPad*%
%ADD18C,2.780000*%
%TD*%
%TA.AperFunction,SMDPad,CuDef*%
%ADD19RoundRect,0.243750X0.456250X-0.243750X0.456250X0.243750X-0.456250X0.243750X-0.456250X-0.243750X0*%
%TD*%
%TA.AperFunction,ComponentPad*%
%ADD20R,1.500000X1.500000*%
%TD*%
%TA.AperFunction,ComponentPad*%
%ADD21C,1.500000*%
%TD*%
%TA.AperFunction,SMDPad,CuDef*%
%ADD22R,3.800000X2.000000*%
%TD*%
%TA.AperFunction,Conductor*%
%ADD23C,1.500000*%
%TD*%
%TA.AperFunction,Conductor*%
%ADD24C,0.250000*%
%TD*%
G04 APERTURE END LIST*
D10*
%TO.P,R4,1*%
%TO.N,Net-(D4-A)*%
X235604251Y-123939721D03*
%TO.P,R4,2*%
%TO.N,+12V*%
X235604251Y-122114721D03*
%TD*%
D11*
%TO.P,J3,1,Pin_1*%
%TO.N,Net-(J2-Pin_2)*%
X254118000Y-128636000D03*
D12*
%TO.P,J3,2,Pin_2*%
%TO.N,GND*%
X254118000Y-131636000D03*
%TD*%
D13*
%TO.P,J7,1,Pin_1*%
%TO.N,GND*%
X227406954Y-143471732D03*
D14*
%TO.P,J7,2,Pin_2*%
%TO.N,/TURBO_IN*%
X232906954Y-143471732D03*
%TD*%
D15*
%TO.P,J4,1,Pin_1*%
%TO.N,Net-(J4-Pin_1)*%
X247118656Y-134823190D03*
D16*
%TO.P,J4,2,Pin_2*%
%TO.N,GND*%
X241418655Y-134823190D03*
%TD*%
D11*
%TO.P,J2,1,Pin_1*%
%TO.N,/DRIVE_KILL*%
X254117170Y-117272698D03*
D12*
%TO.P,J2,2,Pin_2*%
%TO.N,Net-(J2-Pin_2)*%
X254117170Y-120272698D03*
%TD*%
D17*
%TO.P,He2,1*%
%TO.N,N/C*%
X216261552Y-110046013D03*
%TD*%
D18*
%TO.P,F4,1*%
%TO.N,+12V*%
X242142109Y-116624653D03*
X238742109Y-116624653D03*
%TO.P,F4,2*%
%TO.N,Net-(J4-Pin_1)*%
X242142109Y-126544653D03*
X238742109Y-126544653D03*
%TD*%
D19*
%TO.P,D4,1,K*%
%TO.N,GND*%
X235578000Y-127517500D03*
%TO.P,D4,2,A*%
%TO.N,Net-(D4-A)*%
X235578000Y-125642500D03*
%TD*%
D18*
%TO.P,F1,1*%
%TO.N,+12V*%
X249803045Y-116656593D03*
X246403045Y-116656593D03*
%TO.P,F1,2*%
%TO.N,Net-(J1-Pin_1)*%
X249803045Y-126576593D03*
X246403045Y-126576593D03*
%TD*%
D20*
%TO.P,J5,1,Pin_1*%
%TO.N,+12V*%
X221497598Y-126834000D03*
D21*
%TO.P,J5,2,Pin_2*%
X223277598Y-125818000D03*
%TO.P,J5,3,Pin_3*%
%TO.N,unconnected-(J5-Pin_3-Pad3)*%
X221497598Y-124802000D03*
%TO.P,J5,4,Pin_4*%
%TO.N,unconnected-(J5-Pin_4-Pad4)*%
X223277598Y-123786000D03*
%TO.P,J5,5,Pin_5*%
%TO.N,unconnected-(J5-Pin_5-Pad5)*%
X221497598Y-122770000D03*
%TO.P,J5,6,Pin_6*%
%TO.N,/HORN_IN*%
X223277598Y-121754000D03*
%TO.P,J5,7,Pin_7*%
%TO.N,/TURBO_IN*%
X221497598Y-120738000D03*
%TO.P,J5,8,Pin_8*%
%TO.N,/DRIVE_KILL*%
X223277598Y-119722000D03*
D16*
%TO.P,J5,SH,Shield*%
%TO.N,GND*%
X222387598Y-131404000D03*
X222387598Y-115144000D03*
%TD*%
D17*
%TO.P,He3,1*%
%TO.N,N/C*%
X259964739Y-109776346D03*
%TD*%
D11*
%TO.P,J1,1,Pin_1*%
%TO.N,Net-(J1-Pin_1)*%
X254054747Y-140020493D03*
D12*
%TO.P,J1,2,Pin_2*%
%TO.N,GND*%
X254054747Y-143020493D03*
%TD*%
D17*
%TO.P,He1,1*%
%TO.N,N/C*%
X216462748Y-149860000D03*
%TD*%
%TO.P,He4,1*%
%TO.N,N/C*%
X260032210Y-149795663D03*
%TD*%
D22*
%TO.P,REF\u002A\u002A,1*%
%TO.N,GND*%
X222624000Y-109816000D03*
%TD*%
%TO.P,REF\u002A\u002A,1*%
%TO.N,+12V*%
X224000000Y-149500000D03*
%TD*%
D13*
%TO.P,J6,1,Pin_1*%
%TO.N,GND*%
X227340129Y-136378443D03*
D14*
%TO.P,J6,2,Pin_2*%
%TO.N,/HORN_IN*%
X232840129Y-136378443D03*
%TD*%
D23*
%TO.N,/DRIVE_KILL*%
X229193712Y-113766276D02*
X250610748Y-113766276D01*
X229193712Y-113805886D02*
X229193712Y-113766276D01*
X223277598Y-119722000D02*
X229193712Y-113805886D01*
X250610748Y-113766276D02*
X254117170Y-117272698D01*
%TO.N,GND*%
X222387598Y-110052402D02*
X222624000Y-109816000D01*
X222387598Y-115144000D02*
X222387598Y-110052402D01*
X241418655Y-133358155D02*
X235578000Y-127517500D01*
X241418655Y-134823190D02*
X241418655Y-133358155D01*
D24*
%TO.N,Net-(D4-A)*%
X235578000Y-123965972D02*
X235604251Y-123939721D01*
X235578000Y-125642500D02*
X235578000Y-123965972D01*
D23*
%TO.N,Net-(J1-Pin_1)*%
X249803045Y-135768791D02*
X249803045Y-126576593D01*
X254054747Y-140020493D02*
X249803045Y-135768791D01*
X249803045Y-126576593D02*
X246403045Y-126576593D01*
%TO.N,Net-(J4-Pin_1)*%
X242142109Y-126544653D02*
X242142109Y-129846643D01*
X238742109Y-126544653D02*
X242142109Y-126544653D01*
X242142109Y-129846643D02*
X247118656Y-134823190D01*
%TO.N,Net-(J2-Pin_2)*%
X254118000Y-120273528D02*
X254117170Y-120272698D01*
X254118000Y-128636000D02*
X254118000Y-120273528D01*
%TO.N,/HORN_IN*%
X223277598Y-121754000D02*
X224027598Y-121754000D01*
X224027598Y-121754000D02*
X232840129Y-130566531D01*
X232840129Y-130566531D02*
X232840129Y-136378443D01*
%TO.N,/TURBO_IN*%
X222540129Y-135342909D02*
X219446220Y-132249000D01*
X225191206Y-138678443D02*
X222540129Y-136027366D01*
X232906954Y-143471732D02*
X228113665Y-138678443D01*
X216332598Y-124758792D02*
X220353390Y-120738000D01*
X219446220Y-132249000D02*
X217833717Y-132249000D01*
X220353390Y-120738000D02*
X221497598Y-120738000D01*
X228113665Y-138678443D02*
X225191206Y-138678443D01*
X216332598Y-130747881D02*
X216332598Y-124758792D01*
X222540129Y-136027366D02*
X222540129Y-135342909D01*
X217833717Y-132249000D02*
X216332598Y-130747881D01*
%TD*%
%TA.AperFunction,Conductor*%
%TO.N,+12V*%
G36*
X256829838Y-106597685D02*
G01*
X256875593Y-106650489D01*
X256886799Y-106702000D01*
X256886799Y-108881589D01*
X256881953Y-108915916D01*
X256839567Y-109063040D01*
X256839565Y-109063049D01*
X256779353Y-109417431D01*
X256779351Y-109417443D01*
X256759196Y-109776346D01*
X256779351Y-110135248D01*
X256779353Y-110135260D01*
X256839565Y-110489642D01*
X256839567Y-110489651D01*
X256881953Y-110636775D01*
X256886799Y-110671102D01*
X256886799Y-112864000D01*
X259103700Y-112864000D01*
X259138027Y-112868846D01*
X259251439Y-112901519D01*
X259605832Y-112961733D01*
X259964739Y-112981889D01*
X260323646Y-112961733D01*
X260678039Y-112901519D01*
X260791451Y-112868846D01*
X260825778Y-112864000D01*
X263139500Y-112864000D01*
X263206539Y-112883685D01*
X263252294Y-112936489D01*
X263263500Y-112988000D01*
X263263500Y-146418240D01*
X263243815Y-146485279D01*
X263191011Y-146531034D01*
X263139500Y-146542240D01*
X256895180Y-146542240D01*
X256895180Y-149141688D01*
X256893428Y-149162459D01*
X256846824Y-149436748D01*
X256846822Y-149436760D01*
X256826667Y-149795663D01*
X256846822Y-150154565D01*
X256846824Y-150154577D01*
X256893428Y-150428865D01*
X256895180Y-150449636D01*
X256895180Y-152808000D01*
X256875495Y-152875039D01*
X256822691Y-152920794D01*
X256771180Y-152932000D01*
X219791895Y-152932000D01*
X219724856Y-152912315D01*
X219679101Y-152859511D01*
X219667895Y-152808000D01*
X219667895Y-149868792D01*
X219667993Y-149865314D01*
X219668291Y-149860002D01*
X219668291Y-149859995D01*
X219667993Y-149854683D01*
X219667895Y-149851207D01*
X219667895Y-146708221D01*
X217029917Y-146708221D01*
X217009146Y-146706469D01*
X216821662Y-146674614D01*
X216821650Y-146674612D01*
X216462748Y-146654457D01*
X216103845Y-146674612D01*
X216103833Y-146674614D01*
X215916350Y-146706469D01*
X215895579Y-146708221D01*
X213350500Y-146708221D01*
X213283461Y-146688536D01*
X213237706Y-146635732D01*
X213226500Y-146584221D01*
X213226500Y-143602919D01*
X218356454Y-143602919D01*
X218376748Y-143737555D01*
X218395558Y-143862347D01*
X218395559Y-143862349D01*
X218395560Y-143862355D01*
X218449202Y-144036256D01*
X218468346Y-144098322D01*
X218472892Y-144113058D01*
X218586721Y-144349428D01*
X218586722Y-144349429D01*
X218586724Y-144349432D01*
X218586726Y-144349436D01*
X218724387Y-144551347D01*
X218734521Y-144566211D01*
X218912968Y-144758533D01*
X218912972Y-144758536D01*
X218912973Y-144758537D01*
X219118097Y-144922118D01*
X219345311Y-145053300D01*
X219589538Y-145149152D01*
X219845324Y-145207534D01*
X219845330Y-145207534D01*
X219845333Y-145207535D01*
X220041454Y-145222232D01*
X220041460Y-145222232D01*
X220172454Y-145222232D01*
X220368574Y-145207535D01*
X220368576Y-145207534D01*
X220368584Y-145207534D01*
X220624370Y-145149152D01*
X220868597Y-145053300D01*
X221095811Y-144922118D01*
X221300935Y-144758537D01*
X221479387Y-144566211D01*
X221627182Y-144349436D01*
X221741017Y-144113055D01*
X221818350Y-143862347D01*
X221857454Y-143602914D01*
X221857454Y-143340550D01*
X221818350Y-143081117D01*
X221741017Y-142830409D01*
X221641299Y-142623342D01*
X221627186Y-142594035D01*
X221627185Y-142594034D01*
X221627184Y-142594033D01*
X221627182Y-142594028D01*
X221479387Y-142377253D01*
X221469395Y-142366485D01*
X221300939Y-142184930D01*
X221260683Y-142152827D01*
X221095811Y-142021346D01*
X220868597Y-141890164D01*
X220624370Y-141794312D01*
X220624365Y-141794310D01*
X220624356Y-141794308D01*
X220406772Y-141744646D01*
X220368584Y-141735930D01*
X220368583Y-141735929D01*
X220368579Y-141735929D01*
X220368574Y-141735928D01*
X220172454Y-141721232D01*
X220172448Y-141721232D01*
X220041460Y-141721232D01*
X220041454Y-141721232D01*
X219845333Y-141735928D01*
X219845328Y-141735929D01*
X219589551Y-141794308D01*
X219589532Y-141794314D01*
X219345310Y-141890164D01*
X219118097Y-142021346D01*
X218912968Y-142184930D01*
X218734521Y-142377252D01*
X218586722Y-142594034D01*
X218586721Y-142594035D01*
X218472892Y-142830405D01*
X218395560Y-143081108D01*
X218395559Y-143081113D01*
X218395558Y-143081117D01*
X218387479Y-143134718D01*
X218356454Y-143340544D01*
X218356454Y-143602919D01*
X213226500Y-143602919D01*
X213226500Y-130719712D01*
X215077359Y-130719712D01*
X215081957Y-130787894D01*
X215082098Y-130792067D01*
X215082098Y-130804037D01*
X215085875Y-130846005D01*
X215092501Y-130944288D01*
X215092501Y-130944293D01*
X215093570Y-130948533D01*
X215096828Y-130967705D01*
X215097221Y-130972071D01*
X215123433Y-131067046D01*
X215147501Y-131162562D01*
X215149313Y-131166551D01*
X215155938Y-131184825D01*
X215157102Y-131189043D01*
X215157105Y-131189051D01*
X215199851Y-131277816D01*
X215240591Y-131367507D01*
X215240592Y-131367510D01*
X215243081Y-131371102D01*
X215252867Y-131387907D01*
X215254764Y-131391846D01*
X215254772Y-131391860D01*
X215312676Y-131471557D01*
X215368778Y-131552536D01*
X215371871Y-131555629D01*
X215384505Y-131570420D01*
X215387076Y-131573959D01*
X215387079Y-131573962D01*
X215458277Y-131642034D01*
X216897359Y-133081116D01*
X216901996Y-133086304D01*
X216926209Y-133116666D01*
X216977684Y-133161639D01*
X216980717Y-133164474D01*
X216988933Y-133172690D01*
X216989192Y-133172949D01*
X216989196Y-133172952D01*
X217021528Y-133199944D01*
X217095719Y-133264764D01*
X217099472Y-133267006D01*
X217115343Y-133278266D01*
X217118699Y-133281068D01*
X217118703Y-133281071D01*
X217204365Y-133329676D01*
X217288944Y-133380210D01*
X217288947Y-133380211D01*
X217288953Y-133380215D01*
X217293044Y-133381750D01*
X217310672Y-133389996D01*
X217314472Y-133392153D01*
X217407457Y-133424690D01*
X217499693Y-133459307D01*
X217499697Y-133459307D01*
X217499698Y-133459308D01*
X217503981Y-133460085D01*
X217522803Y-133465052D01*
X217526935Y-133466498D01*
X217624240Y-133481909D01*
X217656550Y-133487772D01*
X217721168Y-133499500D01*
X217721170Y-133499500D01*
X217725545Y-133499500D01*
X217744948Y-133501028D01*
X217746655Y-133501297D01*
X217749257Y-133501710D01*
X217847739Y-133499500D01*
X218876884Y-133499500D01*
X218943923Y-133519185D01*
X218964565Y-133535819D01*
X219859833Y-134431087D01*
X219893318Y-134492410D01*
X219888334Y-134562102D01*
X219846462Y-134618035D01*
X219783078Y-134641801D01*
X219783100Y-134641947D01*
X219782415Y-134642050D01*
X219781427Y-134642421D01*
X219778503Y-134642640D01*
X219522726Y-134701019D01*
X219522707Y-134701025D01*
X219278485Y-134796875D01*
X219051272Y-134928057D01*
X218846143Y-135091641D01*
X218667696Y-135283963D01*
X218519897Y-135500745D01*
X218519896Y-135500746D01*
X218406067Y-135737116D01*
X218328735Y-135987819D01*
X218328734Y-135987824D01*
X218328733Y-135987828D01*
X218320654Y-136041429D01*
X218289629Y-136247255D01*
X218289629Y-136509630D01*
X218302478Y-136594872D01*
X218328733Y-136769058D01*
X218328734Y-136769060D01*
X218328735Y-136769066D01*
X218406067Y-137019769D01*
X218519896Y-137256139D01*
X218519897Y-137256140D01*
X218519899Y-137256143D01*
X218519901Y-137256147D01*
X218657562Y-137458058D01*
X218667696Y-137472922D01*
X218846143Y-137665244D01*
X218846147Y-137665247D01*
X218846148Y-137665248D01*
X219051272Y-137828829D01*
X219278486Y-137960011D01*
X219522713Y-138055863D01*
X219778499Y-138114245D01*
X219778505Y-138114245D01*
X219778508Y-138114246D01*
X219974629Y-138128943D01*
X219974635Y-138128943D01*
X220105629Y-138128943D01*
X220301749Y-138114246D01*
X220301751Y-138114245D01*
X220301759Y-138114245D01*
X220557545Y-138055863D01*
X220801772Y-137960011D01*
X221028986Y-137828829D01*
X221234110Y-137665248D01*
X221412562Y-137472922D01*
X221560357Y-137256147D01*
X221627575Y-137116566D01*
X221674397Y-137064707D01*
X221741824Y-137046394D01*
X221808448Y-137067442D01*
X221826976Y-137082687D01*
X224254848Y-139510559D01*
X224259485Y-139515747D01*
X224283698Y-139546109D01*
X224335173Y-139591082D01*
X224338206Y-139593917D01*
X224346677Y-139602388D01*
X224346681Y-139602392D01*
X224346685Y-139602395D01*
X224379023Y-139629392D01*
X224453207Y-139694206D01*
X224456956Y-139696446D01*
X224472830Y-139707708D01*
X224476187Y-139710511D01*
X224561865Y-139759126D01*
X224646442Y-139809658D01*
X224650533Y-139811193D01*
X224668161Y-139819439D01*
X224671961Y-139821596D01*
X224764952Y-139854135D01*
X224857182Y-139888750D01*
X224859771Y-139889219D01*
X224861480Y-139889530D01*
X224880295Y-139894496D01*
X224884423Y-139895941D01*
X224981733Y-139911353D01*
X225078656Y-139928943D01*
X225078659Y-139928943D01*
X225083034Y-139928943D01*
X225102437Y-139930471D01*
X225104144Y-139930740D01*
X225106746Y-139931153D01*
X225205208Y-139928943D01*
X227544329Y-139928943D01*
X227611368Y-139948628D01*
X227632010Y-139965262D01*
X229076299Y-141409551D01*
X229109784Y-141470874D01*
X229104800Y-141540566D01*
X229062928Y-141596499D01*
X228997464Y-141620916D01*
X228988618Y-141621232D01*
X225756938Y-141621232D01*
X225654158Y-141631732D01*
X225654157Y-141631733D01*
X225487618Y-141686918D01*
X225487616Y-141686919D01*
X225338302Y-141779018D01*
X225338298Y-141779021D01*
X225214243Y-141903076D01*
X225214240Y-141903080D01*
X225122141Y-142052394D01*
X225122140Y-142052396D01*
X225066955Y-142218935D01*
X225066954Y-142218936D01*
X225056454Y-142321716D01*
X225056454Y-144621747D01*
X225066954Y-144724527D01*
X225066955Y-144724529D01*
X225078562Y-144759556D01*
X225122140Y-144891067D01*
X225122141Y-144891069D01*
X225214240Y-145040383D01*
X225214243Y-145040387D01*
X225338298Y-145164442D01*
X225338302Y-145164445D01*
X225487616Y-145256544D01*
X225487618Y-145256545D01*
X225487620Y-145256546D01*
X225654157Y-145311731D01*
X225756946Y-145322232D01*
X225756951Y-145322232D01*
X229056957Y-145322232D01*
X229056962Y-145322232D01*
X229159751Y-145311731D01*
X229326288Y-145256546D01*
X229475609Y-145164443D01*
X229599665Y-145040387D01*
X229691768Y-144891066D01*
X229746953Y-144724529D01*
X229757454Y-144621740D01*
X229757454Y-142390068D01*
X229777139Y-142323029D01*
X229829943Y-142277274D01*
X229899101Y-142267330D01*
X229962657Y-142296355D01*
X229969135Y-142302387D01*
X230574678Y-142907930D01*
X230608163Y-142969253D01*
X230608934Y-143018133D01*
X230562635Y-143268797D01*
X230562634Y-143268807D01*
X230552741Y-143539495D01*
X230582367Y-143808745D01*
X230582369Y-143808756D01*
X230641846Y-144036258D01*
X230650882Y-144070820D01*
X230756824Y-144320122D01*
X230828952Y-144438307D01*
X230897933Y-144551337D01*
X230897940Y-144551347D01*
X231071207Y-144759551D01*
X231071213Y-144759556D01*
X231272952Y-144940314D01*
X231498864Y-145089776D01*
X231744130Y-145204752D01*
X231744137Y-145204754D01*
X231744139Y-145204755D01*
X232003511Y-145282789D01*
X232003518Y-145282790D01*
X232003523Y-145282792D01*
X232271515Y-145322232D01*
X232271520Y-145322232D01*
X233474590Y-145322232D01*
X233526087Y-145318462D01*
X233677110Y-145307409D01*
X233789712Y-145282325D01*
X233941500Y-145248514D01*
X233941502Y-145248513D01*
X233941507Y-145248512D01*
X234194512Y-145151746D01*
X234430731Y-145019173D01*
X234645131Y-144853620D01*
X234833140Y-144658613D01*
X234990753Y-144438311D01*
X235076777Y-144270993D01*
X235114603Y-144197422D01*
X235114605Y-144197416D01*
X235114610Y-144197407D01*
X235202072Y-143941037D01*
X235251273Y-143674665D01*
X235261166Y-143403967D01*
X235231540Y-143134714D01*
X235163026Y-142872644D01*
X235057084Y-142623342D01*
X234915972Y-142392122D01*
X234863287Y-142328814D01*
X234804461Y-142258127D01*
X242468149Y-142258127D01*
X242508367Y-142524958D01*
X242508369Y-142524964D01*
X242587911Y-142782832D01*
X242704995Y-143025960D01*
X242704997Y-143025962D01*
X242704998Y-143025965D01*
X242816170Y-143189024D01*
X242857014Y-143248932D01*
X243040559Y-143446748D01*
X243040563Y-143446751D01*
X243040564Y-143446752D01*
X243251547Y-143615006D01*
X243485251Y-143749934D01*
X243736454Y-143848525D01*
X243999546Y-143908574D01*
X244028364Y-143910733D01*
X244201267Y-143923691D01*
X244201273Y-143923691D01*
X244336031Y-143923691D01*
X244487320Y-143912353D01*
X244537752Y-143908574D01*
X244800844Y-143848525D01*
X245052047Y-143749934D01*
X245285751Y-143615006D01*
X245496734Y-143446752D01*
X245680284Y-143248932D01*
X245797626Y-143076823D01*
X252540457Y-143076823D01*
X252570672Y-143299880D01*
X252570673Y-143299883D01*
X252640230Y-143513958D01*
X252746893Y-143712171D01*
X252746895Y-143712174D01*
X252887236Y-143888156D01*
X252887238Y-143888157D01*
X252887239Y-143888159D01*
X253056751Y-144036258D01*
X253249983Y-144151708D01*
X253460723Y-144230800D01*
X253682197Y-144270993D01*
X253682200Y-144270993D01*
X254370895Y-144270993D01*
X254370902Y-144270993D01*
X254538935Y-144255870D01*
X254538939Y-144255869D01*
X254755907Y-144195989D01*
X254755909Y-144195988D01*
X254755917Y-144195986D01*
X254958720Y-144098322D01*
X255140825Y-143966015D01*
X255296379Y-143803318D01*
X255420382Y-143615461D01*
X255420577Y-143615006D01*
X255508847Y-143408488D01*
X255508846Y-143408488D01*
X255508850Y-143408481D01*
X255558938Y-143189030D01*
X255569037Y-142964163D01*
X255538822Y-142741106D01*
X255469264Y-142527029D01*
X255362599Y-142328812D01*
X255289914Y-142237668D01*
X255222257Y-142152829D01*
X255222255Y-142152827D01*
X255052743Y-142004728D01*
X254859511Y-141889278D01*
X254741522Y-141844996D01*
X254648770Y-141810185D01*
X254427297Y-141769993D01*
X254427294Y-141769993D01*
X253738592Y-141769993D01*
X253700146Y-141773453D01*
X253570560Y-141785115D01*
X253570554Y-141785116D01*
X253353586Y-141844996D01*
X253353573Y-141845001D01*
X253150780Y-141942660D01*
X253150772Y-141942664D01*
X252968674Y-142074966D01*
X252968672Y-142074967D01*
X252813113Y-142237669D01*
X252689110Y-142425526D01*
X252600646Y-142632497D01*
X252600642Y-142632510D01*
X252550557Y-142851950D01*
X252550555Y-142851961D01*
X252542741Y-143025958D01*
X252540457Y-143076823D01*
X245797626Y-143076823D01*
X245832300Y-143025966D01*
X245949387Y-142782832D01*
X246028929Y-142524963D01*
X246048953Y-142392116D01*
X246069148Y-142258127D01*
X246069149Y-142258118D01*
X246069149Y-141988263D01*
X246069148Y-141988254D01*
X246028930Y-141721423D01*
X246028928Y-141721417D01*
X246018287Y-141686919D01*
X246007417Y-141651680D01*
X256624247Y-141651680D01*
X256637365Y-141738708D01*
X256663351Y-141911108D01*
X256663352Y-141911110D01*
X256663353Y-141911116D01*
X256740685Y-142161819D01*
X256854514Y-142398189D01*
X256854515Y-142398190D01*
X256854517Y-142398193D01*
X256854519Y-142398197D01*
X256988035Y-142594028D01*
X257002314Y-142614972D01*
X257180761Y-142807294D01*
X257180765Y-142807297D01*
X257180766Y-142807298D01*
X257385890Y-142970879D01*
X257613104Y-143102061D01*
X257857331Y-143197913D01*
X258113117Y-143256295D01*
X258113123Y-143256295D01*
X258113126Y-143256296D01*
X258309247Y-143270993D01*
X258309253Y-143270993D01*
X258440247Y-143270993D01*
X258636367Y-143256296D01*
X258636369Y-143256295D01*
X258636377Y-143256295D01*
X258892163Y-143197913D01*
X259136390Y-143102061D01*
X259363604Y-142970879D01*
X259568728Y-142807298D01*
X259747180Y-142614972D01*
X259894975Y-142398197D01*
X259897904Y-142392116D01*
X259928389Y-142328812D01*
X260008810Y-142161816D01*
X260086143Y-141911108D01*
X260125247Y-141651675D01*
X260125247Y-141389311D01*
X260086143Y-141129878D01*
X260008810Y-140879170D01*
X259970506Y-140799630D01*
X259894979Y-140642796D01*
X259894978Y-140642795D01*
X259894977Y-140642794D01*
X259894975Y-140642789D01*
X259747180Y-140426014D01*
X259721052Y-140397855D01*
X259568732Y-140233691D01*
X259529280Y-140202229D01*
X259363604Y-140070107D01*
X259136390Y-139938925D01*
X258892163Y-139843073D01*
X258892158Y-139843071D01*
X258892149Y-139843069D01*
X258674565Y-139793407D01*
X258636377Y-139784691D01*
X258636376Y-139784690D01*
X258636372Y-139784690D01*
X258636367Y-139784689D01*
X258440247Y-139769993D01*
X258440241Y-139769993D01*
X258309253Y-139769993D01*
X258309247Y-139769993D01*
X258113126Y-139784689D01*
X258113121Y-139784690D01*
X257857344Y-139843069D01*
X257857325Y-139843075D01*
X257613103Y-139938925D01*
X257385890Y-140070107D01*
X257180761Y-140233691D01*
X257002314Y-140426013D01*
X256854515Y-140642795D01*
X256854514Y-140642796D01*
X256740685Y-140879166D01*
X256663353Y-141129869D01*
X256663352Y-141129874D01*
X256663351Y-141129878D01*
X256651982Y-141205305D01*
X256624247Y-141389305D01*
X256624247Y-141651680D01*
X246007417Y-141651680D01*
X245949387Y-141463550D01*
X245832300Y-141220417D01*
X245680284Y-140997450D01*
X245670007Y-140986374D01*
X245496738Y-140799633D01*
X245338309Y-140673290D01*
X245285751Y-140631376D01*
X245052047Y-140496448D01*
X245052045Y-140496447D01*
X244800844Y-140397857D01*
X244800837Y-140397855D01*
X244537750Y-140337807D01*
X244336031Y-140322691D01*
X244336025Y-140322691D01*
X244201273Y-140322691D01*
X244201267Y-140322691D01*
X243999547Y-140337807D01*
X243736460Y-140397855D01*
X243736453Y-140397857D01*
X243485252Y-140496447D01*
X243485248Y-140496449D01*
X243251547Y-140631376D01*
X243040559Y-140799633D01*
X242857014Y-140997449D01*
X242704994Y-141220422D01*
X242704993Y-141220423D01*
X242587912Y-141463546D01*
X242508369Y-141721417D01*
X242508367Y-141721423D01*
X242468149Y-141988254D01*
X242468149Y-142258127D01*
X234804461Y-142258127D01*
X234742700Y-142183912D01*
X234742694Y-142183907D01*
X234540956Y-142003150D01*
X234315046Y-141853689D01*
X234296502Y-141844996D01*
X234069778Y-141738712D01*
X234069773Y-141738710D01*
X234069768Y-141738708D01*
X233810396Y-141660674D01*
X233810382Y-141660671D01*
X233694745Y-141643653D01*
X233542393Y-141621232D01*
X233542388Y-141621232D01*
X232876291Y-141621232D01*
X232809252Y-141601547D01*
X232788610Y-141584913D01*
X229429498Y-138225801D01*
X229396013Y-138164478D01*
X229400997Y-138094786D01*
X229429494Y-138050443D01*
X229532840Y-137947098D01*
X229624943Y-137797777D01*
X229680128Y-137631240D01*
X229690629Y-137528451D01*
X229690629Y-135228435D01*
X229680128Y-135125646D01*
X229624943Y-134959109D01*
X229613874Y-134941164D01*
X229532842Y-134809791D01*
X229532839Y-134809787D01*
X229408784Y-134685732D01*
X229408780Y-134685729D01*
X229259466Y-134593630D01*
X229259464Y-134593629D01*
X229164321Y-134562102D01*
X229092926Y-134538444D01*
X229092924Y-134538443D01*
X228990144Y-134527943D01*
X228990137Y-134527943D01*
X225690121Y-134527943D01*
X225690113Y-134527943D01*
X225587333Y-134538443D01*
X225587332Y-134538444D01*
X225420793Y-134593629D01*
X225420791Y-134593630D01*
X225271477Y-134685729D01*
X225271473Y-134685732D01*
X225147418Y-134809787D01*
X225147415Y-134809791D01*
X225055316Y-134959105D01*
X225055315Y-134959107D01*
X225000130Y-135125646D01*
X225000129Y-135125647D01*
X224989629Y-135228427D01*
X224989629Y-136409030D01*
X224969944Y-136476069D01*
X224917140Y-136521824D01*
X224847982Y-136531768D01*
X224784426Y-136502743D01*
X224777948Y-136496711D01*
X223826948Y-135545711D01*
X223793463Y-135484388D01*
X223790629Y-135458030D01*
X223790629Y-135416614D01*
X223791018Y-135409675D01*
X223795367Y-135371081D01*
X223790768Y-135302875D01*
X223790629Y-135298720D01*
X223790629Y-135286762D01*
X223790629Y-135286754D01*
X223786851Y-135244786D01*
X223782866Y-135185683D01*
X223780226Y-135146502D01*
X223779157Y-135142260D01*
X223775897Y-135123078D01*
X223775506Y-135118721D01*
X223749295Y-135023749D01*
X223725225Y-134928225D01*
X223723419Y-134924249D01*
X223716783Y-134905948D01*
X223715622Y-134901739D01*
X223672878Y-134812980D01*
X223632136Y-134723283D01*
X223629646Y-134719689D01*
X223619854Y-134702873D01*
X223617960Y-134698939D01*
X223617589Y-134698429D01*
X223576898Y-134642421D01*
X223560050Y-134619231D01*
X223503955Y-134538263D01*
X223503952Y-134538259D01*
X223503949Y-134538255D01*
X223500858Y-134535164D01*
X223488222Y-134520370D01*
X223485650Y-134516830D01*
X223485648Y-134516828D01*
X223414449Y-134448755D01*
X222232018Y-133266324D01*
X222198533Y-133205001D01*
X222203517Y-133135309D01*
X222245389Y-133079376D01*
X222310853Y-133054959D01*
X222329414Y-133055024D01*
X222387598Y-133059604D01*
X222646592Y-133039221D01*
X222899208Y-132978573D01*
X223139226Y-132879154D01*
X223360738Y-132743412D01*
X223558287Y-132574689D01*
X223727010Y-132377140D01*
X223862752Y-132155628D01*
X223962171Y-131915610D01*
X224022819Y-131662994D01*
X224043202Y-131404000D01*
X224022819Y-131145006D01*
X223962171Y-130892390D01*
X223878536Y-130690478D01*
X223862754Y-130652376D01*
X223862093Y-130651298D01*
X223727010Y-130430860D01*
X223558287Y-130233311D01*
X223360738Y-130064588D01*
X223139226Y-129928846D01*
X223139225Y-129928845D01*
X223139221Y-129928843D01*
X222973225Y-129860086D01*
X222899208Y-129829427D01*
X222899209Y-129829427D01*
X222692847Y-129779884D01*
X222646592Y-129768779D01*
X222646590Y-129768778D01*
X222646589Y-129768778D01*
X222387598Y-129748396D01*
X222128607Y-129768778D01*
X221875987Y-129829427D01*
X221635974Y-129928843D01*
X221414457Y-130064588D01*
X221216909Y-130233311D01*
X221048186Y-130430859D01*
X220912441Y-130652376D01*
X220813025Y-130892389D01*
X220752376Y-131145009D01*
X220731994Y-131404000D01*
X220736572Y-131462170D01*
X220722207Y-131530547D01*
X220673156Y-131580303D01*
X220604991Y-131595642D01*
X220539354Y-131571693D01*
X220525273Y-131559579D01*
X220382576Y-131416882D01*
X220377939Y-131411693D01*
X220353727Y-131381332D01*
X220302251Y-131336359D01*
X220299217Y-131333523D01*
X220290749Y-131325055D01*
X220258401Y-131298049D01*
X220235243Y-131277816D01*
X220184344Y-131233346D01*
X220146810Y-131174414D01*
X220147096Y-131104545D01*
X220185110Y-131045922D01*
X220190106Y-131041850D01*
X220212502Y-131024557D01*
X220403052Y-130826916D01*
X220562794Y-130603637D01*
X220688325Y-130359479D01*
X220776968Y-130099646D01*
X220826834Y-129829674D01*
X220836860Y-129555320D01*
X220806834Y-129282429D01*
X220737394Y-129016818D01*
X220630021Y-128764148D01*
X220487003Y-128529804D01*
X220422778Y-128452630D01*
X220311398Y-128318792D01*
X220311393Y-128318787D01*
X220311389Y-128318782D01*
X220207842Y-128226003D01*
X220106925Y-128135580D01*
X220106922Y-128135578D01*
X220106921Y-128135577D01*
X219877957Y-127984096D01*
X219629377Y-127867567D01*
X219481960Y-127823216D01*
X219366477Y-127788472D01*
X219233513Y-127768904D01*
X219094867Y-127748500D01*
X218889051Y-127748500D01*
X218889046Y-127748500D01*
X218683793Y-127763523D01*
X218683783Y-127763524D01*
X218415827Y-127823214D01*
X218415822Y-127823216D01*
X218159397Y-127921290D01*
X217919992Y-128055650D01*
X217880692Y-128085997D01*
X217782881Y-128161523D01*
X217717791Y-128186915D01*
X217649304Y-128173085D01*
X217599166Y-128124424D01*
X217583098Y-128063377D01*
X217583098Y-125328127D01*
X217602783Y-125261088D01*
X217619412Y-125240451D01*
X220042024Y-122817838D01*
X220103345Y-122784355D01*
X220173037Y-122789339D01*
X220228970Y-122831211D01*
X220253231Y-122894713D01*
X220261391Y-122987976D01*
X220261391Y-122987979D01*
X220318020Y-123199322D01*
X220318022Y-123199326D01*
X220318023Y-123199330D01*
X220364259Y-123298484D01*
X220410495Y-123397638D01*
X220410496Y-123397639D01*
X220536000Y-123576877D01*
X220536004Y-123576881D01*
X220657441Y-123698318D01*
X220690926Y-123759641D01*
X220685942Y-123829333D01*
X220657442Y-123873680D01*
X220535998Y-123995124D01*
X220410498Y-124174357D01*
X220410496Y-124174361D01*
X220318024Y-124372668D01*
X220318020Y-124372677D01*
X220261391Y-124584020D01*
X220261391Y-124584024D01*
X220242321Y-124801997D01*
X220242321Y-124802002D01*
X220261391Y-125019975D01*
X220261391Y-125019979D01*
X220318020Y-125231322D01*
X220318022Y-125231326D01*
X220318023Y-125231330D01*
X220360890Y-125323259D01*
X220410495Y-125429638D01*
X220410496Y-125429639D01*
X220536000Y-125608877D01*
X220690721Y-125763598D01*
X220869959Y-125889102D01*
X221068268Y-125981575D01*
X221279621Y-126038207D01*
X221462524Y-126054208D01*
X221497596Y-126057277D01*
X221497598Y-126057277D01*
X221497600Y-126057277D01*
X221525852Y-126054805D01*
X221715575Y-126038207D01*
X221926928Y-125981575D01*
X222125237Y-125889102D01*
X222304475Y-125763598D01*
X222459196Y-125608877D01*
X222584700Y-125429639D01*
X222677173Y-125231330D01*
X222722979Y-125060378D01*
X222759344Y-125000718D01*
X222822191Y-124970189D01*
X222874847Y-124972697D01*
X222908246Y-124981646D01*
X223059621Y-125022207D01*
X223242524Y-125038208D01*
X223277596Y-125041277D01*
X223277598Y-125041277D01*
X223277600Y-125041277D01*
X223305852Y-125038805D01*
X223495575Y-125022207D01*
X223706928Y-124965575D01*
X223905237Y-124873102D01*
X224084475Y-124747598D01*
X224239196Y-124592877D01*
X224364700Y-124413639D01*
X224457173Y-124215330D01*
X224457221Y-124215152D01*
X224457261Y-124215085D01*
X224459027Y-124210236D01*
X224460000Y-124210590D01*
X224493581Y-124155489D01*
X224556425Y-124124955D01*
X224625801Y-124133244D01*
X224664679Y-124159555D01*
X231553310Y-131048186D01*
X231586795Y-131109509D01*
X231589629Y-131135867D01*
X231589629Y-134605029D01*
X231569944Y-134672068D01*
X231526317Y-134713163D01*
X231316355Y-134831000D01*
X231101951Y-134996555D01*
X230913951Y-135191552D01*
X230913945Y-135191559D01*
X230756331Y-135411862D01*
X230756328Y-135411867D01*
X230632479Y-135652752D01*
X230632472Y-135652770D01*
X230545013Y-135909128D01*
X230545011Y-135909138D01*
X230498195Y-136162601D01*
X230495810Y-136175511D01*
X230495809Y-136175518D01*
X230485916Y-136446206D01*
X230515542Y-136715456D01*
X230515544Y-136715467D01*
X230584055Y-136977525D01*
X230584057Y-136977531D01*
X230689999Y-137226833D01*
X230762127Y-137345018D01*
X230831108Y-137458048D01*
X230831115Y-137458058D01*
X231004382Y-137666262D01*
X231004388Y-137666267D01*
X231206127Y-137847025D01*
X231432039Y-137996487D01*
X231677305Y-138111463D01*
X231677312Y-138111465D01*
X231677314Y-138111466D01*
X231936686Y-138189500D01*
X231936693Y-138189501D01*
X231936698Y-138189503D01*
X232204690Y-138228943D01*
X232204695Y-138228943D01*
X233407765Y-138228943D01*
X233459262Y-138225173D01*
X233610285Y-138214120D01*
X233722887Y-138189036D01*
X233874675Y-138155225D01*
X233874677Y-138155224D01*
X233874682Y-138155223D01*
X234127687Y-138058457D01*
X234363906Y-137925884D01*
X234578306Y-137760331D01*
X234766315Y-137565324D01*
X234923928Y-137345022D01*
X235041385Y-137116567D01*
X235047778Y-137104133D01*
X235047780Y-137104127D01*
X235047785Y-137104118D01*
X235135247Y-136847748D01*
X235184448Y-136581376D01*
X235194341Y-136310678D01*
X235164715Y-136041425D01*
X235096201Y-135779355D01*
X234990259Y-135530053D01*
X234849147Y-135298833D01*
X234839413Y-135287136D01*
X234675875Y-135090623D01*
X234675869Y-135090618D01*
X234474131Y-134909861D01*
X234248218Y-134760398D01*
X234161995Y-134719978D01*
X234109650Y-134673699D01*
X234090629Y-134607703D01*
X234090629Y-130640237D01*
X234091018Y-130633298D01*
X234095367Y-130594704D01*
X234090768Y-130526498D01*
X234090629Y-130522343D01*
X234090629Y-130510380D01*
X234090629Y-130510376D01*
X234086851Y-130468407D01*
X234086318Y-130460508D01*
X234080225Y-130370124D01*
X234080225Y-130370119D01*
X234079156Y-130365879D01*
X234075897Y-130346700D01*
X234075506Y-130342343D01*
X234049293Y-130247365D01*
X234025225Y-130151848D01*
X234023418Y-130147870D01*
X234016782Y-130129565D01*
X234015621Y-130125359D01*
X233972875Y-130036595D01*
X233958441Y-130004817D01*
X233932136Y-129946905D01*
X233929646Y-129943311D01*
X233919854Y-129926495D01*
X233917960Y-129922561D01*
X233860050Y-129842853D01*
X233803955Y-129761885D01*
X233803952Y-129761881D01*
X233803949Y-129761877D01*
X233800858Y-129758786D01*
X233788222Y-129743992D01*
X233785650Y-129740452D01*
X233785648Y-129740450D01*
X233714449Y-129672377D01*
X231531403Y-127489331D01*
X234322761Y-127489331D01*
X234337903Y-127713907D01*
X234337903Y-127713909D01*
X234337904Y-127713912D01*
X234387344Y-127910118D01*
X234388010Y-127913230D01*
X234388881Y-127916221D01*
X234392904Y-127932183D01*
X234396864Y-127940903D01*
X234399267Y-127947042D01*
X234442638Y-128077925D01*
X234442639Y-128077928D01*
X234533971Y-128225999D01*
X234533974Y-128226003D01*
X234570328Y-128262357D01*
X234584576Y-128279423D01*
X234599276Y-128300642D01*
X234614180Y-128322154D01*
X234614183Y-128322157D01*
X240033994Y-133741968D01*
X240067479Y-133803291D01*
X240062495Y-133872983D01*
X240052041Y-133894438D01*
X239943500Y-134071563D01*
X239844082Y-134311579D01*
X239783433Y-134564199D01*
X239763051Y-134823190D01*
X239783433Y-135082180D01*
X239844082Y-135334800D01*
X239943498Y-135574813D01*
X239943500Y-135574817D01*
X239943501Y-135574818D01*
X240079243Y-135796330D01*
X240247966Y-135993879D01*
X240445515Y-136162602D01*
X240667027Y-136298344D01*
X240667029Y-136298344D01*
X240667031Y-136298346D01*
X240728348Y-136323744D01*
X240907045Y-136397763D01*
X241159661Y-136458411D01*
X241418655Y-136478794D01*
X241677649Y-136458411D01*
X241930265Y-136397763D01*
X242170283Y-136298344D01*
X242391795Y-136162602D01*
X242589344Y-135993879D01*
X242758067Y-135796330D01*
X242893809Y-135574818D01*
X242993228Y-135334800D01*
X243053876Y-135082184D01*
X243074259Y-134823190D01*
X243053876Y-134564196D01*
X242993228Y-134311580D01*
X242893809Y-134071562D01*
X242758067Y-133850050D01*
X242758064Y-133850046D01*
X242698864Y-133780731D01*
X242670294Y-133716970D01*
X242669155Y-133700200D01*
X242669155Y-133431861D01*
X242669544Y-133424922D01*
X242673893Y-133386328D01*
X242669294Y-133318117D01*
X242669155Y-133313962D01*
X242669155Y-133302007D01*
X242669155Y-133302000D01*
X242665380Y-133260056D01*
X242663313Y-133229394D01*
X242658753Y-133161751D01*
X242658751Y-133161739D01*
X242657683Y-133157500D01*
X242654423Y-133138310D01*
X242654032Y-133133968D01*
X242653858Y-133133339D01*
X242627824Y-133039007D01*
X242603751Y-132943472D01*
X242601944Y-132939494D01*
X242595308Y-132921189D01*
X242594148Y-132916985D01*
X242594147Y-132916982D01*
X242551396Y-132828210D01*
X242510665Y-132738537D01*
X242510662Y-132738530D01*
X242508173Y-132734937D01*
X242498383Y-132718125D01*
X242496484Y-132714182D01*
X242496482Y-132714179D01*
X242496480Y-132714175D01*
X242451134Y-132651763D01*
X242438569Y-132634469D01*
X242382475Y-132553501D01*
X242379384Y-132550410D01*
X242366748Y-132535616D01*
X242364176Y-132532076D01*
X242364174Y-132532074D01*
X242292975Y-132464001D01*
X238467590Y-128638616D01*
X238434105Y-128577293D01*
X238439089Y-128507601D01*
X238480961Y-128451668D01*
X238546425Y-128427251D01*
X238564109Y-128427251D01*
X238742109Y-128439982D01*
X238742110Y-128439982D01*
X238760114Y-128438694D01*
X239011842Y-128420690D01*
X239276085Y-128363208D01*
X239529457Y-128268705D01*
X239766801Y-128139105D01*
X239983286Y-127977047D01*
X240128862Y-127831470D01*
X240190183Y-127797987D01*
X240216542Y-127795153D01*
X240667676Y-127795153D01*
X240734715Y-127814838D01*
X240755357Y-127831472D01*
X240855290Y-127931405D01*
X240888775Y-127992728D01*
X240891609Y-128019086D01*
X240891609Y-129772936D01*
X240891219Y-129779874D01*
X240888901Y-129800447D01*
X240886871Y-129818466D01*
X240886870Y-129818474D01*
X240891468Y-129886656D01*
X240891609Y-129890829D01*
X240891609Y-129902799D01*
X240895386Y-129944767D01*
X240902012Y-130043050D01*
X240902012Y-130043055D01*
X240903081Y-130047295D01*
X240906339Y-130066467D01*
X240906732Y-130070833D01*
X240932944Y-130165808D01*
X240957012Y-130261324D01*
X240958824Y-130265313D01*
X240965449Y-130283587D01*
X240966613Y-130287805D01*
X240966616Y-130287813D01*
X241009362Y-130376578D01*
X241050102Y-130466269D01*
X241050103Y-130466272D01*
X241052592Y-130469864D01*
X241062378Y-130486669D01*
X241064275Y-130490608D01*
X241064283Y-130490622D01*
X241122187Y-130570319D01*
X241178289Y-130651298D01*
X241181382Y-130654391D01*
X241194016Y-130669182D01*
X241196587Y-130672721D01*
X241196590Y-130672724D01*
X241267788Y-130740796D01*
X245431837Y-134904845D01*
X245465322Y-134966168D01*
X245468156Y-134992526D01*
X245468156Y-136021060D01*
X245468157Y-136021066D01*
X245474564Y-136080673D01*
X245524858Y-136215518D01*
X245524862Y-136215525D01*
X245611108Y-136330734D01*
X245611111Y-136330737D01*
X245726320Y-136416983D01*
X245726327Y-136416987D01*
X245861173Y-136467281D01*
X245861172Y-136467281D01*
X245868100Y-136468025D01*
X245920783Y-136473690D01*
X248316528Y-136473689D01*
X248376139Y-136467281D01*
X248510987Y-136416986D01*
X248551037Y-136387003D01*
X248616499Y-136362586D01*
X248684772Y-136377436D01*
X248725666Y-136413385D01*
X248783123Y-136492467D01*
X248839225Y-136573446D01*
X248842318Y-136576539D01*
X248854952Y-136591330D01*
X248857523Y-136594869D01*
X248857526Y-136594872D01*
X248928724Y-136662944D01*
X252507928Y-140242148D01*
X252541413Y-140303471D01*
X252544247Y-140329829D01*
X252544247Y-140570508D01*
X252554747Y-140673288D01*
X252554748Y-140673289D01*
X252609933Y-140839828D01*
X252609934Y-140839830D01*
X252702033Y-140989144D01*
X252702036Y-140989148D01*
X252826091Y-141113203D01*
X252826095Y-141113206D01*
X252975409Y-141205305D01*
X252975411Y-141205306D01*
X252975413Y-141205307D01*
X253141950Y-141260492D01*
X253244739Y-141270993D01*
X253946569Y-141270993D01*
X253965967Y-141272519D01*
X253970288Y-141273204D01*
X254068795Y-141270993D01*
X254864755Y-141270993D01*
X254967544Y-141260492D01*
X255134081Y-141205307D01*
X255283402Y-141113204D01*
X255407458Y-140989148D01*
X255499561Y-140839827D01*
X255554746Y-140673290D01*
X255565247Y-140570501D01*
X255565247Y-139470485D01*
X255554746Y-139367696D01*
X255499561Y-139201159D01*
X255407458Y-139051838D01*
X255283402Y-138927782D01*
X255283398Y-138927779D01*
X255134084Y-138835680D01*
X255134082Y-138835679D01*
X255050812Y-138808086D01*
X254967544Y-138780494D01*
X254967542Y-138780493D01*
X254864762Y-138769993D01*
X254864755Y-138769993D01*
X254624083Y-138769993D01*
X254557044Y-138750308D01*
X254536402Y-138733674D01*
X251089864Y-135287136D01*
X251056379Y-135225813D01*
X251053545Y-135199455D01*
X251053545Y-131692330D01*
X252603710Y-131692330D01*
X252633925Y-131915387D01*
X252633926Y-131915390D01*
X252703483Y-132129465D01*
X252810146Y-132327678D01*
X252810148Y-132327681D01*
X252950489Y-132503663D01*
X252950491Y-132503664D01*
X252950492Y-132503666D01*
X253120004Y-132651765D01*
X253313236Y-132767215D01*
X253475757Y-132828210D01*
X253523976Y-132846307D01*
X253745450Y-132886500D01*
X253745453Y-132886500D01*
X254434148Y-132886500D01*
X254434155Y-132886500D01*
X254602188Y-132871377D01*
X254602192Y-132871376D01*
X254819160Y-132811496D01*
X254819162Y-132811495D01*
X254819170Y-132811493D01*
X255021973Y-132713829D01*
X255204078Y-132581522D01*
X255359632Y-132418825D01*
X255483635Y-132230968D01*
X255572103Y-132023988D01*
X255622191Y-131804537D01*
X255632290Y-131579670D01*
X255602075Y-131356613D01*
X255532517Y-131142536D01*
X255425852Y-130944319D01*
X255332226Y-130826916D01*
X255285510Y-130768336D01*
X255253988Y-130740796D01*
X255115996Y-130620235D01*
X254922764Y-130504785D01*
X254804775Y-130460503D01*
X254712023Y-130425692D01*
X254490550Y-130385500D01*
X254490547Y-130385500D01*
X253801845Y-130385500D01*
X253763399Y-130388960D01*
X253633813Y-130400622D01*
X253633807Y-130400623D01*
X253416839Y-130460503D01*
X253416826Y-130460508D01*
X253214033Y-130558167D01*
X253214025Y-130558171D01*
X253031927Y-130690473D01*
X253031925Y-130690474D01*
X252876366Y-130853176D01*
X252752363Y-131041033D01*
X252663899Y-131248004D01*
X252663895Y-131248017D01*
X252613810Y-131467457D01*
X252613808Y-131467468D01*
X252603710Y-131692325D01*
X252603710Y-131692330D01*
X251053545Y-131692330D01*
X251053545Y-130267187D01*
X256687500Y-130267187D01*
X256703016Y-130370124D01*
X256726604Y-130526615D01*
X256726605Y-130526617D01*
X256726606Y-130526623D01*
X256803938Y-130777326D01*
X256917767Y-131013696D01*
X256917768Y-131013697D01*
X256917770Y-131013700D01*
X256917772Y-131013704D01*
X257037322Y-131189051D01*
X257065567Y-131230479D01*
X257244014Y-131422801D01*
X257244018Y-131422804D01*
X257244019Y-131422805D01*
X257449143Y-131586386D01*
X257676357Y-131717568D01*
X257920584Y-131813420D01*
X258176370Y-131871802D01*
X258176376Y-131871802D01*
X258176379Y-131871803D01*
X258372500Y-131886500D01*
X258372506Y-131886500D01*
X258503500Y-131886500D01*
X258699620Y-131871803D01*
X258699622Y-131871802D01*
X258699630Y-131871802D01*
X258955416Y-131813420D01*
X259199643Y-131717568D01*
X259426857Y-131586386D01*
X259631981Y-131422805D01*
X259642292Y-131411693D01*
X259714835Y-131333509D01*
X259810433Y-131230479D01*
X259958228Y-131013704D01*
X260072063Y-130777323D01*
X260149396Y-130526615D01*
X260188500Y-130267182D01*
X260188500Y-130004818D01*
X260149396Y-129745385D01*
X260072063Y-129494677D01*
X259980077Y-129303665D01*
X259958232Y-129258303D01*
X259958231Y-129258302D01*
X259958230Y-129258301D01*
X259958228Y-129258296D01*
X259810433Y-129041521D01*
X259787512Y-129016818D01*
X259631985Y-128849198D01*
X259592533Y-128817736D01*
X259426857Y-128685614D01*
X259199643Y-128554432D01*
X258955416Y-128458580D01*
X258955411Y-128458578D01*
X258955402Y-128458576D01*
X258737818Y-128408914D01*
X258699630Y-128400198D01*
X258699629Y-128400197D01*
X258699625Y-128400197D01*
X258699620Y-128400196D01*
X258503500Y-128385500D01*
X258503494Y-128385500D01*
X258372506Y-128385500D01*
X258372500Y-128385500D01*
X258176379Y-128400196D01*
X258176374Y-128400197D01*
X257920597Y-128458576D01*
X257920578Y-128458582D01*
X257676356Y-128554432D01*
X257449143Y-128685614D01*
X257244014Y-128849198D01*
X257065567Y-129041520D01*
X256917768Y-129258302D01*
X256917767Y-129258303D01*
X256803938Y-129494673D01*
X256726606Y-129745376D01*
X256726605Y-129745381D01*
X256726604Y-129745385D01*
X256713901Y-129829665D01*
X256687500Y-130004812D01*
X256687500Y-130267187D01*
X251053545Y-130267187D01*
X251053545Y-128051026D01*
X251073230Y-127983987D01*
X251089859Y-127963349D01*
X251235439Y-127817770D01*
X251397497Y-127601285D01*
X251527097Y-127363941D01*
X251621600Y-127110569D01*
X251679082Y-126846326D01*
X251698374Y-126576593D01*
X251679082Y-126306860D01*
X251621600Y-126042617D01*
X251527097Y-125789245D01*
X251511518Y-125760715D01*
X251397500Y-125551906D01*
X251397495Y-125551898D01*
X251235445Y-125335423D01*
X251235429Y-125335405D01*
X251044232Y-125144208D01*
X251044214Y-125144192D01*
X250827739Y-124982142D01*
X250827731Y-124982137D01*
X250590398Y-124852543D01*
X250590394Y-124852541D01*
X250337016Y-124758036D01*
X250072785Y-124700557D01*
X250072778Y-124700556D01*
X249803046Y-124681264D01*
X249803044Y-124681264D01*
X249533311Y-124700556D01*
X249533304Y-124700557D01*
X249269073Y-124758036D01*
X249015695Y-124852541D01*
X249015691Y-124852543D01*
X248778358Y-124982137D01*
X248778350Y-124982142D01*
X248561875Y-125144192D01*
X248561865Y-125144201D01*
X248489079Y-125216987D01*
X248416291Y-125289775D01*
X248354971Y-125323259D01*
X248328612Y-125326093D01*
X247877478Y-125326093D01*
X247810439Y-125306408D01*
X247789801Y-125289778D01*
X247644222Y-125144199D01*
X247644220Y-125144198D01*
X247644214Y-125144192D01*
X247427739Y-124982142D01*
X247427731Y-124982137D01*
X247190398Y-124852543D01*
X247190394Y-124852541D01*
X246937016Y-124758036D01*
X246672785Y-124700557D01*
X246672778Y-124700556D01*
X246403046Y-124681264D01*
X246403044Y-124681264D01*
X246133311Y-124700556D01*
X246133304Y-124700557D01*
X245869073Y-124758036D01*
X245615695Y-124852541D01*
X245615691Y-124852543D01*
X245378358Y-124982137D01*
X245378350Y-124982142D01*
X245161875Y-125144192D01*
X245161857Y-125144208D01*
X244970660Y-125335405D01*
X244970644Y-125335423D01*
X244808594Y-125551898D01*
X244808589Y-125551906D01*
X244678995Y-125789239D01*
X244678993Y-125789243D01*
X244584488Y-126042621D01*
X244527009Y-126306852D01*
X244527008Y-126306859D01*
X244507716Y-126576591D01*
X244507716Y-126576594D01*
X244527008Y-126846326D01*
X244527009Y-126846333D01*
X244584488Y-127110564D01*
X244678993Y-127363942D01*
X244678995Y-127363946D01*
X244808589Y-127601279D01*
X244808594Y-127601287D01*
X244970644Y-127817762D01*
X244970660Y-127817780D01*
X245161857Y-128008977D01*
X245161875Y-128008993D01*
X245378350Y-128171043D01*
X245378358Y-128171048D01*
X245615691Y-128300642D01*
X245615695Y-128300644D01*
X245615697Y-128300645D01*
X245869069Y-128395148D01*
X245869072Y-128395148D01*
X245869073Y-128395149D01*
X245957150Y-128414308D01*
X246133312Y-128452630D01*
X246383752Y-128470542D01*
X246403044Y-128471922D01*
X246403045Y-128471922D01*
X246403046Y-128471922D01*
X246421050Y-128470634D01*
X246672778Y-128452630D01*
X246937021Y-128395148D01*
X247190393Y-128300645D01*
X247427737Y-128171045D01*
X247644222Y-128008987D01*
X247789798Y-127863410D01*
X247851119Y-127829927D01*
X247877478Y-127827093D01*
X248328612Y-127827093D01*
X248395651Y-127846778D01*
X248416293Y-127863412D01*
X248516226Y-127963345D01*
X248549711Y-128024668D01*
X248552545Y-128051026D01*
X248552545Y-133066300D01*
X248532860Y-133133339D01*
X248480056Y-133179094D01*
X248410898Y-133189038D01*
X248385217Y-133182484D01*
X248376139Y-133179098D01*
X248316539Y-133172691D01*
X248316537Y-133172690D01*
X248316529Y-133172690D01*
X248316521Y-133172690D01*
X247287992Y-133172690D01*
X247220953Y-133153005D01*
X247200311Y-133136371D01*
X243428928Y-129364988D01*
X243395443Y-129303665D01*
X243392609Y-129277307D01*
X243392609Y-128019086D01*
X243412294Y-127952047D01*
X243428923Y-127931409D01*
X243574503Y-127785830D01*
X243736561Y-127569345D01*
X243866161Y-127332001D01*
X243960664Y-127078629D01*
X244018146Y-126814386D01*
X244037438Y-126544653D01*
X244018146Y-126274920D01*
X243960664Y-126010677D01*
X243866161Y-125757305D01*
X243754004Y-125551906D01*
X243736564Y-125519966D01*
X243736559Y-125519958D01*
X243574509Y-125303483D01*
X243574493Y-125303465D01*
X243383296Y-125112268D01*
X243383278Y-125112252D01*
X243166803Y-124950202D01*
X243166795Y-124950197D01*
X242929462Y-124820603D01*
X242929458Y-124820601D01*
X242676080Y-124726096D01*
X242411849Y-124668617D01*
X242411842Y-124668616D01*
X242142110Y-124649324D01*
X242142108Y-124649324D01*
X241872375Y-124668616D01*
X241872368Y-124668617D01*
X241608137Y-124726096D01*
X241354759Y-124820601D01*
X241354755Y-124820603D01*
X241117422Y-124950197D01*
X241117414Y-124950202D01*
X240900939Y-125112252D01*
X240900929Y-125112261D01*
X240828143Y-125185047D01*
X240755355Y-125257835D01*
X240694035Y-125291319D01*
X240667676Y-125294153D01*
X240216542Y-125294153D01*
X240149503Y-125274468D01*
X240128865Y-125257838D01*
X239983286Y-125112259D01*
X239983284Y-125112258D01*
X239983278Y-125112252D01*
X239766803Y-124950202D01*
X239766795Y-124950197D01*
X239529462Y-124820603D01*
X239529458Y-124820601D01*
X239276080Y-124726096D01*
X239011849Y-124668617D01*
X239011842Y-124668616D01*
X238742110Y-124649324D01*
X238742108Y-124649324D01*
X238472375Y-124668616D01*
X238472368Y-124668617D01*
X238208137Y-124726096D01*
X237954759Y-124820601D01*
X237954755Y-124820603D01*
X237717422Y-124950197D01*
X237717414Y-124950202D01*
X237500939Y-125112252D01*
X237500921Y-125112268D01*
X237309724Y-125303465D01*
X237309708Y-125303483D01*
X237147658Y-125519958D01*
X237147653Y-125519966D01*
X237018059Y-125757299D01*
X237016220Y-125761328D01*
X237014878Y-125760715D01*
X236976802Y-125811570D01*
X236911335Y-125835981D01*
X236843064Y-125821123D01*
X236793663Y-125771713D01*
X236778500Y-125712296D01*
X236778500Y-125349157D01*
X236778499Y-125349144D01*
X236777097Y-125335423D01*
X236768087Y-125247225D01*
X236713362Y-125082075D01*
X236713358Y-125082069D01*
X236713357Y-125082066D01*
X236622028Y-124934000D01*
X236622025Y-124933996D01*
X236590615Y-124902586D01*
X236557130Y-124841263D01*
X236562114Y-124771571D01*
X236590611Y-124727228D01*
X236646963Y-124670877D01*
X236739065Y-124521555D01*
X236794250Y-124355018D01*
X236804751Y-124252230D01*
X236804750Y-123627213D01*
X236794250Y-123524424D01*
X236739065Y-123357887D01*
X236646963Y-123208565D01*
X236522907Y-123084509D01*
X236373585Y-122992407D01*
X236207048Y-122937222D01*
X236207046Y-122937221D01*
X236104261Y-122926721D01*
X235104249Y-122926721D01*
X235104231Y-122926722D01*
X235001454Y-122937221D01*
X235001451Y-122937222D01*
X234834919Y-122992406D01*
X234834914Y-122992408D01*
X234685593Y-123084510D01*
X234561540Y-123208563D01*
X234469438Y-123357884D01*
X234469437Y-123357887D01*
X234414252Y-123524424D01*
X234414252Y-123524425D01*
X234414251Y-123524425D01*
X234403751Y-123627204D01*
X234403751Y-124252222D01*
X234403752Y-124252240D01*
X234414251Y-124355017D01*
X234414252Y-124355020D01*
X234469436Y-124521552D01*
X234469437Y-124521555D01*
X234560144Y-124668616D01*
X234561540Y-124670878D01*
X234591635Y-124700973D01*
X234625120Y-124762296D01*
X234620136Y-124831988D01*
X234591636Y-124876335D01*
X234533971Y-124934000D01*
X234442642Y-125082066D01*
X234442637Y-125082077D01*
X234387913Y-125247223D01*
X234377500Y-125349144D01*
X234377500Y-125935855D01*
X234387913Y-126037776D01*
X234442637Y-126202922D01*
X234442642Y-126202933D01*
X234533971Y-126350999D01*
X234533974Y-126351003D01*
X234662104Y-126479133D01*
X234660654Y-126480582D01*
X234695133Y-126529284D01*
X234698266Y-126599084D01*
X234663164Y-126659496D01*
X234661506Y-126661040D01*
X234651252Y-126670413D01*
X234651248Y-126670416D01*
X234585800Y-126756375D01*
X234580306Y-126762663D01*
X234533972Y-126808997D01*
X234442642Y-126957066D01*
X234442637Y-126957077D01*
X234387912Y-127122226D01*
X234387504Y-127126226D01*
X234382908Y-127149275D01*
X234347965Y-127265641D01*
X234347962Y-127265655D01*
X234322762Y-127489320D01*
X234322761Y-127489331D01*
X231531403Y-127489331D01*
X224963954Y-120921882D01*
X224959317Y-120916693D01*
X224935105Y-120886332D01*
X224883629Y-120841359D01*
X224880595Y-120838523D01*
X224872127Y-120830055D01*
X224839779Y-120803049D01*
X224765594Y-120738235D01*
X224761839Y-120735991D01*
X224745971Y-120724732D01*
X224742617Y-120721932D01*
X224742616Y-120721931D01*
X224742611Y-120721927D01*
X224675212Y-120683685D01*
X224656938Y-120673316D01*
X224572362Y-120622785D01*
X224572359Y-120622783D01*
X224568267Y-120621248D01*
X224550642Y-120613002D01*
X224546843Y-120610846D01*
X224477955Y-120586741D01*
X224453851Y-120578307D01*
X224442067Y-120573884D01*
X224386220Y-120531898D01*
X224361938Y-120466384D01*
X224376930Y-120398142D01*
X224397955Y-120370115D01*
X224439042Y-120329028D01*
X252602880Y-120329028D01*
X252633095Y-120552085D01*
X252633096Y-120552088D01*
X252702653Y-120766163D01*
X252767319Y-120886332D01*
X252809318Y-120964379D01*
X252840446Y-121003412D01*
X252866855Y-121068097D01*
X252867500Y-121080725D01*
X252867500Y-127513772D01*
X252847815Y-127580811D01*
X252831181Y-127601453D01*
X252765289Y-127667344D01*
X252765286Y-127667348D01*
X252673187Y-127816662D01*
X252673186Y-127816664D01*
X252618001Y-127983203D01*
X252618000Y-127983204D01*
X252607500Y-128085984D01*
X252607500Y-129186015D01*
X252618000Y-129288795D01*
X252618001Y-129288796D01*
X252673186Y-129455335D01*
X252673187Y-129455337D01*
X252765286Y-129604651D01*
X252765289Y-129604655D01*
X252889344Y-129728710D01*
X252889348Y-129728713D01*
X253038662Y-129820812D01*
X253038664Y-129820813D01*
X253038666Y-129820814D01*
X253205203Y-129875999D01*
X253307992Y-129886500D01*
X254088552Y-129886500D01*
X254091308Y-129886561D01*
X254174330Y-129890290D01*
X254189973Y-129888170D01*
X254198164Y-129887062D01*
X254206495Y-129886500D01*
X254928003Y-129886500D01*
X254928008Y-129886500D01*
X255030797Y-129875999D01*
X255197334Y-129820814D01*
X255346655Y-129728711D01*
X255470711Y-129604655D01*
X255562814Y-129455334D01*
X255617999Y-129288797D01*
X255628500Y-129186008D01*
X255628500Y-128085992D01*
X255617999Y-127983203D01*
X255562814Y-127816666D01*
X255561686Y-127814838D01*
X255470713Y-127667348D01*
X255470710Y-127667344D01*
X255404819Y-127601453D01*
X255371334Y-127540130D01*
X255368500Y-127513772D01*
X255368500Y-121078066D01*
X255388185Y-121011027D01*
X255389013Y-121009755D01*
X255448645Y-120919416D01*
X255482805Y-120867666D01*
X255571273Y-120660686D01*
X255621361Y-120441235D01*
X255631460Y-120216368D01*
X255601245Y-119993311D01*
X255531687Y-119779234D01*
X255425022Y-119581017D01*
X255359595Y-119498975D01*
X255284680Y-119405034D01*
X255284678Y-119405032D01*
X255115166Y-119256933D01*
X254921934Y-119141483D01*
X254803945Y-119097201D01*
X254711193Y-119062390D01*
X254489720Y-119022198D01*
X254489717Y-119022198D01*
X254225342Y-119022198D01*
X254205939Y-119020670D01*
X254201630Y-119019987D01*
X254121519Y-119021785D01*
X254117346Y-119021738D01*
X254061673Y-119019237D01*
X254061668Y-119019238D01*
X254043962Y-119021636D01*
X254035632Y-119022198D01*
X253801015Y-119022198D01*
X253762569Y-119025658D01*
X253632983Y-119037320D01*
X253632977Y-119037321D01*
X253416009Y-119097201D01*
X253415996Y-119097206D01*
X253213203Y-119194865D01*
X253213195Y-119194869D01*
X253031097Y-119327171D01*
X253031095Y-119327172D01*
X252875536Y-119489874D01*
X252751533Y-119677731D01*
X252663069Y-119884702D01*
X252663065Y-119884715D01*
X252612980Y-120104155D01*
X252612978Y-120104166D01*
X252607939Y-120216372D01*
X252602880Y-120329028D01*
X224439042Y-120329028D01*
X225864186Y-118903885D01*
X256686670Y-118903885D01*
X256704442Y-119021785D01*
X256725774Y-119163313D01*
X256725775Y-119163315D01*
X256725776Y-119163321D01*
X256803108Y-119414024D01*
X256916937Y-119650394D01*
X256916938Y-119650395D01*
X256916940Y-119650398D01*
X256916942Y-119650402D01*
X257013805Y-119792473D01*
X257064737Y-119867177D01*
X257243184Y-120059499D01*
X257243188Y-120059502D01*
X257243189Y-120059503D01*
X257448313Y-120223084D01*
X257675527Y-120354266D01*
X257919754Y-120450118D01*
X258175540Y-120508500D01*
X258175546Y-120508500D01*
X258175549Y-120508501D01*
X258371670Y-120523198D01*
X258371676Y-120523198D01*
X258502670Y-120523198D01*
X258698790Y-120508501D01*
X258698792Y-120508500D01*
X258698800Y-120508500D01*
X258954586Y-120450118D01*
X259198813Y-120354266D01*
X259426027Y-120223084D01*
X259631151Y-120059503D01*
X259809603Y-119867177D01*
X259957398Y-119650402D01*
X260071233Y-119414021D01*
X260148566Y-119163313D01*
X260187670Y-118903880D01*
X260187670Y-118641516D01*
X260148566Y-118382083D01*
X260071233Y-118131375D01*
X260052286Y-118092032D01*
X259957402Y-117895001D01*
X259957401Y-117895000D01*
X259957400Y-117894999D01*
X259957398Y-117894994D01*
X259809603Y-117678219D01*
X259720357Y-117582034D01*
X259631155Y-117485896D01*
X259523012Y-117399655D01*
X259426027Y-117322312D01*
X259198813Y-117191130D01*
X258954586Y-117095278D01*
X258954581Y-117095276D01*
X258954572Y-117095274D01*
X258736988Y-117045612D01*
X258698800Y-117036896D01*
X258698799Y-117036895D01*
X258698795Y-117036895D01*
X258698790Y-117036894D01*
X258502670Y-117022198D01*
X258502664Y-117022198D01*
X258371676Y-117022198D01*
X258371670Y-117022198D01*
X258175549Y-117036894D01*
X258175544Y-117036895D01*
X257919767Y-117095274D01*
X257919748Y-117095280D01*
X257675526Y-117191130D01*
X257448313Y-117322312D01*
X257243184Y-117485896D01*
X257064737Y-117678218D01*
X256916938Y-117895000D01*
X256916937Y-117895001D01*
X256803108Y-118131371D01*
X256725776Y-118382074D01*
X256725775Y-118382079D01*
X256725774Y-118382083D01*
X256721201Y-118412423D01*
X256686670Y-118641510D01*
X256686670Y-118903885D01*
X225864186Y-118903885D01*
X229714977Y-115053095D01*
X229776300Y-115019610D01*
X229802658Y-115016776D01*
X250041412Y-115016776D01*
X250108451Y-115036461D01*
X250129093Y-115053095D01*
X252570351Y-117494353D01*
X252603836Y-117555676D01*
X252606670Y-117582034D01*
X252606670Y-117822713D01*
X252617170Y-117925493D01*
X252617171Y-117925494D01*
X252672356Y-118092033D01*
X252672357Y-118092035D01*
X252764456Y-118241349D01*
X252764459Y-118241353D01*
X252888514Y-118365408D01*
X252888518Y-118365411D01*
X253037832Y-118457510D01*
X253037834Y-118457511D01*
X253037836Y-118457512D01*
X253204373Y-118512697D01*
X253307162Y-118523198D01*
X254008992Y-118523198D01*
X254028390Y-118524724D01*
X254032711Y-118525409D01*
X254131218Y-118523198D01*
X254927178Y-118523198D01*
X255029967Y-118512697D01*
X255196504Y-118457512D01*
X255345825Y-118365409D01*
X255469881Y-118241353D01*
X255561984Y-118092032D01*
X255617169Y-117925495D01*
X255627670Y-117822706D01*
X255627670Y-116722690D01*
X255617169Y-116619901D01*
X255561984Y-116453364D01*
X255558896Y-116448358D01*
X255469883Y-116304046D01*
X255469880Y-116304042D01*
X255345825Y-116179987D01*
X255345821Y-116179984D01*
X255196507Y-116087885D01*
X255196505Y-116087884D01*
X255113235Y-116060291D01*
X255029967Y-116032699D01*
X255029965Y-116032698D01*
X254927185Y-116022198D01*
X254927178Y-116022198D01*
X254686506Y-116022198D01*
X254619467Y-116002513D01*
X254598825Y-115985879D01*
X251547104Y-112934158D01*
X251542467Y-112928969D01*
X251518255Y-112898608D01*
X251466779Y-112853635D01*
X251463745Y-112850799D01*
X251455277Y-112842331D01*
X251453880Y-112841165D01*
X251422929Y-112815325D01*
X251348750Y-112750516D01*
X251348745Y-112750512D01*
X251348744Y-112750511D01*
X251344989Y-112748267D01*
X251329121Y-112737008D01*
X251325767Y-112734208D01*
X251325766Y-112734207D01*
X251325761Y-112734203D01*
X251258362Y-112695961D01*
X251240088Y-112685592D01*
X251155512Y-112635061D01*
X251155509Y-112635059D01*
X251151417Y-112633524D01*
X251133792Y-112625278D01*
X251129993Y-112623122D01*
X251037001Y-112590583D01*
X250944777Y-112555970D01*
X250944767Y-112555967D01*
X250940471Y-112555188D01*
X250921666Y-112550225D01*
X250917532Y-112548778D01*
X250917527Y-112548777D01*
X250820220Y-112533365D01*
X250723298Y-112515776D01*
X250723295Y-112515776D01*
X250718920Y-112515776D01*
X250699517Y-112514248D01*
X250695208Y-112513565D01*
X250596726Y-112515776D01*
X229223160Y-112515776D01*
X229220403Y-112515714D01*
X229148096Y-112512467D01*
X229137384Y-112511986D01*
X229137383Y-112511986D01*
X229137382Y-112511986D01*
X229109402Y-112515776D01*
X229055043Y-112523139D01*
X229052279Y-112523450D01*
X228969526Y-112530898D01*
X228946335Y-112537297D01*
X228938160Y-112538971D01*
X228914331Y-112542199D01*
X228914316Y-112542203D01*
X228835286Y-112567881D01*
X228832622Y-112568681D01*
X228752550Y-112590780D01*
X228752537Y-112590785D01*
X228730866Y-112601219D01*
X228723125Y-112604324D01*
X228700253Y-112611757D01*
X228700236Y-112611764D01*
X228627081Y-112651130D01*
X228624603Y-112652393D01*
X228549743Y-112688444D01*
X228549732Y-112688450D01*
X228530283Y-112702582D01*
X228523213Y-112707024D01*
X228502036Y-112718420D01*
X228502024Y-112718428D01*
X228437059Y-112770235D01*
X228434846Y-112771920D01*
X228367641Y-112820747D01*
X228367640Y-112820748D01*
X228351010Y-112838140D01*
X228344852Y-112843768D01*
X228326052Y-112858762D01*
X228326040Y-112858773D01*
X228271382Y-112921334D01*
X228269506Y-112923386D01*
X228212084Y-112983446D01*
X228212078Y-112983454D01*
X228198826Y-113003528D01*
X228193770Y-113010168D01*
X228177945Y-113028281D01*
X228148880Y-113076928D01*
X228130114Y-113101008D01*
X222470724Y-118760399D01*
X222316001Y-118915121D01*
X222315997Y-118915125D01*
X222285170Y-118959151D01*
X222281976Y-118963324D01*
X222245532Y-119006976D01*
X222245530Y-119006980D01*
X222220698Y-119050741D01*
X222217561Y-119055706D01*
X222190497Y-119094358D01*
X222190496Y-119094359D01*
X222166392Y-119146049D01*
X222164126Y-119150444D01*
X222134442Y-119202759D01*
X222118911Y-119247141D01*
X222116582Y-119252865D01*
X222098024Y-119292667D01*
X222098020Y-119292677D01*
X222082415Y-119350915D01*
X222081049Y-119355345D01*
X222060101Y-119415209D01*
X222060099Y-119415219D01*
X222054463Y-119450805D01*
X222024533Y-119513939D01*
X221965221Y-119550870D01*
X221899898Y-119551181D01*
X221882922Y-119546633D01*
X221877180Y-119544791D01*
X221831622Y-119527692D01*
X221774054Y-119517245D01*
X221769078Y-119516128D01*
X221715575Y-119501793D01*
X221666925Y-119497536D01*
X221661257Y-119496775D01*
X221610149Y-119487500D01*
X221610145Y-119487500D01*
X221554907Y-119487500D01*
X221549505Y-119487264D01*
X221521049Y-119484774D01*
X221497600Y-119482723D01*
X221497596Y-119482723D01*
X221474146Y-119484774D01*
X221445690Y-119487264D01*
X221440289Y-119487500D01*
X220427097Y-119487500D01*
X220420158Y-119487110D01*
X220396867Y-119484486D01*
X220381566Y-119482762D01*
X220381559Y-119482761D01*
X220336077Y-119485828D01*
X220313352Y-119487360D01*
X220309199Y-119487500D01*
X220297228Y-119487500D01*
X220255290Y-119491274D01*
X220156978Y-119497902D01*
X220156971Y-119497903D01*
X220152717Y-119498975D01*
X220133564Y-119502230D01*
X220129201Y-119502623D01*
X220129192Y-119502624D01*
X220034242Y-119528830D01*
X219938709Y-119552902D01*
X219934712Y-119554718D01*
X219916449Y-119561339D01*
X219912228Y-119562504D01*
X219912220Y-119562507D01*
X219823445Y-119605258D01*
X219733766Y-119645991D01*
X219730162Y-119648488D01*
X219713370Y-119658267D01*
X219709419Y-119660170D01*
X219709408Y-119660176D01*
X219629704Y-119718085D01*
X219548737Y-119774178D01*
X219545629Y-119777286D01*
X219530855Y-119789903D01*
X219527318Y-119792473D01*
X219527311Y-119792478D01*
X219459236Y-119863679D01*
X215500483Y-123822431D01*
X215495297Y-123827066D01*
X215464935Y-123851280D01*
X215464931Y-123851284D01*
X215419963Y-123902752D01*
X215417119Y-123905795D01*
X215408662Y-123914253D01*
X215408652Y-123914264D01*
X215381647Y-123946610D01*
X215316832Y-124020796D01*
X215316828Y-124020802D01*
X215314579Y-124024566D01*
X215303344Y-124040400D01*
X215300532Y-124043769D01*
X215300530Y-124043773D01*
X215251914Y-124129451D01*
X215225085Y-124174357D01*
X215201381Y-124214030D01*
X215199845Y-124218124D01*
X215191606Y-124235737D01*
X215189448Y-124239539D01*
X215189444Y-124239549D01*
X215156905Y-124332538D01*
X215122292Y-124424762D01*
X215122287Y-124424780D01*
X215121507Y-124429080D01*
X215116550Y-124447861D01*
X215115101Y-124452001D01*
X215115100Y-124452007D01*
X215099687Y-124549319D01*
X215082098Y-124646240D01*
X215082098Y-124650619D01*
X215080571Y-124670021D01*
X215079887Y-124674332D01*
X215082098Y-124772813D01*
X215082098Y-130674174D01*
X215081708Y-130681112D01*
X215079390Y-130701685D01*
X215077360Y-130719704D01*
X215077359Y-130719712D01*
X213226500Y-130719712D01*
X213226500Y-116992678D01*
X217078335Y-116992678D01*
X217108360Y-117265559D01*
X217108361Y-117265569D01*
X217177800Y-117531178D01*
X217240285Y-117678219D01*
X217285175Y-117783852D01*
X217428190Y-118018191D01*
X217428197Y-118018201D01*
X217603797Y-118229207D01*
X217603802Y-118229212D01*
X217603807Y-118229218D01*
X217677772Y-118295491D01*
X217808270Y-118412419D01*
X217808272Y-118412420D01*
X217808275Y-118412423D01*
X218037239Y-118563904D01*
X218285819Y-118680433D01*
X218548717Y-118759527D01*
X218820329Y-118799500D01*
X218820334Y-118799500D01*
X219026150Y-118799500D01*
X219078342Y-118795679D01*
X219231403Y-118784477D01*
X219499373Y-118724784D01*
X219755796Y-118626711D01*
X219995207Y-118492347D01*
X220212502Y-118324557D01*
X220403052Y-118126916D01*
X220562794Y-117903637D01*
X220688325Y-117659479D01*
X220776968Y-117399646D01*
X220826834Y-117129674D01*
X220836860Y-116855320D01*
X220806834Y-116582429D01*
X220737394Y-116316818D01*
X220630021Y-116064148D01*
X220487003Y-115829804D01*
X220485264Y-115827715D01*
X220311398Y-115618792D01*
X220311393Y-115618787D01*
X220311389Y-115618782D01*
X220204983Y-115523441D01*
X220106925Y-115435580D01*
X220106922Y-115435578D01*
X220106921Y-115435577D01*
X219877957Y-115284096D01*
X219629377Y-115167567D01*
X219481960Y-115123216D01*
X219366477Y-115088472D01*
X219233513Y-115068904D01*
X219094867Y-115048500D01*
X218889051Y-115048500D01*
X218889046Y-115048500D01*
X218683793Y-115063523D01*
X218683783Y-115063524D01*
X218415827Y-115123214D01*
X218415822Y-115123216D01*
X218159397Y-115221290D01*
X217919990Y-115355652D01*
X217919985Y-115355655D01*
X217702695Y-115523441D01*
X217702686Y-115523450D01*
X217512147Y-115721080D01*
X217512145Y-115721082D01*
X217352403Y-115944361D01*
X217352400Y-115944366D01*
X217226873Y-116188515D01*
X217226869Y-116188525D01*
X217138230Y-116448344D01*
X217138227Y-116448358D01*
X217088363Y-116718314D01*
X217088361Y-116718334D01*
X217078335Y-116992678D01*
X213226500Y-116992678D01*
X213226500Y-113066295D01*
X213246185Y-112999256D01*
X213298989Y-112953501D01*
X213350500Y-112942295D01*
X214865821Y-112942295D01*
X214913273Y-112951733D01*
X215202828Y-113071672D01*
X215548252Y-113171186D01*
X215902645Y-113231400D01*
X216261552Y-113251556D01*
X216620459Y-113231400D01*
X216974852Y-113171186D01*
X217320276Y-113071672D01*
X217609830Y-112951733D01*
X217657283Y-112942295D01*
X219616873Y-112942295D01*
X219616873Y-110863870D01*
X220223500Y-110863870D01*
X220223501Y-110863876D01*
X220229908Y-110923483D01*
X220280202Y-111058328D01*
X220280206Y-111058335D01*
X220366452Y-111173544D01*
X220366455Y-111173547D01*
X220481664Y-111259793D01*
X220481671Y-111259797D01*
X220526618Y-111276561D01*
X220616517Y-111310091D01*
X220676127Y-111316500D01*
X221013098Y-111316499D01*
X221080137Y-111336183D01*
X221125892Y-111388987D01*
X221137098Y-111440499D01*
X221137098Y-114021010D01*
X221117413Y-114088049D01*
X221107389Y-114101541D01*
X221048188Y-114170856D01*
X220912441Y-114392376D01*
X220813025Y-114632389D01*
X220752376Y-114885009D01*
X220731994Y-115144000D01*
X220752376Y-115402990D01*
X220813025Y-115655610D01*
X220912441Y-115895623D01*
X220912443Y-115895627D01*
X220912444Y-115895628D01*
X221048186Y-116117140D01*
X221216909Y-116314689D01*
X221414458Y-116483412D01*
X221635970Y-116619154D01*
X221635972Y-116619154D01*
X221635974Y-116619156D01*
X221697291Y-116644554D01*
X221875988Y-116718573D01*
X222128604Y-116779221D01*
X222387598Y-116799604D01*
X222646592Y-116779221D01*
X222899208Y-116718573D01*
X223139226Y-116619154D01*
X223360738Y-116483412D01*
X223558287Y-116314689D01*
X223727010Y-116117140D01*
X223862752Y-115895628D01*
X223962171Y-115655610D01*
X224022819Y-115402994D01*
X224043202Y-115144000D01*
X224022819Y-114885006D01*
X223962171Y-114632390D01*
X223862752Y-114392372D01*
X223727010Y-114170860D01*
X223727007Y-114170856D01*
X223667807Y-114101541D01*
X223639237Y-114037780D01*
X223638098Y-114021010D01*
X223638098Y-111440499D01*
X223657783Y-111373460D01*
X223710587Y-111327705D01*
X223762098Y-111316499D01*
X224571871Y-111316499D01*
X224571872Y-111316499D01*
X224631483Y-111310091D01*
X224766331Y-111259796D01*
X224881546Y-111173546D01*
X224967796Y-111058331D01*
X225018091Y-110923483D01*
X225024500Y-110863873D01*
X225024499Y-108768128D01*
X225018091Y-108708517D01*
X224967796Y-108573669D01*
X224967795Y-108573668D01*
X224967793Y-108573664D01*
X224881547Y-108458455D01*
X224881544Y-108458452D01*
X224766335Y-108372206D01*
X224766328Y-108372202D01*
X224631482Y-108321908D01*
X224631483Y-108321908D01*
X224571883Y-108315501D01*
X224571881Y-108315500D01*
X224571873Y-108315500D01*
X224571864Y-108315500D01*
X220676129Y-108315500D01*
X220676123Y-108315501D01*
X220616516Y-108321908D01*
X220481671Y-108372202D01*
X220481664Y-108372206D01*
X220366455Y-108458452D01*
X220366452Y-108458455D01*
X220280206Y-108573664D01*
X220280202Y-108573671D01*
X220229908Y-108708517D01*
X220223501Y-108768116D01*
X220223501Y-108768123D01*
X220223500Y-108768135D01*
X220223500Y-110863870D01*
X219616873Y-110863870D01*
X219616873Y-106702000D01*
X219636558Y-106634961D01*
X219689362Y-106589206D01*
X219740873Y-106578000D01*
X256762799Y-106578000D01*
X256829838Y-106597685D01*
G37*
%TD.AperFunction*%
%TD*%
M02*
