%TF.GenerationSoftware,KiCad,Pcbnew,7.0.8*%
%TF.CreationDate,2024-01-13T11:06:47-08:00*%
%TF.ProjectId,Power Distribution 2023-2024,506f7765-7220-4446-9973-747269627574,rev?*%
%TF.SameCoordinates,Original*%
%TF.FileFunction,Legend,Top*%
%TF.FilePolarity,Positive*%
%FSLAX46Y46*%
G04 Gerber Fmt 4.6, Leading zero omitted, Abs format (unit mm)*
G04 Created by KiCad (PCBNEW 7.0.8) date 2024-01-13 11:06:47*
%MOMM*%
%LPD*%
G01*
G04 APERTURE LIST*
%ADD10C,0.200000*%
%ADD11C,0.100000*%
%ADD12C,0.125000*%
%ADD13C,0.150000*%
%ADD14C,0.120000*%
%ADD15C,0.127000*%
G04 APERTURE END LIST*
D10*
X230203006Y-149733409D02*
X229869673Y-149733409D01*
X229869673Y-150257219D02*
X229869673Y-149257219D01*
X229869673Y-149257219D02*
X230345863Y-149257219D01*
X231298244Y-150161980D02*
X231250625Y-150209600D01*
X231250625Y-150209600D02*
X231107768Y-150257219D01*
X231107768Y-150257219D02*
X231012530Y-150257219D01*
X231012530Y-150257219D02*
X230869673Y-150209600D01*
X230869673Y-150209600D02*
X230774435Y-150114361D01*
X230774435Y-150114361D02*
X230726816Y-150019123D01*
X230726816Y-150019123D02*
X230679197Y-149828647D01*
X230679197Y-149828647D02*
X230679197Y-149685790D01*
X230679197Y-149685790D02*
X230726816Y-149495314D01*
X230726816Y-149495314D02*
X230774435Y-149400076D01*
X230774435Y-149400076D02*
X230869673Y-149304838D01*
X230869673Y-149304838D02*
X231012530Y-149257219D01*
X231012530Y-149257219D02*
X231107768Y-149257219D01*
X231107768Y-149257219D02*
X231250625Y-149304838D01*
X231250625Y-149304838D02*
X231298244Y-149352457D01*
X231726816Y-150257219D02*
X231726816Y-149257219D01*
X231726816Y-149257219D02*
X232107768Y-149257219D01*
X232107768Y-149257219D02*
X232203006Y-149304838D01*
X232203006Y-149304838D02*
X232250625Y-149352457D01*
X232250625Y-149352457D02*
X232298244Y-149447695D01*
X232298244Y-149447695D02*
X232298244Y-149590552D01*
X232298244Y-149590552D02*
X232250625Y-149685790D01*
X232250625Y-149685790D02*
X232203006Y-149733409D01*
X232203006Y-149733409D02*
X232107768Y-149781028D01*
X232107768Y-149781028D02*
X231726816Y-149781028D01*
X233488721Y-150257219D02*
X233488721Y-149257219D01*
X233488721Y-149257219D02*
X233869673Y-149257219D01*
X233869673Y-149257219D02*
X233964911Y-149304838D01*
X233964911Y-149304838D02*
X234012530Y-149352457D01*
X234012530Y-149352457D02*
X234060149Y-149447695D01*
X234060149Y-149447695D02*
X234060149Y-149590552D01*
X234060149Y-149590552D02*
X234012530Y-149685790D01*
X234012530Y-149685790D02*
X233964911Y-149733409D01*
X233964911Y-149733409D02*
X233869673Y-149781028D01*
X233869673Y-149781028D02*
X233488721Y-149781028D01*
X234679197Y-149257219D02*
X234869673Y-149257219D01*
X234869673Y-149257219D02*
X234964911Y-149304838D01*
X234964911Y-149304838D02*
X235060149Y-149400076D01*
X235060149Y-149400076D02*
X235107768Y-149590552D01*
X235107768Y-149590552D02*
X235107768Y-149923885D01*
X235107768Y-149923885D02*
X235060149Y-150114361D01*
X235060149Y-150114361D02*
X234964911Y-150209600D01*
X234964911Y-150209600D02*
X234869673Y-150257219D01*
X234869673Y-150257219D02*
X234679197Y-150257219D01*
X234679197Y-150257219D02*
X234583959Y-150209600D01*
X234583959Y-150209600D02*
X234488721Y-150114361D01*
X234488721Y-150114361D02*
X234441102Y-149923885D01*
X234441102Y-149923885D02*
X234441102Y-149590552D01*
X234441102Y-149590552D02*
X234488721Y-149400076D01*
X234488721Y-149400076D02*
X234583959Y-149304838D01*
X234583959Y-149304838D02*
X234679197Y-149257219D01*
X235441102Y-149257219D02*
X235679197Y-150257219D01*
X235679197Y-150257219D02*
X235869673Y-149542933D01*
X235869673Y-149542933D02*
X236060149Y-150257219D01*
X236060149Y-150257219D02*
X236298245Y-149257219D01*
X236679197Y-149733409D02*
X237012530Y-149733409D01*
X237155387Y-150257219D02*
X236679197Y-150257219D01*
X236679197Y-150257219D02*
X236679197Y-149257219D01*
X236679197Y-149257219D02*
X237155387Y-149257219D01*
X238155387Y-150257219D02*
X237822054Y-149781028D01*
X237583959Y-150257219D02*
X237583959Y-149257219D01*
X237583959Y-149257219D02*
X237964911Y-149257219D01*
X237964911Y-149257219D02*
X238060149Y-149304838D01*
X238060149Y-149304838D02*
X238107768Y-149352457D01*
X238107768Y-149352457D02*
X238155387Y-149447695D01*
X238155387Y-149447695D02*
X238155387Y-149590552D01*
X238155387Y-149590552D02*
X238107768Y-149685790D01*
X238107768Y-149685790D02*
X238060149Y-149733409D01*
X238060149Y-149733409D02*
X237964911Y-149781028D01*
X237964911Y-149781028D02*
X237583959Y-149781028D01*
D11*
X230861048Y-151620992D02*
X230975334Y-151659087D01*
X230975334Y-151659087D02*
X231165810Y-151659087D01*
X231165810Y-151659087D02*
X231242001Y-151620992D01*
X231242001Y-151620992D02*
X231280096Y-151582896D01*
X231280096Y-151582896D02*
X231318191Y-151506706D01*
X231318191Y-151506706D02*
X231318191Y-151430515D01*
X231318191Y-151430515D02*
X231280096Y-151354325D01*
X231280096Y-151354325D02*
X231242001Y-151316230D01*
X231242001Y-151316230D02*
X231165810Y-151278134D01*
X231165810Y-151278134D02*
X231013429Y-151240039D01*
X231013429Y-151240039D02*
X230937239Y-151201944D01*
X230937239Y-151201944D02*
X230899144Y-151163849D01*
X230899144Y-151163849D02*
X230861048Y-151087658D01*
X230861048Y-151087658D02*
X230861048Y-151011468D01*
X230861048Y-151011468D02*
X230899144Y-150935277D01*
X230899144Y-150935277D02*
X230937239Y-150897182D01*
X230937239Y-150897182D02*
X231013429Y-150859087D01*
X231013429Y-150859087D02*
X231203906Y-150859087D01*
X231203906Y-150859087D02*
X231318191Y-150897182D01*
X231661049Y-151240039D02*
X231927715Y-151240039D01*
X232042001Y-151659087D02*
X231661049Y-151659087D01*
X231661049Y-151659087D02*
X231661049Y-150859087D01*
X231661049Y-150859087D02*
X232042001Y-150859087D01*
X232384859Y-151659087D02*
X232384859Y-150859087D01*
X232384859Y-150859087D02*
X232651525Y-151430515D01*
X232651525Y-151430515D02*
X232918192Y-150859087D01*
X232918192Y-150859087D02*
X232918192Y-151659087D01*
X233261049Y-151430515D02*
X233642002Y-151430515D01*
X233184859Y-151659087D02*
X233451526Y-150859087D01*
X233451526Y-150859087D02*
X233718192Y-151659087D01*
X234556287Y-150935277D02*
X234594383Y-150897182D01*
X234594383Y-150897182D02*
X234670573Y-150859087D01*
X234670573Y-150859087D02*
X234861049Y-150859087D01*
X234861049Y-150859087D02*
X234937240Y-150897182D01*
X234937240Y-150897182D02*
X234975335Y-150935277D01*
X234975335Y-150935277D02*
X235013430Y-151011468D01*
X235013430Y-151011468D02*
X235013430Y-151087658D01*
X235013430Y-151087658D02*
X234975335Y-151201944D01*
X234975335Y-151201944D02*
X234518192Y-151659087D01*
X234518192Y-151659087D02*
X235013430Y-151659087D01*
X235508669Y-150859087D02*
X235584859Y-150859087D01*
X235584859Y-150859087D02*
X235661050Y-150897182D01*
X235661050Y-150897182D02*
X235699145Y-150935277D01*
X235699145Y-150935277D02*
X235737240Y-151011468D01*
X235737240Y-151011468D02*
X235775335Y-151163849D01*
X235775335Y-151163849D02*
X235775335Y-151354325D01*
X235775335Y-151354325D02*
X235737240Y-151506706D01*
X235737240Y-151506706D02*
X235699145Y-151582896D01*
X235699145Y-151582896D02*
X235661050Y-151620992D01*
X235661050Y-151620992D02*
X235584859Y-151659087D01*
X235584859Y-151659087D02*
X235508669Y-151659087D01*
X235508669Y-151659087D02*
X235432478Y-151620992D01*
X235432478Y-151620992D02*
X235394383Y-151582896D01*
X235394383Y-151582896D02*
X235356288Y-151506706D01*
X235356288Y-151506706D02*
X235318192Y-151354325D01*
X235318192Y-151354325D02*
X235318192Y-151163849D01*
X235318192Y-151163849D02*
X235356288Y-151011468D01*
X235356288Y-151011468D02*
X235394383Y-150935277D01*
X235394383Y-150935277D02*
X235432478Y-150897182D01*
X235432478Y-150897182D02*
X235508669Y-150859087D01*
X236080097Y-150935277D02*
X236118193Y-150897182D01*
X236118193Y-150897182D02*
X236194383Y-150859087D01*
X236194383Y-150859087D02*
X236384859Y-150859087D01*
X236384859Y-150859087D02*
X236461050Y-150897182D01*
X236461050Y-150897182D02*
X236499145Y-150935277D01*
X236499145Y-150935277D02*
X236537240Y-151011468D01*
X236537240Y-151011468D02*
X236537240Y-151087658D01*
X236537240Y-151087658D02*
X236499145Y-151201944D01*
X236499145Y-151201944D02*
X236042002Y-151659087D01*
X236042002Y-151659087D02*
X236537240Y-151659087D01*
X237261050Y-150859087D02*
X236880098Y-150859087D01*
X236880098Y-150859087D02*
X236842002Y-151240039D01*
X236842002Y-151240039D02*
X236880098Y-151201944D01*
X236880098Y-151201944D02*
X236956288Y-151163849D01*
X236956288Y-151163849D02*
X237146764Y-151163849D01*
X237146764Y-151163849D02*
X237222955Y-151201944D01*
X237222955Y-151201944D02*
X237261050Y-151240039D01*
X237261050Y-151240039D02*
X237299145Y-151316230D01*
X237299145Y-151316230D02*
X237299145Y-151506706D01*
X237299145Y-151506706D02*
X237261050Y-151582896D01*
X237261050Y-151582896D02*
X237222955Y-151620992D01*
X237222955Y-151620992D02*
X237146764Y-151659087D01*
X237146764Y-151659087D02*
X236956288Y-151659087D01*
X236956288Y-151659087D02*
X236880098Y-151620992D01*
X236880098Y-151620992D02*
X236842002Y-151582896D01*
D12*
X220960288Y-130651243D02*
X221074574Y-130689338D01*
X221074574Y-130689338D02*
X221265050Y-130689338D01*
X221265050Y-130689338D02*
X221341241Y-130651243D01*
X221341241Y-130651243D02*
X221379336Y-130613147D01*
X221379336Y-130613147D02*
X221417431Y-130536957D01*
X221417431Y-130536957D02*
X221417431Y-130460766D01*
X221417431Y-130460766D02*
X221379336Y-130384576D01*
X221379336Y-130384576D02*
X221341241Y-130346481D01*
X221341241Y-130346481D02*
X221265050Y-130308385D01*
X221265050Y-130308385D02*
X221112669Y-130270290D01*
X221112669Y-130270290D02*
X221036479Y-130232195D01*
X221036479Y-130232195D02*
X220998384Y-130194100D01*
X220998384Y-130194100D02*
X220960288Y-130117909D01*
X220960288Y-130117909D02*
X220960288Y-130041719D01*
X220960288Y-130041719D02*
X220998384Y-129965528D01*
X220998384Y-129965528D02*
X221036479Y-129927433D01*
X221036479Y-129927433D02*
X221112669Y-129889338D01*
X221112669Y-129889338D02*
X221303146Y-129889338D01*
X221303146Y-129889338D02*
X221417431Y-129927433D01*
X221646003Y-129889338D02*
X222103146Y-129889338D01*
X221874574Y-130689338D02*
X221874574Y-129889338D01*
X222369813Y-130270290D02*
X222636479Y-130270290D01*
X222750765Y-130689338D02*
X222369813Y-130689338D01*
X222369813Y-130689338D02*
X222369813Y-129889338D01*
X222369813Y-129889338D02*
X222750765Y-129889338D01*
X223093623Y-130270290D02*
X223360289Y-130270290D01*
X223474575Y-130689338D02*
X223093623Y-130689338D01*
X223093623Y-130689338D02*
X223093623Y-129889338D01*
X223093623Y-129889338D02*
X223474575Y-129889338D01*
X224274576Y-130689338D02*
X224007909Y-130308385D01*
X223817433Y-130689338D02*
X223817433Y-129889338D01*
X223817433Y-129889338D02*
X224122195Y-129889338D01*
X224122195Y-129889338D02*
X224198385Y-129927433D01*
X224198385Y-129927433D02*
X224236480Y-129965528D01*
X224236480Y-129965528D02*
X224274576Y-130041719D01*
X224274576Y-130041719D02*
X224274576Y-130156004D01*
X224274576Y-130156004D02*
X224236480Y-130232195D01*
X224236480Y-130232195D02*
X224198385Y-130270290D01*
X224198385Y-130270290D02*
X224122195Y-130308385D01*
X224122195Y-130308385D02*
X223817433Y-130308385D01*
X243893133Y-129860687D02*
X244350276Y-129860687D01*
X244121704Y-130660687D02*
X244121704Y-129860687D01*
X244616943Y-130241639D02*
X244883609Y-130241639D01*
X244997895Y-130660687D02*
X244616943Y-130660687D01*
X244616943Y-130660687D02*
X244616943Y-129860687D01*
X244616943Y-129860687D02*
X244997895Y-129860687D01*
X245721705Y-130660687D02*
X245340753Y-130660687D01*
X245340753Y-130660687D02*
X245340753Y-129860687D01*
D13*
X242771427Y-148806295D02*
X243228570Y-148806295D01*
X242999998Y-149606295D02*
X242999998Y-148806295D01*
X243609522Y-149606295D02*
X243533332Y-149568200D01*
X243533332Y-149568200D02*
X243495237Y-149530104D01*
X243495237Y-149530104D02*
X243457141Y-149453914D01*
X243457141Y-149453914D02*
X243457141Y-149225342D01*
X243457141Y-149225342D02*
X243495237Y-149149152D01*
X243495237Y-149149152D02*
X243533332Y-149111057D01*
X243533332Y-149111057D02*
X243609522Y-149072961D01*
X243609522Y-149072961D02*
X243723808Y-149072961D01*
X243723808Y-149072961D02*
X243799999Y-149111057D01*
X243799999Y-149111057D02*
X243838094Y-149149152D01*
X243838094Y-149149152D02*
X243876189Y-149225342D01*
X243876189Y-149225342D02*
X243876189Y-149453914D01*
X243876189Y-149453914D02*
X243838094Y-149530104D01*
X243838094Y-149530104D02*
X243799999Y-149568200D01*
X243799999Y-149568200D02*
X243723808Y-149606295D01*
X243723808Y-149606295D02*
X243609522Y-149606295D01*
X244219047Y-149606295D02*
X244219047Y-149072961D01*
X244219047Y-149149152D02*
X244257142Y-149111057D01*
X244257142Y-149111057D02*
X244333332Y-149072961D01*
X244333332Y-149072961D02*
X244447618Y-149072961D01*
X244447618Y-149072961D02*
X244523809Y-149111057D01*
X244523809Y-149111057D02*
X244561904Y-149187247D01*
X244561904Y-149187247D02*
X244561904Y-149606295D01*
X244561904Y-149187247D02*
X244599999Y-149111057D01*
X244599999Y-149111057D02*
X244676190Y-149072961D01*
X244676190Y-149072961D02*
X244790475Y-149072961D01*
X244790475Y-149072961D02*
X244866666Y-149111057D01*
X244866666Y-149111057D02*
X244904761Y-149187247D01*
X244904761Y-149187247D02*
X244904761Y-149606295D01*
X245628571Y-149606295D02*
X245628571Y-149187247D01*
X245628571Y-149187247D02*
X245590476Y-149111057D01*
X245590476Y-149111057D02*
X245514285Y-149072961D01*
X245514285Y-149072961D02*
X245361904Y-149072961D01*
X245361904Y-149072961D02*
X245285714Y-149111057D01*
X245628571Y-149568200D02*
X245552380Y-149606295D01*
X245552380Y-149606295D02*
X245361904Y-149606295D01*
X245361904Y-149606295D02*
X245285714Y-149568200D01*
X245285714Y-149568200D02*
X245247618Y-149492009D01*
X245247618Y-149492009D02*
X245247618Y-149415819D01*
X245247618Y-149415819D02*
X245285714Y-149339628D01*
X245285714Y-149339628D02*
X245361904Y-149301533D01*
X245361904Y-149301533D02*
X245552380Y-149301533D01*
X245552380Y-149301533D02*
X245628571Y-149263438D01*
X245933333Y-149072961D02*
X246352381Y-149072961D01*
X246352381Y-149072961D02*
X245933333Y-149606295D01*
X245933333Y-149606295D02*
X246352381Y-149606295D01*
X247190476Y-148806295D02*
X247723810Y-148806295D01*
X247723810Y-148806295D02*
X247190476Y-149606295D01*
X247190476Y-149606295D02*
X247723810Y-149606295D01*
X248142857Y-149606295D02*
X248066667Y-149568200D01*
X248066667Y-149568200D02*
X248028572Y-149492009D01*
X248028572Y-149492009D02*
X248028572Y-148806295D01*
X248447620Y-149606295D02*
X248447620Y-149072961D01*
X248447620Y-148806295D02*
X248409524Y-148844390D01*
X248409524Y-148844390D02*
X248447620Y-148882485D01*
X248447620Y-148882485D02*
X248485715Y-148844390D01*
X248485715Y-148844390D02*
X248447620Y-148806295D01*
X248447620Y-148806295D02*
X248447620Y-148882485D01*
X248828572Y-149072961D02*
X248828572Y-149606295D01*
X248828572Y-149149152D02*
X248866667Y-149111057D01*
X248866667Y-149111057D02*
X248942857Y-149072961D01*
X248942857Y-149072961D02*
X249057143Y-149072961D01*
X249057143Y-149072961D02*
X249133334Y-149111057D01*
X249133334Y-149111057D02*
X249171429Y-149187247D01*
X249171429Y-149187247D02*
X249171429Y-149606295D01*
X249895239Y-149606295D02*
X249895239Y-148806295D01*
X249895239Y-149568200D02*
X249819048Y-149606295D01*
X249819048Y-149606295D02*
X249666667Y-149606295D01*
X249666667Y-149606295D02*
X249590477Y-149568200D01*
X249590477Y-149568200D02*
X249552382Y-149530104D01*
X249552382Y-149530104D02*
X249514286Y-149453914D01*
X249514286Y-149453914D02*
X249514286Y-149225342D01*
X249514286Y-149225342D02*
X249552382Y-149149152D01*
X249552382Y-149149152D02*
X249590477Y-149111057D01*
X249590477Y-149111057D02*
X249666667Y-149072961D01*
X249666667Y-149072961D02*
X249819048Y-149072961D01*
X249819048Y-149072961D02*
X249895239Y-149111057D01*
X250276192Y-149606295D02*
X250276192Y-149072961D01*
X250276192Y-149225342D02*
X250314287Y-149149152D01*
X250314287Y-149149152D02*
X250352382Y-149111057D01*
X250352382Y-149111057D02*
X250428573Y-149072961D01*
X250428573Y-149072961D02*
X250504763Y-149072961D01*
X251114287Y-149606295D02*
X251114287Y-149187247D01*
X251114287Y-149187247D02*
X251076192Y-149111057D01*
X251076192Y-149111057D02*
X251000001Y-149072961D01*
X251000001Y-149072961D02*
X250847620Y-149072961D01*
X250847620Y-149072961D02*
X250771430Y-149111057D01*
X251114287Y-149568200D02*
X251038096Y-149606295D01*
X251038096Y-149606295D02*
X250847620Y-149606295D01*
X250847620Y-149606295D02*
X250771430Y-149568200D01*
X250771430Y-149568200D02*
X250733334Y-149492009D01*
X250733334Y-149492009D02*
X250733334Y-149415819D01*
X250733334Y-149415819D02*
X250771430Y-149339628D01*
X250771430Y-149339628D02*
X250847620Y-149301533D01*
X250847620Y-149301533D02*
X251038096Y-149301533D01*
X251038096Y-149301533D02*
X251114287Y-149263438D01*
X243380950Y-150856200D02*
X243495236Y-150894295D01*
X243495236Y-150894295D02*
X243685712Y-150894295D01*
X243685712Y-150894295D02*
X243761903Y-150856200D01*
X243761903Y-150856200D02*
X243799998Y-150818104D01*
X243799998Y-150818104D02*
X243838093Y-150741914D01*
X243838093Y-150741914D02*
X243838093Y-150665723D01*
X243838093Y-150665723D02*
X243799998Y-150589533D01*
X243799998Y-150589533D02*
X243761903Y-150551438D01*
X243761903Y-150551438D02*
X243685712Y-150513342D01*
X243685712Y-150513342D02*
X243533331Y-150475247D01*
X243533331Y-150475247D02*
X243457141Y-150437152D01*
X243457141Y-150437152D02*
X243419046Y-150399057D01*
X243419046Y-150399057D02*
X243380950Y-150322866D01*
X243380950Y-150322866D02*
X243380950Y-150246676D01*
X243380950Y-150246676D02*
X243419046Y-150170485D01*
X243419046Y-150170485D02*
X243457141Y-150132390D01*
X243457141Y-150132390D02*
X243533331Y-150094295D01*
X243533331Y-150094295D02*
X243723808Y-150094295D01*
X243723808Y-150094295D02*
X243838093Y-150132390D01*
X244523808Y-150894295D02*
X244523808Y-150475247D01*
X244523808Y-150475247D02*
X244485713Y-150399057D01*
X244485713Y-150399057D02*
X244409522Y-150360961D01*
X244409522Y-150360961D02*
X244257141Y-150360961D01*
X244257141Y-150360961D02*
X244180951Y-150399057D01*
X244523808Y-150856200D02*
X244447617Y-150894295D01*
X244447617Y-150894295D02*
X244257141Y-150894295D01*
X244257141Y-150894295D02*
X244180951Y-150856200D01*
X244180951Y-150856200D02*
X244142855Y-150780009D01*
X244142855Y-150780009D02*
X244142855Y-150703819D01*
X244142855Y-150703819D02*
X244180951Y-150627628D01*
X244180951Y-150627628D02*
X244257141Y-150589533D01*
X244257141Y-150589533D02*
X244447617Y-150589533D01*
X244447617Y-150589533D02*
X244523808Y-150551438D01*
X244904761Y-150894295D02*
X244904761Y-150360961D01*
X244904761Y-150513342D02*
X244942856Y-150437152D01*
X244942856Y-150437152D02*
X244980951Y-150399057D01*
X244980951Y-150399057D02*
X245057142Y-150360961D01*
X245057142Y-150360961D02*
X245133332Y-150360961D01*
X245742856Y-150894295D02*
X245742856Y-150475247D01*
X245742856Y-150475247D02*
X245704761Y-150399057D01*
X245704761Y-150399057D02*
X245628570Y-150360961D01*
X245628570Y-150360961D02*
X245476189Y-150360961D01*
X245476189Y-150360961D02*
X245399999Y-150399057D01*
X245742856Y-150856200D02*
X245666665Y-150894295D01*
X245666665Y-150894295D02*
X245476189Y-150894295D01*
X245476189Y-150894295D02*
X245399999Y-150856200D01*
X245399999Y-150856200D02*
X245361903Y-150780009D01*
X245361903Y-150780009D02*
X245361903Y-150703819D01*
X245361903Y-150703819D02*
X245399999Y-150627628D01*
X245399999Y-150627628D02*
X245476189Y-150589533D01*
X245476189Y-150589533D02*
X245666665Y-150589533D01*
X245666665Y-150589533D02*
X245742856Y-150551438D01*
X246123809Y-150894295D02*
X246123809Y-150094295D01*
X246466666Y-150894295D02*
X246466666Y-150475247D01*
X246466666Y-150475247D02*
X246428571Y-150399057D01*
X246428571Y-150399057D02*
X246352380Y-150360961D01*
X246352380Y-150360961D02*
X246238094Y-150360961D01*
X246238094Y-150360961D02*
X246161904Y-150399057D01*
X246161904Y-150399057D02*
X246123809Y-150437152D01*
X247990476Y-150970485D02*
X247914286Y-150932390D01*
X247914286Y-150932390D02*
X247838095Y-150856200D01*
X247838095Y-150856200D02*
X247723809Y-150741914D01*
X247723809Y-150741914D02*
X247647619Y-150703819D01*
X247647619Y-150703819D02*
X247571428Y-150703819D01*
X247609524Y-150894295D02*
X247533333Y-150856200D01*
X247533333Y-150856200D02*
X247457143Y-150780009D01*
X247457143Y-150780009D02*
X247419047Y-150627628D01*
X247419047Y-150627628D02*
X247419047Y-150360961D01*
X247419047Y-150360961D02*
X247457143Y-150208580D01*
X247457143Y-150208580D02*
X247533333Y-150132390D01*
X247533333Y-150132390D02*
X247609524Y-150094295D01*
X247609524Y-150094295D02*
X247761905Y-150094295D01*
X247761905Y-150094295D02*
X247838095Y-150132390D01*
X247838095Y-150132390D02*
X247914286Y-150208580D01*
X247914286Y-150208580D02*
X247952381Y-150360961D01*
X247952381Y-150360961D02*
X247952381Y-150627628D01*
X247952381Y-150627628D02*
X247914286Y-150780009D01*
X247914286Y-150780009D02*
X247838095Y-150856200D01*
X247838095Y-150856200D02*
X247761905Y-150894295D01*
X247761905Y-150894295D02*
X247609524Y-150894295D01*
X248638095Y-150894295D02*
X248638095Y-150475247D01*
X248638095Y-150475247D02*
X248600000Y-150399057D01*
X248600000Y-150399057D02*
X248523809Y-150360961D01*
X248523809Y-150360961D02*
X248371428Y-150360961D01*
X248371428Y-150360961D02*
X248295238Y-150399057D01*
X248638095Y-150856200D02*
X248561904Y-150894295D01*
X248561904Y-150894295D02*
X248371428Y-150894295D01*
X248371428Y-150894295D02*
X248295238Y-150856200D01*
X248295238Y-150856200D02*
X248257142Y-150780009D01*
X248257142Y-150780009D02*
X248257142Y-150703819D01*
X248257142Y-150703819D02*
X248295238Y-150627628D01*
X248295238Y-150627628D02*
X248371428Y-150589533D01*
X248371428Y-150589533D02*
X248561904Y-150589533D01*
X248561904Y-150589533D02*
X248638095Y-150551438D01*
X249361905Y-150894295D02*
X249361905Y-150094295D01*
X249361905Y-150856200D02*
X249285714Y-150894295D01*
X249285714Y-150894295D02*
X249133333Y-150894295D01*
X249133333Y-150894295D02*
X249057143Y-150856200D01*
X249057143Y-150856200D02*
X249019048Y-150818104D01*
X249019048Y-150818104D02*
X248980952Y-150741914D01*
X248980952Y-150741914D02*
X248980952Y-150513342D01*
X248980952Y-150513342D02*
X249019048Y-150437152D01*
X249019048Y-150437152D02*
X249057143Y-150399057D01*
X249057143Y-150399057D02*
X249133333Y-150360961D01*
X249133333Y-150360961D02*
X249285714Y-150360961D01*
X249285714Y-150360961D02*
X249361905Y-150399057D01*
X250085715Y-150894295D02*
X250085715Y-150475247D01*
X250085715Y-150475247D02*
X250047620Y-150399057D01*
X250047620Y-150399057D02*
X249971429Y-150360961D01*
X249971429Y-150360961D02*
X249819048Y-150360961D01*
X249819048Y-150360961D02*
X249742858Y-150399057D01*
X250085715Y-150856200D02*
X250009524Y-150894295D01*
X250009524Y-150894295D02*
X249819048Y-150894295D01*
X249819048Y-150894295D02*
X249742858Y-150856200D01*
X249742858Y-150856200D02*
X249704762Y-150780009D01*
X249704762Y-150780009D02*
X249704762Y-150703819D01*
X249704762Y-150703819D02*
X249742858Y-150627628D01*
X249742858Y-150627628D02*
X249819048Y-150589533D01*
X249819048Y-150589533D02*
X250009524Y-150589533D01*
X250009524Y-150589533D02*
X250085715Y-150551438D01*
X250466668Y-150894295D02*
X250466668Y-150360961D01*
X250466668Y-150513342D02*
X250504763Y-150437152D01*
X250504763Y-150437152D02*
X250542858Y-150399057D01*
X250542858Y-150399057D02*
X250619049Y-150360961D01*
X250619049Y-150360961D02*
X250695239Y-150360961D01*
D12*
X228946786Y-130576961D02*
X228946786Y-129776961D01*
X229403929Y-130576961D02*
X229061071Y-130119818D01*
X229403929Y-129776961D02*
X228946786Y-130234104D01*
X229746786Y-130576961D02*
X229746786Y-129776961D01*
X230508690Y-130576961D02*
X230127738Y-130576961D01*
X230127738Y-130576961D02*
X230127738Y-129776961D01*
X231156309Y-130576961D02*
X230775357Y-130576961D01*
X230775357Y-130576961D02*
X230775357Y-129776961D01*
X236038573Y-130622592D02*
X236152859Y-130660687D01*
X236152859Y-130660687D02*
X236343335Y-130660687D01*
X236343335Y-130660687D02*
X236419526Y-130622592D01*
X236419526Y-130622592D02*
X236457621Y-130584496D01*
X236457621Y-130584496D02*
X236495716Y-130508306D01*
X236495716Y-130508306D02*
X236495716Y-130432115D01*
X236495716Y-130432115D02*
X236457621Y-130355925D01*
X236457621Y-130355925D02*
X236419526Y-130317830D01*
X236419526Y-130317830D02*
X236343335Y-130279734D01*
X236343335Y-130279734D02*
X236190954Y-130241639D01*
X236190954Y-130241639D02*
X236114764Y-130203544D01*
X236114764Y-130203544D02*
X236076669Y-130165449D01*
X236076669Y-130165449D02*
X236038573Y-130089258D01*
X236038573Y-130089258D02*
X236038573Y-130013068D01*
X236038573Y-130013068D02*
X236076669Y-129936877D01*
X236076669Y-129936877D02*
X236114764Y-129898782D01*
X236114764Y-129898782D02*
X236190954Y-129860687D01*
X236190954Y-129860687D02*
X236381431Y-129860687D01*
X236381431Y-129860687D02*
X236495716Y-129898782D01*
X236800478Y-130432115D02*
X237181431Y-130432115D01*
X236724288Y-130660687D02*
X236990955Y-129860687D01*
X236990955Y-129860687D02*
X237257621Y-130660687D01*
X237790954Y-130241639D02*
X237524288Y-130241639D01*
X237524288Y-130660687D02*
X237524288Y-129860687D01*
X237524288Y-129860687D02*
X237905240Y-129860687D01*
X238210002Y-130241639D02*
X238476668Y-130241639D01*
X238590954Y-130660687D02*
X238210002Y-130660687D01*
X238210002Y-130660687D02*
X238210002Y-129860687D01*
X238210002Y-129860687D02*
X238590954Y-129860687D01*
X238819526Y-129860687D02*
X239276669Y-129860687D01*
X239048097Y-130660687D02*
X239048097Y-129860687D01*
X239695717Y-130279734D02*
X239695717Y-130660687D01*
X239429050Y-129860687D02*
X239695717Y-130279734D01*
X239695717Y-130279734D02*
X239962383Y-129860687D01*
X232988415Y-139988664D02*
X232531272Y-139988664D01*
X232759844Y-139988664D02*
X232759844Y-139188664D01*
X232759844Y-139188664D02*
X232683653Y-139302949D01*
X232683653Y-139302949D02*
X232607463Y-139379140D01*
X232607463Y-139379140D02*
X232531272Y-139417235D01*
X233293177Y-139264854D02*
X233331273Y-139226759D01*
X233331273Y-139226759D02*
X233407463Y-139188664D01*
X233407463Y-139188664D02*
X233597939Y-139188664D01*
X233597939Y-139188664D02*
X233674130Y-139226759D01*
X233674130Y-139226759D02*
X233712225Y-139264854D01*
X233712225Y-139264854D02*
X233750320Y-139341045D01*
X233750320Y-139341045D02*
X233750320Y-139417235D01*
X233750320Y-139417235D02*
X233712225Y-139531521D01*
X233712225Y-139531521D02*
X233255082Y-139988664D01*
X233255082Y-139988664D02*
X233750320Y-139988664D01*
X233978892Y-139188664D02*
X234245559Y-139988664D01*
X234245559Y-139988664D02*
X234512225Y-139188664D01*
X234588416Y-140064854D02*
X235197939Y-140064854D01*
X235388416Y-139988664D02*
X235388416Y-139188664D01*
X235769368Y-139988664D02*
X235769368Y-139188664D01*
X235769368Y-139188664D02*
X236226511Y-139988664D01*
X236226511Y-139988664D02*
X236226511Y-139188664D01*
D13*
X226938925Y-130414729D02*
X226605592Y-130414729D01*
X226605592Y-130938539D02*
X226605592Y-129938539D01*
X226605592Y-129938539D02*
X227081782Y-129938539D01*
X227938925Y-129938539D02*
X227462735Y-129938539D01*
X227462735Y-129938539D02*
X227415116Y-130414729D01*
X227415116Y-130414729D02*
X227462735Y-130367110D01*
X227462735Y-130367110D02*
X227557973Y-130319491D01*
X227557973Y-130319491D02*
X227796068Y-130319491D01*
X227796068Y-130319491D02*
X227891306Y-130367110D01*
X227891306Y-130367110D02*
X227938925Y-130414729D01*
X227938925Y-130414729D02*
X227986544Y-130509967D01*
X227986544Y-130509967D02*
X227986544Y-130748062D01*
X227986544Y-130748062D02*
X227938925Y-130843300D01*
X227938925Y-130843300D02*
X227891306Y-130890920D01*
X227891306Y-130890920D02*
X227796068Y-130938539D01*
X227796068Y-130938539D02*
X227557973Y-130938539D01*
X227557973Y-130938539D02*
X227462735Y-130890920D01*
X227462735Y-130890920D02*
X227415116Y-130843300D01*
X219271897Y-130395194D02*
X218938564Y-130395194D01*
X218938564Y-130919004D02*
X218938564Y-129919004D01*
X218938564Y-129919004D02*
X219414754Y-129919004D01*
X219748088Y-130014242D02*
X219795707Y-129966623D01*
X219795707Y-129966623D02*
X219890945Y-129919004D01*
X219890945Y-129919004D02*
X220129040Y-129919004D01*
X220129040Y-129919004D02*
X220224278Y-129966623D01*
X220224278Y-129966623D02*
X220271897Y-130014242D01*
X220271897Y-130014242D02*
X220319516Y-130109480D01*
X220319516Y-130109480D02*
X220319516Y-130204718D01*
X220319516Y-130204718D02*
X220271897Y-130347575D01*
X220271897Y-130347575D02*
X219700469Y-130919004D01*
X219700469Y-130919004D02*
X220319516Y-130919004D01*
X232333333Y-144454819D02*
X232000000Y-143978628D01*
X231761905Y-144454819D02*
X231761905Y-143454819D01*
X231761905Y-143454819D02*
X232142857Y-143454819D01*
X232142857Y-143454819D02*
X232238095Y-143502438D01*
X232238095Y-143502438D02*
X232285714Y-143550057D01*
X232285714Y-143550057D02*
X232333333Y-143645295D01*
X232333333Y-143645295D02*
X232333333Y-143788152D01*
X232333333Y-143788152D02*
X232285714Y-143883390D01*
X232285714Y-143883390D02*
X232238095Y-143931009D01*
X232238095Y-143931009D02*
X232142857Y-143978628D01*
X232142857Y-143978628D02*
X231761905Y-143978628D01*
X233190476Y-143788152D02*
X233190476Y-144454819D01*
X232952381Y-143407200D02*
X232714286Y-144121485D01*
X232714286Y-144121485D02*
X233333333Y-144121485D01*
X265364109Y-108275980D02*
X265364109Y-108990265D01*
X265364109Y-108990265D02*
X265316490Y-109133122D01*
X265316490Y-109133122D02*
X265221252Y-109228361D01*
X265221252Y-109228361D02*
X265078395Y-109275980D01*
X265078395Y-109275980D02*
X264983157Y-109275980D01*
X265745062Y-108275980D02*
X266364109Y-108275980D01*
X266364109Y-108275980D02*
X266030776Y-108656932D01*
X266030776Y-108656932D02*
X266173633Y-108656932D01*
X266173633Y-108656932D02*
X266268871Y-108704551D01*
X266268871Y-108704551D02*
X266316490Y-108752170D01*
X266316490Y-108752170D02*
X266364109Y-108847408D01*
X266364109Y-108847408D02*
X266364109Y-109085503D01*
X266364109Y-109085503D02*
X266316490Y-109180741D01*
X266316490Y-109180741D02*
X266268871Y-109228361D01*
X266268871Y-109228361D02*
X266173633Y-109275980D01*
X266173633Y-109275980D02*
X265887919Y-109275980D01*
X265887919Y-109275980D02*
X265792681Y-109228361D01*
X265792681Y-109228361D02*
X265745062Y-109180741D01*
D12*
X255831090Y-118370436D02*
X255869185Y-118256150D01*
X255869185Y-118256150D02*
X255869185Y-118065674D01*
X255869185Y-118065674D02*
X255831090Y-117989483D01*
X255831090Y-117989483D02*
X255792994Y-117951388D01*
X255792994Y-117951388D02*
X255716804Y-117913293D01*
X255716804Y-117913293D02*
X255640613Y-117913293D01*
X255640613Y-117913293D02*
X255564423Y-117951388D01*
X255564423Y-117951388D02*
X255526328Y-117989483D01*
X255526328Y-117989483D02*
X255488232Y-118065674D01*
X255488232Y-118065674D02*
X255450137Y-118218055D01*
X255450137Y-118218055D02*
X255412042Y-118294245D01*
X255412042Y-118294245D02*
X255373947Y-118332340D01*
X255373947Y-118332340D02*
X255297756Y-118370436D01*
X255297756Y-118370436D02*
X255221566Y-118370436D01*
X255221566Y-118370436D02*
X255145375Y-118332340D01*
X255145375Y-118332340D02*
X255107280Y-118294245D01*
X255107280Y-118294245D02*
X255069185Y-118218055D01*
X255069185Y-118218055D02*
X255069185Y-118027578D01*
X255069185Y-118027578D02*
X255107280Y-117913293D01*
X255640613Y-117608531D02*
X255640613Y-117227578D01*
X255869185Y-117684721D02*
X255069185Y-117418054D01*
X255069185Y-117418054D02*
X255869185Y-117151388D01*
X255450137Y-116618055D02*
X255450137Y-116884721D01*
X255869185Y-116884721D02*
X255069185Y-116884721D01*
X255069185Y-116884721D02*
X255069185Y-116503769D01*
X255450137Y-116199007D02*
X255450137Y-115932341D01*
X255869185Y-115818055D02*
X255869185Y-116199007D01*
X255869185Y-116199007D02*
X255069185Y-116199007D01*
X255069185Y-116199007D02*
X255069185Y-115818055D01*
X255945375Y-115665674D02*
X255945375Y-115056150D01*
X255069185Y-114713292D02*
X255069185Y-114560911D01*
X255069185Y-114560911D02*
X255107280Y-114484721D01*
X255107280Y-114484721D02*
X255183470Y-114408530D01*
X255183470Y-114408530D02*
X255335851Y-114370435D01*
X255335851Y-114370435D02*
X255602518Y-114370435D01*
X255602518Y-114370435D02*
X255754899Y-114408530D01*
X255754899Y-114408530D02*
X255831090Y-114484721D01*
X255831090Y-114484721D02*
X255869185Y-114560911D01*
X255869185Y-114560911D02*
X255869185Y-114713292D01*
X255869185Y-114713292D02*
X255831090Y-114789483D01*
X255831090Y-114789483D02*
X255754899Y-114865673D01*
X255754899Y-114865673D02*
X255602518Y-114903769D01*
X255602518Y-114903769D02*
X255335851Y-114903769D01*
X255335851Y-114903769D02*
X255183470Y-114865673D01*
X255183470Y-114865673D02*
X255107280Y-114789483D01*
X255107280Y-114789483D02*
X255069185Y-114713292D01*
X255069185Y-114027578D02*
X255716804Y-114027578D01*
X255716804Y-114027578D02*
X255792994Y-113989483D01*
X255792994Y-113989483D02*
X255831090Y-113951388D01*
X255831090Y-113951388D02*
X255869185Y-113875197D01*
X255869185Y-113875197D02*
X255869185Y-113722816D01*
X255869185Y-113722816D02*
X255831090Y-113646626D01*
X255831090Y-113646626D02*
X255792994Y-113608531D01*
X255792994Y-113608531D02*
X255716804Y-113570435D01*
X255716804Y-113570435D02*
X255069185Y-113570435D01*
X255069185Y-113303769D02*
X255069185Y-112846626D01*
X255869185Y-113075198D02*
X255069185Y-113075198D01*
D13*
X217228050Y-126188453D02*
X216894717Y-125712262D01*
X216656622Y-126188453D02*
X216656622Y-125188453D01*
X216656622Y-125188453D02*
X217037574Y-125188453D01*
X217037574Y-125188453D02*
X217132812Y-125236072D01*
X217132812Y-125236072D02*
X217180431Y-125283691D01*
X217180431Y-125283691D02*
X217228050Y-125378929D01*
X217228050Y-125378929D02*
X217228050Y-125521786D01*
X217228050Y-125521786D02*
X217180431Y-125617024D01*
X217180431Y-125617024D02*
X217132812Y-125664643D01*
X217132812Y-125664643D02*
X217037574Y-125712262D01*
X217037574Y-125712262D02*
X216656622Y-125712262D01*
X217609003Y-125283691D02*
X217656622Y-125236072D01*
X217656622Y-125236072D02*
X217751860Y-125188453D01*
X217751860Y-125188453D02*
X217989955Y-125188453D01*
X217989955Y-125188453D02*
X218085193Y-125236072D01*
X218085193Y-125236072D02*
X218132812Y-125283691D01*
X218132812Y-125283691D02*
X218180431Y-125378929D01*
X218180431Y-125378929D02*
X218180431Y-125474167D01*
X218180431Y-125474167D02*
X218132812Y-125617024D01*
X218132812Y-125617024D02*
X217561384Y-126188453D01*
X217561384Y-126188453D02*
X218180431Y-126188453D01*
X244309630Y-111631108D02*
X243976297Y-111154917D01*
X243738202Y-111631108D02*
X243738202Y-110631108D01*
X243738202Y-110631108D02*
X244119154Y-110631108D01*
X244119154Y-110631108D02*
X244214392Y-110678727D01*
X244214392Y-110678727D02*
X244262011Y-110726346D01*
X244262011Y-110726346D02*
X244309630Y-110821584D01*
X244309630Y-110821584D02*
X244309630Y-110964441D01*
X244309630Y-110964441D02*
X244262011Y-111059679D01*
X244262011Y-111059679D02*
X244214392Y-111107298D01*
X244214392Y-111107298D02*
X244119154Y-111154917D01*
X244119154Y-111154917D02*
X243738202Y-111154917D01*
X244642964Y-110631108D02*
X245262011Y-110631108D01*
X245262011Y-110631108D02*
X244928678Y-111012060D01*
X244928678Y-111012060D02*
X245071535Y-111012060D01*
X245071535Y-111012060D02*
X245166773Y-111059679D01*
X245166773Y-111059679D02*
X245214392Y-111107298D01*
X245214392Y-111107298D02*
X245262011Y-111202536D01*
X245262011Y-111202536D02*
X245262011Y-111440631D01*
X245262011Y-111440631D02*
X245214392Y-111535869D01*
X245214392Y-111535869D02*
X245166773Y-111583489D01*
X245166773Y-111583489D02*
X245071535Y-111631108D01*
X245071535Y-111631108D02*
X244785821Y-111631108D01*
X244785821Y-111631108D02*
X244690583Y-111583489D01*
X244690583Y-111583489D02*
X244642964Y-111535869D01*
X243345447Y-97956753D02*
X243345447Y-98671038D01*
X243345447Y-98671038D02*
X243297828Y-98813895D01*
X243297828Y-98813895D02*
X243202590Y-98909134D01*
X243202590Y-98909134D02*
X243059733Y-98956753D01*
X243059733Y-98956753D02*
X242964495Y-98956753D01*
X243726400Y-97956753D02*
X244393066Y-97956753D01*
X244393066Y-97956753D02*
X243964495Y-98956753D01*
D12*
X246173442Y-109358184D02*
X246287728Y-109396279D01*
X246287728Y-109396279D02*
X246478204Y-109396279D01*
X246478204Y-109396279D02*
X246554395Y-109358184D01*
X246554395Y-109358184D02*
X246592490Y-109320088D01*
X246592490Y-109320088D02*
X246630585Y-109243898D01*
X246630585Y-109243898D02*
X246630585Y-109167707D01*
X246630585Y-109167707D02*
X246592490Y-109091517D01*
X246592490Y-109091517D02*
X246554395Y-109053422D01*
X246554395Y-109053422D02*
X246478204Y-109015326D01*
X246478204Y-109015326D02*
X246325823Y-108977231D01*
X246325823Y-108977231D02*
X246249633Y-108939136D01*
X246249633Y-108939136D02*
X246211538Y-108901041D01*
X246211538Y-108901041D02*
X246173442Y-108824850D01*
X246173442Y-108824850D02*
X246173442Y-108748660D01*
X246173442Y-108748660D02*
X246211538Y-108672469D01*
X246211538Y-108672469D02*
X246249633Y-108634374D01*
X246249633Y-108634374D02*
X246325823Y-108596279D01*
X246325823Y-108596279D02*
X246516300Y-108596279D01*
X246516300Y-108596279D02*
X246630585Y-108634374D01*
X246935347Y-109167707D02*
X247316300Y-109167707D01*
X246859157Y-109396279D02*
X247125824Y-108596279D01*
X247125824Y-108596279D02*
X247392490Y-109396279D01*
X247925823Y-108977231D02*
X247659157Y-108977231D01*
X247659157Y-109396279D02*
X247659157Y-108596279D01*
X247659157Y-108596279D02*
X248040109Y-108596279D01*
X248344871Y-108977231D02*
X248611537Y-108977231D01*
X248725823Y-109396279D02*
X248344871Y-109396279D01*
X248344871Y-109396279D02*
X248344871Y-108596279D01*
X248344871Y-108596279D02*
X248725823Y-108596279D01*
X248878205Y-109472469D02*
X249487728Y-109472469D01*
X249678205Y-109396279D02*
X249678205Y-108596279D01*
X250135348Y-109396279D02*
X249792490Y-108939136D01*
X250135348Y-108596279D02*
X249678205Y-109053422D01*
X250478205Y-109396279D02*
X250478205Y-108596279D01*
X251240109Y-109396279D02*
X250859157Y-109396279D01*
X250859157Y-109396279D02*
X250859157Y-108596279D01*
X251887728Y-109396279D02*
X251506776Y-109396279D01*
X251506776Y-109396279D02*
X251506776Y-108596279D01*
D13*
X216591934Y-134708132D02*
X216591934Y-133708132D01*
X216591934Y-133708132D02*
X216830029Y-133708132D01*
X216830029Y-133708132D02*
X216972886Y-133755751D01*
X216972886Y-133755751D02*
X217068124Y-133850989D01*
X217068124Y-133850989D02*
X217115743Y-133946227D01*
X217115743Y-133946227D02*
X217163362Y-134136703D01*
X217163362Y-134136703D02*
X217163362Y-134279560D01*
X217163362Y-134279560D02*
X217115743Y-134470036D01*
X217115743Y-134470036D02*
X217068124Y-134565274D01*
X217068124Y-134565274D02*
X216972886Y-134660513D01*
X216972886Y-134660513D02*
X216830029Y-134708132D01*
X216830029Y-134708132D02*
X216591934Y-134708132D01*
X217544315Y-133803370D02*
X217591934Y-133755751D01*
X217591934Y-133755751D02*
X217687172Y-133708132D01*
X217687172Y-133708132D02*
X217925267Y-133708132D01*
X217925267Y-133708132D02*
X218020505Y-133755751D01*
X218020505Y-133755751D02*
X218068124Y-133803370D01*
X218068124Y-133803370D02*
X218115743Y-133898608D01*
X218115743Y-133898608D02*
X218115743Y-133993846D01*
X218115743Y-133993846D02*
X218068124Y-134136703D01*
X218068124Y-134136703D02*
X217496696Y-134708132D01*
X217496696Y-134708132D02*
X218115743Y-134708132D01*
X234463751Y-130457260D02*
X234130418Y-130457260D01*
X234130418Y-130981070D02*
X234130418Y-129981070D01*
X234130418Y-129981070D02*
X234606608Y-129981070D01*
X234892323Y-129981070D02*
X235511370Y-129981070D01*
X235511370Y-129981070D02*
X235178037Y-130362022D01*
X235178037Y-130362022D02*
X235320894Y-130362022D01*
X235320894Y-130362022D02*
X235416132Y-130409641D01*
X235416132Y-130409641D02*
X235463751Y-130457260D01*
X235463751Y-130457260D02*
X235511370Y-130552498D01*
X235511370Y-130552498D02*
X235511370Y-130790593D01*
X235511370Y-130790593D02*
X235463751Y-130885831D01*
X235463751Y-130885831D02*
X235416132Y-130933451D01*
X235416132Y-130933451D02*
X235320894Y-130981070D01*
X235320894Y-130981070D02*
X235035180Y-130981070D01*
X235035180Y-130981070D02*
X234939942Y-130933451D01*
X234939942Y-130933451D02*
X234892323Y-130885831D01*
X264706001Y-131250291D02*
X264706001Y-131964576D01*
X264706001Y-131964576D02*
X264658382Y-132107433D01*
X264658382Y-132107433D02*
X264563144Y-132202672D01*
X264563144Y-132202672D02*
X264420287Y-132250291D01*
X264420287Y-132250291D02*
X264325049Y-132250291D01*
X265610763Y-131583624D02*
X265610763Y-132250291D01*
X265372668Y-131202672D02*
X265134573Y-131916957D01*
X265134573Y-131916957D02*
X265753620Y-131916957D01*
D12*
X244843672Y-139886507D02*
X244843672Y-140343650D01*
X244843672Y-140115078D02*
X244043672Y-140115078D01*
X244043672Y-140115078D02*
X244157957Y-140191269D01*
X244157957Y-140191269D02*
X244234148Y-140267459D01*
X244234148Y-140267459D02*
X244272243Y-140343650D01*
X244119862Y-139581745D02*
X244081767Y-139543649D01*
X244081767Y-139543649D02*
X244043672Y-139467459D01*
X244043672Y-139467459D02*
X244043672Y-139276983D01*
X244043672Y-139276983D02*
X244081767Y-139200792D01*
X244081767Y-139200792D02*
X244119862Y-139162697D01*
X244119862Y-139162697D02*
X244196053Y-139124602D01*
X244196053Y-139124602D02*
X244272243Y-139124602D01*
X244272243Y-139124602D02*
X244386529Y-139162697D01*
X244386529Y-139162697D02*
X244843672Y-139619840D01*
X244843672Y-139619840D02*
X244843672Y-139124602D01*
X244043672Y-138896030D02*
X244843672Y-138629363D01*
X244843672Y-138629363D02*
X244043672Y-138362697D01*
X244919862Y-138286507D02*
X244919862Y-137676983D01*
X244843672Y-137486506D02*
X244043672Y-137486506D01*
X244843672Y-137105554D02*
X244043672Y-137105554D01*
X244043672Y-137105554D02*
X244843672Y-136648411D01*
X244843672Y-136648411D02*
X244043672Y-136648411D01*
D13*
X220285327Y-97941838D02*
X220285327Y-98656123D01*
X220285327Y-98656123D02*
X220237708Y-98798980D01*
X220237708Y-98798980D02*
X220142470Y-98894219D01*
X220142470Y-98894219D02*
X219999613Y-98941838D01*
X219999613Y-98941838D02*
X219904375Y-98941838D01*
X221237708Y-97941838D02*
X220761518Y-97941838D01*
X220761518Y-97941838D02*
X220713899Y-98418028D01*
X220713899Y-98418028D02*
X220761518Y-98370409D01*
X220761518Y-98370409D02*
X220856756Y-98322790D01*
X220856756Y-98322790D02*
X221094851Y-98322790D01*
X221094851Y-98322790D02*
X221190089Y-98370409D01*
X221190089Y-98370409D02*
X221237708Y-98418028D01*
X221237708Y-98418028D02*
X221285327Y-98513266D01*
X221285327Y-98513266D02*
X221285327Y-98751361D01*
X221285327Y-98751361D02*
X221237708Y-98846599D01*
X221237708Y-98846599D02*
X221190089Y-98894219D01*
X221190089Y-98894219D02*
X221094851Y-98941838D01*
X221094851Y-98941838D02*
X220856756Y-98941838D01*
X220856756Y-98941838D02*
X220761518Y-98894219D01*
X220761518Y-98894219D02*
X220713899Y-98846599D01*
D12*
X227668239Y-109407072D02*
X227287287Y-109407072D01*
X227287287Y-109407072D02*
X227287287Y-108607072D01*
X227744430Y-109483262D02*
X228353953Y-109483262D01*
X228544430Y-109407072D02*
X228544430Y-108607072D01*
X229001573Y-109407072D02*
X228658715Y-108949929D01*
X229001573Y-108607072D02*
X228544430Y-109064215D01*
X229344430Y-109407072D02*
X229344430Y-108607072D01*
X230106334Y-109407072D02*
X229725382Y-109407072D01*
X229725382Y-109407072D02*
X229725382Y-108607072D01*
X230753953Y-109407072D02*
X230373001Y-109407072D01*
X230373001Y-109407072D02*
X230373001Y-108607072D01*
D13*
X231819631Y-97925306D02*
X231819631Y-98639591D01*
X231819631Y-98639591D02*
X231772012Y-98782448D01*
X231772012Y-98782448D02*
X231676774Y-98877687D01*
X231676774Y-98877687D02*
X231533917Y-98925306D01*
X231533917Y-98925306D02*
X231438679Y-98925306D01*
X232724393Y-97925306D02*
X232533917Y-97925306D01*
X232533917Y-97925306D02*
X232438679Y-97972925D01*
X232438679Y-97972925D02*
X232391060Y-98020544D01*
X232391060Y-98020544D02*
X232295822Y-98163401D01*
X232295822Y-98163401D02*
X232248203Y-98353877D01*
X232248203Y-98353877D02*
X232248203Y-98734829D01*
X232248203Y-98734829D02*
X232295822Y-98830067D01*
X232295822Y-98830067D02*
X232343441Y-98877687D01*
X232343441Y-98877687D02*
X232438679Y-98925306D01*
X232438679Y-98925306D02*
X232629155Y-98925306D01*
X232629155Y-98925306D02*
X232724393Y-98877687D01*
X232724393Y-98877687D02*
X232772012Y-98830067D01*
X232772012Y-98830067D02*
X232819631Y-98734829D01*
X232819631Y-98734829D02*
X232819631Y-98496734D01*
X232819631Y-98496734D02*
X232772012Y-98401496D01*
X232772012Y-98401496D02*
X232724393Y-98353877D01*
X232724393Y-98353877D02*
X232629155Y-98306258D01*
X232629155Y-98306258D02*
X232438679Y-98306258D01*
X232438679Y-98306258D02*
X232343441Y-98353877D01*
X232343441Y-98353877D02*
X232295822Y-98401496D01*
X232295822Y-98401496D02*
X232248203Y-98496734D01*
D12*
X236421022Y-109407072D02*
X236154355Y-109026119D01*
X235963879Y-109407072D02*
X235963879Y-108607072D01*
X235963879Y-108607072D02*
X236268641Y-108607072D01*
X236268641Y-108607072D02*
X236344831Y-108645167D01*
X236344831Y-108645167D02*
X236382926Y-108683262D01*
X236382926Y-108683262D02*
X236421022Y-108759453D01*
X236421022Y-108759453D02*
X236421022Y-108873738D01*
X236421022Y-108873738D02*
X236382926Y-108949929D01*
X236382926Y-108949929D02*
X236344831Y-108988024D01*
X236344831Y-108988024D02*
X236268641Y-109026119D01*
X236268641Y-109026119D02*
X235963879Y-109026119D01*
X236573403Y-109483262D02*
X237182926Y-109483262D01*
X237373403Y-109407072D02*
X237373403Y-108607072D01*
X237830546Y-109407072D02*
X237487688Y-108949929D01*
X237830546Y-108607072D02*
X237373403Y-109064215D01*
X238173403Y-109407072D02*
X238173403Y-108607072D01*
X238935307Y-109407072D02*
X238554355Y-109407072D01*
X238554355Y-109407072D02*
X238554355Y-108607072D01*
X239582926Y-109407072D02*
X239201974Y-109407072D01*
X239201974Y-109407072D02*
X239201974Y-108607072D01*
D13*
X227702158Y-111416528D02*
X227368825Y-110940337D01*
X227130730Y-111416528D02*
X227130730Y-110416528D01*
X227130730Y-110416528D02*
X227511682Y-110416528D01*
X227511682Y-110416528D02*
X227606920Y-110464147D01*
X227606920Y-110464147D02*
X227654539Y-110511766D01*
X227654539Y-110511766D02*
X227702158Y-110607004D01*
X227702158Y-110607004D02*
X227702158Y-110749861D01*
X227702158Y-110749861D02*
X227654539Y-110845099D01*
X227654539Y-110845099D02*
X227606920Y-110892718D01*
X227606920Y-110892718D02*
X227511682Y-110940337D01*
X227511682Y-110940337D02*
X227130730Y-110940337D01*
X228606920Y-110416528D02*
X228130730Y-110416528D01*
X228130730Y-110416528D02*
X228083111Y-110892718D01*
X228083111Y-110892718D02*
X228130730Y-110845099D01*
X228130730Y-110845099D02*
X228225968Y-110797480D01*
X228225968Y-110797480D02*
X228464063Y-110797480D01*
X228464063Y-110797480D02*
X228559301Y-110845099D01*
X228559301Y-110845099D02*
X228606920Y-110892718D01*
X228606920Y-110892718D02*
X228654539Y-110987956D01*
X228654539Y-110987956D02*
X228654539Y-111226051D01*
X228654539Y-111226051D02*
X228606920Y-111321289D01*
X228606920Y-111321289D02*
X228559301Y-111368909D01*
X228559301Y-111368909D02*
X228464063Y-111416528D01*
X228464063Y-111416528D02*
X228225968Y-111416528D01*
X228225968Y-111416528D02*
X228130730Y-111368909D01*
X228130730Y-111368909D02*
X228083111Y-111321289D01*
X252723518Y-117989338D02*
X252390185Y-117513147D01*
X252152090Y-117989338D02*
X252152090Y-116989338D01*
X252152090Y-116989338D02*
X252533042Y-116989338D01*
X252533042Y-116989338D02*
X252628280Y-117036957D01*
X252628280Y-117036957D02*
X252675899Y-117084576D01*
X252675899Y-117084576D02*
X252723518Y-117179814D01*
X252723518Y-117179814D02*
X252723518Y-117322671D01*
X252723518Y-117322671D02*
X252675899Y-117417909D01*
X252675899Y-117417909D02*
X252628280Y-117465528D01*
X252628280Y-117465528D02*
X252533042Y-117513147D01*
X252533042Y-117513147D02*
X252152090Y-117513147D01*
X253675899Y-117989338D02*
X253104471Y-117989338D01*
X253390185Y-117989338D02*
X253390185Y-116989338D01*
X253390185Y-116989338D02*
X253294947Y-117132195D01*
X253294947Y-117132195D02*
X253199709Y-117227433D01*
X253199709Y-117227433D02*
X253104471Y-117275052D01*
X252161022Y-126637455D02*
X252161022Y-125637455D01*
X252161022Y-125637455D02*
X252399117Y-125637455D01*
X252399117Y-125637455D02*
X252541974Y-125685074D01*
X252541974Y-125685074D02*
X252637212Y-125780312D01*
X252637212Y-125780312D02*
X252684831Y-125875550D01*
X252684831Y-125875550D02*
X252732450Y-126066026D01*
X252732450Y-126066026D02*
X252732450Y-126208883D01*
X252732450Y-126208883D02*
X252684831Y-126399359D01*
X252684831Y-126399359D02*
X252637212Y-126494597D01*
X252637212Y-126494597D02*
X252541974Y-126589836D01*
X252541974Y-126589836D02*
X252399117Y-126637455D01*
X252399117Y-126637455D02*
X252161022Y-126637455D01*
X253684831Y-126637455D02*
X253113403Y-126637455D01*
X253399117Y-126637455D02*
X253399117Y-125637455D01*
X253399117Y-125637455D02*
X253303879Y-125780312D01*
X253303879Y-125780312D02*
X253208641Y-125875550D01*
X253208641Y-125875550D02*
X253113403Y-125923169D01*
X235261905Y-144454819D02*
X235261905Y-143454819D01*
X235261905Y-143454819D02*
X235500000Y-143454819D01*
X235500000Y-143454819D02*
X235642857Y-143502438D01*
X235642857Y-143502438D02*
X235738095Y-143597676D01*
X235738095Y-143597676D02*
X235785714Y-143692914D01*
X235785714Y-143692914D02*
X235833333Y-143883390D01*
X235833333Y-143883390D02*
X235833333Y-144026247D01*
X235833333Y-144026247D02*
X235785714Y-144216723D01*
X235785714Y-144216723D02*
X235738095Y-144311961D01*
X235738095Y-144311961D02*
X235642857Y-144407200D01*
X235642857Y-144407200D02*
X235500000Y-144454819D01*
X235500000Y-144454819D02*
X235261905Y-144454819D01*
X236690476Y-143788152D02*
X236690476Y-144454819D01*
X236452381Y-143407200D02*
X236214286Y-144121485D01*
X236214286Y-144121485D02*
X236833333Y-144121485D01*
X242107496Y-130420751D02*
X241774163Y-130420751D01*
X241774163Y-130944561D02*
X241774163Y-129944561D01*
X241774163Y-129944561D02*
X242250353Y-129944561D01*
X243155115Y-130944561D02*
X242583687Y-130944561D01*
X242869401Y-130944561D02*
X242869401Y-129944561D01*
X242869401Y-129944561D02*
X242774163Y-130087418D01*
X242774163Y-130087418D02*
X242678925Y-130182656D01*
X242678925Y-130182656D02*
X242583687Y-130230275D01*
X226746021Y-139931009D02*
X226412688Y-139931009D01*
X226412688Y-140454819D02*
X226412688Y-139454819D01*
X226412688Y-139454819D02*
X226888878Y-139454819D01*
X227698402Y-139788152D02*
X227698402Y-140454819D01*
X227460307Y-139407200D02*
X227222212Y-140121485D01*
X227222212Y-140121485D02*
X227841259Y-140121485D01*
X220619844Y-111465617D02*
X220619844Y-110465617D01*
X220619844Y-110465617D02*
X220857939Y-110465617D01*
X220857939Y-110465617D02*
X221000796Y-110513236D01*
X221000796Y-110513236D02*
X221096034Y-110608474D01*
X221096034Y-110608474D02*
X221143653Y-110703712D01*
X221143653Y-110703712D02*
X221191272Y-110894188D01*
X221191272Y-110894188D02*
X221191272Y-111037045D01*
X221191272Y-111037045D02*
X221143653Y-111227521D01*
X221143653Y-111227521D02*
X221096034Y-111322759D01*
X221096034Y-111322759D02*
X221000796Y-111417998D01*
X221000796Y-111417998D02*
X220857939Y-111465617D01*
X220857939Y-111465617D02*
X220619844Y-111465617D01*
X222096034Y-110465617D02*
X221619844Y-110465617D01*
X221619844Y-110465617D02*
X221572225Y-110941807D01*
X221572225Y-110941807D02*
X221619844Y-110894188D01*
X221619844Y-110894188D02*
X221715082Y-110846569D01*
X221715082Y-110846569D02*
X221953177Y-110846569D01*
X221953177Y-110846569D02*
X222048415Y-110894188D01*
X222048415Y-110894188D02*
X222096034Y-110941807D01*
X222096034Y-110941807D02*
X222143653Y-111037045D01*
X222143653Y-111037045D02*
X222143653Y-111275140D01*
X222143653Y-111275140D02*
X222096034Y-111370378D01*
X222096034Y-111370378D02*
X222048415Y-111417998D01*
X222048415Y-111417998D02*
X221953177Y-111465617D01*
X221953177Y-111465617D02*
X221715082Y-111465617D01*
X221715082Y-111465617D02*
X221619844Y-111417998D01*
X221619844Y-111417998D02*
X221572225Y-111370378D01*
X265497946Y-119641248D02*
X265497946Y-120355533D01*
X265497946Y-120355533D02*
X265450327Y-120498390D01*
X265450327Y-120498390D02*
X265355089Y-120593629D01*
X265355089Y-120593629D02*
X265212232Y-120641248D01*
X265212232Y-120641248D02*
X265116994Y-120641248D01*
X266497946Y-120641248D02*
X265926518Y-120641248D01*
X266212232Y-120641248D02*
X266212232Y-119641248D01*
X266212232Y-119641248D02*
X266116994Y-119784105D01*
X266116994Y-119784105D02*
X266021756Y-119879343D01*
X266021756Y-119879343D02*
X265926518Y-119926962D01*
D12*
X255031483Y-128251110D02*
X255031483Y-127793967D01*
X255831483Y-128022539D02*
X255031483Y-128022539D01*
X255412435Y-127527300D02*
X255412435Y-127260634D01*
X255831483Y-127146348D02*
X255831483Y-127527300D01*
X255831483Y-127527300D02*
X255031483Y-127527300D01*
X255031483Y-127527300D02*
X255031483Y-127146348D01*
X255831483Y-126422538D02*
X255831483Y-126803490D01*
X255831483Y-126803490D02*
X255031483Y-126803490D01*
X255907673Y-126346348D02*
X255907673Y-125736824D01*
X255031483Y-125393966D02*
X255031483Y-125241585D01*
X255031483Y-125241585D02*
X255069578Y-125165395D01*
X255069578Y-125165395D02*
X255145768Y-125089204D01*
X255145768Y-125089204D02*
X255298149Y-125051109D01*
X255298149Y-125051109D02*
X255564816Y-125051109D01*
X255564816Y-125051109D02*
X255717197Y-125089204D01*
X255717197Y-125089204D02*
X255793388Y-125165395D01*
X255793388Y-125165395D02*
X255831483Y-125241585D01*
X255831483Y-125241585D02*
X255831483Y-125393966D01*
X255831483Y-125393966D02*
X255793388Y-125470157D01*
X255793388Y-125470157D02*
X255717197Y-125546347D01*
X255717197Y-125546347D02*
X255564816Y-125584443D01*
X255564816Y-125584443D02*
X255298149Y-125584443D01*
X255298149Y-125584443D02*
X255145768Y-125546347D01*
X255145768Y-125546347D02*
X255069578Y-125470157D01*
X255069578Y-125470157D02*
X255031483Y-125393966D01*
X255031483Y-124708252D02*
X255679102Y-124708252D01*
X255679102Y-124708252D02*
X255755292Y-124670157D01*
X255755292Y-124670157D02*
X255793388Y-124632062D01*
X255793388Y-124632062D02*
X255831483Y-124555871D01*
X255831483Y-124555871D02*
X255831483Y-124403490D01*
X255831483Y-124403490D02*
X255793388Y-124327300D01*
X255793388Y-124327300D02*
X255755292Y-124289205D01*
X255755292Y-124289205D02*
X255679102Y-124251109D01*
X255679102Y-124251109D02*
X255031483Y-124251109D01*
X255031483Y-123984443D02*
X255031483Y-123527300D01*
X255831483Y-123755872D02*
X255031483Y-123755872D01*
X255377664Y-151557224D02*
X255301474Y-151519129D01*
X255301474Y-151519129D02*
X255187188Y-151519129D01*
X255187188Y-151519129D02*
X255072902Y-151557224D01*
X255072902Y-151557224D02*
X254996712Y-151633414D01*
X254996712Y-151633414D02*
X254958617Y-151709605D01*
X254958617Y-151709605D02*
X254920521Y-151861986D01*
X254920521Y-151861986D02*
X254920521Y-151976272D01*
X254920521Y-151976272D02*
X254958617Y-152128653D01*
X254958617Y-152128653D02*
X254996712Y-152204843D01*
X254996712Y-152204843D02*
X255072902Y-152281034D01*
X255072902Y-152281034D02*
X255187188Y-152319129D01*
X255187188Y-152319129D02*
X255263379Y-152319129D01*
X255263379Y-152319129D02*
X255377664Y-152281034D01*
X255377664Y-152281034D02*
X255415760Y-152242938D01*
X255415760Y-152242938D02*
X255415760Y-151976272D01*
X255415760Y-151976272D02*
X255263379Y-151976272D01*
X255758617Y-152319129D02*
X255758617Y-151519129D01*
X255758617Y-151519129D02*
X256215760Y-152319129D01*
X256215760Y-152319129D02*
X256215760Y-151519129D01*
X256596712Y-152319129D02*
X256596712Y-151519129D01*
X256596712Y-151519129D02*
X256787188Y-151519129D01*
X256787188Y-151519129D02*
X256901474Y-151557224D01*
X256901474Y-151557224D02*
X256977664Y-151633414D01*
X256977664Y-151633414D02*
X257015759Y-151709605D01*
X257015759Y-151709605D02*
X257053855Y-151861986D01*
X257053855Y-151861986D02*
X257053855Y-151976272D01*
X257053855Y-151976272D02*
X257015759Y-152128653D01*
X257015759Y-152128653D02*
X256977664Y-152204843D01*
X256977664Y-152204843D02*
X256901474Y-152281034D01*
X256901474Y-152281034D02*
X256787188Y-152319129D01*
X256787188Y-152319129D02*
X256596712Y-152319129D01*
X223511392Y-151852885D02*
X223054249Y-151852885D01*
X223282821Y-151852885D02*
X223282821Y-151052885D01*
X223282821Y-151052885D02*
X223206630Y-151167170D01*
X223206630Y-151167170D02*
X223130440Y-151243361D01*
X223130440Y-151243361D02*
X223054249Y-151281456D01*
X223816154Y-151129075D02*
X223854250Y-151090980D01*
X223854250Y-151090980D02*
X223930440Y-151052885D01*
X223930440Y-151052885D02*
X224120916Y-151052885D01*
X224120916Y-151052885D02*
X224197107Y-151090980D01*
X224197107Y-151090980D02*
X224235202Y-151129075D01*
X224235202Y-151129075D02*
X224273297Y-151205266D01*
X224273297Y-151205266D02*
X224273297Y-151281456D01*
X224273297Y-151281456D02*
X224235202Y-151395742D01*
X224235202Y-151395742D02*
X223778059Y-151852885D01*
X223778059Y-151852885D02*
X224273297Y-151852885D01*
X224501869Y-151052885D02*
X224768536Y-151852885D01*
X224768536Y-151852885D02*
X225035202Y-151052885D01*
D13*
X213982291Y-134074819D02*
X213982291Y-134789104D01*
X213982291Y-134789104D02*
X213934672Y-134931961D01*
X213934672Y-134931961D02*
X213839434Y-135027200D01*
X213839434Y-135027200D02*
X213696577Y-135074819D01*
X213696577Y-135074819D02*
X213601339Y-135074819D01*
X214410863Y-134170057D02*
X214458482Y-134122438D01*
X214458482Y-134122438D02*
X214553720Y-134074819D01*
X214553720Y-134074819D02*
X214791815Y-134074819D01*
X214791815Y-134074819D02*
X214887053Y-134122438D01*
X214887053Y-134122438D02*
X214934672Y-134170057D01*
X214934672Y-134170057D02*
X214982291Y-134265295D01*
X214982291Y-134265295D02*
X214982291Y-134360533D01*
X214982291Y-134360533D02*
X214934672Y-134503390D01*
X214934672Y-134503390D02*
X214363244Y-135074819D01*
X214363244Y-135074819D02*
X214982291Y-135074819D01*
D12*
X224174500Y-136895237D02*
X224136404Y-137009523D01*
X224136404Y-137009523D02*
X224136404Y-137199999D01*
X224136404Y-137199999D02*
X224174500Y-137276190D01*
X224174500Y-137276190D02*
X224212595Y-137314285D01*
X224212595Y-137314285D02*
X224288785Y-137352380D01*
X224288785Y-137352380D02*
X224364976Y-137352380D01*
X224364976Y-137352380D02*
X224441166Y-137314285D01*
X224441166Y-137314285D02*
X224479261Y-137276190D01*
X224479261Y-137276190D02*
X224517357Y-137199999D01*
X224517357Y-137199999D02*
X224555452Y-137047618D01*
X224555452Y-137047618D02*
X224593547Y-136971428D01*
X224593547Y-136971428D02*
X224631642Y-136933333D01*
X224631642Y-136933333D02*
X224707833Y-136895237D01*
X224707833Y-136895237D02*
X224784023Y-136895237D01*
X224784023Y-136895237D02*
X224860214Y-136933333D01*
X224860214Y-136933333D02*
X224898309Y-136971428D01*
X224898309Y-136971428D02*
X224936404Y-137047618D01*
X224936404Y-137047618D02*
X224936404Y-137238095D01*
X224936404Y-137238095D02*
X224898309Y-137352380D01*
X224936404Y-137580952D02*
X224936404Y-138038095D01*
X224136404Y-137809523D02*
X224936404Y-137809523D01*
X224555452Y-138304762D02*
X224555452Y-138571428D01*
X224136404Y-138685714D02*
X224136404Y-138304762D01*
X224136404Y-138304762D02*
X224936404Y-138304762D01*
X224936404Y-138304762D02*
X224936404Y-138685714D01*
X224555452Y-139028572D02*
X224555452Y-139295238D01*
X224136404Y-139409524D02*
X224136404Y-139028572D01*
X224136404Y-139028572D02*
X224936404Y-139028572D01*
X224936404Y-139028572D02*
X224936404Y-139409524D01*
X224136404Y-140209525D02*
X224517357Y-139942858D01*
X224136404Y-139752382D02*
X224936404Y-139752382D01*
X224936404Y-139752382D02*
X224936404Y-140057144D01*
X224936404Y-140057144D02*
X224898309Y-140133334D01*
X224898309Y-140133334D02*
X224860214Y-140171429D01*
X224860214Y-140171429D02*
X224784023Y-140209525D01*
X224784023Y-140209525D02*
X224669738Y-140209525D01*
X224669738Y-140209525D02*
X224593547Y-140171429D01*
X224593547Y-140171429D02*
X224555452Y-140133334D01*
X224555452Y-140133334D02*
X224517357Y-140057144D01*
X224517357Y-140057144D02*
X224517357Y-139752382D01*
X224060214Y-140361906D02*
X224060214Y-140971429D01*
X224936404Y-141314287D02*
X224936404Y-141466668D01*
X224936404Y-141466668D02*
X224898309Y-141542858D01*
X224898309Y-141542858D02*
X224822119Y-141619049D01*
X224822119Y-141619049D02*
X224669738Y-141657144D01*
X224669738Y-141657144D02*
X224403071Y-141657144D01*
X224403071Y-141657144D02*
X224250690Y-141619049D01*
X224250690Y-141619049D02*
X224174500Y-141542858D01*
X224174500Y-141542858D02*
X224136404Y-141466668D01*
X224136404Y-141466668D02*
X224136404Y-141314287D01*
X224136404Y-141314287D02*
X224174500Y-141238096D01*
X224174500Y-141238096D02*
X224250690Y-141161906D01*
X224250690Y-141161906D02*
X224403071Y-141123810D01*
X224403071Y-141123810D02*
X224669738Y-141123810D01*
X224669738Y-141123810D02*
X224822119Y-141161906D01*
X224822119Y-141161906D02*
X224898309Y-141238096D01*
X224898309Y-141238096D02*
X224936404Y-141314287D01*
X224936404Y-142000001D02*
X224288785Y-142000001D01*
X224288785Y-142000001D02*
X224212595Y-142038096D01*
X224212595Y-142038096D02*
X224174500Y-142076191D01*
X224174500Y-142076191D02*
X224136404Y-142152382D01*
X224136404Y-142152382D02*
X224136404Y-142304763D01*
X224136404Y-142304763D02*
X224174500Y-142380953D01*
X224174500Y-142380953D02*
X224212595Y-142419048D01*
X224212595Y-142419048D02*
X224288785Y-142457144D01*
X224288785Y-142457144D02*
X224936404Y-142457144D01*
X224936404Y-142723810D02*
X224936404Y-143180953D01*
X224136404Y-142952381D02*
X224936404Y-142952381D01*
D13*
X252802457Y-111598379D02*
X252802457Y-110598379D01*
X252802457Y-110598379D02*
X253040552Y-110598379D01*
X253040552Y-110598379D02*
X253183409Y-110645998D01*
X253183409Y-110645998D02*
X253278647Y-110741236D01*
X253278647Y-110741236D02*
X253326266Y-110836474D01*
X253326266Y-110836474D02*
X253373885Y-111026950D01*
X253373885Y-111026950D02*
X253373885Y-111169807D01*
X253373885Y-111169807D02*
X253326266Y-111360283D01*
X253326266Y-111360283D02*
X253278647Y-111455521D01*
X253278647Y-111455521D02*
X253183409Y-111550760D01*
X253183409Y-111550760D02*
X253040552Y-111598379D01*
X253040552Y-111598379D02*
X252802457Y-111598379D01*
X253707219Y-110598379D02*
X254326266Y-110598379D01*
X254326266Y-110598379D02*
X253992933Y-110979331D01*
X253992933Y-110979331D02*
X254135790Y-110979331D01*
X254135790Y-110979331D02*
X254231028Y-111026950D01*
X254231028Y-111026950D02*
X254278647Y-111074569D01*
X254278647Y-111074569D02*
X254326266Y-111169807D01*
X254326266Y-111169807D02*
X254326266Y-111407902D01*
X254326266Y-111407902D02*
X254278647Y-111503140D01*
X254278647Y-111503140D02*
X254231028Y-111550760D01*
X254231028Y-111550760D02*
X254135790Y-111598379D01*
X254135790Y-111598379D02*
X253850076Y-111598379D01*
X253850076Y-111598379D02*
X253754838Y-111550760D01*
X253754838Y-111550760D02*
X253707219Y-111503140D01*
D14*
%TO.C,F5*%
X226410000Y-129600000D02*
X233350000Y-129600000D01*
X233350000Y-129600000D02*
X233350000Y-113400000D01*
X227880000Y-123100000D02*
X227880000Y-119900000D01*
X229880000Y-122250000D02*
X229880000Y-120750000D01*
X231880000Y-119900000D02*
X231880000Y-123100000D01*
X226410000Y-113400000D02*
X226410000Y-129600000D01*
X233350000Y-113400000D02*
X226410000Y-113400000D01*
%TO.C,F2*%
X218790000Y-129600000D02*
X225730000Y-129600000D01*
X225730000Y-129600000D02*
X225730000Y-113400000D01*
X220260000Y-123100000D02*
X220260000Y-119900000D01*
X222260000Y-122250000D02*
X222260000Y-120750000D01*
X224260000Y-119900000D02*
X224260000Y-123100000D01*
X218790000Y-113400000D02*
X218790000Y-129600000D01*
X225730000Y-113400000D02*
X218790000Y-113400000D01*
%TO.C,R4*%
X232734209Y-142708749D02*
X232280081Y-142708749D01*
X232734209Y-141238749D02*
X232280081Y-141238749D01*
%TO.C,J3*%
X265612214Y-109571100D02*
X266612214Y-110571100D01*
X256492214Y-109571100D02*
X265612214Y-109571100D01*
X256492214Y-109571100D02*
X256492214Y-111996100D01*
X266612214Y-110571100D02*
X266612214Y-118441100D01*
X256492214Y-114016100D02*
X256492214Y-115354333D01*
X266612214Y-118441100D02*
X265612214Y-119441100D01*
X265612214Y-119441100D02*
X256492214Y-119441100D01*
X256492214Y-119441100D02*
X256492214Y-116657867D01*
%TO.C,R2*%
X218079495Y-127965091D02*
X218079495Y-128419219D01*
X216609495Y-127965091D02*
X216609495Y-128419219D01*
%TO.C,R3*%
X247059829Y-110355103D02*
X247513957Y-110355103D01*
X247059829Y-111825103D02*
X247513957Y-111825103D01*
%TO.C,J7*%
X244231756Y-98867783D02*
X245231756Y-97867783D01*
X244231756Y-107987783D02*
X244231756Y-98867783D01*
X244231756Y-107987783D02*
X246656756Y-107987783D01*
X245231756Y-97867783D02*
X253101756Y-97867783D01*
X248676756Y-107987783D02*
X250014989Y-107987783D01*
X253101756Y-97867783D02*
X254101756Y-98867783D01*
X254101756Y-98867783D02*
X254101756Y-107987783D01*
X254101756Y-107987783D02*
X251318523Y-107987783D01*
%TO.C,D2*%
X216394132Y-133407500D02*
X218314132Y-133407500D01*
X218314132Y-133407500D02*
X218314132Y-130722500D01*
X216394132Y-130722500D02*
X216394132Y-133407500D01*
%TO.C,F3*%
X240970000Y-113400000D02*
X234030000Y-113400000D01*
X234030000Y-113400000D02*
X234030000Y-129600000D01*
X239500000Y-119900000D02*
X239500000Y-123100000D01*
X237500000Y-122250000D02*
X237500000Y-120750000D01*
X235500000Y-123100000D02*
X235500000Y-119900000D01*
X240970000Y-129600000D02*
X240970000Y-113400000D01*
X234030000Y-129600000D02*
X240970000Y-129600000D01*
D15*
%TO.C,J4*%
X245230000Y-145568691D02*
X265869999Y-145568691D01*
X265869999Y-145568691D02*
X265869999Y-132518717D01*
X245230000Y-132518717D02*
X245230000Y-145568691D01*
X265869999Y-132518717D02*
X245230000Y-132518717D01*
X248670001Y-132264717D02*
X248035001Y-130740717D01*
X248035001Y-130740717D02*
X249305001Y-130740717D01*
X249305001Y-130740717D02*
X248670001Y-132264717D01*
D14*
%TO.C,J5*%
X231297275Y-108021171D02*
X228514042Y-108021171D01*
X231297275Y-98901171D02*
X231297275Y-108021171D01*
X230297275Y-97901171D02*
X231297275Y-98901171D01*
X225872275Y-108021171D02*
X227210508Y-108021171D01*
X222427275Y-97901171D02*
X230297275Y-97901171D01*
X221427275Y-108021171D02*
X223852275Y-108021171D01*
X221427275Y-108021171D02*
X221427275Y-98901171D01*
X221427275Y-98901171D02*
X222427275Y-97901171D01*
%TO.C,G\u002A\u002A\u002A*%
G36*
X234338343Y-147012581D02*
G01*
X234395212Y-147015769D01*
X234299715Y-147557202D01*
X234204217Y-148098634D01*
X234144162Y-148101787D01*
X234109920Y-148102736D01*
X234091796Y-148100135D01*
X234085006Y-148092721D01*
X234084371Y-148086017D01*
X234086233Y-148070941D01*
X234091388Y-148038018D01*
X234099412Y-147989622D01*
X234109879Y-147928124D01*
X234122367Y-147855898D01*
X234136451Y-147775316D01*
X234151707Y-147688751D01*
X234167710Y-147598575D01*
X234184037Y-147507161D01*
X234200264Y-147416882D01*
X234215967Y-147330109D01*
X234230720Y-147249217D01*
X234244101Y-147176576D01*
X234255686Y-147114561D01*
X234265049Y-147065544D01*
X234271767Y-147031896D01*
X234275416Y-147015992D01*
X234275803Y-147015063D01*
X234288637Y-147012451D01*
X234315580Y-147011787D01*
X234338343Y-147012581D01*
G37*
G36*
X234706334Y-147012581D02*
G01*
X234763231Y-147015769D01*
X234681835Y-147473096D01*
X234664790Y-147569428D01*
X234648930Y-147660161D01*
X234634636Y-147743031D01*
X234622290Y-147815776D01*
X234612272Y-147876133D01*
X234604966Y-147921838D01*
X234600751Y-147950630D01*
X234599847Y-147959333D01*
X234599255Y-147988245D01*
X234883589Y-147988245D01*
X235167923Y-147988245D01*
X235161272Y-148027669D01*
X235158324Y-148048403D01*
X235155792Y-148065024D01*
X235151530Y-148077984D01*
X235143394Y-148087732D01*
X235129238Y-148094720D01*
X235106918Y-148099397D01*
X235074288Y-148102214D01*
X235029205Y-148103622D01*
X234969523Y-148104070D01*
X234893097Y-148104009D01*
X234798298Y-148103890D01*
X234703691Y-148103828D01*
X234628016Y-148103567D01*
X234569177Y-148102996D01*
X234525078Y-148102004D01*
X234493625Y-148100478D01*
X234472723Y-148098308D01*
X234460277Y-148095382D01*
X234454190Y-148091589D01*
X234452369Y-148086818D01*
X234452334Y-148085492D01*
X234454199Y-148070467D01*
X234459357Y-148037592D01*
X234467384Y-147989240D01*
X234477856Y-147927783D01*
X234490349Y-147855594D01*
X234504437Y-147775046D01*
X234519697Y-147688513D01*
X234535705Y-147598366D01*
X234552036Y-147506979D01*
X234568265Y-147416725D01*
X234583968Y-147329977D01*
X234598721Y-147249107D01*
X234612100Y-147176489D01*
X234623680Y-147114494D01*
X234633037Y-147065497D01*
X234639747Y-147031870D01*
X234643384Y-147015986D01*
X234643766Y-147015063D01*
X234656600Y-147012451D01*
X234683545Y-147011787D01*
X234706334Y-147012581D01*
G37*
G36*
X229248277Y-147011244D02*
G01*
X229267272Y-147014303D01*
X229273826Y-147020988D01*
X229273212Y-147028911D01*
X229266738Y-147059463D01*
X229257944Y-147105742D01*
X229247340Y-147164637D01*
X229235434Y-147233039D01*
X229222734Y-147307837D01*
X229209750Y-147385921D01*
X229196989Y-147464180D01*
X229184961Y-147539504D01*
X229174174Y-147608784D01*
X229165136Y-147668908D01*
X229158356Y-147716767D01*
X229154343Y-147749249D01*
X229153452Y-147761319D01*
X229161095Y-147837452D01*
X229183874Y-147899012D01*
X229221837Y-147946047D01*
X229275035Y-147978605D01*
X229343517Y-147996731D01*
X229404065Y-148000882D01*
X229474258Y-147997937D01*
X229531364Y-147987370D01*
X229582496Y-147967382D01*
X229618908Y-147946592D01*
X229670426Y-147902352D01*
X229715293Y-147840055D01*
X229751658Y-147762445D01*
X229758282Y-147739281D01*
X229767824Y-147698287D01*
X229779696Y-147642367D01*
X229793313Y-147574423D01*
X229808085Y-147497358D01*
X229823427Y-147414075D01*
X229833100Y-147359834D01*
X229894578Y-147010581D01*
X229955029Y-147010547D01*
X229993603Y-147012476D01*
X230012718Y-147018493D01*
X230015377Y-147023654D01*
X230013430Y-147040616D01*
X230008073Y-147075168D01*
X229999867Y-147124253D01*
X229989370Y-147184814D01*
X229977144Y-147253794D01*
X229963747Y-147328134D01*
X229949741Y-147404778D01*
X229935683Y-147480667D01*
X229922135Y-147552744D01*
X229909657Y-147617952D01*
X229898807Y-147673233D01*
X229890146Y-147715530D01*
X229884234Y-147741784D01*
X229883134Y-147745890D01*
X229847582Y-147838998D01*
X229798516Y-147924129D01*
X229759527Y-147973707D01*
X229693967Y-148031498D01*
X229614879Y-148076072D01*
X229525848Y-148106430D01*
X229430458Y-148121571D01*
X229332296Y-148120494D01*
X229268748Y-148110634D01*
X229195802Y-148086648D01*
X229133842Y-148049569D01*
X229086747Y-148001856D01*
X229078854Y-147990315D01*
X229060635Y-147959206D01*
X229046353Y-147928067D01*
X229036037Y-147894723D01*
X229029713Y-147856998D01*
X229027411Y-147812717D01*
X229029158Y-147759707D01*
X229034982Y-147695793D01*
X229044911Y-147618798D01*
X229058973Y-147526550D01*
X229077197Y-147416872D01*
X229086966Y-147360078D01*
X229147538Y-147010513D01*
X229212561Y-147010513D01*
X229248277Y-147011244D01*
G37*
G36*
X231148263Y-145546176D02*
G01*
X231241890Y-145567469D01*
X231326342Y-145604379D01*
X231398819Y-145656506D01*
X231402718Y-145660101D01*
X231428810Y-145688322D01*
X231455216Y-145723163D01*
X231479369Y-145760272D01*
X231498707Y-145795294D01*
X231510665Y-145823879D01*
X231512677Y-145841672D01*
X231511130Y-145844109D01*
X231497894Y-145849819D01*
X231469428Y-145858932D01*
X231430922Y-145869835D01*
X231413741Y-145874370D01*
X231371195Y-145885422D01*
X231335085Y-145894898D01*
X231311297Y-145901249D01*
X231306829Y-145902487D01*
X231289375Y-145898527D01*
X231282882Y-145887347D01*
X231267063Y-145860060D01*
X231238223Y-145828398D01*
X231202047Y-145797591D01*
X231164218Y-145772868D01*
X231151645Y-145766622D01*
X231100835Y-145751738D01*
X231038839Y-145745131D01*
X230973809Y-145746825D01*
X230913899Y-145756844D01*
X230886232Y-145765851D01*
X230802699Y-145810501D01*
X230733324Y-145870123D01*
X230679099Y-145943297D01*
X230641016Y-146028599D01*
X230620070Y-146124609D01*
X230617587Y-146150665D01*
X230618738Y-146237654D01*
X230635736Y-146310870D01*
X230668729Y-146370524D01*
X230717865Y-146416829D01*
X230783292Y-146449998D01*
X230835811Y-146464870D01*
X230909704Y-146470554D01*
X230987431Y-146458352D01*
X231064706Y-146429773D01*
X231137241Y-146386326D01*
X231190944Y-146339881D01*
X231246749Y-146282910D01*
X231340758Y-146307437D01*
X231381758Y-146319025D01*
X231413702Y-146329748D01*
X231432075Y-146338004D01*
X231434768Y-146340805D01*
X231427698Y-146359060D01*
X231408649Y-146387750D01*
X231380866Y-146422802D01*
X231347592Y-146460147D01*
X231312071Y-146495712D01*
X231309258Y-146498332D01*
X231221352Y-146566004D01*
X231122601Y-146617811D01*
X231016527Y-146652776D01*
X230906649Y-146669925D01*
X230796491Y-146668278D01*
X230733021Y-146658146D01*
X230640832Y-146628484D01*
X230562021Y-146583131D01*
X230497439Y-146523285D01*
X230447937Y-146450141D01*
X230414366Y-146364895D01*
X230397576Y-146268745D01*
X230396773Y-146185223D01*
X230413279Y-146067798D01*
X230448135Y-145957302D01*
X230499897Y-145855703D01*
X230567124Y-145764967D01*
X230648374Y-145687063D01*
X230742207Y-145623956D01*
X230840327Y-145579979D01*
X230944683Y-145552032D01*
X231048261Y-145540897D01*
X231148263Y-145546176D01*
G37*
G36*
X230475891Y-147012784D02*
G01*
X230567315Y-147015157D01*
X230640682Y-147018929D01*
X230698954Y-147024834D01*
X230745089Y-147033607D01*
X230782049Y-147045984D01*
X230812793Y-147062698D01*
X230840282Y-147084485D01*
X230865007Y-147109387D01*
X230901064Y-147163233D01*
X230921275Y-147226458D01*
X230926455Y-147295617D01*
X230917422Y-147367264D01*
X230894991Y-147437953D01*
X230859978Y-147504241D01*
X230813201Y-147562680D01*
X230755476Y-147609826D01*
X230744891Y-147616318D01*
X230694985Y-147642226D01*
X230643030Y-147661578D01*
X230584572Y-147675361D01*
X230515157Y-147684564D01*
X230430333Y-147690175D01*
X230408074Y-147691065D01*
X230248722Y-147696827D01*
X230231706Y-147792598D01*
X230221730Y-147848795D01*
X230210163Y-147914028D01*
X230199072Y-147976628D01*
X230196086Y-147993501D01*
X230177481Y-148098634D01*
X230117507Y-148101787D01*
X230082521Y-148102518D01*
X230064033Y-148099398D01*
X230057718Y-148091499D01*
X230057533Y-148088947D01*
X230059300Y-148076179D01*
X230064318Y-148045129D01*
X230072166Y-147998218D01*
X230082419Y-147937868D01*
X230094655Y-147866500D01*
X230108452Y-147786535D01*
X230123386Y-147700394D01*
X230139034Y-147610497D01*
X230144343Y-147580112D01*
X230267947Y-147580112D01*
X230428199Y-147576390D01*
X230492370Y-147574551D01*
X230539839Y-147572093D01*
X230574930Y-147568453D01*
X230601967Y-147563064D01*
X230625274Y-147555363D01*
X230641018Y-147548601D01*
X230702732Y-147512002D01*
X230747927Y-147465413D01*
X230777541Y-147407109D01*
X230792508Y-147335366D01*
X230794525Y-147265825D01*
X230783745Y-147228008D01*
X230760804Y-147194830D01*
X230732249Y-147168556D01*
X230697362Y-147149501D01*
X230652923Y-147136895D01*
X230595713Y-147129969D01*
X230522514Y-147127955D01*
X230482807Y-147128462D01*
X230347982Y-147131415D01*
X230313810Y-147325910D01*
X230302629Y-147389374D01*
X230292333Y-147447477D01*
X230283617Y-147496331D01*
X230277174Y-147532048D01*
X230273793Y-147550259D01*
X230267947Y-147580112D01*
X230144343Y-147580112D01*
X230154974Y-147519268D01*
X230170782Y-147429125D01*
X230186037Y-147342492D01*
X230200314Y-147261788D01*
X230213190Y-147189435D01*
X230224244Y-147127855D01*
X230233053Y-147079467D01*
X230239192Y-147046694D01*
X230241944Y-147033145D01*
X230247685Y-147008467D01*
X230475891Y-147012784D01*
G37*
G36*
X236974214Y-147049469D02*
G01*
X236978845Y-147067565D01*
X236988005Y-147103871D01*
X237001146Y-147156193D01*
X237017718Y-147222339D01*
X237037173Y-147300115D01*
X237058961Y-147387328D01*
X237082534Y-147481783D01*
X237106579Y-147578228D01*
X237131137Y-147676696D01*
X237154268Y-147769293D01*
X237175451Y-147853945D01*
X237194167Y-147928578D01*
X237209894Y-147991119D01*
X237222112Y-148039495D01*
X237230301Y-148071632D01*
X237233939Y-148085456D01*
X237233949Y-148085492D01*
X237234570Y-148095437D01*
X237226107Y-148101006D01*
X237204416Y-148103417D01*
X237171240Y-148103890D01*
X237102983Y-148103890D01*
X237068757Y-147956705D01*
X237034530Y-147809519D01*
X236755200Y-147809907D01*
X236475869Y-147810295D01*
X236391763Y-147956705D01*
X236307657Y-148103115D01*
X236241949Y-148103503D01*
X236207903Y-148103030D01*
X236184156Y-148101415D01*
X236176241Y-148099270D01*
X236181506Y-148089676D01*
X236196673Y-148063643D01*
X236220804Y-148022746D01*
X236252960Y-147968561D01*
X236292203Y-147902666D01*
X236337594Y-147826637D01*
X236388194Y-147742049D01*
X236424937Y-147680732D01*
X236557753Y-147680732D01*
X236560337Y-147685220D01*
X236573532Y-147688628D01*
X236599388Y-147691076D01*
X236639954Y-147692685D01*
X236697279Y-147693577D01*
X236773413Y-147693872D01*
X236780337Y-147693874D01*
X236855170Y-147693771D01*
X236911490Y-147693325D01*
X236951811Y-147692326D01*
X236978648Y-147690568D01*
X236994512Y-147687841D01*
X237001918Y-147683939D01*
X237003380Y-147678653D01*
X237002681Y-147675476D01*
X236998651Y-147660317D01*
X236990371Y-147627885D01*
X236978634Y-147581320D01*
X236964228Y-147523763D01*
X236947943Y-147458353D01*
X236938562Y-147420529D01*
X236921612Y-147352381D01*
X236906112Y-147290583D01*
X236892847Y-147238225D01*
X236882602Y-147198396D01*
X236876164Y-147174187D01*
X236874525Y-147168638D01*
X236867892Y-147173000D01*
X236851896Y-147193953D01*
X236827623Y-147229842D01*
X236796157Y-147279011D01*
X236758583Y-147339805D01*
X236716061Y-147410443D01*
X236676372Y-147477284D01*
X236640139Y-147538580D01*
X236608782Y-147591910D01*
X236583717Y-147634854D01*
X236566362Y-147664990D01*
X236558137Y-147679899D01*
X236557753Y-147680732D01*
X236424937Y-147680732D01*
X236443065Y-147650479D01*
X236500242Y-147555210D01*
X236824243Y-147015769D01*
X236893957Y-147012673D01*
X236963672Y-147009576D01*
X236974214Y-147049469D01*
G37*
G36*
X231753200Y-147010776D02*
G01*
X231800127Y-147012101D01*
X231833898Y-147014747D01*
X231856481Y-147019133D01*
X231869842Y-147025681D01*
X231875949Y-147034809D01*
X231876769Y-147046940D01*
X231874268Y-147062494D01*
X231870413Y-147081891D01*
X231869602Y-147086577D01*
X231863111Y-147125845D01*
X231557573Y-147128630D01*
X231252035Y-147131415D01*
X231228196Y-147268087D01*
X231218689Y-147322505D01*
X231209954Y-147372332D01*
X231202905Y-147412371D01*
X231198455Y-147437423D01*
X231198184Y-147438928D01*
X231192010Y-147473096D01*
X231429511Y-147473096D01*
X231667012Y-147473096D01*
X231660361Y-147512520D01*
X231656635Y-147537049D01*
X231653057Y-147555699D01*
X231646986Y-147569269D01*
X231635785Y-147578557D01*
X231616815Y-147584363D01*
X231587437Y-147587485D01*
X231545012Y-147588723D01*
X231486901Y-147588876D01*
X231410465Y-147588741D01*
X231408612Y-147588741D01*
X231173607Y-147588741D01*
X231167436Y-147617653D01*
X231160290Y-147653344D01*
X231151593Y-147700095D01*
X231142097Y-147753453D01*
X231132553Y-147808964D01*
X231123714Y-147862173D01*
X231116330Y-147908627D01*
X231111153Y-147943872D01*
X231108934Y-147963455D01*
X231108902Y-147964590D01*
X231108857Y-147988245D01*
X231409860Y-147988245D01*
X231710863Y-147988245D01*
X231704347Y-148027669D01*
X231699965Y-148058733D01*
X231697769Y-148083182D01*
X231697715Y-148085492D01*
X231696534Y-148090384D01*
X231691705Y-148094326D01*
X231681190Y-148097420D01*
X231662956Y-148099768D01*
X231634967Y-148101471D01*
X231595187Y-148102632D01*
X231541581Y-148103352D01*
X231472115Y-148103733D01*
X231384752Y-148103876D01*
X231329635Y-148103890D01*
X231230669Y-148103792D01*
X231150778Y-148103441D01*
X231088012Y-148102757D01*
X231040421Y-148101657D01*
X231006055Y-148100059D01*
X230982964Y-148097881D01*
X230969197Y-148095042D01*
X230962804Y-148091459D01*
X230961672Y-148088422D01*
X230963438Y-148075768D01*
X230968453Y-148044832D01*
X230976295Y-147998034D01*
X230986542Y-147937796D01*
X230998769Y-147866537D01*
X231012555Y-147786679D01*
X231027476Y-147700644D01*
X231043109Y-147610850D01*
X231059032Y-147519720D01*
X231074822Y-147429674D01*
X231090056Y-147343133D01*
X231104311Y-147262518D01*
X231117164Y-147190250D01*
X231128192Y-147128749D01*
X231136973Y-147080437D01*
X231143083Y-147047734D01*
X231145826Y-147034168D01*
X231151311Y-147010513D01*
X231513818Y-147010513D01*
X231612012Y-147010402D01*
X231691151Y-147010349D01*
X231753200Y-147010776D01*
G37*
G36*
X236116197Y-147010776D02*
G01*
X236163123Y-147012101D01*
X236196895Y-147014747D01*
X236219478Y-147019133D01*
X236232839Y-147025681D01*
X236238946Y-147034809D01*
X236239765Y-147046940D01*
X236237264Y-147062494D01*
X236233410Y-147081891D01*
X236232598Y-147086577D01*
X236226107Y-147125845D01*
X235920569Y-147128630D01*
X235615032Y-147131415D01*
X235591193Y-147268087D01*
X235581685Y-147322505D01*
X235572950Y-147372332D01*
X235565902Y-147412371D01*
X235561452Y-147437423D01*
X235561181Y-147438928D01*
X235555007Y-147473096D01*
X235792508Y-147473096D01*
X236030009Y-147473096D01*
X236023358Y-147512520D01*
X236019632Y-147537049D01*
X236016053Y-147555699D01*
X236009983Y-147569269D01*
X235998782Y-147578557D01*
X235979812Y-147584363D01*
X235950434Y-147587485D01*
X235908008Y-147588723D01*
X235849897Y-147588876D01*
X235773462Y-147588741D01*
X235771608Y-147588741D01*
X235536604Y-147588741D01*
X235530433Y-147617653D01*
X235523286Y-147653344D01*
X235514589Y-147700095D01*
X235505093Y-147753453D01*
X235495550Y-147808964D01*
X235486711Y-147862173D01*
X235479327Y-147908627D01*
X235474150Y-147943872D01*
X235471931Y-147963455D01*
X235471899Y-147964590D01*
X235471854Y-147988245D01*
X235772857Y-147988245D01*
X236073860Y-147988245D01*
X236067344Y-148027669D01*
X236062962Y-148058733D01*
X236060765Y-148083182D01*
X236060711Y-148085492D01*
X236059531Y-148090384D01*
X236054701Y-148094326D01*
X236044187Y-148097420D01*
X236025953Y-148099768D01*
X235997963Y-148101471D01*
X235958183Y-148102632D01*
X235904578Y-148103352D01*
X235835111Y-148103733D01*
X235747749Y-148103876D01*
X235692632Y-148103890D01*
X235593665Y-148103792D01*
X235513774Y-148103441D01*
X235451008Y-148102757D01*
X235403418Y-148101657D01*
X235369052Y-148100059D01*
X235345960Y-148097881D01*
X235332193Y-148095042D01*
X235325800Y-148091459D01*
X235324669Y-148088422D01*
X235326434Y-148075768D01*
X235331450Y-148044832D01*
X235339292Y-147998034D01*
X235349538Y-147937796D01*
X235361766Y-147866537D01*
X235375551Y-147786679D01*
X235390472Y-147700644D01*
X235406106Y-147610850D01*
X235422029Y-147519720D01*
X235437819Y-147429674D01*
X235453053Y-147343133D01*
X235467307Y-147262518D01*
X235480160Y-147190250D01*
X235491189Y-147128749D01*
X235499970Y-147080437D01*
X235506080Y-147047734D01*
X235508823Y-147034168D01*
X235514308Y-147010513D01*
X235876814Y-147010513D01*
X235975009Y-147010402D01*
X236054148Y-147010349D01*
X236116197Y-147010776D01*
G37*
G36*
X239375303Y-147010776D02*
G01*
X239422229Y-147012101D01*
X239456001Y-147014747D01*
X239478583Y-147019133D01*
X239491945Y-147025681D01*
X239498052Y-147034809D01*
X239498871Y-147046940D01*
X239496370Y-147062494D01*
X239492516Y-147081891D01*
X239491704Y-147086577D01*
X239485213Y-147125845D01*
X239179675Y-147128630D01*
X238874138Y-147131415D01*
X238850299Y-147268087D01*
X238840791Y-147322505D01*
X238832056Y-147372332D01*
X238825007Y-147412371D01*
X238820558Y-147437423D01*
X238820287Y-147438928D01*
X238814113Y-147473096D01*
X239051614Y-147473096D01*
X239289115Y-147473096D01*
X239282464Y-147512520D01*
X239278738Y-147537049D01*
X239275159Y-147555699D01*
X239269089Y-147569269D01*
X239257888Y-147578557D01*
X239238918Y-147584363D01*
X239209540Y-147587485D01*
X239167114Y-147588723D01*
X239109003Y-147588876D01*
X239032568Y-147588741D01*
X239030714Y-147588741D01*
X238795710Y-147588741D01*
X238789539Y-147617653D01*
X238782392Y-147653344D01*
X238773695Y-147700095D01*
X238764199Y-147753453D01*
X238754656Y-147808964D01*
X238745817Y-147862173D01*
X238738433Y-147908627D01*
X238733255Y-147943872D01*
X238731037Y-147963455D01*
X238731005Y-147964590D01*
X238730960Y-147988245D01*
X239031963Y-147988245D01*
X239332966Y-147988245D01*
X239326450Y-148027669D01*
X239322068Y-148058733D01*
X239319871Y-148083182D01*
X239319817Y-148085492D01*
X239318637Y-148090384D01*
X239313807Y-148094326D01*
X239303293Y-148097420D01*
X239285059Y-148099768D01*
X239257069Y-148101471D01*
X239217289Y-148102632D01*
X239163684Y-148103352D01*
X239094217Y-148103733D01*
X239006855Y-148103876D01*
X238951738Y-148103890D01*
X238852771Y-148103792D01*
X238772880Y-148103441D01*
X238710114Y-148102757D01*
X238662524Y-148101657D01*
X238628158Y-148100059D01*
X238605066Y-148097881D01*
X238591299Y-148095042D01*
X238584906Y-148091459D01*
X238583775Y-148088422D01*
X238585540Y-148075768D01*
X238590556Y-148044832D01*
X238598398Y-147998034D01*
X238608644Y-147937796D01*
X238620872Y-147866537D01*
X238634657Y-147786679D01*
X238649578Y-147700644D01*
X238665212Y-147610850D01*
X238681135Y-147519720D01*
X238696925Y-147429674D01*
X238712159Y-147343133D01*
X238726413Y-147262518D01*
X238739266Y-147190250D01*
X238750295Y-147128749D01*
X238759076Y-147080437D01*
X238765186Y-147047734D01*
X238767929Y-147034168D01*
X238773414Y-147010513D01*
X239135920Y-147010513D01*
X239234115Y-147010402D01*
X239313254Y-147010349D01*
X239375303Y-147010776D01*
G37*
G36*
X232315709Y-147012784D02*
G01*
X232392610Y-147014418D01*
X232451862Y-147016251D01*
X232496843Y-147018609D01*
X232530931Y-147021815D01*
X232557502Y-147026196D01*
X232579934Y-147032077D01*
X232601605Y-147039782D01*
X232603385Y-147040479D01*
X232656939Y-147069363D01*
X232704327Y-147109418D01*
X232740448Y-147155532D01*
X232758580Y-147196022D01*
X232769530Y-147272747D01*
X232762443Y-147352486D01*
X232738606Y-147429965D01*
X232699304Y-147499908D01*
X232678086Y-147526224D01*
X232643229Y-147558933D01*
X232600585Y-147590163D01*
X232555849Y-147616544D01*
X232514717Y-147634711D01*
X232483464Y-147641299D01*
X232467845Y-147645043D01*
X232465066Y-147649205D01*
X232468963Y-147660764D01*
X232479890Y-147688867D01*
X232496703Y-147730684D01*
X232518260Y-147783386D01*
X232543415Y-147844144D01*
X232558590Y-147880496D01*
X232652114Y-148103890D01*
X232576272Y-148103890D01*
X232500429Y-148103890D01*
X232415599Y-147890997D01*
X232330768Y-147678104D01*
X232211284Y-147675164D01*
X232091800Y-147672225D01*
X232054830Y-147885429D01*
X232017860Y-148098634D01*
X231957605Y-148101787D01*
X231922522Y-148102523D01*
X231903944Y-148099433D01*
X231897552Y-148091595D01*
X231897351Y-148088947D01*
X231899118Y-148076179D01*
X231904136Y-148045129D01*
X231911984Y-147998218D01*
X231922237Y-147937868D01*
X231934473Y-147866500D01*
X231948270Y-147786535D01*
X231963204Y-147700394D01*
X231978852Y-147610497D01*
X231986327Y-147567715D01*
X232110752Y-147567715D01*
X232253741Y-147567458D01*
X232311224Y-147566560D01*
X232365477Y-147564291D01*
X232410807Y-147560982D01*
X232441517Y-147556963D01*
X232444039Y-147556428D01*
X232511721Y-147531098D01*
X232566510Y-147489657D01*
X232606988Y-147433617D01*
X232631732Y-147364489D01*
X232633712Y-147354655D01*
X232638885Y-147289889D01*
X232627635Y-147236761D01*
X232599363Y-147193062D01*
X232586483Y-147180587D01*
X232553056Y-147157808D01*
X232510784Y-147141782D01*
X232456646Y-147131931D01*
X232387623Y-147127673D01*
X232312912Y-147128075D01*
X232187042Y-147131415D01*
X232173789Y-147210264D01*
X232166650Y-147252044D01*
X232157046Y-147307283D01*
X232146241Y-147368750D01*
X232135644Y-147428414D01*
X232110752Y-147567715D01*
X231986327Y-147567715D01*
X231994792Y-147519268D01*
X232010600Y-147429125D01*
X232025854Y-147342492D01*
X232040131Y-147261788D01*
X232053008Y-147189435D01*
X232064062Y-147127855D01*
X232072870Y-147079467D01*
X232079010Y-147046694D01*
X232081762Y-147033145D01*
X232087503Y-147008467D01*
X232315709Y-147012784D01*
G37*
G36*
X229318059Y-145560205D02*
G01*
X229349531Y-145562113D01*
X229366914Y-145565927D01*
X229373670Y-145572166D01*
X229374172Y-145575466D01*
X229372390Y-145589396D01*
X229367342Y-145621387D01*
X229359473Y-145668804D01*
X229349230Y-145729014D01*
X229337058Y-145799381D01*
X229323402Y-145877269D01*
X229316511Y-145916221D01*
X229295185Y-146033435D01*
X229275818Y-146132126D01*
X229257593Y-146214614D01*
X229239695Y-146283218D01*
X229221306Y-146340258D01*
X229201611Y-146388053D01*
X229179794Y-146428923D01*
X229155036Y-146465188D01*
X229126524Y-146499167D01*
X229102530Y-146524200D01*
X229029371Y-146583114D01*
X228943447Y-146628225D01*
X228848778Y-146658395D01*
X228749380Y-146672488D01*
X228649274Y-146669367D01*
X228610981Y-146663253D01*
X228527716Y-146637752D01*
X228459124Y-146597191D01*
X228405238Y-146541603D01*
X228366090Y-146471021D01*
X228343699Y-146395753D01*
X228339220Y-146370046D01*
X228336552Y-146343369D01*
X228335946Y-146313418D01*
X228337653Y-146277887D01*
X228341925Y-146234474D01*
X228349013Y-146180872D01*
X228359167Y-146114777D01*
X228372639Y-146033884D01*
X228389681Y-145935889D01*
X228400449Y-145875082D01*
X228455608Y-145564942D01*
X228562696Y-145561946D01*
X228611724Y-145560997D01*
X228643344Y-145561750D01*
X228661136Y-145564655D01*
X228668680Y-145570162D01*
X228669784Y-145575428D01*
X228668000Y-145590205D01*
X228663001Y-145622476D01*
X228655321Y-145669047D01*
X228645489Y-145726722D01*
X228634040Y-145792307D01*
X228628156Y-145825486D01*
X228608963Y-145933717D01*
X228593330Y-146023358D01*
X228580966Y-146096492D01*
X228571581Y-146155200D01*
X228564884Y-146201563D01*
X228560584Y-146237663D01*
X228558392Y-146265582D01*
X228558017Y-146287401D01*
X228559168Y-146305202D01*
X228560161Y-146312821D01*
X228578636Y-146371907D01*
X228613467Y-146420333D01*
X228648036Y-146446918D01*
X228685907Y-146460645D01*
X228736100Y-146467599D01*
X228790941Y-146467513D01*
X228842758Y-146460122D01*
X228863025Y-146454350D01*
X228919238Y-146424377D01*
X228969266Y-146377064D01*
X229010438Y-146315805D01*
X229040082Y-146243990D01*
X229046057Y-146222019D01*
X229050151Y-146202502D01*
X229057121Y-146166445D01*
X229066409Y-146116955D01*
X229077456Y-146057137D01*
X229089705Y-145990098D01*
X229102596Y-145918944D01*
X229115571Y-145846781D01*
X229128072Y-145776715D01*
X229139539Y-145711854D01*
X229149415Y-145655302D01*
X229157140Y-145610166D01*
X229162157Y-145579553D01*
X229163907Y-145566629D01*
X229173677Y-145563714D01*
X229200022Y-145561402D01*
X229238490Y-145559986D01*
X229269039Y-145559685D01*
X229318059Y-145560205D01*
G37*
G36*
X238198234Y-147010407D02*
G01*
X238286811Y-147044037D01*
X238363581Y-147093521D01*
X238383555Y-147110969D01*
X238411098Y-147140826D01*
X238437799Y-147176665D01*
X238460920Y-147213786D01*
X238477719Y-147247493D01*
X238485456Y-147273088D01*
X238484163Y-147283430D01*
X238472088Y-147290187D01*
X238447193Y-147298532D01*
X238416490Y-147306717D01*
X238386995Y-147312998D01*
X238365722Y-147315627D01*
X238359546Y-147314456D01*
X238352881Y-147303640D01*
X238339281Y-147280426D01*
X238327837Y-147260559D01*
X238283770Y-147203607D01*
X238226383Y-147160109D01*
X238158513Y-147130065D01*
X238082998Y-147113476D01*
X238002677Y-147110341D01*
X237920389Y-147120662D01*
X237838972Y-147144439D01*
X237761265Y-147181673D01*
X237690105Y-147232365D01*
X237660141Y-147260418D01*
X237602785Y-147331116D01*
X237557614Y-147411565D01*
X237525464Y-147497977D01*
X237507175Y-147586563D01*
X237503583Y-147673534D01*
X237515527Y-147755101D01*
X237537439Y-147815170D01*
X237582003Y-147883879D01*
X237640580Y-147937180D01*
X237712459Y-147974675D01*
X237796930Y-147995965D01*
X237869763Y-148001067D01*
X237972168Y-147993562D01*
X238065655Y-147969566D01*
X238154743Y-147927555D01*
X238223381Y-147881826D01*
X238257050Y-147855274D01*
X238279489Y-147831946D01*
X238294296Y-147805662D01*
X238305069Y-147770242D01*
X238314223Y-147725810D01*
X238328213Y-147651821D01*
X238166235Y-147651821D01*
X238004258Y-147651821D01*
X238011387Y-147601883D01*
X238017038Y-147570806D01*
X238023246Y-147548884D01*
X238025917Y-147543841D01*
X238038217Y-147541530D01*
X238068285Y-147539753D01*
X238112867Y-147538587D01*
X238168709Y-147538109D01*
X238232558Y-147538395D01*
X238248568Y-147538584D01*
X238463817Y-147541432D01*
X238413988Y-147820033D01*
X238400807Y-147893709D01*
X238388891Y-147960268D01*
X238378727Y-148017004D01*
X238370797Y-148061215D01*
X238365587Y-148090195D01*
X238363582Y-148101241D01*
X238363578Y-148101262D01*
X238353751Y-148102747D01*
X238329204Y-148103700D01*
X238309086Y-148103890D01*
X238255177Y-148103890D01*
X238262059Y-148059209D01*
X238268241Y-148020624D01*
X238274553Y-147983459D01*
X238275493Y-147978191D01*
X238282044Y-147941854D01*
X238235786Y-147981589D01*
X238155923Y-148037323D01*
X238063487Y-148080076D01*
X237963368Y-148108581D01*
X237860456Y-148121570D01*
X237759640Y-148117776D01*
X237729169Y-148112916D01*
X237638884Y-148085413D01*
X237558297Y-148040506D01*
X237489585Y-147980320D01*
X237434927Y-147906975D01*
X237396502Y-147822597D01*
X237383985Y-147776592D01*
X237374688Y-147690939D01*
X237380205Y-147596905D01*
X237399373Y-147499772D01*
X237431027Y-147404826D01*
X237474002Y-147317352D01*
X237491227Y-147289891D01*
X237566184Y-147195622D01*
X237653130Y-147118500D01*
X237751187Y-147059041D01*
X237859477Y-147017762D01*
X237977123Y-146995180D01*
X237994856Y-146993492D01*
X238100150Y-146993328D01*
X238198234Y-147010407D01*
G37*
G36*
X228671334Y-147000917D02*
G01*
X228728029Y-147012258D01*
X228734442Y-147014250D01*
X228804494Y-147046728D01*
X228859125Y-147092525D01*
X228897261Y-147150449D01*
X228917596Y-147217841D01*
X228920722Y-147236028D01*
X228920917Y-147248436D01*
X228914884Y-147257402D01*
X228899330Y-147265259D01*
X228870958Y-147274346D01*
X228826474Y-147286996D01*
X228815728Y-147290053D01*
X228803750Y-147288160D01*
X228795804Y-147271518D01*
X228791690Y-147250966D01*
X228775243Y-147206991D01*
X228743440Y-147165803D01*
X228701742Y-147133151D01*
X228664291Y-147116858D01*
X228611724Y-147107969D01*
X228548977Y-147105761D01*
X228485751Y-147110076D01*
X228432156Y-147120636D01*
X228377269Y-147145265D01*
X228333844Y-147181061D01*
X228302794Y-147224621D01*
X228285032Y-147272540D01*
X228281470Y-147321416D01*
X228293019Y-147367845D01*
X228320592Y-147408423D01*
X228348981Y-147430950D01*
X228373149Y-147442092D01*
X228412657Y-147456138D01*
X228462329Y-147471404D01*
X228516984Y-147486205D01*
X228525333Y-147488292D01*
X228596675Y-147506442D01*
X228651148Y-147521856D01*
X228692484Y-147536006D01*
X228724416Y-147550368D01*
X228750674Y-147566414D01*
X228774990Y-147585617D01*
X228777627Y-147587916D01*
X228817465Y-147636300D01*
X228840997Y-147695471D01*
X228847998Y-147762671D01*
X228838243Y-147835141D01*
X228811510Y-147910124D01*
X228804923Y-147923585D01*
X228759520Y-147991718D01*
X228700021Y-148044916D01*
X228625341Y-148084066D01*
X228596192Y-148094369D01*
X228535949Y-148108526D01*
X228464990Y-148117577D01*
X228391146Y-148121120D01*
X228322252Y-148118752D01*
X228270281Y-148111081D01*
X228189905Y-148084238D01*
X228124827Y-148045218D01*
X228076157Y-147994982D01*
X228045005Y-147934488D01*
X228038368Y-147910726D01*
X228030159Y-147866809D01*
X228030671Y-147838200D01*
X228041959Y-147820264D01*
X228066075Y-147808367D01*
X228086312Y-147802521D01*
X228122615Y-147793383D01*
X228143057Y-147790479D01*
X228152189Y-147794998D01*
X228154562Y-147808129D01*
X228154635Y-147820370D01*
X228164568Y-147872981D01*
X228192041Y-147921631D01*
X228233571Y-147962283D01*
X228285673Y-147990896D01*
X228307745Y-147997829D01*
X228364610Y-148006653D01*
X228430971Y-148008666D01*
X228496915Y-148004054D01*
X228551732Y-147993242D01*
X228616108Y-147964104D01*
X228666234Y-147919971D01*
X228700738Y-147862470D01*
X228717861Y-147796412D01*
X228716145Y-147744837D01*
X228696560Y-147701473D01*
X228658546Y-147665801D01*
X228601547Y-147637303D01*
X228525004Y-147615459D01*
X228522807Y-147614988D01*
X228418667Y-147590152D01*
X228334062Y-147563668D01*
X228267505Y-147534467D01*
X228217513Y-147501481D01*
X228182600Y-147463641D01*
X228161281Y-147419877D01*
X228152072Y-147369121D01*
X228151439Y-147347644D01*
X228161566Y-147261778D01*
X228190153Y-147184850D01*
X228235931Y-147118531D01*
X228297632Y-147064487D01*
X228373987Y-147024390D01*
X228405573Y-147013459D01*
X228462577Y-147001602D01*
X228530966Y-146995571D01*
X228603099Y-146995349D01*
X228671334Y-147000917D01*
G37*
G36*
X230167922Y-145596481D02*
G01*
X230227975Y-145636401D01*
X230269777Y-145686470D01*
X230292924Y-145745722D01*
X230297012Y-145813190D01*
X230285028Y-145876871D01*
X230261754Y-145930601D01*
X230226126Y-145981954D01*
X230183445Y-146024358D01*
X230147172Y-146047715D01*
X230123623Y-146059766D01*
X230110855Y-146068006D01*
X230110099Y-146069133D01*
X230118676Y-146075469D01*
X230140603Y-146087468D01*
X230157694Y-146095999D01*
X230209978Y-146131519D01*
X230246755Y-146177962D01*
X230268482Y-146232565D01*
X230275612Y-146292564D01*
X230268601Y-146355194D01*
X230247905Y-146417693D01*
X230213978Y-146477295D01*
X230167276Y-146531238D01*
X230108253Y-146576757D01*
X230075539Y-146594872D01*
X230039055Y-146611804D01*
X230004447Y-146625139D01*
X229968547Y-146635294D01*
X229928189Y-146642689D01*
X229880204Y-146647743D01*
X229821426Y-146650875D01*
X229748687Y-146652503D01*
X229658820Y-146653047D01*
X229635568Y-146653063D01*
X229384685Y-146653063D01*
X229385308Y-146629408D01*
X229387220Y-146614642D01*
X229392471Y-146581251D01*
X229400707Y-146531308D01*
X229411478Y-146467461D01*
X229626612Y-146467461D01*
X229636439Y-146470434D01*
X229663490Y-146472454D01*
X229703977Y-146473383D01*
X229754113Y-146473082D01*
X229771047Y-146472717D01*
X229830739Y-146470874D01*
X229873822Y-146468394D01*
X229904714Y-146464606D01*
X229927831Y-146458840D01*
X229947591Y-146450425D01*
X229959046Y-146444187D01*
X230004456Y-146406806D01*
X230034626Y-146357465D01*
X230046880Y-146300736D01*
X230047020Y-146293892D01*
X230043006Y-146252441D01*
X230029561Y-146220769D01*
X230004578Y-146197766D01*
X229965951Y-146182323D01*
X229911572Y-146173330D01*
X229839336Y-146169676D01*
X229810809Y-146169453D01*
X229760942Y-146169650D01*
X229719710Y-146170187D01*
X229691093Y-146170984D01*
X229679072Y-146171963D01*
X229678934Y-146172082D01*
X229677100Y-146182792D01*
X229672153Y-146210354D01*
X229664786Y-146250936D01*
X229655693Y-146300710D01*
X229652773Y-146316639D01*
X229643259Y-146369065D01*
X229635285Y-146414094D01*
X229629553Y-146447671D01*
X229626768Y-146465746D01*
X229626612Y-146467461D01*
X229411478Y-146467461D01*
X229411575Y-146466889D01*
X229424721Y-146390067D01*
X229439794Y-146302916D01*
X229456439Y-146207512D01*
X229474304Y-146105927D01*
X229477939Y-146085347D01*
X229490950Y-146011755D01*
X229707908Y-146011755D01*
X229804472Y-146011755D01*
X229854128Y-146010423D01*
X229901826Y-146006877D01*
X229939375Y-146001793D01*
X229948052Y-145999916D01*
X229998900Y-145978409D01*
X230038204Y-145944583D01*
X230063664Y-145902286D01*
X230072979Y-145855367D01*
X230063851Y-145807675D01*
X230063470Y-145806752D01*
X230047605Y-145779662D01*
X230024101Y-145760375D01*
X229989795Y-145747802D01*
X229941521Y-145740856D01*
X229876115Y-145738447D01*
X229864711Y-145738410D01*
X229755320Y-145738410D01*
X229738625Y-145830401D01*
X229730031Y-145878460D01*
X229722024Y-145924444D01*
X229716023Y-145960170D01*
X229714919Y-145967073D01*
X229707908Y-146011755D01*
X229490950Y-146011755D01*
X229569948Y-145564942D01*
X229837395Y-145564942D01*
X230104842Y-145564942D01*
X230167922Y-145596481D01*
G37*
G36*
X233153683Y-147010550D02*
G01*
X233279821Y-147340823D01*
X233316804Y-147436600D01*
X233348531Y-147516554D01*
X233374666Y-147579896D01*
X233394873Y-147625837D01*
X233408817Y-147653589D01*
X233416162Y-147662363D01*
X233416493Y-147662191D01*
X233424912Y-147651972D01*
X233444339Y-147626715D01*
X233473343Y-147588330D01*
X233510491Y-147538730D01*
X233554353Y-147479827D01*
X233603496Y-147413534D01*
X233656489Y-147341763D01*
X233663576Y-147332144D01*
X233900124Y-147011003D01*
X233966540Y-147010758D01*
X234002649Y-147011302D01*
X234021965Y-147014104D01*
X234028697Y-147020412D01*
X234027824Y-147028911D01*
X234025058Y-147042602D01*
X234019048Y-147074976D01*
X234010158Y-147123999D01*
X233998750Y-147187638D01*
X233985186Y-147263862D01*
X233969831Y-147350636D01*
X233953045Y-147445929D01*
X233935191Y-147547707D01*
X233930311Y-147575600D01*
X233837930Y-148103890D01*
X233777036Y-148103890D01*
X233740131Y-148102360D01*
X233720917Y-148097271D01*
X233716142Y-148089408D01*
X233717952Y-148075807D01*
X233723050Y-148044325D01*
X233730935Y-147997764D01*
X233741107Y-147938928D01*
X233753066Y-147870616D01*
X233766312Y-147795633D01*
X233780345Y-147716779D01*
X233794664Y-147636858D01*
X233808770Y-147558670D01*
X233822162Y-147485018D01*
X233834341Y-147418704D01*
X233844806Y-147362531D01*
X233853057Y-147319299D01*
X233857973Y-147294741D01*
X233864787Y-147259657D01*
X233868778Y-147233862D01*
X233869095Y-147223041D01*
X233862031Y-147229472D01*
X233846009Y-147249415D01*
X233824017Y-147279079D01*
X233815320Y-147291258D01*
X233795318Y-147319176D01*
X233765103Y-147360885D01*
X233726953Y-147413262D01*
X233683146Y-147473184D01*
X233635962Y-147537529D01*
X233592501Y-147596626D01*
X233541665Y-147665567D01*
X233501603Y-147719427D01*
X233470631Y-147760069D01*
X233447067Y-147789354D01*
X233429230Y-147809141D01*
X233415438Y-147821293D01*
X233404008Y-147827671D01*
X233393258Y-147830135D01*
X233381507Y-147830546D01*
X233381074Y-147830546D01*
X233341922Y-147830546D01*
X233269233Y-147643936D01*
X233242371Y-147574532D01*
X233214453Y-147501638D01*
X233187851Y-147431494D01*
X233164933Y-147370339D01*
X233152427Y-147336423D01*
X233133555Y-147285990D01*
X233120101Y-147253576D01*
X233111013Y-147237193D01*
X233105237Y-147234856D01*
X233102284Y-147241804D01*
X233098955Y-147258943D01*
X233092657Y-147293792D01*
X233083920Y-147343324D01*
X233073274Y-147404517D01*
X233061248Y-147474346D01*
X233048898Y-147546688D01*
X233034721Y-147629869D01*
X233020223Y-147714550D01*
X233006221Y-147795985D01*
X232993531Y-147869431D01*
X232982972Y-147930143D01*
X232977385Y-147961962D01*
X232953232Y-148098634D01*
X232893131Y-148101787D01*
X232858101Y-148102520D01*
X232839572Y-148099414D01*
X232833222Y-148091543D01*
X232833029Y-148088947D01*
X232834795Y-148076228D01*
X232839810Y-148045227D01*
X232847652Y-147998366D01*
X232857897Y-147938066D01*
X232870124Y-147866748D01*
X232883908Y-147786835D01*
X232898829Y-147700746D01*
X232914462Y-147610905D01*
X232930385Y-147519732D01*
X232946175Y-147429648D01*
X232961410Y-147343076D01*
X232975667Y-147262436D01*
X232988522Y-147190151D01*
X232999554Y-147128641D01*
X233008339Y-147080328D01*
X233014455Y-147047634D01*
X233017184Y-147034168D01*
X233022251Y-147021130D01*
X233033259Y-147014009D01*
X233055446Y-147011060D01*
X233088176Y-147010531D01*
X233153683Y-147010550D01*
G37*
G36*
X228505540Y-144827569D02*
G01*
X228559209Y-144830691D01*
X228632911Y-144835857D01*
X228726885Y-144843072D01*
X228841366Y-144852343D01*
X228941540Y-144860710D01*
X229693454Y-144927290D01*
X230459716Y-145001291D01*
X231235196Y-145082211D01*
X231513617Y-145112715D01*
X232069261Y-145175943D01*
X232608331Y-145240497D01*
X233130627Y-145306336D01*
X233635951Y-145373417D01*
X234124102Y-145441699D01*
X234594882Y-145511139D01*
X235048092Y-145581697D01*
X235483532Y-145653329D01*
X235901002Y-145725993D01*
X236300304Y-145799649D01*
X236681238Y-145874253D01*
X237043606Y-145949764D01*
X237387207Y-146026140D01*
X237711843Y-146103340D01*
X238017314Y-146181320D01*
X238303421Y-146260039D01*
X238569965Y-146339456D01*
X238816747Y-146419528D01*
X239043566Y-146500212D01*
X239250225Y-146581469D01*
X239436523Y-146663254D01*
X239602262Y-146745527D01*
X239747241Y-146828245D01*
X239789859Y-146855219D01*
X239900936Y-146936580D01*
X239991613Y-147022973D01*
X240061927Y-147114506D01*
X240111921Y-147211287D01*
X240141634Y-147313426D01*
X240151107Y-147421030D01*
X240140380Y-147534207D01*
X240109492Y-147653066D01*
X240098349Y-147684422D01*
X240056600Y-147774574D01*
X239997606Y-147870121D01*
X239923557Y-147968439D01*
X239836646Y-148066905D01*
X239739064Y-148162897D01*
X239633004Y-148253792D01*
X239602624Y-148277560D01*
X239558109Y-148310813D01*
X239511248Y-148344328D01*
X239464078Y-148376847D01*
X239418635Y-148407110D01*
X239376957Y-148433859D01*
X239341079Y-148455834D01*
X239313039Y-148471778D01*
X239294874Y-148480430D01*
X239288620Y-148480532D01*
X239296314Y-148470825D01*
X239310084Y-148458380D01*
X239329885Y-148442041D01*
X239361317Y-148416825D01*
X239399381Y-148386722D01*
X239424929Y-148366721D01*
X239493293Y-148309840D01*
X239567284Y-148242135D01*
X239641997Y-148168548D01*
X239712523Y-148094022D01*
X239773958Y-148023497D01*
X239806527Y-147982361D01*
X239867405Y-147893995D01*
X239921825Y-147800555D01*
X239966230Y-147708585D01*
X239991879Y-147641308D01*
X240017015Y-147533043D01*
X240021447Y-147426476D01*
X240005485Y-147322481D01*
X239969433Y-147221934D01*
X239913601Y-147125710D01*
X239838294Y-147034684D01*
X239751073Y-146955479D01*
X239660696Y-146888728D01*
X239561202Y-146826184D01*
X239451251Y-146767355D01*
X239329506Y-146711749D01*
X239194629Y-146658877D01*
X239045281Y-146608246D01*
X238880123Y-146559367D01*
X238697818Y-146511748D01*
X238497026Y-146464897D01*
X238299917Y-146423088D01*
X238010751Y-146367228D01*
X237736810Y-146320729D01*
X237474652Y-146283281D01*
X237220833Y-146254571D01*
X236971909Y-146234286D01*
X236724438Y-146222116D01*
X236474976Y-146217747D01*
X236220079Y-146220868D01*
X236107905Y-146224437D01*
X235990550Y-146228330D01*
X235866969Y-146231535D01*
X235739566Y-146234052D01*
X235610746Y-146235881D01*
X235482912Y-146237022D01*
X235358470Y-146237476D01*
X235239823Y-146237241D01*
X235129375Y-146236319D01*
X235029530Y-146234709D01*
X234942694Y-146232411D01*
X234871269Y-146229426D01*
X234817660Y-146225754D01*
X234804263Y-146224388D01*
X234733489Y-146216110D01*
X234670954Y-146208212D01*
X234613969Y-146200074D01*
X234559844Y-146191079D01*
X234505888Y-146180609D01*
X234449412Y-146168047D01*
X234387726Y-146152774D01*
X234318138Y-146134173D01*
X234237960Y-146111626D01*
X234144501Y-146084515D01*
X234035071Y-146052222D01*
X233968460Y-146032432D01*
X233699213Y-145952382D01*
X233449409Y-145878216D01*
X233218365Y-145809736D01*
X233005396Y-145746743D01*
X232809819Y-145689038D01*
X232630950Y-145636422D01*
X232468104Y-145588696D01*
X232320598Y-145545662D01*
X232187749Y-145507120D01*
X232068871Y-145472872D01*
X231963281Y-145442719D01*
X231870295Y-145416462D01*
X231789230Y-145393903D01*
X231719401Y-145374842D01*
X231660124Y-145359080D01*
X231610716Y-145346420D01*
X231597930Y-145343249D01*
X231479260Y-145315606D01*
X231340364Y-145286008D01*
X231181939Y-145254575D01*
X231004683Y-145221423D01*
X230809293Y-145186670D01*
X230596467Y-145150436D01*
X230366901Y-145112838D01*
X230121295Y-145073995D01*
X229860345Y-145034023D01*
X229584749Y-144993043D01*
X229295205Y-144951171D01*
X229216473Y-144939975D01*
X229113551Y-144925392D01*
X229009991Y-144910720D01*
X228909217Y-144896447D01*
X228814653Y-144883055D01*
X228729724Y-144871030D01*
X228657853Y-144860857D01*
X228602465Y-144853021D01*
X228590935Y-144851391D01*
X228529388Y-144842386D01*
X228486450Y-144835386D01*
X228462359Y-144830398D01*
X228457352Y-144827429D01*
X228471667Y-144826483D01*
X228505540Y-144827569D01*
G37*
%TO.C,J6*%
X232896218Y-98927707D02*
X233896218Y-97927707D01*
X232896218Y-108047707D02*
X232896218Y-98927707D01*
X232896218Y-108047707D02*
X235321218Y-108047707D01*
X233896218Y-97927707D02*
X241766218Y-97927707D01*
X237341218Y-108047707D02*
X238679451Y-108047707D01*
X241766218Y-97927707D02*
X242766218Y-98927707D01*
X242766218Y-98927707D02*
X242766218Y-108047707D01*
X242766218Y-108047707D02*
X239982985Y-108047707D01*
%TO.C,R5*%
X225265000Y-110814564D02*
X225265000Y-110360436D01*
X226735000Y-110814564D02*
X226735000Y-110360436D01*
%TO.C,R1*%
X253625185Y-119569955D02*
X253625185Y-120024083D01*
X252155185Y-119569955D02*
X252155185Y-120024083D01*
%TO.C,D1*%
X251939117Y-125050136D02*
X253859117Y-125050136D01*
X253859117Y-125050136D02*
X253859117Y-122365136D01*
X251939117Y-122365136D02*
X251939117Y-125050136D01*
%TO.C,D4*%
X237744924Y-142960000D02*
X237744924Y-141040000D01*
X237744924Y-141040000D02*
X235059924Y-141040000D01*
X235059924Y-142960000D02*
X237744924Y-142960000D01*
%TO.C,F1*%
X241650000Y-129600000D02*
X248590000Y-129600000D01*
X248590000Y-129600000D02*
X248590000Y-113400000D01*
X243120000Y-123100000D02*
X243120000Y-119900000D01*
X245120000Y-122250000D02*
X245120000Y-120750000D01*
X247120000Y-119900000D02*
X247120000Y-123100000D01*
X241650000Y-113400000D02*
X241650000Y-129600000D01*
X248590000Y-113400000D02*
X241650000Y-113400000D01*
%TO.C,F4*%
X225900000Y-132030000D02*
X225900000Y-138970000D01*
X225900000Y-138970000D02*
X242100000Y-138970000D01*
X232400000Y-133500000D02*
X235600000Y-133500000D01*
X233250000Y-135500000D02*
X234750000Y-135500000D01*
X235600000Y-137500000D02*
X232400000Y-137500000D01*
X242100000Y-132030000D02*
X225900000Y-132030000D01*
X242100000Y-138970000D02*
X242100000Y-132030000D01*
%TO.C,D5*%
X224460000Y-109315000D02*
X222540000Y-109315000D01*
X222540000Y-109315000D02*
X222540000Y-112000000D01*
X224460000Y-112000000D02*
X224460000Y-109315000D01*
%TO.C,J1*%
X265548888Y-120879569D02*
X266548888Y-121879569D01*
X256428888Y-120879569D02*
X265548888Y-120879569D01*
X256428888Y-120879569D02*
X256428888Y-123304569D01*
X266548888Y-121879569D02*
X266548888Y-129749569D01*
X256428888Y-125324569D02*
X256428888Y-126662802D01*
X266548888Y-129749569D02*
X265548888Y-130749569D01*
X265548888Y-130749569D02*
X256428888Y-130749569D01*
X256428888Y-130749569D02*
X256428888Y-127966336D01*
D13*
%TO.C,REF\u002A\u002A*%
X253900000Y-148660000D02*
X258100000Y-148660000D01*
X253900000Y-151060000D02*
X253900000Y-148660000D01*
X258100000Y-148660000D02*
X258100000Y-151060000D01*
X258100000Y-151060000D02*
X253900000Y-151060000D01*
X226100000Y-150700000D02*
X221900000Y-150700000D01*
X226100000Y-148300000D02*
X226100000Y-150700000D01*
X221900000Y-150700000D02*
X221900000Y-148300000D01*
X221900000Y-148300000D02*
X226100000Y-148300000D01*
D14*
%TO.C,J2*%
X214432573Y-145204463D02*
X213432573Y-144204463D01*
X223552573Y-145204463D02*
X214432573Y-145204463D01*
X223552573Y-145204463D02*
X223552573Y-142779463D01*
X213432573Y-144204463D02*
X213432573Y-136334463D01*
X223552573Y-140759463D02*
X223552573Y-139421230D01*
X213432573Y-136334463D02*
X214432573Y-135334463D01*
X214432573Y-135334463D02*
X223552573Y-135334463D01*
X223552573Y-135334463D02*
X223552573Y-138117696D01*
%TO.C,D3*%
X252522500Y-112046270D02*
X252522500Y-110126270D01*
X252522500Y-110126270D02*
X249837500Y-110126270D01*
X249837500Y-112046270D02*
X252522500Y-112046270D01*
%TD*%
M02*
