%TF.GenerationSoftware,KiCad,Pcbnew,7.0.8*%
%TF.CreationDate,2024-02-10T10:33:56-08:00*%
%TF.ProjectId,Power Distribution 2023-2024,506f7765-7220-4446-9973-747269627574,rev?*%
%TF.SameCoordinates,Original*%
%TF.FileFunction,Copper,L2,Bot*%
%TF.FilePolarity,Positive*%
%FSLAX46Y46*%
G04 Gerber Fmt 4.6, Leading zero omitted, Abs format (unit mm)*
G04 Created by KiCad (PCBNEW 7.0.8) date 2024-02-10 10:33:56*
%MOMM*%
%LPD*%
G01*
G04 APERTURE LIST*
G04 Aperture macros list*
%AMRoundRect*
0 Rectangle with rounded corners*
0 $1 Rounding radius*
0 $2 $3 $4 $5 $6 $7 $8 $9 X,Y pos of 4 corners*
0 Add a 4 corners polygon primitive as box body*
4,1,4,$2,$3,$4,$5,$6,$7,$8,$9,$2,$3,0*
0 Add four circle primitives for the rounded corners*
1,1,$1+$1,$2,$3*
1,1,$1+$1,$4,$5*
1,1,$1+$1,$6,$7*
1,1,$1+$1,$8,$9*
0 Add four rect primitives between the rounded corners*
20,1,$1+$1,$2,$3,$4,$5,0*
20,1,$1+$1,$4,$5,$6,$7,0*
20,1,$1+$1,$6,$7,$8,$9,0*
20,1,$1+$1,$8,$9,$2,$3,0*%
G04 Aperture macros list end*
%TA.AperFunction,ComponentPad*%
%ADD10RoundRect,0.250001X-0.759999X0.499999X-0.759999X-0.499999X0.759999X-0.499999X0.759999X0.499999X0*%
%TD*%
%TA.AperFunction,ComponentPad*%
%ADD11O,2.020000X1.500000*%
%TD*%
%TA.AperFunction,ComponentPad*%
%ADD12RoundRect,0.250001X1.599999X-1.099999X1.599999X1.099999X-1.599999X1.099999X-1.599999X-1.099999X0*%
%TD*%
%TA.AperFunction,ComponentPad*%
%ADD13O,3.700000X2.700000*%
%TD*%
%TA.AperFunction,ComponentPad*%
%ADD14R,2.300000X2.300000*%
%TD*%
%TA.AperFunction,ComponentPad*%
%ADD15C,2.300000*%
%TD*%
%TA.AperFunction,ComponentPad*%
%ADD16C,5.400000*%
%TD*%
%TA.AperFunction,ComponentPad*%
%ADD17C,2.780000*%
%TD*%
%TA.AperFunction,ComponentPad*%
%ADD18R,1.500000X1.500000*%
%TD*%
%TA.AperFunction,ComponentPad*%
%ADD19C,1.500000*%
%TD*%
G04 APERTURE END LIST*
D10*
%TO.P,J3,1,Pin_1*%
%TO.N,Net-(J2-Pin_2)*%
X254118000Y-128636000D03*
D11*
%TO.P,J3,2,Pin_2*%
%TO.N,GND*%
X254118000Y-131636000D03*
%TD*%
D12*
%TO.P,J7,1,Pin_1*%
%TO.N,GND*%
X227406954Y-143471732D03*
D13*
%TO.P,J7,2,Pin_2*%
%TO.N,/TURBO_IN*%
X232906954Y-143471732D03*
%TD*%
D14*
%TO.P,J4,1,Pin_1*%
%TO.N,Net-(J4-Pin_1)*%
X247118656Y-134823190D03*
D15*
%TO.P,J4,2,Pin_2*%
%TO.N,GND*%
X241418655Y-134823190D03*
%TD*%
D10*
%TO.P,J2,1,Pin_1*%
%TO.N,/DRIVE_KILL*%
X254117170Y-117272698D03*
D11*
%TO.P,J2,2,Pin_2*%
%TO.N,Net-(J2-Pin_2)*%
X254117170Y-120272698D03*
%TD*%
D16*
%TO.P,He2,1*%
%TO.N,N/C*%
X216261552Y-110046013D03*
%TD*%
D17*
%TO.P,F4,1*%
%TO.N,+12V*%
X242142109Y-116624653D03*
X238742109Y-116624653D03*
%TO.P,F4,2*%
%TO.N,Net-(J4-Pin_1)*%
X242142109Y-126544653D03*
X238742109Y-126544653D03*
%TD*%
%TO.P,F1,1*%
%TO.N,+12V*%
X249803045Y-116656593D03*
X246403045Y-116656593D03*
%TO.P,F1,2*%
%TO.N,Net-(J1-Pin_1)*%
X249803045Y-126576593D03*
X246403045Y-126576593D03*
%TD*%
D18*
%TO.P,J5,1,Pin_1*%
%TO.N,+12V*%
X221497598Y-126834000D03*
D19*
%TO.P,J5,2,Pin_2*%
X223277598Y-125818000D03*
%TO.P,J5,3,Pin_3*%
%TO.N,unconnected-(J5-Pin_3-Pad3)*%
X221497598Y-124802000D03*
%TO.P,J5,4,Pin_4*%
%TO.N,unconnected-(J5-Pin_4-Pad4)*%
X223277598Y-123786000D03*
%TO.P,J5,5,Pin_5*%
%TO.N,unconnected-(J5-Pin_5-Pad5)*%
X221497598Y-122770000D03*
%TO.P,J5,6,Pin_6*%
%TO.N,/HORN_IN*%
X223277598Y-121754000D03*
%TO.P,J5,7,Pin_7*%
%TO.N,/TURBO_IN*%
X221497598Y-120738000D03*
%TO.P,J5,8,Pin_8*%
%TO.N,/DRIVE_KILL*%
X223277598Y-119722000D03*
D15*
%TO.P,J5,SH,Shield*%
%TO.N,GND*%
X222387598Y-131404000D03*
X222387598Y-115144000D03*
%TD*%
D16*
%TO.P,He3,1*%
%TO.N,N/C*%
X259964739Y-109776346D03*
%TD*%
D10*
%TO.P,J1,1,Pin_1*%
%TO.N,Net-(J1-Pin_1)*%
X254054747Y-140020493D03*
D11*
%TO.P,J1,2,Pin_2*%
%TO.N,GND*%
X254054747Y-143020493D03*
%TD*%
D16*
%TO.P,He1,1*%
%TO.N,N/C*%
X216462748Y-149860000D03*
%TD*%
%TO.P,He4,1*%
%TO.N,N/C*%
X260032210Y-149795663D03*
%TD*%
D12*
%TO.P,J6,1,Pin_1*%
%TO.N,GND*%
X227340129Y-136378443D03*
D13*
%TO.P,J6,2,Pin_2*%
%TO.N,/HORN_IN*%
X232840129Y-136378443D03*
%TD*%
%TA.AperFunction,Conductor*%
%TO.N,GND*%
G36*
X256829838Y-106597685D02*
G01*
X256875593Y-106650489D01*
X256886799Y-106702000D01*
X256886799Y-108881589D01*
X256881953Y-108915916D01*
X256839567Y-109063040D01*
X256839565Y-109063049D01*
X256779353Y-109417431D01*
X256779351Y-109417443D01*
X256759196Y-109776346D01*
X256779351Y-110135248D01*
X256779353Y-110135260D01*
X256839565Y-110489642D01*
X256839567Y-110489651D01*
X256881953Y-110636775D01*
X256886799Y-110671102D01*
X256886799Y-112864000D01*
X259103700Y-112864000D01*
X259138027Y-112868846D01*
X259251439Y-112901519D01*
X259605832Y-112961733D01*
X259964739Y-112981889D01*
X260323646Y-112961733D01*
X260678039Y-112901519D01*
X260791451Y-112868846D01*
X260825778Y-112864000D01*
X263139500Y-112864000D01*
X263206539Y-112883685D01*
X263252294Y-112936489D01*
X263263500Y-112988000D01*
X263263500Y-146418240D01*
X263243815Y-146485279D01*
X263191011Y-146531034D01*
X263139500Y-146542240D01*
X256895180Y-146542240D01*
X256895180Y-149141688D01*
X256893428Y-149162459D01*
X256846824Y-149436748D01*
X256846822Y-149436760D01*
X256826667Y-149795663D01*
X256846822Y-150154565D01*
X256846824Y-150154577D01*
X256893428Y-150428865D01*
X256895180Y-150449636D01*
X256895180Y-152808000D01*
X256875495Y-152875039D01*
X256822691Y-152920794D01*
X256771180Y-152932000D01*
X219791895Y-152932000D01*
X219724856Y-152912315D01*
X219679101Y-152859511D01*
X219667895Y-152808000D01*
X219667895Y-149868792D01*
X219667993Y-149865314D01*
X219668291Y-149860002D01*
X219668291Y-149859995D01*
X219667993Y-149854683D01*
X219667895Y-149851207D01*
X219667895Y-146708221D01*
X217029917Y-146708221D01*
X217009146Y-146706469D01*
X216821662Y-146674614D01*
X216821650Y-146674612D01*
X216462748Y-146654457D01*
X216103845Y-146674612D01*
X216103833Y-146674614D01*
X215916350Y-146706469D01*
X215895579Y-146708221D01*
X213350500Y-146708221D01*
X213283461Y-146688536D01*
X213237706Y-146635732D01*
X213226500Y-146584221D01*
X213226500Y-143602919D01*
X218356454Y-143602919D01*
X218367269Y-143674665D01*
X218395558Y-143862347D01*
X218395559Y-143862349D01*
X218395560Y-143862355D01*
X218472892Y-144113058D01*
X218586721Y-144349428D01*
X218586722Y-144349429D01*
X218586724Y-144349432D01*
X218586726Y-144349436D01*
X218724387Y-144551347D01*
X218734521Y-144566211D01*
X218912968Y-144758533D01*
X218912972Y-144758536D01*
X218912973Y-144758537D01*
X219118097Y-144922118D01*
X219345311Y-145053300D01*
X219589538Y-145149152D01*
X219845324Y-145207534D01*
X219845330Y-145207534D01*
X219845333Y-145207535D01*
X220041454Y-145222232D01*
X220041460Y-145222232D01*
X220172454Y-145222232D01*
X220368574Y-145207535D01*
X220368576Y-145207534D01*
X220368584Y-145207534D01*
X220624370Y-145149152D01*
X220868597Y-145053300D01*
X221095811Y-144922118D01*
X221300935Y-144758537D01*
X221479387Y-144566211D01*
X221627182Y-144349436D01*
X221741017Y-144113055D01*
X221818350Y-143862347D01*
X221857454Y-143602914D01*
X221857454Y-143539495D01*
X230552741Y-143539495D01*
X230582367Y-143808745D01*
X230582369Y-143808756D01*
X230650880Y-144070814D01*
X230650882Y-144070820D01*
X230756824Y-144320122D01*
X230828952Y-144438307D01*
X230897933Y-144551337D01*
X230897940Y-144551347D01*
X231071207Y-144759551D01*
X231071213Y-144759556D01*
X231272952Y-144940314D01*
X231498864Y-145089776D01*
X231744130Y-145204752D01*
X231744137Y-145204754D01*
X231744139Y-145204755D01*
X232003511Y-145282789D01*
X232003518Y-145282790D01*
X232003523Y-145282792D01*
X232271515Y-145322232D01*
X232271520Y-145322232D01*
X233474590Y-145322232D01*
X233526087Y-145318462D01*
X233677110Y-145307409D01*
X233789712Y-145282325D01*
X233941500Y-145248514D01*
X233941502Y-145248513D01*
X233941507Y-145248512D01*
X234194512Y-145151746D01*
X234430731Y-145019173D01*
X234645131Y-144853620D01*
X234833140Y-144658613D01*
X234990753Y-144438311D01*
X235064741Y-144294401D01*
X235114603Y-144197422D01*
X235114605Y-144197416D01*
X235114610Y-144197407D01*
X235202072Y-143941037D01*
X235251273Y-143674665D01*
X235261166Y-143403967D01*
X235231540Y-143134714D01*
X235163026Y-142872644D01*
X235057084Y-142623342D01*
X234915972Y-142392122D01*
X234826701Y-142284851D01*
X234804461Y-142258127D01*
X242468149Y-142258127D01*
X242508367Y-142524958D01*
X242508369Y-142524964D01*
X242587911Y-142782832D01*
X242704995Y-143025960D01*
X242704997Y-143025962D01*
X242704998Y-143025965D01*
X242822228Y-143197910D01*
X242857014Y-143248932D01*
X243040559Y-143446748D01*
X243040563Y-143446751D01*
X243040564Y-143446752D01*
X243251547Y-143615006D01*
X243485251Y-143749934D01*
X243736454Y-143848525D01*
X243999546Y-143908574D01*
X244028364Y-143910733D01*
X244201267Y-143923691D01*
X244201273Y-143923691D01*
X244336031Y-143923691D01*
X244487320Y-143912353D01*
X244537752Y-143908574D01*
X244800844Y-143848525D01*
X245052047Y-143749934D01*
X245285751Y-143615006D01*
X245496734Y-143446752D01*
X245680284Y-143248932D01*
X245832300Y-143025966D01*
X245949387Y-142782832D01*
X246028929Y-142524963D01*
X246031915Y-142505156D01*
X246069148Y-142258127D01*
X246069149Y-142258118D01*
X246069149Y-141988263D01*
X246069148Y-141988254D01*
X246028930Y-141721423D01*
X246028928Y-141721417D01*
X246020764Y-141694949D01*
X246007417Y-141651680D01*
X256624247Y-141651680D01*
X256637365Y-141738708D01*
X256663351Y-141911108D01*
X256663352Y-141911110D01*
X256663353Y-141911116D01*
X256740685Y-142161819D01*
X256854514Y-142398189D01*
X256854515Y-142398190D01*
X256854517Y-142398193D01*
X256854519Y-142398197D01*
X256988035Y-142594028D01*
X257002314Y-142614972D01*
X257180761Y-142807294D01*
X257180765Y-142807297D01*
X257180766Y-142807298D01*
X257385890Y-142970879D01*
X257613104Y-143102061D01*
X257857331Y-143197913D01*
X258113117Y-143256295D01*
X258113123Y-143256295D01*
X258113126Y-143256296D01*
X258309247Y-143270993D01*
X258309253Y-143270993D01*
X258440247Y-143270993D01*
X258636367Y-143256296D01*
X258636369Y-143256295D01*
X258636377Y-143256295D01*
X258892163Y-143197913D01*
X259136390Y-143102061D01*
X259363604Y-142970879D01*
X259568728Y-142807298D01*
X259747180Y-142614972D01*
X259894975Y-142398197D01*
X259897904Y-142392116D01*
X259918857Y-142348604D01*
X260008810Y-142161816D01*
X260086143Y-141911108D01*
X260125247Y-141651675D01*
X260125247Y-141389311D01*
X260086143Y-141129878D01*
X260008810Y-140879170D01*
X259970506Y-140799630D01*
X259894979Y-140642796D01*
X259894978Y-140642795D01*
X259894977Y-140642794D01*
X259894975Y-140642789D01*
X259747180Y-140426014D01*
X259721052Y-140397855D01*
X259568732Y-140233691D01*
X259529280Y-140202229D01*
X259363604Y-140070107D01*
X259136390Y-139938925D01*
X258892163Y-139843073D01*
X258892158Y-139843071D01*
X258892149Y-139843069D01*
X258674565Y-139793407D01*
X258636377Y-139784691D01*
X258636376Y-139784690D01*
X258636372Y-139784690D01*
X258636367Y-139784689D01*
X258440247Y-139769993D01*
X258440241Y-139769993D01*
X258309253Y-139769993D01*
X258309247Y-139769993D01*
X258113126Y-139784689D01*
X258113121Y-139784690D01*
X257857344Y-139843069D01*
X257857325Y-139843075D01*
X257613103Y-139938925D01*
X257385890Y-140070107D01*
X257180761Y-140233691D01*
X257002314Y-140426013D01*
X256854515Y-140642795D01*
X256854514Y-140642796D01*
X256740685Y-140879166D01*
X256663353Y-141129869D01*
X256663352Y-141129874D01*
X256663351Y-141129878D01*
X256651982Y-141205305D01*
X256624247Y-141389305D01*
X256624247Y-141651680D01*
X246007417Y-141651680D01*
X245949387Y-141463550D01*
X245832300Y-141220417D01*
X245680284Y-140997450D01*
X245670007Y-140986374D01*
X245496738Y-140799633D01*
X245338309Y-140673290D01*
X245285751Y-140631376D01*
X245180324Y-140570508D01*
X252544247Y-140570508D01*
X252554747Y-140673288D01*
X252554748Y-140673289D01*
X252609933Y-140839828D01*
X252609934Y-140839830D01*
X252702033Y-140989144D01*
X252702036Y-140989148D01*
X252826091Y-141113203D01*
X252826095Y-141113206D01*
X252975409Y-141205305D01*
X252975411Y-141205306D01*
X252975413Y-141205307D01*
X253141950Y-141260492D01*
X253244739Y-141270993D01*
X253244744Y-141270993D01*
X254864750Y-141270993D01*
X254864755Y-141270993D01*
X254967544Y-141260492D01*
X255134081Y-141205307D01*
X255283402Y-141113204D01*
X255407458Y-140989148D01*
X255499561Y-140839827D01*
X255554746Y-140673290D01*
X255565247Y-140570501D01*
X255565247Y-139470485D01*
X255554746Y-139367696D01*
X255499561Y-139201159D01*
X255407458Y-139051838D01*
X255283402Y-138927782D01*
X255283398Y-138927779D01*
X255134084Y-138835680D01*
X255134082Y-138835679D01*
X255050812Y-138808086D01*
X254967544Y-138780494D01*
X254967542Y-138780493D01*
X254864762Y-138769993D01*
X254864755Y-138769993D01*
X253244739Y-138769993D01*
X253244731Y-138769993D01*
X253141951Y-138780493D01*
X253141950Y-138780494D01*
X252975411Y-138835679D01*
X252975409Y-138835680D01*
X252826095Y-138927779D01*
X252826091Y-138927782D01*
X252702036Y-139051837D01*
X252702033Y-139051841D01*
X252609934Y-139201155D01*
X252609933Y-139201157D01*
X252554748Y-139367696D01*
X252554747Y-139367697D01*
X252544247Y-139470477D01*
X252544247Y-140570508D01*
X245180324Y-140570508D01*
X245052047Y-140496448D01*
X245052045Y-140496447D01*
X244800844Y-140397857D01*
X244800837Y-140397855D01*
X244537750Y-140337807D01*
X244336031Y-140322691D01*
X244336025Y-140322691D01*
X244201273Y-140322691D01*
X244201267Y-140322691D01*
X243999547Y-140337807D01*
X243736460Y-140397855D01*
X243736453Y-140397857D01*
X243485252Y-140496447D01*
X243485248Y-140496449D01*
X243251547Y-140631376D01*
X243040559Y-140799633D01*
X242857014Y-140997449D01*
X242704994Y-141220422D01*
X242704993Y-141220423D01*
X242587912Y-141463546D01*
X242508369Y-141721417D01*
X242508367Y-141721423D01*
X242468149Y-141988254D01*
X242468149Y-142258127D01*
X234804461Y-142258127D01*
X234742700Y-142183912D01*
X234742694Y-142183907D01*
X234540956Y-142003150D01*
X234315046Y-141853689D01*
X234315044Y-141853688D01*
X234069778Y-141738712D01*
X234069773Y-141738710D01*
X234069768Y-141738708D01*
X233810396Y-141660674D01*
X233810382Y-141660671D01*
X233694745Y-141643653D01*
X233542393Y-141621232D01*
X232339323Y-141621232D01*
X232339318Y-141621232D01*
X232136798Y-141636055D01*
X232136785Y-141636057D01*
X231872407Y-141694949D01*
X231872400Y-141694952D01*
X231619393Y-141791719D01*
X231383180Y-141924289D01*
X231168776Y-142089844D01*
X230980776Y-142284841D01*
X230980770Y-142284848D01*
X230823156Y-142505151D01*
X230823153Y-142505156D01*
X230699304Y-142746041D01*
X230699297Y-142746059D01*
X230611838Y-143002417D01*
X230611835Y-143002431D01*
X230607489Y-143025959D01*
X230564945Y-143256296D01*
X230562635Y-143268800D01*
X230562634Y-143268807D01*
X230552741Y-143539495D01*
X221857454Y-143539495D01*
X221857454Y-143340550D01*
X221818350Y-143081117D01*
X221741017Y-142830409D01*
X221641299Y-142623342D01*
X221627186Y-142594035D01*
X221627185Y-142594034D01*
X221627184Y-142594033D01*
X221627182Y-142594028D01*
X221479387Y-142377253D01*
X221393648Y-142284848D01*
X221300939Y-142184930D01*
X221261487Y-142153468D01*
X221095811Y-142021346D01*
X220868597Y-141890164D01*
X220624370Y-141794312D01*
X220624365Y-141794310D01*
X220624356Y-141794308D01*
X220406772Y-141744646D01*
X220368584Y-141735930D01*
X220368583Y-141735929D01*
X220368579Y-141735929D01*
X220368574Y-141735928D01*
X220172454Y-141721232D01*
X220172448Y-141721232D01*
X220041460Y-141721232D01*
X220041454Y-141721232D01*
X219845333Y-141735928D01*
X219845328Y-141735929D01*
X219589551Y-141794308D01*
X219589532Y-141794314D01*
X219345310Y-141890164D01*
X219118097Y-142021346D01*
X218912968Y-142184930D01*
X218734521Y-142377252D01*
X218586722Y-142594034D01*
X218586721Y-142594035D01*
X218472892Y-142830405D01*
X218395560Y-143081108D01*
X218395559Y-143081113D01*
X218395558Y-143081117D01*
X218387479Y-143134718D01*
X218356454Y-143340544D01*
X218356454Y-143602919D01*
X213226500Y-143602919D01*
X213226500Y-136509630D01*
X218289629Y-136509630D01*
X218300444Y-136581376D01*
X218328733Y-136769058D01*
X218328734Y-136769060D01*
X218328735Y-136769066D01*
X218406067Y-137019769D01*
X218519896Y-137256139D01*
X218519897Y-137256140D01*
X218519899Y-137256143D01*
X218519901Y-137256147D01*
X218657562Y-137458058D01*
X218667696Y-137472922D01*
X218846143Y-137665244D01*
X218846147Y-137665247D01*
X218846148Y-137665248D01*
X219051272Y-137828829D01*
X219278486Y-137960011D01*
X219522713Y-138055863D01*
X219778499Y-138114245D01*
X219778505Y-138114245D01*
X219778508Y-138114246D01*
X219974629Y-138128943D01*
X219974635Y-138128943D01*
X220105629Y-138128943D01*
X220301749Y-138114246D01*
X220301751Y-138114245D01*
X220301759Y-138114245D01*
X220557545Y-138055863D01*
X220801772Y-137960011D01*
X221028986Y-137828829D01*
X221234110Y-137665248D01*
X221412562Y-137472922D01*
X221560357Y-137256147D01*
X221674192Y-137019766D01*
X221751525Y-136769058D01*
X221790629Y-136509625D01*
X221790629Y-136446206D01*
X230485916Y-136446206D01*
X230515542Y-136715456D01*
X230515544Y-136715467D01*
X230584055Y-136977525D01*
X230584057Y-136977531D01*
X230689999Y-137226833D01*
X230762127Y-137345018D01*
X230831108Y-137458048D01*
X230831115Y-137458058D01*
X231004382Y-137666262D01*
X231004388Y-137666267D01*
X231206127Y-137847025D01*
X231432039Y-137996487D01*
X231677305Y-138111463D01*
X231677312Y-138111465D01*
X231677314Y-138111466D01*
X231936686Y-138189500D01*
X231936693Y-138189501D01*
X231936698Y-138189503D01*
X232204690Y-138228943D01*
X232204695Y-138228943D01*
X233407765Y-138228943D01*
X233459262Y-138225173D01*
X233610285Y-138214120D01*
X233722887Y-138189036D01*
X233874675Y-138155225D01*
X233874677Y-138155224D01*
X233874682Y-138155223D01*
X234127687Y-138058457D01*
X234363906Y-137925884D01*
X234578306Y-137760331D01*
X234766315Y-137565324D01*
X234923928Y-137345022D01*
X234997916Y-137201112D01*
X235047778Y-137104133D01*
X235047780Y-137104127D01*
X235047785Y-137104118D01*
X235135247Y-136847748D01*
X235184448Y-136581376D01*
X235194341Y-136310678D01*
X235164715Y-136041425D01*
X235159391Y-136021060D01*
X245468156Y-136021060D01*
X245468157Y-136021066D01*
X245474564Y-136080673D01*
X245524858Y-136215518D01*
X245524862Y-136215525D01*
X245611108Y-136330734D01*
X245611111Y-136330737D01*
X245726320Y-136416983D01*
X245726327Y-136416987D01*
X245861173Y-136467281D01*
X245861172Y-136467281D01*
X245868100Y-136468025D01*
X245920783Y-136473690D01*
X248316528Y-136473689D01*
X248376139Y-136467281D01*
X248510987Y-136416986D01*
X248626202Y-136330736D01*
X248712452Y-136215521D01*
X248762747Y-136080673D01*
X248769156Y-136021063D01*
X248769155Y-133625318D01*
X248762747Y-133565707D01*
X248712452Y-133430859D01*
X248712451Y-133430858D01*
X248712449Y-133430854D01*
X248626203Y-133315645D01*
X248626200Y-133315642D01*
X248510991Y-133229396D01*
X248510984Y-133229392D01*
X248376138Y-133179098D01*
X248376139Y-133179098D01*
X248316539Y-133172691D01*
X248316537Y-133172690D01*
X248316529Y-133172690D01*
X248316520Y-133172690D01*
X245920785Y-133172690D01*
X245920779Y-133172691D01*
X245861172Y-133179098D01*
X245726327Y-133229392D01*
X245726320Y-133229396D01*
X245611111Y-133315642D01*
X245611108Y-133315645D01*
X245524862Y-133430854D01*
X245524858Y-133430861D01*
X245474564Y-133565707D01*
X245468157Y-133625306D01*
X245468157Y-133625313D01*
X245468156Y-133625325D01*
X245468156Y-136021060D01*
X235159391Y-136021060D01*
X235096201Y-135779355D01*
X234990259Y-135530053D01*
X234849147Y-135298833D01*
X234759876Y-135191562D01*
X234675875Y-135090623D01*
X234675869Y-135090618D01*
X234474131Y-134909861D01*
X234248221Y-134760400D01*
X234248219Y-134760399D01*
X234002953Y-134645423D01*
X234002948Y-134645421D01*
X234002943Y-134645419D01*
X233743571Y-134567385D01*
X233743557Y-134567382D01*
X233627920Y-134550364D01*
X233475568Y-134527943D01*
X232272498Y-134527943D01*
X232272493Y-134527943D01*
X232069973Y-134542766D01*
X232069960Y-134542768D01*
X231805582Y-134601660D01*
X231805575Y-134601663D01*
X231552568Y-134698430D01*
X231316355Y-134831000D01*
X231101951Y-134996555D01*
X230913951Y-135191552D01*
X230913945Y-135191559D01*
X230756331Y-135411862D01*
X230756328Y-135411867D01*
X230632479Y-135652752D01*
X230632472Y-135652770D01*
X230545013Y-135909128D01*
X230545010Y-135909142D01*
X230495810Y-136175511D01*
X230495809Y-136175518D01*
X230485916Y-136446206D01*
X221790629Y-136446206D01*
X221790629Y-136247261D01*
X221751525Y-135987828D01*
X221674192Y-135737120D01*
X221574474Y-135530053D01*
X221560361Y-135500746D01*
X221560360Y-135500745D01*
X221560359Y-135500744D01*
X221560357Y-135500739D01*
X221412562Y-135283964D01*
X221326823Y-135191559D01*
X221234114Y-135091641D01*
X221194662Y-135060179D01*
X221028986Y-134928057D01*
X220801772Y-134796875D01*
X220557545Y-134701023D01*
X220557540Y-134701021D01*
X220557531Y-134701019D01*
X220339947Y-134651357D01*
X220301759Y-134642641D01*
X220301758Y-134642640D01*
X220301754Y-134642640D01*
X220301749Y-134642639D01*
X220105629Y-134627943D01*
X220105623Y-134627943D01*
X219974635Y-134627943D01*
X219974629Y-134627943D01*
X219778508Y-134642639D01*
X219778503Y-134642640D01*
X219522726Y-134701019D01*
X219522707Y-134701025D01*
X219278485Y-134796875D01*
X219051272Y-134928057D01*
X218846143Y-135091641D01*
X218667696Y-135283963D01*
X218519897Y-135500745D01*
X218519896Y-135500746D01*
X218406067Y-135737116D01*
X218328735Y-135987819D01*
X218328734Y-135987824D01*
X218328733Y-135987828D01*
X218320654Y-136041429D01*
X218289629Y-136247255D01*
X218289629Y-136509630D01*
X213226500Y-136509630D01*
X213226500Y-129692678D01*
X217078335Y-129692678D01*
X217108360Y-129965559D01*
X217108361Y-129965569D01*
X217177800Y-130231178D01*
X217177802Y-130231182D01*
X217285175Y-130483852D01*
X217428190Y-130718191D01*
X217428197Y-130718201D01*
X217603797Y-130929207D01*
X217603802Y-130929212D01*
X217603807Y-130929218D01*
X217603814Y-130929224D01*
X217808270Y-131112419D01*
X217808272Y-131112420D01*
X217808275Y-131112423D01*
X218037239Y-131263904D01*
X218285819Y-131380433D01*
X218548717Y-131459527D01*
X218820329Y-131499500D01*
X218820334Y-131499500D01*
X219026150Y-131499500D01*
X219078342Y-131495679D01*
X219231403Y-131484477D01*
X219499373Y-131424784D01*
X219755796Y-131326711D01*
X219995207Y-131192347D01*
X220212502Y-131024557D01*
X220403052Y-130826916D01*
X220562794Y-130603637D01*
X220688325Y-130359479D01*
X220719811Y-130267187D01*
X256687500Y-130267187D01*
X256707794Y-130401823D01*
X256726604Y-130526615D01*
X256726605Y-130526617D01*
X256726606Y-130526623D01*
X256803938Y-130777326D01*
X256917767Y-131013696D01*
X256917768Y-131013697D01*
X256917770Y-131013700D01*
X256917772Y-131013704D01*
X256985075Y-131112419D01*
X257065567Y-131230479D01*
X257244014Y-131422801D01*
X257244018Y-131422804D01*
X257244019Y-131422805D01*
X257449143Y-131586386D01*
X257676357Y-131717568D01*
X257920584Y-131813420D01*
X258176370Y-131871802D01*
X258176376Y-131871802D01*
X258176379Y-131871803D01*
X258372500Y-131886500D01*
X258372506Y-131886500D01*
X258503500Y-131886500D01*
X258699620Y-131871803D01*
X258699622Y-131871802D01*
X258699630Y-131871802D01*
X258955416Y-131813420D01*
X259199643Y-131717568D01*
X259426857Y-131586386D01*
X259631981Y-131422805D01*
X259810433Y-131230479D01*
X259958228Y-131013704D01*
X260072063Y-130777323D01*
X260149396Y-130526615D01*
X260188500Y-130267182D01*
X260188500Y-130004818D01*
X260149396Y-129745385D01*
X260072063Y-129494677D01*
X260035289Y-129418314D01*
X259958232Y-129258303D01*
X259958231Y-129258302D01*
X259958230Y-129258301D01*
X259958228Y-129258296D01*
X259810433Y-129041521D01*
X259787512Y-129016818D01*
X259631985Y-128849198D01*
X259592533Y-128817736D01*
X259426857Y-128685614D01*
X259199643Y-128554432D01*
X258955416Y-128458580D01*
X258955411Y-128458578D01*
X258955402Y-128458576D01*
X258737818Y-128408914D01*
X258699630Y-128400198D01*
X258699629Y-128400197D01*
X258699625Y-128400197D01*
X258699620Y-128400196D01*
X258503500Y-128385500D01*
X258503494Y-128385500D01*
X258372506Y-128385500D01*
X258372500Y-128385500D01*
X258176379Y-128400196D01*
X258176374Y-128400197D01*
X257920597Y-128458576D01*
X257920578Y-128458582D01*
X257676356Y-128554432D01*
X257449143Y-128685614D01*
X257244014Y-128849198D01*
X257065567Y-129041520D01*
X256917768Y-129258302D01*
X256917767Y-129258303D01*
X256803938Y-129494673D01*
X256726606Y-129745376D01*
X256726605Y-129745381D01*
X256726604Y-129745385D01*
X256715235Y-129820812D01*
X256687500Y-130004812D01*
X256687500Y-130267187D01*
X220719811Y-130267187D01*
X220776968Y-130099646D01*
X220826834Y-129829674D01*
X220836860Y-129555320D01*
X220806834Y-129282429D01*
X220781628Y-129186015D01*
X252607500Y-129186015D01*
X252618000Y-129288795D01*
X252618001Y-129288796D01*
X252673186Y-129455335D01*
X252673187Y-129455337D01*
X252765286Y-129604651D01*
X252765289Y-129604655D01*
X252889344Y-129728710D01*
X252889348Y-129728713D01*
X253038662Y-129820812D01*
X253038664Y-129820813D01*
X253038666Y-129820814D01*
X253205203Y-129875999D01*
X253307992Y-129886500D01*
X253307997Y-129886500D01*
X254928003Y-129886500D01*
X254928008Y-129886500D01*
X255030797Y-129875999D01*
X255197334Y-129820814D01*
X255346655Y-129728711D01*
X255470711Y-129604655D01*
X255562814Y-129455334D01*
X255617999Y-129288797D01*
X255628500Y-129186008D01*
X255628500Y-128085992D01*
X255617999Y-127983203D01*
X255562814Y-127816666D01*
X255545424Y-127788473D01*
X255470713Y-127667348D01*
X255470710Y-127667344D01*
X255346655Y-127543289D01*
X255346651Y-127543286D01*
X255197337Y-127451187D01*
X255197335Y-127451186D01*
X255066971Y-127407988D01*
X255030797Y-127396001D01*
X255030795Y-127396000D01*
X254928015Y-127385500D01*
X254928008Y-127385500D01*
X253307992Y-127385500D01*
X253307984Y-127385500D01*
X253205204Y-127396000D01*
X253205203Y-127396001D01*
X253038664Y-127451186D01*
X253038662Y-127451187D01*
X252889348Y-127543286D01*
X252889344Y-127543289D01*
X252765289Y-127667344D01*
X252765286Y-127667348D01*
X252673187Y-127816662D01*
X252673186Y-127816664D01*
X252618001Y-127983203D01*
X252618000Y-127983204D01*
X252607500Y-128085984D01*
X252607500Y-129186015D01*
X220781628Y-129186015D01*
X220737394Y-129016818D01*
X220630021Y-128764148D01*
X220487003Y-128529804D01*
X220422778Y-128452630D01*
X220311398Y-128318792D01*
X220311393Y-128318787D01*
X220311389Y-128318782D01*
X220146509Y-128171048D01*
X220106925Y-128135580D01*
X220106922Y-128135578D01*
X220106921Y-128135577D01*
X219877957Y-127984096D01*
X219629377Y-127867567D01*
X219481960Y-127823216D01*
X219366477Y-127788472D01*
X219233513Y-127768904D01*
X219094867Y-127748500D01*
X218889051Y-127748500D01*
X218889046Y-127748500D01*
X218683793Y-127763523D01*
X218683783Y-127763524D01*
X218415827Y-127823214D01*
X218415822Y-127823216D01*
X218159397Y-127921290D01*
X217919990Y-128055652D01*
X217919985Y-128055655D01*
X217702695Y-128223441D01*
X217702686Y-128223450D01*
X217512147Y-128421080D01*
X217512145Y-128421082D01*
X217352403Y-128644361D01*
X217352400Y-128644366D01*
X217226873Y-128888515D01*
X217226869Y-128888525D01*
X217138230Y-129148344D01*
X217138227Y-129148358D01*
X217088363Y-129418314D01*
X217088361Y-129418334D01*
X217078335Y-129692678D01*
X213226500Y-129692678D01*
X213226500Y-124802002D01*
X220242321Y-124802002D01*
X220244627Y-124828357D01*
X220260616Y-125011123D01*
X220261391Y-125019975D01*
X220261391Y-125019979D01*
X220318020Y-125231322D01*
X220318022Y-125231326D01*
X220318023Y-125231330D01*
X220410496Y-125429639D01*
X220470921Y-125515934D01*
X220493248Y-125582140D01*
X220476238Y-125649908D01*
X220443658Y-125686324D01*
X220390050Y-125726455D01*
X220303804Y-125841664D01*
X220303800Y-125841671D01*
X220253506Y-125976517D01*
X220247099Y-126036116D01*
X220247098Y-126036135D01*
X220247098Y-127631870D01*
X220247099Y-127631876D01*
X220253506Y-127691483D01*
X220303800Y-127826328D01*
X220303804Y-127826335D01*
X220390050Y-127941544D01*
X220390053Y-127941547D01*
X220505262Y-128027793D01*
X220505269Y-128027797D01*
X220640115Y-128078091D01*
X220640114Y-128078091D01*
X220647042Y-128078835D01*
X220699725Y-128084500D01*
X222295470Y-128084499D01*
X222355081Y-128078091D01*
X222489929Y-128027796D01*
X222605144Y-127941546D01*
X222691394Y-127826331D01*
X222741689Y-127691483D01*
X222748098Y-127631873D01*
X222748097Y-127132333D01*
X222767781Y-127065295D01*
X222820585Y-127019540D01*
X222889744Y-127009596D01*
X222904182Y-127012557D01*
X223059621Y-127054207D01*
X223247385Y-127070633D01*
X223277596Y-127073277D01*
X223277598Y-127073277D01*
X223277600Y-127073277D01*
X223305852Y-127070805D01*
X223495575Y-127054207D01*
X223706928Y-126997575D01*
X223905237Y-126905102D01*
X224084475Y-126779598D01*
X224239196Y-126624877D01*
X224295369Y-126544654D01*
X236846780Y-126544654D01*
X236866072Y-126814386D01*
X236866073Y-126814393D01*
X236923552Y-127078624D01*
X237018057Y-127332002D01*
X237018059Y-127332006D01*
X237147653Y-127569339D01*
X237147658Y-127569347D01*
X237309708Y-127785822D01*
X237309724Y-127785840D01*
X237500921Y-127977037D01*
X237500939Y-127977053D01*
X237717414Y-128139103D01*
X237717422Y-128139108D01*
X237954755Y-128268702D01*
X237954759Y-128268704D01*
X237954761Y-128268705D01*
X238208133Y-128363208D01*
X238208136Y-128363208D01*
X238208137Y-128363209D01*
X238296214Y-128382368D01*
X238472376Y-128420690D01*
X238722816Y-128438602D01*
X238742108Y-128439982D01*
X238742109Y-128439982D01*
X238742110Y-128439982D01*
X238760114Y-128438694D01*
X239011842Y-128420690D01*
X239276085Y-128363208D01*
X239529457Y-128268705D01*
X239766801Y-128139105D01*
X239983286Y-127977047D01*
X240174503Y-127785830D01*
X240336561Y-127569345D01*
X240336565Y-127569336D01*
X240337792Y-127567429D01*
X240338371Y-127566926D01*
X240339215Y-127565800D01*
X240339460Y-127565983D01*
X240390595Y-127521673D01*
X240459753Y-127511728D01*
X240523310Y-127540751D01*
X240546426Y-127567429D01*
X240547660Y-127569350D01*
X240709708Y-127785822D01*
X240709724Y-127785840D01*
X240900921Y-127977037D01*
X240900939Y-127977053D01*
X241117414Y-128139103D01*
X241117422Y-128139108D01*
X241354755Y-128268702D01*
X241354759Y-128268704D01*
X241354761Y-128268705D01*
X241608133Y-128363208D01*
X241608136Y-128363208D01*
X241608137Y-128363209D01*
X241696214Y-128382368D01*
X241872376Y-128420690D01*
X242122816Y-128438602D01*
X242142108Y-128439982D01*
X242142109Y-128439982D01*
X242142110Y-128439982D01*
X242160114Y-128438694D01*
X242411842Y-128420690D01*
X242676085Y-128363208D01*
X242929457Y-128268705D01*
X243166801Y-128139105D01*
X243383286Y-127977047D01*
X243574503Y-127785830D01*
X243736561Y-127569345D01*
X243866161Y-127332001D01*
X243960664Y-127078629D01*
X244018146Y-126814386D01*
X244035153Y-126576594D01*
X244507716Y-126576594D01*
X244527008Y-126846326D01*
X244527009Y-126846333D01*
X244584488Y-127110564D01*
X244678993Y-127363942D01*
X244678995Y-127363946D01*
X244808589Y-127601279D01*
X244808594Y-127601287D01*
X244970644Y-127817762D01*
X244970660Y-127817780D01*
X245161857Y-128008977D01*
X245161875Y-128008993D01*
X245378350Y-128171043D01*
X245378358Y-128171048D01*
X245615691Y-128300642D01*
X245615695Y-128300644D01*
X245615697Y-128300645D01*
X245869069Y-128395148D01*
X245869072Y-128395148D01*
X245869073Y-128395149D01*
X245957150Y-128414308D01*
X246133312Y-128452630D01*
X246383752Y-128470542D01*
X246403044Y-128471922D01*
X246403045Y-128471922D01*
X246403046Y-128471922D01*
X246421050Y-128470634D01*
X246672778Y-128452630D01*
X246937021Y-128395148D01*
X247190393Y-128300645D01*
X247427737Y-128171045D01*
X247644222Y-128008987D01*
X247835439Y-127817770D01*
X247997497Y-127601285D01*
X247997501Y-127601276D01*
X247998728Y-127599369D01*
X247999307Y-127598866D01*
X248000151Y-127597740D01*
X248000396Y-127597923D01*
X248051531Y-127553613D01*
X248120689Y-127543668D01*
X248184246Y-127572691D01*
X248207362Y-127599369D01*
X248208596Y-127601290D01*
X248370644Y-127817762D01*
X248370660Y-127817780D01*
X248561857Y-128008977D01*
X248561875Y-128008993D01*
X248778350Y-128171043D01*
X248778358Y-128171048D01*
X249015691Y-128300642D01*
X249015695Y-128300644D01*
X249015697Y-128300645D01*
X249269069Y-128395148D01*
X249269072Y-128395148D01*
X249269073Y-128395149D01*
X249357150Y-128414308D01*
X249533312Y-128452630D01*
X249783752Y-128470542D01*
X249803044Y-128471922D01*
X249803045Y-128471922D01*
X249803046Y-128471922D01*
X249821050Y-128470634D01*
X250072778Y-128452630D01*
X250337021Y-128395148D01*
X250590393Y-128300645D01*
X250827737Y-128171045D01*
X251044222Y-128008987D01*
X251235439Y-127817770D01*
X251397497Y-127601285D01*
X251527097Y-127363941D01*
X251621600Y-127110569D01*
X251679082Y-126846326D01*
X251698374Y-126576593D01*
X251679082Y-126306860D01*
X251621600Y-126042617D01*
X251527097Y-125789245D01*
X251509656Y-125757305D01*
X251397500Y-125551906D01*
X251397495Y-125551898D01*
X251235445Y-125335423D01*
X251235429Y-125335405D01*
X251044232Y-125144208D01*
X251044214Y-125144192D01*
X250827739Y-124982142D01*
X250827731Y-124982137D01*
X250590398Y-124852543D01*
X250590394Y-124852541D01*
X250337016Y-124758036D01*
X250072785Y-124700557D01*
X250072778Y-124700556D01*
X249803046Y-124681264D01*
X249803044Y-124681264D01*
X249533311Y-124700556D01*
X249533304Y-124700557D01*
X249269073Y-124758036D01*
X249015695Y-124852541D01*
X249015691Y-124852543D01*
X248778358Y-124982137D01*
X248778350Y-124982142D01*
X248561875Y-125144192D01*
X248561857Y-125144208D01*
X248370660Y-125335405D01*
X248370644Y-125335423D01*
X248208599Y-125551892D01*
X248207357Y-125553825D01*
X248206774Y-125554329D01*
X248205939Y-125555446D01*
X248205695Y-125555264D01*
X248154550Y-125599576D01*
X248085391Y-125609516D01*
X248021837Y-125580487D01*
X247998733Y-125553825D01*
X247997503Y-125551913D01*
X247997497Y-125551901D01*
X247905973Y-125429639D01*
X247835445Y-125335423D01*
X247835429Y-125335405D01*
X247644232Y-125144208D01*
X247644214Y-125144192D01*
X247427739Y-124982142D01*
X247427731Y-124982137D01*
X247190398Y-124852543D01*
X247190394Y-124852541D01*
X246937016Y-124758036D01*
X246672785Y-124700557D01*
X246672778Y-124700556D01*
X246403046Y-124681264D01*
X246403044Y-124681264D01*
X246133311Y-124700556D01*
X246133304Y-124700557D01*
X245869073Y-124758036D01*
X245615695Y-124852541D01*
X245615691Y-124852543D01*
X245378358Y-124982137D01*
X245378350Y-124982142D01*
X245161875Y-125144192D01*
X245161857Y-125144208D01*
X244970660Y-125335405D01*
X244970644Y-125335423D01*
X244808594Y-125551898D01*
X244808589Y-125551906D01*
X244678995Y-125789239D01*
X244678993Y-125789243D01*
X244584488Y-126042621D01*
X244527009Y-126306852D01*
X244527008Y-126306859D01*
X244507716Y-126576591D01*
X244507716Y-126576594D01*
X244035153Y-126576594D01*
X244037438Y-126544653D01*
X244018146Y-126274920D01*
X243960664Y-126010677D01*
X243866161Y-125757305D01*
X243827402Y-125686324D01*
X243736564Y-125519966D01*
X243736559Y-125519958D01*
X243574509Y-125303483D01*
X243574493Y-125303465D01*
X243383296Y-125112268D01*
X243383278Y-125112252D01*
X243166803Y-124950202D01*
X243166795Y-124950197D01*
X242929462Y-124820603D01*
X242929458Y-124820601D01*
X242676080Y-124726096D01*
X242411849Y-124668617D01*
X242411842Y-124668616D01*
X242142110Y-124649324D01*
X242142108Y-124649324D01*
X241872375Y-124668616D01*
X241872368Y-124668617D01*
X241608137Y-124726096D01*
X241354759Y-124820601D01*
X241354755Y-124820603D01*
X241117422Y-124950197D01*
X241117414Y-124950202D01*
X240900939Y-125112252D01*
X240900921Y-125112268D01*
X240709724Y-125303465D01*
X240709708Y-125303483D01*
X240547663Y-125519952D01*
X240546421Y-125521885D01*
X240545838Y-125522389D01*
X240545003Y-125523506D01*
X240544759Y-125523324D01*
X240493614Y-125567636D01*
X240424455Y-125577576D01*
X240360901Y-125548547D01*
X240337797Y-125521885D01*
X240336567Y-125519973D01*
X240336561Y-125519961D01*
X240268946Y-125429638D01*
X240174509Y-125303483D01*
X240174493Y-125303465D01*
X239983296Y-125112268D01*
X239983278Y-125112252D01*
X239766803Y-124950202D01*
X239766795Y-124950197D01*
X239529462Y-124820603D01*
X239529458Y-124820601D01*
X239276080Y-124726096D01*
X239011849Y-124668617D01*
X239011842Y-124668616D01*
X238742110Y-124649324D01*
X238742108Y-124649324D01*
X238472375Y-124668616D01*
X238472368Y-124668617D01*
X238208137Y-124726096D01*
X237954759Y-124820601D01*
X237954755Y-124820603D01*
X237717422Y-124950197D01*
X237717414Y-124950202D01*
X237500939Y-125112252D01*
X237500921Y-125112268D01*
X237309724Y-125303465D01*
X237309708Y-125303483D01*
X237147658Y-125519958D01*
X237147653Y-125519966D01*
X237018059Y-125757299D01*
X237018057Y-125757303D01*
X236923552Y-126010681D01*
X236866073Y-126274912D01*
X236866072Y-126274919D01*
X236846780Y-126544651D01*
X236846780Y-126544654D01*
X224295369Y-126544654D01*
X224364700Y-126445639D01*
X224457173Y-126247330D01*
X224513805Y-126035977D01*
X224532875Y-125818000D01*
X224513805Y-125600023D01*
X224457173Y-125388670D01*
X224364700Y-125190362D01*
X224364698Y-125190359D01*
X224364697Y-125190357D01*
X224239195Y-125011121D01*
X224117754Y-124889680D01*
X224084269Y-124828357D01*
X224089253Y-124758665D01*
X224117750Y-124714322D01*
X224239196Y-124592877D01*
X224364700Y-124413639D01*
X224457173Y-124215330D01*
X224513805Y-124003977D01*
X224532875Y-123786000D01*
X224513805Y-123568023D01*
X224457173Y-123356670D01*
X224364700Y-123158362D01*
X224364698Y-123158359D01*
X224364697Y-123158357D01*
X224239195Y-122979121D01*
X224117754Y-122857680D01*
X224084269Y-122796357D01*
X224089253Y-122726665D01*
X224117750Y-122682322D01*
X224239196Y-122560877D01*
X224364700Y-122381639D01*
X224457173Y-122183330D01*
X224513805Y-121971977D01*
X224532875Y-121754000D01*
X224513805Y-121536023D01*
X224457173Y-121324670D01*
X224364700Y-121126362D01*
X224364698Y-121126359D01*
X224364697Y-121126357D01*
X224239195Y-120947121D01*
X224117754Y-120825680D01*
X224084269Y-120764357D01*
X224089253Y-120694665D01*
X224117750Y-120650322D01*
X224239196Y-120528877D01*
X224364700Y-120349639D01*
X224374311Y-120329028D01*
X252602880Y-120329028D01*
X252633095Y-120552085D01*
X252633096Y-120552088D01*
X252702653Y-120766163D01*
X252809316Y-120964376D01*
X252809318Y-120964379D01*
X252949659Y-121140361D01*
X252949661Y-121140362D01*
X252949662Y-121140364D01*
X253119174Y-121288463D01*
X253312406Y-121403913D01*
X253523146Y-121483005D01*
X253744620Y-121523198D01*
X253744623Y-121523198D01*
X254433318Y-121523198D01*
X254433325Y-121523198D01*
X254601358Y-121508075D01*
X254601362Y-121508074D01*
X254818330Y-121448194D01*
X254818332Y-121448193D01*
X254818340Y-121448191D01*
X255021143Y-121350527D01*
X255203248Y-121218220D01*
X255358802Y-121055523D01*
X255482805Y-120867666D01*
X255571273Y-120660686D01*
X255621361Y-120441235D01*
X255631460Y-120216368D01*
X255601245Y-119993311D01*
X255531687Y-119779234D01*
X255500886Y-119721997D01*
X255425023Y-119581019D01*
X255425021Y-119581016D01*
X255284680Y-119405034D01*
X255284678Y-119405032D01*
X255115166Y-119256933D01*
X254921934Y-119141483D01*
X254803945Y-119097201D01*
X254711193Y-119062390D01*
X254489720Y-119022198D01*
X254489717Y-119022198D01*
X253801015Y-119022198D01*
X253762569Y-119025658D01*
X253632983Y-119037320D01*
X253632977Y-119037321D01*
X253416009Y-119097201D01*
X253415996Y-119097206D01*
X253213203Y-119194865D01*
X253213195Y-119194869D01*
X253031097Y-119327171D01*
X253031095Y-119327172D01*
X252875536Y-119489874D01*
X252751533Y-119677731D01*
X252663069Y-119884702D01*
X252663065Y-119884715D01*
X252612980Y-120104155D01*
X252612978Y-120104166D01*
X252607939Y-120216372D01*
X252602880Y-120329028D01*
X224374311Y-120329028D01*
X224457173Y-120151330D01*
X224513805Y-119939977D01*
X224532875Y-119722000D01*
X224513805Y-119504023D01*
X224457173Y-119292670D01*
X224364700Y-119094362D01*
X224364698Y-119094359D01*
X224364697Y-119094357D01*
X224239197Y-118915124D01*
X224227958Y-118903885D01*
X256686670Y-118903885D01*
X256704504Y-119022198D01*
X256725774Y-119163313D01*
X256725775Y-119163315D01*
X256725776Y-119163321D01*
X256803108Y-119414024D01*
X256916937Y-119650394D01*
X256916938Y-119650395D01*
X256916940Y-119650398D01*
X256916942Y-119650402D01*
X257064737Y-119867177D01*
X257243184Y-120059499D01*
X257243188Y-120059502D01*
X257243189Y-120059503D01*
X257448313Y-120223084D01*
X257675527Y-120354266D01*
X257919754Y-120450118D01*
X258175540Y-120508500D01*
X258175546Y-120508500D01*
X258175549Y-120508501D01*
X258371670Y-120523198D01*
X258371676Y-120523198D01*
X258502670Y-120523198D01*
X258698790Y-120508501D01*
X258698792Y-120508500D01*
X258698800Y-120508500D01*
X258954586Y-120450118D01*
X259198813Y-120354266D01*
X259426027Y-120223084D01*
X259631151Y-120059503D01*
X259809603Y-119867177D01*
X259957398Y-119650402D01*
X260071233Y-119414021D01*
X260148566Y-119163313D01*
X260187670Y-118903880D01*
X260187670Y-118641516D01*
X260148566Y-118382083D01*
X260071233Y-118131375D01*
X260050815Y-118088977D01*
X259957402Y-117895001D01*
X259957401Y-117895000D01*
X259957400Y-117894999D01*
X259957398Y-117894994D01*
X259809603Y-117678219D01*
X259781034Y-117647429D01*
X259631155Y-117485896D01*
X259578545Y-117443941D01*
X259426027Y-117322312D01*
X259198813Y-117191130D01*
X258954586Y-117095278D01*
X258954581Y-117095276D01*
X258954572Y-117095274D01*
X258736988Y-117045612D01*
X258698800Y-117036896D01*
X258698799Y-117036895D01*
X258698795Y-117036895D01*
X258698790Y-117036894D01*
X258502670Y-117022198D01*
X258502664Y-117022198D01*
X258371676Y-117022198D01*
X258371670Y-117022198D01*
X258175549Y-117036894D01*
X258175544Y-117036895D01*
X257919767Y-117095274D01*
X257919748Y-117095280D01*
X257675526Y-117191130D01*
X257448313Y-117322312D01*
X257243184Y-117485896D01*
X257064737Y-117678218D01*
X256916938Y-117895000D01*
X256916937Y-117895001D01*
X256803108Y-118131371D01*
X256725776Y-118382074D01*
X256725775Y-118382079D01*
X256725774Y-118382083D01*
X256721201Y-118412423D01*
X256686670Y-118641510D01*
X256686670Y-118903885D01*
X224227958Y-118903885D01*
X224227953Y-118903880D01*
X224084475Y-118760402D01*
X223946576Y-118663844D01*
X223905236Y-118634897D01*
X223806082Y-118588661D01*
X223706928Y-118542425D01*
X223706924Y-118542424D01*
X223706920Y-118542422D01*
X223495575Y-118485793D01*
X223277600Y-118466723D01*
X223277596Y-118466723D01*
X223132280Y-118479436D01*
X223059621Y-118485793D01*
X223059618Y-118485793D01*
X222848275Y-118542422D01*
X222848266Y-118542426D01*
X222649959Y-118634898D01*
X222649955Y-118634900D01*
X222470719Y-118760402D01*
X222316000Y-118915121D01*
X222190498Y-119094357D01*
X222190496Y-119094361D01*
X222098024Y-119292668D01*
X222098021Y-119292675D01*
X222052216Y-119463621D01*
X222015851Y-119523281D01*
X221953003Y-119553810D01*
X221900348Y-119551302D01*
X221715575Y-119501793D01*
X221497600Y-119482723D01*
X221497596Y-119482723D01*
X221415859Y-119489874D01*
X221279621Y-119501793D01*
X221279618Y-119501793D01*
X221068275Y-119558422D01*
X221068266Y-119558426D01*
X220869959Y-119650898D01*
X220869955Y-119650900D01*
X220690719Y-119776402D01*
X220536000Y-119931121D01*
X220410498Y-120110357D01*
X220410496Y-120110361D01*
X220318024Y-120308668D01*
X220318020Y-120308677D01*
X220261391Y-120520020D01*
X220261391Y-120520023D01*
X220242321Y-120738000D01*
X220260616Y-120947123D01*
X220261391Y-120955975D01*
X220261391Y-120955979D01*
X220318020Y-121167322D01*
X220318022Y-121167326D01*
X220318023Y-121167330D01*
X220364259Y-121266484D01*
X220410495Y-121365638D01*
X220410496Y-121365639D01*
X220536000Y-121544877D01*
X220536004Y-121544881D01*
X220657441Y-121666318D01*
X220690926Y-121727641D01*
X220685942Y-121797333D01*
X220657442Y-121841680D01*
X220535998Y-121963124D01*
X220410498Y-122142357D01*
X220410496Y-122142361D01*
X220318024Y-122340668D01*
X220318020Y-122340677D01*
X220261391Y-122552020D01*
X220261391Y-122552023D01*
X220242321Y-122770000D01*
X220260616Y-122979123D01*
X220261391Y-122987975D01*
X220261391Y-122987979D01*
X220318020Y-123199322D01*
X220318022Y-123199326D01*
X220318023Y-123199330D01*
X220364259Y-123298484D01*
X220410495Y-123397638D01*
X220410496Y-123397639D01*
X220536000Y-123576877D01*
X220536004Y-123576881D01*
X220657441Y-123698318D01*
X220690926Y-123759641D01*
X220685942Y-123829333D01*
X220657442Y-123873680D01*
X220535998Y-123995124D01*
X220410498Y-124174357D01*
X220410496Y-124174361D01*
X220318024Y-124372668D01*
X220318020Y-124372677D01*
X220261391Y-124584020D01*
X220261391Y-124584024D01*
X220242321Y-124801997D01*
X220242321Y-124802002D01*
X213226500Y-124802002D01*
X213226500Y-116992678D01*
X217078335Y-116992678D01*
X217108360Y-117265559D01*
X217108361Y-117265569D01*
X217177800Y-117531178D01*
X217241589Y-117681287D01*
X217285175Y-117783852D01*
X217428190Y-118018191D01*
X217428197Y-118018201D01*
X217603797Y-118229207D01*
X217603802Y-118229212D01*
X217603807Y-118229218D01*
X217628165Y-118251043D01*
X217808270Y-118412419D01*
X217808272Y-118412420D01*
X217808275Y-118412423D01*
X218037239Y-118563904D01*
X218285819Y-118680433D01*
X218548717Y-118759527D01*
X218820329Y-118799500D01*
X218820334Y-118799500D01*
X219026150Y-118799500D01*
X219078342Y-118795679D01*
X219231403Y-118784477D01*
X219499373Y-118724784D01*
X219755796Y-118626711D01*
X219995207Y-118492347D01*
X220212502Y-118324557D01*
X220403052Y-118126916D01*
X220562794Y-117903637D01*
X220688325Y-117659479D01*
X220776968Y-117399646D01*
X220826834Y-117129674D01*
X220836860Y-116855320D01*
X220811480Y-116624654D01*
X236846780Y-116624654D01*
X236866072Y-116894386D01*
X236866073Y-116894393D01*
X236923552Y-117158624D01*
X237018057Y-117412002D01*
X237018059Y-117412006D01*
X237147653Y-117649339D01*
X237147658Y-117649347D01*
X237309708Y-117865822D01*
X237309724Y-117865840D01*
X237500921Y-118057037D01*
X237500939Y-118057053D01*
X237717414Y-118219103D01*
X237717422Y-118219108D01*
X237954755Y-118348702D01*
X237954759Y-118348704D01*
X237954761Y-118348705D01*
X238208133Y-118443208D01*
X238208136Y-118443208D01*
X238208137Y-118443209D01*
X238273879Y-118457510D01*
X238472376Y-118500690D01*
X238722816Y-118518602D01*
X238742108Y-118519982D01*
X238742109Y-118519982D01*
X238742110Y-118519982D01*
X238760114Y-118518694D01*
X239011842Y-118500690D01*
X239276085Y-118443208D01*
X239529457Y-118348705D01*
X239766801Y-118219105D01*
X239983286Y-118057047D01*
X240174503Y-117865830D01*
X240336561Y-117649345D01*
X240336565Y-117649336D01*
X240337792Y-117647429D01*
X240338371Y-117646926D01*
X240339215Y-117645800D01*
X240339460Y-117645983D01*
X240390595Y-117601673D01*
X240459753Y-117591728D01*
X240523310Y-117620751D01*
X240546426Y-117647429D01*
X240547660Y-117649350D01*
X240709708Y-117865822D01*
X240709724Y-117865840D01*
X240900921Y-118057037D01*
X240900939Y-118057053D01*
X241117414Y-118219103D01*
X241117422Y-118219108D01*
X241354755Y-118348702D01*
X241354759Y-118348704D01*
X241354761Y-118348705D01*
X241608133Y-118443208D01*
X241608136Y-118443208D01*
X241608137Y-118443209D01*
X241673879Y-118457510D01*
X241872376Y-118500690D01*
X242122816Y-118518602D01*
X242142108Y-118519982D01*
X242142109Y-118519982D01*
X242142110Y-118519982D01*
X242160114Y-118518694D01*
X242411842Y-118500690D01*
X242676085Y-118443208D01*
X242929457Y-118348705D01*
X243166801Y-118219105D01*
X243383286Y-118057047D01*
X243574503Y-117865830D01*
X243736561Y-117649345D01*
X243866161Y-117412001D01*
X243960664Y-117158629D01*
X244018146Y-116894386D01*
X244035153Y-116656594D01*
X244507716Y-116656594D01*
X244527008Y-116926326D01*
X244527009Y-116926333D01*
X244584488Y-117190564D01*
X244678993Y-117443942D01*
X244678995Y-117443946D01*
X244808589Y-117681279D01*
X244808594Y-117681287D01*
X244970644Y-117897762D01*
X244970660Y-117897780D01*
X245161857Y-118088977D01*
X245161875Y-118088993D01*
X245378350Y-118251043D01*
X245378358Y-118251048D01*
X245615691Y-118380642D01*
X245615695Y-118380644D01*
X245615697Y-118380645D01*
X245869069Y-118475148D01*
X245869072Y-118475148D01*
X245869073Y-118475149D01*
X245948118Y-118492344D01*
X246133312Y-118532630D01*
X246383752Y-118550542D01*
X246403044Y-118551922D01*
X246403045Y-118551922D01*
X246403046Y-118551922D01*
X246421050Y-118550634D01*
X246672778Y-118532630D01*
X246937021Y-118475148D01*
X247190393Y-118380645D01*
X247427737Y-118251045D01*
X247644222Y-118088987D01*
X247835439Y-117897770D01*
X247997497Y-117681285D01*
X247997501Y-117681276D01*
X247998728Y-117679369D01*
X247999307Y-117678866D01*
X248000151Y-117677740D01*
X248000396Y-117677923D01*
X248051531Y-117633613D01*
X248120689Y-117623668D01*
X248184246Y-117652691D01*
X248207362Y-117679369D01*
X248208596Y-117681290D01*
X248370644Y-117897762D01*
X248370660Y-117897780D01*
X248561857Y-118088977D01*
X248561875Y-118088993D01*
X248778350Y-118251043D01*
X248778358Y-118251048D01*
X249015691Y-118380642D01*
X249015695Y-118380644D01*
X249015697Y-118380645D01*
X249269069Y-118475148D01*
X249269072Y-118475148D01*
X249269073Y-118475149D01*
X249348118Y-118492344D01*
X249533312Y-118532630D01*
X249783752Y-118550542D01*
X249803044Y-118551922D01*
X249803045Y-118551922D01*
X249803046Y-118551922D01*
X249821050Y-118550634D01*
X250072778Y-118532630D01*
X250337021Y-118475148D01*
X250590393Y-118380645D01*
X250827737Y-118251045D01*
X251044222Y-118088987D01*
X251235439Y-117897770D01*
X251291626Y-117822713D01*
X252606670Y-117822713D01*
X252617170Y-117925493D01*
X252617171Y-117925494D01*
X252672356Y-118092033D01*
X252672357Y-118092035D01*
X252764456Y-118241349D01*
X252764459Y-118241353D01*
X252888514Y-118365408D01*
X252888518Y-118365411D01*
X253037832Y-118457510D01*
X253037834Y-118457511D01*
X253037836Y-118457512D01*
X253204373Y-118512697D01*
X253307162Y-118523198D01*
X253307167Y-118523198D01*
X254927173Y-118523198D01*
X254927178Y-118523198D01*
X255029967Y-118512697D01*
X255196504Y-118457512D01*
X255345825Y-118365409D01*
X255469881Y-118241353D01*
X255561984Y-118092032D01*
X255617169Y-117925495D01*
X255627670Y-117822706D01*
X255627670Y-116722690D01*
X255617169Y-116619901D01*
X255561984Y-116453364D01*
X255558896Y-116448358D01*
X255469883Y-116304046D01*
X255469880Y-116304042D01*
X255345825Y-116179987D01*
X255345821Y-116179984D01*
X255196507Y-116087885D01*
X255196505Y-116087884D01*
X255113235Y-116060291D01*
X255029967Y-116032699D01*
X255029965Y-116032698D01*
X254927185Y-116022198D01*
X254927178Y-116022198D01*
X253307162Y-116022198D01*
X253307154Y-116022198D01*
X253204374Y-116032698D01*
X253204373Y-116032699D01*
X253037834Y-116087884D01*
X253037832Y-116087885D01*
X252888518Y-116179984D01*
X252888514Y-116179987D01*
X252764459Y-116304042D01*
X252764456Y-116304046D01*
X252672357Y-116453360D01*
X252672356Y-116453362D01*
X252617171Y-116619901D01*
X252617170Y-116619902D01*
X252606670Y-116722682D01*
X252606670Y-117822713D01*
X251291626Y-117822713D01*
X251397497Y-117681285D01*
X251527097Y-117443941D01*
X251621600Y-117190569D01*
X251679082Y-116926326D01*
X251698374Y-116656593D01*
X251679082Y-116386860D01*
X251621600Y-116122617D01*
X251527097Y-115869245D01*
X251509656Y-115837305D01*
X251397500Y-115631906D01*
X251397495Y-115631898D01*
X251235445Y-115415423D01*
X251235429Y-115415405D01*
X251044232Y-115224208D01*
X251044214Y-115224192D01*
X250827739Y-115062142D01*
X250827731Y-115062137D01*
X250590398Y-114932543D01*
X250590394Y-114932541D01*
X250337016Y-114838036D01*
X250072785Y-114780557D01*
X250072778Y-114780556D01*
X249803046Y-114761264D01*
X249803044Y-114761264D01*
X249533311Y-114780556D01*
X249533304Y-114780557D01*
X249269073Y-114838036D01*
X249015695Y-114932541D01*
X249015691Y-114932543D01*
X248778358Y-115062137D01*
X248778350Y-115062142D01*
X248561875Y-115224192D01*
X248561857Y-115224208D01*
X248370660Y-115415405D01*
X248370644Y-115415423D01*
X248208599Y-115631892D01*
X248207357Y-115633825D01*
X248206774Y-115634329D01*
X248205939Y-115635446D01*
X248205695Y-115635264D01*
X248154550Y-115679576D01*
X248085391Y-115689516D01*
X248021837Y-115660487D01*
X247998733Y-115633825D01*
X247997503Y-115631913D01*
X247997497Y-115631901D01*
X247850534Y-115435580D01*
X247835445Y-115415423D01*
X247835429Y-115415405D01*
X247644232Y-115224208D01*
X247644214Y-115224192D01*
X247427739Y-115062142D01*
X247427731Y-115062137D01*
X247190398Y-114932543D01*
X247190394Y-114932541D01*
X246937016Y-114838036D01*
X246672785Y-114780557D01*
X246672778Y-114780556D01*
X246403046Y-114761264D01*
X246403044Y-114761264D01*
X246133311Y-114780556D01*
X246133304Y-114780557D01*
X245869073Y-114838036D01*
X245615695Y-114932541D01*
X245615691Y-114932543D01*
X245378358Y-115062137D01*
X245378350Y-115062142D01*
X245161875Y-115224192D01*
X245161857Y-115224208D01*
X244970660Y-115415405D01*
X244970644Y-115415423D01*
X244808594Y-115631898D01*
X244808589Y-115631906D01*
X244678995Y-115869239D01*
X244678993Y-115869243D01*
X244584488Y-116122621D01*
X244527009Y-116386852D01*
X244527008Y-116386859D01*
X244507716Y-116656591D01*
X244507716Y-116656594D01*
X244035153Y-116656594D01*
X244037438Y-116624653D01*
X244018146Y-116354920D01*
X243960664Y-116090677D01*
X243866161Y-115837305D01*
X243862067Y-115829808D01*
X243736564Y-115599966D01*
X243736559Y-115599958D01*
X243574509Y-115383483D01*
X243574493Y-115383465D01*
X243383296Y-115192268D01*
X243383278Y-115192252D01*
X243166803Y-115030202D01*
X243166795Y-115030197D01*
X242929462Y-114900603D01*
X242929458Y-114900601D01*
X242676080Y-114806096D01*
X242411849Y-114748617D01*
X242411842Y-114748616D01*
X242142110Y-114729324D01*
X242142108Y-114729324D01*
X241872375Y-114748616D01*
X241872368Y-114748617D01*
X241608137Y-114806096D01*
X241354759Y-114900601D01*
X241354755Y-114900603D01*
X241117422Y-115030197D01*
X241117414Y-115030202D01*
X240900939Y-115192252D01*
X240900921Y-115192268D01*
X240709724Y-115383465D01*
X240709708Y-115383483D01*
X240547663Y-115599952D01*
X240546421Y-115601885D01*
X240545838Y-115602389D01*
X240545003Y-115603506D01*
X240544759Y-115603324D01*
X240493614Y-115647636D01*
X240424455Y-115657576D01*
X240360901Y-115628547D01*
X240337797Y-115601885D01*
X240336567Y-115599973D01*
X240336561Y-115599961D01*
X240279279Y-115523441D01*
X240174509Y-115383483D01*
X240174493Y-115383465D01*
X239983296Y-115192268D01*
X239983278Y-115192252D01*
X239766803Y-115030202D01*
X239766795Y-115030197D01*
X239529462Y-114900603D01*
X239529458Y-114900601D01*
X239276080Y-114806096D01*
X239011849Y-114748617D01*
X239011842Y-114748616D01*
X238742110Y-114729324D01*
X238742108Y-114729324D01*
X238472375Y-114748616D01*
X238472368Y-114748617D01*
X238208137Y-114806096D01*
X237954759Y-114900601D01*
X237954755Y-114900603D01*
X237717422Y-115030197D01*
X237717414Y-115030202D01*
X237500939Y-115192252D01*
X237500921Y-115192268D01*
X237309724Y-115383465D01*
X237309708Y-115383483D01*
X237147658Y-115599958D01*
X237147653Y-115599966D01*
X237018059Y-115837299D01*
X237018057Y-115837303D01*
X236923552Y-116090681D01*
X236866073Y-116354912D01*
X236866072Y-116354919D01*
X236846780Y-116624651D01*
X236846780Y-116624654D01*
X220811480Y-116624654D01*
X220806834Y-116582429D01*
X220768786Y-116436894D01*
X220737395Y-116316821D01*
X220654867Y-116122617D01*
X220630021Y-116064148D01*
X220487003Y-115829804D01*
X220456588Y-115793257D01*
X220311398Y-115618792D01*
X220311393Y-115618787D01*
X220311389Y-115618782D01*
X220204983Y-115523441D01*
X220106925Y-115435580D01*
X220106922Y-115435578D01*
X220106921Y-115435577D01*
X219877957Y-115284096D01*
X219629377Y-115167567D01*
X219481960Y-115123216D01*
X219366477Y-115088472D01*
X219233513Y-115068904D01*
X219094867Y-115048500D01*
X218889051Y-115048500D01*
X218889046Y-115048500D01*
X218683793Y-115063523D01*
X218683783Y-115063524D01*
X218415827Y-115123214D01*
X218415822Y-115123216D01*
X218159397Y-115221290D01*
X217919990Y-115355652D01*
X217919985Y-115355655D01*
X217702695Y-115523441D01*
X217702686Y-115523450D01*
X217512147Y-115721080D01*
X217512145Y-115721082D01*
X217352403Y-115944361D01*
X217352400Y-115944366D01*
X217226873Y-116188515D01*
X217226869Y-116188525D01*
X217138230Y-116448344D01*
X217138227Y-116448358D01*
X217088363Y-116718314D01*
X217088361Y-116718334D01*
X217078335Y-116992678D01*
X213226500Y-116992678D01*
X213226500Y-113066295D01*
X213246185Y-112999256D01*
X213298989Y-112953501D01*
X213350500Y-112942295D01*
X214865821Y-112942295D01*
X214913273Y-112951733D01*
X215202828Y-113071672D01*
X215548252Y-113171186D01*
X215902645Y-113231400D01*
X216261552Y-113251556D01*
X216620459Y-113231400D01*
X216974852Y-113171186D01*
X217320276Y-113071672D01*
X217609830Y-112951733D01*
X217657283Y-112942295D01*
X219616873Y-112942295D01*
X219616873Y-106702000D01*
X219636558Y-106634961D01*
X219689362Y-106589206D01*
X219740873Y-106578000D01*
X256762799Y-106578000D01*
X256829838Y-106597685D01*
G37*
%TD.AperFunction*%
%TD*%
M02*
